<svg width="513" height="379" viewBox="0 0 513 379" fill="none" xmlns="http://www.w3.org/2000/svg">
<path opacity="0.3" d="M137.511 76.9692C93.9956 88.4668 59.6374 115.411 54.2124 165C49.6467 206.79 56.0977 280.578 129.38 292.664C271.981 316.136 388.599 323.847 441.053 259.538C473.474 219.805 483.491 108.566 402.834 81.4955C348.136 63.2023 230.851 52.3191 137.511 76.9692Z" fill="#E6E6E6"/>
<path d="M407.771 96.8164H99.7148V255.977H407.771V96.8164Z" fill="#E6E6E6"/>
<g opacity="0.12">
<path opacity="0.12" d="M375.98 190.102H391.742V162.555H375.98V190.102Z" fill="black"/>
<path opacity="0.12" d="M350.293 190.102H366.055V152.487H350.293V190.102Z" fill="black"/>
<path opacity="0.12" d="M324.601 190.102H340.363V136.338H324.601V190.102Z" fill="black"/>
<path opacity="0.12" d="M298.914 190.102H314.676V121.668H298.914V190.102Z" fill="black"/>
</g>
<path opacity="0.08" d="M134.418 223.781V199.532C134.418 199.532 146.666 214.302 152.078 213.186C157.49 212.07 166.044 193.125 172.021 191.733C177.997 190.342 178.574 201.764 183.999 200.096C189.424 198.429 209.072 165.829 217.049 165.265C225.027 164.701 231.016 183.37 238.698 180.311C246.38 177.252 268.337 137.969 279.161 132.402V223.768L134.418 223.781Z" fill="black"/>
<g opacity="0.08">
<path opacity="0.08" d="M289.138 232.28H126.863V111.098H129.428V229.772H289.138V232.28Z" fill="black"/>
</g>
<path opacity="0.08" d="M407.833 175.092V255.951H361.035C359.663 244.103 343.26 240.793 319.764 238.899C293.204 236.743 293.511 190.602 289.895 178.29C286.278 165.977 297.192 167.231 297.192 167.231C297.192 167.231 304.887 202.877 321.867 211.553C338.848 220.23 336.347 201.523 341.477 175.819C346.607 150.116 385.082 158.717 385.082 158.717L386.8 143.671C386.8 143.671 380.093 137.778 380.016 129.503C379.939 121.228 383.863 121.604 383.863 121.604L393.867 126.018L396.137 142.117L407.833 175.092Z" fill="black"/>
<path d="M302.886 174.581C302.886 174.581 303.515 164.475 296.884 161.943C290.254 159.41 296.884 177.791 296.884 177.791L302.886 174.581Z" fill="#F4A28C"/>
<path d="M379.464 161.577C378.273 160.233 376.802 159.152 375.15 158.406C373.498 157.66 371.703 157.266 369.883 157.25C368.063 157.235 366.261 157.598 364.597 158.316C362.932 159.034 361.442 160.09 360.227 161.414C351.932 170.354 347.258 181.945 347.081 194.014C346.222 221.986 326.01 219.215 305.002 173.426L294.832 178.855C294.832 178.855 322.662 269.306 365.177 218.012C391.161 186.804 386.787 169.978 379.464 161.577Z" fill="#9ED6BE"/>
<path opacity="0.08" d="M375.067 157.614C373.384 156.398 371.323 155.789 369.233 155.89C367.144 155.99 365.154 156.794 363.601 158.165C358.482 162.716 354.377 168.248 351.539 174.417C348.702 180.587 347.193 187.261 347.108 194.025C346.249 221.997 326.037 219.226 305.03 173.437L294.859 178.866C294.859 178.866 322.69 269.317 365.205 218.023C396.1 180.721 383.993 163.995 375.067 157.614Z" fill="black"/>
<path d="M387.675 126.671C387.171 130.303 387.171 133.985 387.675 137.617C387.871 138.467 388.403 139.208 389.154 139.677C389.906 140.147 390.817 140.308 391.689 140.124C393.113 139.918 394.446 139.314 395.527 138.384C396.608 137.454 397.391 136.238 397.781 134.883L400.141 129.316C400.473 128.138 400.424 126.887 399.999 125.738C399.574 124.588 398.794 123.595 397.768 122.897C394.049 120.013 388.008 122.671 387.675 126.671Z" fill="#F4A28C"/>
<path d="M399.691 130.293L402.192 151.746L390.008 152.247L393.073 136.437L399.691 130.293Z" fill="#F4A28C"/>
<path d="M389.329 127.021C391.403 127.187 393.49 127.12 395.549 126.82C394.907 127.688 394.54 128.72 394.492 129.79C394.444 130.859 394.718 131.919 395.279 132.838C395.804 133.74 396.634 134.435 397.627 134.804C398.619 135.172 399.712 135.191 400.717 134.857L400.999 126.406C401.08 125.197 400.825 123.988 400.26 122.909C399.696 121.829 398.843 120.919 397.793 120.275C396.884 119.712 395.937 119.209 394.959 118.77C392.522 117.692 388.803 119.159 386.635 117.416C386.419 117.254 386.163 117.148 385.893 117.108C385.623 117.068 385.347 117.095 385.091 117.188C384.835 117.281 384.607 117.435 384.428 117.638C384.25 117.84 384.127 118.083 384.07 118.344C383.57 120.852 383.852 124.964 387.353 126.532C387.983 126.792 388.649 126.957 389.329 127.021Z" fill="#24285B"/>
<path d="M394.574 132.614C394.574 132.614 394.728 130.107 396.677 130.357C398.627 130.608 398.396 134.307 395.728 134.533L394.574 132.614Z" fill="#F4A28C"/>
<path d="M387.314 130.82L385.326 133.328C385.214 133.467 385.139 133.632 385.109 133.808C385.079 133.983 385.094 134.163 385.154 134.33C385.215 134.498 385.317 134.648 385.453 134.767C385.588 134.885 385.752 134.968 385.929 135.008L388.494 135.597L387.314 130.82Z" fill="#F4A28C"/>
<path opacity="0.31" d="M392.254 139.874C393.786 139.566 395.191 138.825 396.294 137.742C396.294 137.742 395.948 141.679 391.344 145.391L392.254 139.874Z" fill="#CE8172"/>
<path d="M377.425 151.998C377.425 151.998 422.71 142.081 438.985 150.983C455.26 159.885 423.364 243.665 423.364 243.665L373.347 242.111C373.347 242.111 329.601 160.512 377.425 151.998Z" fill="#9ED6BE"/>
<path opacity="0.08" d="M416.812 158.742C416.812 158.742 402.512 167.807 409.784 188.508C417.056 209.209 418.261 224.041 401.076 218.85C383.89 213.66 385.147 190.489 385.147 190.489L367.564 193.135L365.871 226.022L373.31 242.109L416.812 239.438L434.51 235.025L441.051 213.321L429.034 176.572L416.812 158.742Z" fill="black"/>
<path d="M392.29 284.878C392.52 271.011 394.38 257.884 400.241 254.787C406.884 251.201 410.912 267.463 413.284 284.878H425.263V238.926L373.309 242.161L380.132 284.929L392.29 284.878Z" fill="#24285B"/>
<path d="M425.574 148.339C425.574 148.339 453.789 143.712 453.789 187.044C453.789 230.376 447.017 268.969 381.969 230.301L386.919 222.929C386.919 222.929 421.931 237.974 429.383 224.759C436.834 211.544 400.142 155.648 425.574 148.339Z" fill="#9ED6BE"/>
<path opacity="0.46" d="M425.574 148.339C425.574 148.339 453.789 143.712 453.789 187.044C453.789 230.376 447.017 268.969 381.969 230.301L386.919 222.929C386.919 222.929 421.931 237.974 429.383 224.759C436.834 211.544 400.142 155.648 425.574 148.339Z" fill="white"/>
<path d="M374.074 186.907L350.219 192.773L359.201 227.683L383.056 221.816L374.074 186.907Z" fill="#FFD200"/>
<path d="M386.905 222.927C386.905 222.927 375.17 213.837 373.31 220.783C371.45 227.729 383.647 227.779 383.647 227.779L386.905 222.927Z" fill="#F4A28C"/>
<path opacity="0.08" d="M239.483 121.68H210.922V126.382H239.483V121.68Z" fill="black"/>
<path opacity="0.08" d="M239.483 134.082H210.922V138.784H239.483V134.082Z" fill="black"/>
<path opacity="0.46" d="M202.031 121.68H193.605V126.382H202.031V121.68Z" fill="white"/>
<path d="M202.031 134.082H193.605V138.784H202.031V134.082Z" fill="#FFD200"/>
<path opacity="0.46" d="M183.307 132.413C183.321 137.071 181.504 141.556 178.233 144.941C174.961 148.327 170.484 150.355 165.726 150.606C160.969 150.858 156.295 149.313 152.669 146.291C149.043 143.27 146.743 139.002 146.243 134.37C145.744 129.738 147.083 125.095 149.984 121.401C152.886 117.706 157.128 115.242 161.834 114.518C166.54 113.794 171.352 114.864 175.274 117.508C179.196 120.153 181.93 124.168 182.91 128.727C183.012 129.203 183.089 129.705 183.166 130.194C183.26 130.93 183.307 131.671 183.307 132.413Z" fill="white"/>
<path d="M164.777 114.27V132.388L182.925 128.701C182.925 128.701 180.385 114.182 164.777 114.27Z" fill="#FFD200"/>
<path opacity="0.1" d="M183.307 132.413C183.304 135.693 182.39 138.91 180.664 141.722C178.937 144.534 176.462 146.835 173.502 148.379C170.543 149.924 167.21 150.654 163.859 150.492C160.508 150.33 157.266 149.281 154.477 147.459L164.737 132.413L182.871 128.727C182.974 129.203 183.051 129.705 183.128 130.194C183.234 130.929 183.294 131.67 183.307 132.413Z" fill="black"/>
<path opacity="0.08" d="M165.764 162.168C166.316 162.168 166.482 162.344 166.482 162.883V164.036C167.45 164.128 168.374 164.477 169.154 165.045C169.934 165.613 170.54 166.378 170.907 167.258C171.202 167.823 171.087 168.124 170.433 168.412L169.265 168.939C168.714 169.189 168.458 169.077 168.137 168.525C167.888 167.943 167.454 167.455 166.9 167.133C166.346 166.81 165.701 166.669 165.059 166.732C163.02 166.732 162.096 167.346 162.109 168.675C162.156 169.083 162.347 169.461 162.649 169.745C162.951 170.029 163.346 170.2 163.764 170.23C164.333 170.356 164.912 170.44 165.495 170.481C166.583 170.529 167.658 170.727 168.688 171.07C169.202 171.228 169.68 171.479 170.099 171.81C170.526 172.244 170.859 172.757 171.08 173.319C171.3 173.881 171.403 174.481 171.382 175.082C171.382 177.59 169.663 179.37 166.572 179.834V181.088C166.572 181.615 166.406 181.815 165.854 181.815H164.572C164.02 181.815 163.828 181.64 163.828 181.101V179.91C162.755 179.842 161.727 179.467 160.872 178.832C160.016 178.196 159.372 177.328 159.018 176.336C158.967 176.231 158.941 176.116 158.941 176C158.942 175.884 158.969 175.769 159.02 175.665C159.072 175.56 159.147 175.468 159.24 175.395C159.333 175.323 159.441 175.272 159.557 175.245L160.737 174.819C161.327 174.606 161.596 174.744 161.865 175.333C162.113 175.961 162.564 176.491 163.151 176.842C163.737 177.194 164.426 177.346 165.11 177.277C167.316 177.277 168.406 176.574 168.406 175.195C168.42 174.875 168.324 174.559 168.133 174.298C167.943 174.037 167.669 173.845 167.355 173.753C166.592 173.487 165.791 173.339 164.982 173.314C163.885 173.264 162.803 173.044 161.776 172.662C161.268 172.489 160.795 172.23 160.378 171.898C159.951 171.485 159.616 170.989 159.396 170.443C159.175 169.897 159.073 169.312 159.095 168.725C159.095 166.218 160.686 164.5 163.751 164.074V162.933C163.751 162.394 163.93 162.206 164.482 162.206L165.764 162.168Z" fill="black"/>
<path d="M444.591 272.141H61.6875V285.72H444.591V272.141Z" fill="#E6E6E6"/>
<path d="M444.591 285.09H61.6875V315.859H444.591V285.09Z" fill="#C9C9C9"/>
<path opacity="0.08" d="M117.181 272.554C117.181 272.554 104.356 304.79 74.0117 315.849H270.824L266.887 298.157L138.432 272.141L117.181 272.554Z" fill="black"/>
<path d="M154.965 214.715C154.965 214.715 175.485 229.761 184.232 250.863C185.331 253.472 185.759 256.306 185.478 259.115C185.197 261.923 184.215 264.622 182.618 266.974C181.022 269.325 178.86 271.258 176.322 272.602C173.783 273.947 170.946 274.662 168.06 274.685L144 274.848L154.965 214.715Z" fill="#F4A28C"/>
<path d="M131.096 194.414L129.236 204.921L119.566 205.611L125.453 188.797L131.096 194.414Z" fill="#F4A28C"/>
<path d="M127.712 178.88C128.553 178.216 129.552 177.771 130.616 177.586C131.68 177.4 132.775 177.481 133.798 177.82C134.822 178.159 135.741 178.745 136.471 179.525C137.201 180.304 137.717 181.251 137.972 182.278C139.255 187.093 140.191 194.139 134.471 194.716C125.737 195.593 124.211 184.572 124.211 184.572C124.781 182.38 125.999 180.4 127.712 178.88Z" fill="#F4A28C"/>
<path d="M129.39 186.816C129.39 186.816 128.492 184.609 126.696 186.126C124.901 187.643 127.299 190.088 128.697 189.574C130.095 189.06 129.39 186.816 129.39 186.816Z" fill="#F4A28C"/>
<path d="M93.8164 210.703C93.8164 210.703 117.132 198.052 137.87 205.612C175.627 219.404 173.549 244.117 147.04 315.021L112.272 315.209L93.8164 210.703Z" fill="#9ED6BE"/>
<path opacity="0.08" d="M129.533 203.58C129.533 203.58 127.288 208.984 131.148 224.682C135.009 240.38 155.016 293.003 155.016 293.003L147.09 315.02H134.432L95.5078 209.862C95.5078 209.862 113.091 200.947 129.533 203.58Z" fill="black"/>
<path d="M137.421 315.21C137.421 315.21 144.565 218.189 102.204 210.704C59.8428 203.218 45.7738 238.802 70.5261 315.21H137.421Z" fill="#FFD200"/>
<path d="M127.068 315.21C127.068 315.21 134.225 218.189 91.8638 210.704C49.5029 203.218 35.4338 238.802 60.1733 315.21H127.068Z" fill="#FFD200"/>
<path opacity="0.08" d="M127.068 315.21C127.068 315.21 134.225 218.189 91.8638 210.704C49.5029 203.218 35.4338 238.802 60.1733 315.21H127.068Z" fill="black"/>
<path d="M117.373 199.529C118.781 197.743 119.72 195.647 120.107 193.424C120.493 191.2 120.317 188.919 119.592 186.778C118.528 183.493 118.605 179.255 122.414 174.866C130.865 165.074 142.934 171.983 138.932 177.55C134.931 183.117 132.738 185.637 132.738 185.637C132.738 185.637 147.32 200.683 139.715 209.76C132.956 217.848 105.331 214.412 117.373 199.529Z" fill="#24285B"/>
<path d="M248.998 194.414L247.139 204.921L237.469 205.611L243.355 188.797L248.998 194.414Z" fill="#F4A28C"/>
<path d="M245.611 178.88C246.451 178.216 247.45 177.771 248.514 177.586C249.578 177.4 250.673 177.481 251.697 177.82C252.72 178.159 253.64 178.745 254.369 179.525C255.099 180.304 255.616 181.251 255.871 182.278C257.153 187.093 258.076 194.139 252.369 194.716C243.636 195.593 242.109 184.572 242.109 184.572C242.68 182.38 243.897 180.4 245.611 178.88Z" fill="#F4A28C"/>
<path d="M247.292 186.816C247.292 186.816 246.394 184.609 244.599 186.126C242.803 187.643 245.201 190.088 246.599 189.574C247.997 189.06 247.292 186.816 247.292 186.816Z" fill="#F4A28C"/>
<path d="M249.472 184.975C249.472 184.975 247.638 196.259 242.034 192.585C236.429 188.912 241.919 186.479 241.303 180.687C240.687 174.894 243.868 172.85 250.357 171.484C253.358 170.857 255.192 170.794 256.513 170.33C257.083 170.11 257.7 170.034 258.308 170.111C258.915 170.188 259.493 170.414 259.986 170.769C260.48 171.124 260.873 171.595 261.129 172.139C261.385 172.683 261.496 173.281 261.451 173.878C260.976 178.342 258.296 183.232 249.472 184.975Z" fill="#24285B"/>
<path d="M211.715 210.703C211.715 210.703 235.031 198.052 255.769 205.612C293.526 219.404 291.32 244.982 264.746 315.949L230.85 315.685L211.715 210.703Z" fill="#9ED6BE"/>
<path opacity="0.08" d="M247.524 204.069C247.524 204.069 245.293 209.46 249.153 225.158C253.013 240.856 273.007 293.479 273.007 293.479L265.082 315.509H252.436L213.551 210.338C213.551 210.338 231.083 201.423 247.524 204.069Z" fill="black"/>
<path d="M255.769 315.887C255.769 315.887 262.451 218.189 220.103 210.704C177.755 203.218 163.673 238.802 188.413 315.21L255.769 315.887Z" fill="#FFD200"/>
<path d="M244.957 315.209C244.957 315.209 252.101 218.188 209.74 210.703C167.379 203.218 154.323 239.955 179.088 316.375L244.957 315.209Z" fill="#FFD200"/>
<path opacity="0.08" d="M244.956 315.773C244.956 315.773 252.163 218.188 209.802 210.703C167.441 203.218 154.386 239.955 179.151 316.375L244.956 315.773Z" fill="black"/>
<path d="M252.344 230.237C253.062 216.921 270.363 211.53 278.917 221.924C285.535 229.948 290.088 241.772 289.562 259.2C289.245 269.707 291.15 280.165 295.158 289.919C299.165 299.672 305.189 308.513 312.852 315.885H288.151C288.151 315.885 267.17 291.637 255.768 253.357C252.896 243.703 252.023 236.142 252.344 230.237Z" fill="#9ED6BE"/>
</svg>
