<svg width="310" height="216" viewBox="0 0 310 216" fill="none" xmlns="http://www.w3.org/2000/svg">
<g clip-path="url(#clip0_21_149)">
<path opacity="0.3" d="M92.0251 8.79386C61.707 18.2841 10.3988 33.905 2.01485 74.4035C-4.25785 104.722 -1.35495 183.902 55.8098 203.248C132.706 229.292 265.326 216.605 294.01 158.192C312.432 120.698 317.355 45.07 260.952 22.4456C222.737 7.11911 157.137 -11.5264 92.0251 8.79386Z" fill="#E6E6E6"/>
<path d="M152.56 51.9009H147.099V96.906H152.56V51.9009Z" fill="#E6E6E6"/>
<path d="M245.781 44.1524L227.93 80.0513L232.819 82.4827L250.671 46.5838L245.781 44.1524Z" fill="#E6E6E6"/>
<path d="M168.992 134.238L165.526 138.458L210.805 175.65L214.271 171.43L168.992 134.238Z" fill="#E6E6E6"/>
<path d="M216.728 174.787C216.967 174.422 217.104 174 217.124 173.564C217.144 173.128 217.045 172.695 216.839 172.31L211.957 174.746C210.699 172.229 212.972 170.494 218.372 166.292C221.529 163.856 225.974 160.567 231.567 156.527C241.098 149.656 250.852 142.896 250.943 142.825L254.06 147.311C239.687 157.299 218.595 172.422 216.728 174.787Z" fill="#E6E6E6"/>
<path d="M172.21 116.201L170.292 111.085L227.964 89.3644L294.964 85.9946L295.248 91.4553L229.091 94.7845L172.21 116.201Z" fill="#E6E6E6"/>
<path d="M122.567 139.962L79.7958 166.824L82.7 171.448L125.471 144.587L122.567 139.962Z" fill="#E6E6E6"/>
<path d="M99.0946 81.3745L95.0042 84.9922L121.968 115.481L126.059 111.863L99.0946 81.3745Z" fill="#E6E6E6"/>
<path d="M25.6643 123.316L23.0152 118.536L74.7599 89.8619L18.9653 47.577L22.2641 43.2227L84.7475 90.5724L25.6643 123.316Z" fill="#E6E6E6"/>
<path d="M182.939 122.728C182.942 116.813 181.495 110.989 178.724 105.763C175.954 100.538 171.945 96.0718 167.048 92.7556C162.151 89.4393 156.515 87.3743 150.635 86.7414C144.755 86.1085 138.809 86.927 133.319 89.1252C127.828 91.3234 122.96 94.8342 119.141 99.3502C115.323 103.866 112.669 109.25 111.414 115.029C110.158 120.808 110.339 126.808 111.94 132.501C113.541 138.194 116.514 143.408 120.597 147.686C125.727 153.155 128.557 160.387 128.504 167.885V169.123H164.303V168.21C164.373 160.605 167.398 153.325 172.738 147.91C179.296 141.169 182.957 132.131 182.939 122.728V122.728Z" fill="#FFD200"/>
<path d="M137.05 169.214C136.758 169.215 136.475 169.114 136.249 168.929C136.023 168.744 135.869 168.486 135.812 168.199L128.25 122.433C128.223 122.27 128.228 122.103 128.265 121.941C128.303 121.78 128.371 121.628 128.467 121.493C128.564 121.358 128.685 121.244 128.826 121.156C128.966 121.068 129.122 121.009 129.286 120.982C129.449 120.954 129.616 120.959 129.777 120.997C129.939 121.034 130.091 121.103 130.226 121.199C130.361 121.295 130.475 121.417 130.563 121.557C130.651 121.697 130.71 121.854 130.737 122.017L138.299 167.783C138.352 168.11 138.276 168.444 138.086 168.715C137.897 168.987 137.609 169.173 137.284 169.235L137.05 169.214Z" fill="white"/>
<path d="M155.97 169.215H155.757C155.432 169.153 155.144 168.967 154.954 168.695C154.765 168.424 154.688 168.09 154.742 167.763L162.304 121.997C162.359 121.667 162.543 121.373 162.815 121.179C163.087 120.985 163.425 120.906 163.755 120.962C164.085 121.017 164.379 121.201 164.573 121.473C164.767 121.745 164.845 122.083 164.79 122.413L157.229 168.179C157.176 168.473 157.02 168.739 156.789 168.928C156.559 169.118 156.268 169.219 155.97 169.215Z" fill="white"/>
<path d="M167.247 163.571H126.271V195.919H167.247V163.571Z" fill="#24285B"/>
<path d="M150.479 131.68C148.885 131.68 147.343 130.726 145.881 128.828C145.292 128.056 144.714 127.701 144.176 127.742C142.958 127.853 141.577 129.822 141.131 130.787C140.979 131.084 140.715 131.309 140.397 131.412C140.079 131.515 139.733 131.487 139.436 131.335C139.138 131.183 138.913 130.919 138.811 130.601C138.708 130.283 138.736 129.937 138.888 129.64C139.101 129.224 141.06 125.519 143.963 125.255C144.74 125.213 145.515 125.379 146.207 125.736C146.899 126.093 147.484 126.627 147.901 127.285C148.601 128.188 149.647 129.254 150.651 129.142C151.819 129.021 152.844 127.417 153.108 126.869C153.258 126.58 153.515 126.361 153.823 126.258C154.131 126.154 154.468 126.174 154.762 126.313C155.056 126.452 155.285 126.7 155.4 127.004C155.516 127.308 155.509 127.645 155.381 127.945C155.219 128.29 153.696 131.355 150.926 131.649L150.479 131.68Z" fill="white"/>
<path opacity="0.21" d="M169.737 107.334C171.666 102.885 168.614 97.2778 162.92 94.8093C157.227 92.3408 151.048 93.9462 149.119 98.395C147.19 102.844 150.242 108.451 155.936 110.92C161.629 113.388 167.808 111.783 169.737 107.334Z" fill="white"/>
<path d="M133.011 195.919H160.527C160.527 197.576 160.201 199.217 159.567 200.748C158.933 202.278 158.004 203.669 156.832 204.841C155.661 206.012 154.27 206.941 152.739 207.576C151.208 208.21 149.568 208.536 147.911 208.536H145.627C142.281 208.536 139.072 207.207 136.706 204.841C134.34 202.475 133.011 199.266 133.011 195.919V195.919Z" fill="#24285B"/>
<path d="M95.9327 61.5737H63.5847C59.2683 61.5737 55.7692 65.0728 55.7692 69.3892V101.737C55.7692 106.054 59.2683 109.553 63.5847 109.553H95.9327C100.249 109.553 103.748 106.054 103.748 101.737V69.3892C103.748 65.0728 100.249 61.5737 95.9327 61.5737Z" fill="#9ED6BE"/>
<path d="M244.701 70.5264H212.353C208.037 70.5264 204.538 74.0255 204.538 78.3419V110.69C204.538 115.006 208.037 118.505 212.353 118.505H244.701C249.018 118.505 252.517 115.006 252.517 110.69V78.3419C252.517 74.0255 249.018 70.5264 244.701 70.5264Z" fill="#9ED6BE"/>
<path opacity="0.09" d="M244.701 70.5264H212.353C208.037 70.5264 204.538 74.0255 204.538 78.3419V110.69C204.538 115.006 208.037 118.505 212.353 118.505H244.701C249.018 118.505 252.517 115.006 252.517 110.69V78.3419C252.517 74.0255 249.018 70.5264 244.701 70.5264Z" fill="black"/>
<path d="M89.2337 142.287H56.8857C52.5693 142.287 49.0702 145.786 49.0702 150.102V182.45C49.0702 186.767 52.5693 190.266 56.8857 190.266H89.2337C93.5501 190.266 97.0492 186.767 97.0492 182.45V150.102C97.0492 145.786 93.5501 142.287 89.2337 142.287Z" fill="#9ED6BE"/>
<path opacity="0.6" d="M89.2337 142.287H56.8857C52.5693 142.287 49.0702 145.786 49.0702 150.102V182.45C49.0702 186.767 52.5693 190.266 56.8857 190.266H89.2337C93.5501 190.266 97.0492 186.767 97.0492 182.45V150.102C97.0492 145.786 93.5501 142.287 89.2337 142.287Z" fill="white"/>
<path d="M226.279 155.908H202.518C199.351 155.908 196.783 158.476 196.783 161.643V185.404C196.783 188.571 199.351 191.139 202.518 191.139H226.279C229.446 191.139 232.014 188.571 232.014 185.404V161.643C232.014 158.476 229.446 155.908 226.279 155.908Z" fill="#9ED6BE"/>
<path d="M165.673 21.9077H133.995C129.774 21.9077 126.352 25.3296 126.352 29.5507V61.2288C126.352 65.4499 129.774 68.8718 133.995 68.8718H165.673C169.894 68.8718 173.316 65.4499 173.316 61.2288V29.5507C173.316 25.3296 169.894 21.9077 165.673 21.9077Z" fill="#9ED6BE"/>
<path opacity="0.46" d="M165.673 21.9077H133.995C129.774 21.9077 126.352 25.3296 126.352 29.5507V61.2288C126.352 65.4499 129.774 68.8718 133.995 68.8718H165.673C169.894 68.8718 173.316 65.4499 173.316 61.2288V29.5507C173.316 25.3296 169.894 21.9077 165.673 21.9077Z" fill="white"/>
<path d="M30.1202 29.4897H10.2973C7.65697 29.4897 5.5166 31.6301 5.5166 34.2704V54.0933C5.5166 56.7336 7.65697 58.874 10.2973 58.874H30.1202C32.7605 58.874 34.9009 56.7336 34.9009 54.0933V34.2704C34.9009 31.6301 32.7605 29.4897 30.1202 29.4897Z" fill="#9ED6BE"/>
<path opacity="0.46" d="M30.1202 29.4897H10.2973C7.65697 29.4897 5.5166 31.6301 5.5166 34.2704V54.0933C5.5166 56.7336 7.65697 58.874 10.2973 58.874H30.1202C32.7605 58.874 34.9009 56.7336 34.9009 54.0933V34.2704C34.9009 31.6301 32.7605 29.4897 30.1202 29.4897Z" fill="white"/>
<path d="M31.0133 111.015H17.6559C15.8733 111.015 14.4282 112.46 14.4282 114.242V127.6C14.4282 129.382 15.8733 130.827 17.6559 130.827H31.0133C32.7959 130.827 34.241 129.382 34.241 127.6V114.242C34.241 112.46 32.7959 111.015 31.0133 111.015Z" fill="#9ED6BE"/>
<path opacity="0.09" d="M31.0133 111.015H17.6559C15.8733 111.015 14.4282 112.46 14.4282 114.242V127.6C14.4282 129.382 15.8733 130.827 17.6559 130.827H31.0133C32.7959 130.827 34.241 129.382 34.241 127.6V114.242C34.241 112.46 32.7959 111.015 31.0133 111.015Z" fill="black"/>
<path d="M257.003 132.38H243.646C241.863 132.38 240.418 133.825 240.418 135.608V148.965C240.418 150.748 241.863 152.193 243.646 152.193H257.003C258.786 152.193 260.231 150.748 260.231 148.965V135.608C260.231 133.825 258.786 132.38 257.003 132.38Z" fill="#9ED6BE"/>
<path opacity="0.6" d="M257.003 132.38H243.646C241.863 132.38 240.418 133.825 240.418 135.608V148.965C240.418 150.748 241.863 152.193 243.646 152.193H257.003C258.786 152.193 260.231 150.748 260.231 148.965V135.608C260.231 133.825 258.786 132.38 257.003 132.38Z" fill="white"/>
<path d="M251.522 35.4883H238.165C236.382 35.4883 234.937 36.9334 234.937 38.716V52.0734C234.937 53.856 236.382 55.3011 238.165 55.3011H251.522C253.305 55.3011 254.75 53.856 254.75 52.0734V38.716C254.75 36.9334 253.305 35.4883 251.522 35.4883Z" fill="#9ED6BE"/>
<path opacity="0.6" d="M251.522 35.4883H238.165C236.382 35.4883 234.937 36.9334 234.937 38.716V52.0734C234.937 53.856 236.382 55.3011 238.165 55.3011H251.522C253.305 55.3011 254.75 53.856 254.75 52.0734V38.716C254.75 36.9334 253.305 35.4883 251.522 35.4883Z" fill="white"/>
<path d="M304.972 69.6431H282.165C279.121 69.6431 276.654 72.1106 276.654 75.1545V97.9616C276.654 101.005 279.121 103.473 282.165 103.473H304.972C308.016 103.473 310.484 101.005 310.484 97.9616V75.1545C310.484 72.1106 308.016 69.6431 304.972 69.6431Z" fill="#9ED6BE"/>
<path d="M107.646 22.4966H84.7474V45.395H107.646V22.4966Z" fill="#E6E6E6"/>
<path d="M214.272 39.8936H197.23V52.5506H214.272V39.8936Z" fill="#E6E6E6"/>
</g>
<defs>
<clipPath id="clip0_21_149">
<rect width="310" height="216" fill="white"/>
</clipPath>
</defs>
</svg>
