<svg width="286" height="278" viewBox="0 0 286 278" fill="none" xmlns="http://www.w3.org/2000/svg">
<path d="M285.573 0H79.0078V256.276H285.573V0Z" fill="#E6E6E6"/>
<path opacity="0.08" d="M285.573 0H79.0078V73.1136H285.573V0Z" fill="black"/>
<path opacity="0.44" d="M102.464 11.0938H262.244C266.153 11.0938 269.306 14.2452 269.306 18.153V55.088C269.306 58.9958 266.153 62.1472 262.244 62.1472H102.464C98.5554 62.1472 95.4023 58.9958 95.4023 55.088V18.153C95.4023 14.2452 98.5554 11.0938 102.464 11.0938Z" fill="white"/>
<path opacity="0.08" d="M134.117 92.1484H93.2578V121.898H134.117V92.1484Z" fill="black"/>
<path opacity="0.08" d="M180.148 92.1484H139.289V121.898H180.148V92.1484Z" fill="black"/>
<path opacity="0.08" d="M226.304 92.1484H185.445V121.898H226.304V92.1484Z" fill="black"/>
<path opacity="0.08" d="M272.457 92.1484H231.598V121.898H272.457V92.1484Z" fill="black"/>
<path opacity="0.08" d="M134.117 129.211H93.2578V158.961H134.117V129.211Z" fill="black"/>
<path opacity="0.08" d="M180.148 129.211H139.289V158.961H180.148V129.211Z" fill="black"/>
<path opacity="0.08" d="M226.304 129.211H185.445V158.961H226.304V129.211Z" fill="black"/>
<path opacity="0.08" d="M272.457 129.211H231.598V158.961H272.457V129.211Z" fill="black"/>
<path opacity="0.08" d="M134.117 166.266H93.2578V196.015H134.117V166.266Z" fill="black"/>
<path opacity="0.08" d="M180.148 166.266H139.289V196.015H180.148V166.266Z" fill="black"/>
<path opacity="0.08" d="M226.304 166.266H185.445V196.015H226.304V166.266Z" fill="black"/>
<path opacity="0.08" d="M180.273 203.328H93.2578V233.078H180.273V203.328Z" fill="black"/>
<path opacity="0.08" d="M226.304 203.328H185.445V233.078H226.304V203.328Z" fill="black"/>
<path d="M272.457 166.266H231.598V233.076H272.457V166.266Z" fill="#FFD200"/>
<path opacity="0.2" d="M156.187 117.106C163.012 117.106 168.545 111.575 168.545 104.752C168.545 97.9294 163.012 92.3984 156.187 92.3984C149.361 92.3984 143.828 97.9294 143.828 104.752C143.828 111.575 149.361 117.106 156.187 117.106Z" fill="#FFD200"/>
<path opacity="0.08" d="M158.458 122.023L129.957 164.253L106.249 159.084L84.1797 125.301V178.75C95.9077 188.582 112.68 200.179 124.03 196.776C142.946 191.103 170.816 164.001 158.458 122.023Z" fill="black"/>
<path d="M156.187 110.932C159.6 110.932 162.366 108.166 162.366 104.755C162.366 101.344 159.6 98.5781 156.187 98.5781C152.774 98.5781 150.008 101.344 150.008 104.755C150.008 108.166 152.774 110.932 156.187 110.932Z" fill="#FFD200"/>
<path d="M17.8457 110.68C17.8457 110.68 -10.7803 132.11 4.47873 178.247C19.7377 224.384 52.2737 201.946 52.2737 201.946V164.254L17.8457 110.68Z" fill="#9ED6BE"/>
<path opacity="0.46" d="M17.8457 110.68C17.8457 110.68 -10.7803 132.11 4.47873 178.247C19.7377 224.384 52.2737 201.946 52.2737 201.946V164.254L17.8457 110.68Z" fill="white"/>
<path d="M90.2337 270.141L96.0347 274.679C96.6657 275.183 96.7917 275.939 96.2867 276.57C96.0347 276.948 95.6567 277.074 95.1517 277.074H87.8377C85.6937 277.074 84.0547 275.309 84.0547 273.292V270.141H90.2337Z" fill="#9ED6BE"/>
<path d="M28.943 270.141L23.142 274.679C22.511 275.183 22.385 275.939 22.889 276.57C23.142 276.948 23.52 277.074 24.024 277.074H31.339C33.482 277.074 35.122 275.309 35.122 273.292V270.141H28.943Z" fill="#9ED6BE"/>
<path d="M52.2734 104.749L53.2824 88.488C53.2824 88.488 54.4174 78.0252 59.7144 79.9161C65.0104 81.8069 70.4334 92.1437 67.6594 95.2951C66.1454 97.06 64.5064 95.9254 62.4884 96.1775C60.7234 96.3036 60.9754 96.0515 60.9754 97.8163V103.993L52.2734 104.749Z" fill="#F4A28C"/>
<path d="M47.1028 103.995C47.1028 103.995 14.4398 101.096 10.1528 123.156C5.86482 145.216 36.2568 186.815 36.2568 186.815L78.6298 185.177C78.6298 185.177 144.458 92.6505 47.1028 103.995Z" fill="#9ED6BE"/>
<path opacity="0.08" d="M75.8558 112.82C75.8558 112.82 50.5078 128.199 62.9928 151.394C70.9368 166.395 50.5078 186.186 50.5078 186.186L78.6298 185.052C78.6298 185.052 88.8448 169.799 90.9888 163.874C93.1318 158.075 75.8558 112.82 75.8558 112.82Z" fill="black"/>
<path d="M36.2569 186.818L26.5469 270.143H36.0049L57.0649 203.206L80.7729 270.143H91.4929L78.6299 185.18L36.2569 186.818Z" fill="#24285B"/>
<path d="M52.275 97.9469H57.446C57.446 97.9469 58.581 88.4926 62.112 86.7277C65.643 84.9629 69.3 81.5594 66.147 78.4079C62.994 75.2565 58.328 71.7268 53.032 75.3825C47.735 79.1643 45.718 88.1144 52.275 97.9469Z" fill="#24285B"/>
<path d="M73.3309 118.114C74.8439 111.181 81.6539 106.769 88.4639 108.282C90.6079 108.786 92.4989 109.668 94.1389 111.055C98.1739 114.584 102.21 119.879 104.984 128.073C108.137 137.401 112.803 146.225 118.856 154.041C121.504 157.318 126.17 157.822 129.449 155.175C130.332 154.545 130.962 153.662 131.467 152.78L148.365 119.375L158.328 124.921C158.328 124.921 146.726 174.588 129.449 179.378C114.19 183.79 65.1339 154.797 73.3309 118.114Z" fill="#9ED6BE"/>
<path opacity="0.46" d="M73.3309 118.114C74.8439 111.181 81.6539 106.769 88.4639 108.282C90.6079 108.786 92.4989 109.668 94.1389 111.055C98.1739 114.584 102.21 119.879 104.984 128.073C108.137 137.401 112.803 146.225 118.856 154.041C121.504 157.318 126.17 157.822 129.449 155.175C130.332 154.545 130.962 153.662 131.467 152.78L148.365 119.375L158.328 124.921C158.328 124.921 146.726 174.588 129.449 179.378C114.19 183.79 65.1339 154.797 73.3309 118.114Z" fill="white"/>
<path d="M150.512 120.639C150.512 120.639 152.403 104.377 156.313 102.99C160.348 101.73 156.313 112.823 156.313 112.823C156.313 112.823 167.284 114.084 158.33 124.925L150.512 120.639Z" fill="#F4A28C"/>
</svg>
