<svg width="351" height="229" viewBox="0 0 351 229" fill="none" xmlns="http://www.w3.org/2000/svg">
<g clip-path="url(#clip0_21_185)">
<path d="M58.4122 127.202V123.7C58.4122 122.43 58.917 121.211 59.8154 120.313C60.7139 119.414 61.9324 118.91 63.203 118.91H67.6995C68.9666 118.915 70.1799 119.422 71.074 120.32C71.968 121.218 72.47 122.433 72.47 123.7V127.466" stroke="#24285B" stroke-width="2.03" stroke-miterlimit="10"/>
<path d="M116.166 47.1901C120.108 55.0464 122.754 63.4885 124.002 72.1895C124.433 74.949 125.638 77.5298 127.475 79.6333C129.313 81.7367 131.708 83.2768 134.385 84.0752L157.456 90.8351L155.639 96.9251L135.948 94.5804C119.13 92.5504 104.869 80.7155 100.586 64.3233C99.1442 58.822 98.8905 53.1583 100.9 47.931C101.498 46.4364 102.513 45.145 103.824 44.2106C105.135 43.2761 106.687 42.7378 108.295 42.6598C109.903 42.5817 111.5 42.9672 112.895 43.7703C114.29 44.5734 115.426 45.7604 116.166 47.1901V47.1901Z" fill="#9ED6BE"/>
<path opacity="0.08" d="M116.166 47.1901C120.108 55.0464 122.754 63.4885 124.002 72.1895C124.433 74.949 125.638 77.5298 127.475 79.6333C129.313 81.7367 131.708 83.2768 134.385 84.0752L157.456 90.8351L155.639 96.9251L135.948 94.5804C119.13 92.5504 104.869 80.7155 100.586 64.3233C99.1442 58.822 98.8905 53.1583 100.9 47.931C101.498 46.4364 102.513 45.145 103.824 44.2106C105.135 43.2761 106.687 42.7378 108.295 42.6598C109.903 42.5817 111.5 42.9672 112.895 43.7703C114.29 44.5734 115.426 45.7604 116.166 47.1901V47.1901Z" fill="black"/>
<path d="M273.511 0.21582H268.842V76.1378H273.511V0.21582Z" fill="#9ED6BE"/>
<path opacity="0.45" d="M175.147 228.703C272.126 228.703 350.742 223.672 350.742 217.467C350.742 211.261 272.126 206.23 175.147 206.23C78.169 206.23 -0.447571 211.261 -0.447571 217.467C-0.447571 223.672 78.169 228.703 175.147 228.703Z" fill="#E6E6E6"/>
<path d="M135.715 147.127C135.715 147.127 137.308 149.543 139.775 149.157C142.241 148.771 143.398 150.964 141.399 152.09C139.399 153.217 133.197 151.796 133.197 151.796L132.335 147.381L135.715 147.127Z" fill="#9ED6BE"/>
<path d="M64.6139 167.102C64.6139 167.102 63.2335 169.64 64.7154 171.619C66.1973 173.598 64.8271 175.679 62.8884 174.431C60.9498 173.182 59.275 167.062 59.275 167.062L62.7666 164.22L64.6139 167.102Z" fill="#9ED6BE"/>
<path d="M114.461 175.902H51.7437V215.264H114.461V175.902Z" fill="#E6E6E6"/>
<path d="M177.177 152.547H114.461V215.264H177.177V152.547Z" fill="#E6E6E6"/>
<path d="M239.894 116.789H177.177V215.264H239.894V116.789Z" fill="#E6E6E6"/>
<path d="M302.083 79H239.366V215.264H302.083V79Z" fill="#E6E6E6"/>
<path d="M96.83 17.6127C97.3041 19.9494 97.4578 22.3397 97.2868 24.7177C97.2507 24.9974 97.1592 25.2671 97.0177 25.5111C96.8761 25.755 96.6874 25.9683 96.4625 26.1384C96.2375 26.3085 95.9809 26.432 95.7077 26.5018C95.4344 26.5716 95.15 26.5862 94.8711 26.5447C93.9667 26.4696 93.1031 26.1358 92.3832 25.5833C91.6633 25.0308 91.1176 24.2828 90.8111 23.4287L89.1262 19.8762C88.8612 19.1296 88.8351 18.3191 89.0516 17.5571C89.268 16.795 89.7162 16.1192 90.334 15.6233C92.4655 13.5933 96.4037 15.0448 96.83 17.6127Z" fill="#F4A28C"/>
<path d="M89.3698 20.4854L88.7506 34.4416L96.4646 34.2285L93.8155 24.1596L89.3698 20.4854Z" fill="#F4A28C"/>
<path d="M92.7091 21.7543C92.7091 21.7543 92.4858 20.1303 91.278 20.3942C90.0701 20.6581 90.3645 23.0129 92.0595 23.0434L92.7091 21.7543Z" fill="#F4A28C"/>
<path d="M97.1954 20.272L98.5555 21.8148C98.6323 21.8996 98.6864 22.0024 98.7129 22.1137C98.7393 22.225 98.7373 22.3412 98.7069 22.4515C98.6766 22.5618 98.6189 22.6627 98.5392 22.7448C98.4595 22.8269 98.3604 22.8875 98.251 22.9211L96.6676 23.4083L97.1954 20.272Z" fill="#F4A28C"/>
<path opacity="0.31" d="M94.4853 26.3417C93.5079 26.2075 92.5909 25.7913 91.8463 25.144C92.3634 27.0978 93.6045 28.7815 95.3176 29.8536L94.4853 26.3417Z" fill="#CE8172"/>
<path d="M283.61 68.0381H259.25V79.0001H283.61V68.0381Z" fill="#24285B"/>
<path d="M268.832 0.21582H221.239V35.2841H268.832V0.21582Z" fill="#FFD200"/>
<path d="M245.04 27.3466C250.338 27.3466 254.632 23.0522 254.632 17.7548C254.632 12.4575 250.338 8.16309 245.04 8.16309C239.743 8.16309 235.449 12.4575 235.449 17.7548C235.449 23.0522 239.743 27.3466 245.04 27.3466Z" fill="#24285B"/>
<path d="M245.446 11.7866C245.761 11.7866 245.852 11.8983 245.852 12.2129V12.8828C246.402 12.9402 246.926 13.1463 247.368 13.4789C247.809 13.8115 248.152 14.2581 248.359 14.7707C248.522 15.0955 248.451 15.2782 248.085 15.4406L247.415 15.735C247.111 15.8872 246.959 15.8162 246.776 15.4914C246.633 15.1591 246.387 14.8814 246.075 14.6987C245.763 14.5161 245.4 14.4382 245.04 14.4764C243.883 14.4764 243.345 14.8113 243.345 15.5929C243.345 16.1004 243.812 16.4049 244.289 16.5064C244.624 16.5779 244.963 16.6288 245.304 16.6586C245.923 16.6853 246.535 16.8015 247.121 17.0037C247.41 17.1046 247.681 17.252 247.923 17.4402C248.165 17.6939 248.353 17.9935 248.477 18.3212C248.6 18.649 248.657 18.9983 248.644 19.3484C248.644 20.8404 247.629 21.8453 245.893 22.099V22.8298C245.893 23.1445 245.802 23.2561 245.487 23.2561H244.736C244.421 23.2561 244.309 23.1445 244.309 22.8298V22.1396C243.699 22.0974 243.115 21.8752 242.631 21.5013C242.147 21.1273 241.784 20.6184 241.589 20.0386C241.56 19.9773 241.545 19.9103 241.546 19.8425C241.547 19.7746 241.563 19.7079 241.593 19.6472C241.624 19.5866 241.667 19.5336 241.721 19.4924C241.775 19.4512 241.837 19.4227 241.904 19.4093L242.574 19.1657C242.909 19.0439 243.061 19.1657 243.213 19.4702C243.358 19.8214 243.611 20.1167 243.937 20.3123C244.262 20.5079 244.642 20.5935 245.02 20.5562C246.268 20.5562 246.898 20.1604 246.898 19.3585C246.906 19.1728 246.853 18.9895 246.747 18.8371C246.64 18.6847 246.486 18.5719 246.309 18.5161C245.878 18.3628 245.426 18.2772 244.969 18.2623C244.344 18.2241 243.728 18.0906 243.142 17.8665C242.851 17.7674 242.582 17.6122 242.351 17.4097C242.106 17.1698 241.914 16.8818 241.786 16.5638C241.659 16.2458 241.599 15.9048 241.61 15.5624C241.61 14.0907 242.543 13.1061 244.279 12.8828V12.2129C244.279 11.8983 244.391 11.7866 244.705 11.7866H245.446Z" fill="white"/>
<path d="M283.61 185.595H259.25V215.264H283.61V185.595Z" fill="#9ED6BE"/>
<path opacity="0.19" d="M259.94 91.6167H253.028V172.126H259.94V91.6167Z" fill="#A5A5A5"/>
<path opacity="0.19" d="M275.663 91.6167H268.751V172.126H275.663V91.6167Z" fill="#A5A5A5"/>
<path opacity="0.19" d="M291.385 91.6167H284.473V172.126H291.385V91.6167Z" fill="#A5A5A5"/>
<path opacity="0.19" d="M239.366 116.789H226.425V215.264H239.366V116.789Z" fill="#A5A5A5"/>
<path opacity="0.19" d="M176.913 152.72H163.972V215.264H176.913V152.72Z" fill="#A5A5A5"/>
<path opacity="0.19" d="M113.953 176.704H101.012V215.274H113.953V176.704Z" fill="#A5A5A5"/>
<path d="M74.7842 103.228C74.7842 103.228 71.7392 116.545 80.7829 119.133C84.985 120.341 94.9929 119.478 104.453 118.22C110.219 117.462 116.054 118.985 120.715 122.463C125.376 125.942 128.496 131.101 129.412 136.845L131.056 147.127H135.633V128.471C135.634 121.977 133.079 115.744 128.521 111.119C123.962 106.494 117.767 103.849 111.273 103.756L74.7842 103.228Z" fill="#24285B"/>
<path d="M79.575 110.394L77.3826 124.848C75.5451 136.935 71.1317 148.485 64.4414 158.718L60.4727 164.808L65.365 167.975L67.5574 165.854C79.8199 154.061 88.9703 139.415 94.191 123.224L97.4695 113.074L79.575 110.394Z" fill="#24285B"/>
<path d="M89.2682 22.6677L87.7863 16.9634C87.7863 16.9634 85.3503 15.4003 87.1164 13.6139C88.8825 11.8275 90.3238 13.279 91.7651 10.7212C91.9659 10.25 92.3051 9.85093 92.7378 9.57686C93.1704 9.3028 93.6762 9.16665 94.188 9.18646C94.6997 9.20627 95.1934 9.38111 95.6036 9.6878C96.0138 9.9945 96.3211 10.4186 96.4849 10.9039C97.0431 12.6091 100.941 12.061 100.159 14.5579C99.3776 17.0548 95.8556 17.1766 94.8609 17.207C90.4964 17.3288 94.2519 23.1346 89.2682 22.6677Z" fill="#24285B"/>
<path d="M89.9889 34.0965L91.5418 33.8224C95.0841 33.1557 98.733 33.3241 102.199 34.3143C105.664 35.3045 108.852 37.0893 111.507 39.5267C113.781 41.6658 115.586 44.2548 116.805 47.1291C122.246 59.8267 106.188 103.685 106.188 103.685L74.7842 103.228C74.7842 103.228 53.5809 37.9129 89.9889 34.0965Z" fill="#9ED6BE"/>
<path opacity="0.08" d="M100.261 45.8299C100.273 50.006 99.2333 54.118 97.2377 57.7864C95.2421 61.4548 92.3547 64.5616 88.842 66.8201C76.662 74.8589 90.537 103.685 90.537 103.685L74.7842 103.228C74.7842 103.228 69.354 84.745 69.0698 74.9198C68.7856 65.0946 73.0892 45.495 100.261 45.8299Z" fill="black"/>
<path d="M85.9898 34.7664C88.7278 34.1192 91.6035 34.405 94.1606 35.5784C97.0838 36.9791 100.048 39.8617 100.251 45.8299C100.677 57.7764 56.6868 50.306 67.0499 113.672L60.087 115.398C60.087 115.398 36.6608 45.7385 85.9898 34.7664Z" fill="#9ED6BE"/>
<path opacity="0.46" d="M85.9898 34.7664C88.7278 34.1192 91.6035 34.405 94.1606 35.5784C97.0838 36.9791 100.048 39.8617 100.251 45.8299C100.677 57.7764 56.6868 50.306 67.0499 113.672L60.087 115.398C60.087 115.398 36.6608 45.7385 85.9898 34.7664Z" fill="white"/>
<path d="M61.6298 115.022C61.6298 115.022 62.1373 121.011 64.8981 121.183C67.6589 121.356 71.1201 119.976 67.0601 113.672L61.6298 115.022Z" fill="#F4A28C"/>
<path d="M157.162 91.8501C157.162 91.8501 161.77 92.388 163.323 95.3721C164.876 98.3562 155.903 96.0421 155.903 96.0421L157.162 91.8501Z" fill="#F4A28C"/>
<path d="M83.1072 125.822H48.8915V148.112H83.1072V125.822Z" fill="#FFD200"/>
<path opacity="0.08" d="M48.8915 136.276C48.8915 136.276 61.711 147.289 83.1072 144.051V148.111H48.8915V136.276Z" fill="black"/>
<path opacity="0.46" d="M276.668 204.505C277.794 204.505 278.708 203.591 278.708 202.464C278.708 201.338 277.794 200.424 276.668 200.424C275.541 200.424 274.628 201.338 274.628 202.464C274.628 203.591 275.541 204.505 276.668 204.505Z" fill="white"/>
<path opacity="0.08" d="M268.751 11.7866C268.751 11.7866 267.888 35.3752 231.094 35.294H268.842L268.751 11.7866Z" fill="black"/>
</g>
<defs>
<clipPath id="clip0_21_185">
<rect width="351" height="229" fill="white"/>
</clipPath>
</defs>
</svg>
