<svg width="91" height="68" viewBox="0 0 91 68" fill="none" xmlns="http://www.w3.org/2000/svg">
<g id="Checklist_Two Color 1">
<path id="Vector" opacity="0.45" d="M47.939 63.172C68.0399 63.172 84.335 60.7392 84.335 57.7383C84.335 54.7374 68.0399 52.3047 47.939 52.3047C27.838 52.3047 11.543 54.7374 11.543 57.7383C11.543 60.7392 27.838 63.172 47.939 63.172Z" fill="#E6E6E6"/>
<path id="Vector_2" d="M19.3693 20.742L13.5195 20.7891L13.817 57.9346L19.6668 57.8875L19.3693 20.742Z" fill="#FFD200"/>
<path id="Vector_3" d="M13.5234 20.7879L16.3787 12.1875L19.3734 20.7406L13.5234 20.7879Z" fill="#F4A28C"/>
<path id="Vector_4" d="M15.0781 16.0964L17.7376 16.0761L16.3764 12.1875L15.0781 16.0964Z" fill="#24285B"/>
<path id="Vector_5" opacity="0.08" d="M16.5613 20.7647L13.5352 20.7891L13.8327 57.9346L16.8588 57.9103L16.5613 20.7647Z" fill="black"/>
<path id="Vector_6" d="M77.7602 53.9531H66.8477V56.8335H77.7602V53.9531Z" fill="#E6E6E6"/>
<path id="Vector_7" opacity="0.43" d="M75.3773 51.1367H64.4648V54.0171H75.3773V51.1367Z" fill="#E6E6E6"/>
<path id="Vector_8" opacity="0.08" d="M13.6875 39.7166V43.4337C13.6875 43.4337 16.8668 43.7901 19.5375 42.0533V38.7128L17.2403 38.2617L13.6875 39.7166Z" fill="black"/>
<path id="Vector_9" d="M71.1156 14.4492H34.9648V56.8537H71.1156V14.4492Z" fill="#C9C9C9"/>
<path id="Vector_10" opacity="0.08" d="M68.9086 20.168H40.7656V54.1163H68.9086V20.168Z" fill="black"/>
<path id="Vector_11" d="M67.1078 18.2109H38.9648V52.1593H67.1078V18.2109Z" fill="white"/>
<path id="Vector_12" opacity="0.08" d="M36.0481 23.7773C36.0481 23.7773 41.4953 24.3029 42.8453 31.4079L47.2193 25.5434C47.2193 25.5434 49.7641 25.2344 48.6391 27.5734C47.9011 29.1117 47.7211 33.5416 45.7816 36.5393C41.9355 42.4753 39.3591 49.1463 38.2148 56.131L38.1203 56.7175L35.4766 56.837L36.2078 35.1679L36.0481 23.7773Z" fill="black"/>
<path id="Vector_13" d="M46.2119 10.2422H43.8359V20.1666H46.2119V10.2422Z" fill="#F2F2F2"/>
<path id="Vector_14" d="M62.2822 10.2422H59.9062V20.1666H62.2822V10.2422Z" fill="#F2F2F2"/>
<path id="Vector_15" d="M63.7625 23.3984H57.7617V29.414H63.7625V23.3984Z" fill="#FFD200"/>
<path id="Vector_16" d="M63.7625 32.1758H57.7617V38.1913H63.7625V32.1758Z" fill="#FFD200"/>
<path id="Vector_17" d="M63.7625 40.957H57.7617V46.9726H63.7625V40.957Z" fill="#FFD200"/>
<path id="Vector_18" d="M25.2737 26.4728C23.6739 29.9418 18.8927 36.7085 14.2734 37.4889V39.9204C14.2734 39.9204 22.5489 39.4896 29.8322 32.1974C32.8629 29.1569 32.8112 27.0569 31.7199 25.6405C29.9897 23.4007 26.4572 23.9037 25.2737 26.4728Z" fill="#9ED6BE"/>
<path id="Vector_19" opacity="0.08" d="M25.2737 26.4728C23.6739 29.9418 18.8927 36.7085 14.2734 37.4889V39.9204C14.2734 39.9204 22.5489 39.4896 29.8322 32.1974C32.8629 29.1569 32.8112 27.0569 31.7199 25.6405C29.9897 23.4007 26.4572 23.9037 25.2737 26.4728Z" fill="black"/>
<path id="Vector_20" d="M54.8391 25.1289H44.0391V27.6845H54.8391V25.1289Z" fill="#A5A5A5"/>
<path id="Vector_21" opacity="0.44" d="M54.8391 33.9062H44.0391V36.4618H54.8391V33.9062Z" fill="#A5A5A5"/>
<path id="Vector_22" opacity="0.13" d="M54.8391 42.6875H44.0391V45.243H54.8391V42.6875Z" fill="#A5A5A5"/>
<path id="Vector_23" d="M59.1133 26.4056L60.3125 27.9484L62.3375 25.1289" stroke="white" stroke-width="3.045" stroke-miterlimit="10"/>
<path id="Vector_24" d="M59.1133 35.054L60.3125 36.5968L62.3375 33.7773" stroke="white" stroke-width="3.045" stroke-miterlimit="10"/>
<path id="Vector_25" d="M59.1133 43.7024L60.3125 45.2452L62.3375 42.4258" stroke="white" stroke-width="3.045" stroke-miterlimit="10"/>
<path id="Vector_26" d="M29.1067 20.8064L29.9685 23.3958L27.9232 24.6995L27.1875 20.2109L29.1067 20.8064Z" fill="#F4A28C"/>
<path id="Vector_27" d="M27.8177 17.5522C28.009 17.3638 28.2442 17.2263 28.502 17.1522C28.7599 17.0782 29.0321 17.0699 29.2939 17.1282C29.5557 17.1865 29.7989 17.3094 30.0012 17.4859C30.2035 17.6624 30.3586 17.8868 30.4524 18.1387C30.9024 19.3296 31.3277 21.0957 29.9259 21.398C27.7794 21.8491 27.0977 19.0928 27.0977 19.0928C27.1813 18.5195 27.4317 17.9836 27.8177 17.5522Z" fill="#F4A28C"/>
<path id="Vector_28" d="M27.8143 19.2935C27.8143 19.2935 27.3486 18.9032 27.1393 19.4581C26.9301 20.013 27.7491 20.2791 27.9943 19.9994C28.2396 19.7197 27.8143 19.2935 27.8143 19.2935Z" fill="#F4A28C"/>
<path id="Vector_29" d="M25.5376 25.9665C25.8466 25.2804 26.2993 24.6691 26.865 24.174C27.4306 23.6789 28.096 23.3118 28.8158 23.0974C31.5946 22.2606 36.7088 23.1764 38.2658 25.7815C40.4011 29.3476 37.2758 40.6682 37.2758 40.6682L27.9518 41.4035C27.9518 41.4035 22.8061 32.1174 25.5376 25.9665Z" fill="#9ED6BE"/>
<path id="Vector_30" d="M37.2778 40.6797L36.0493 56.7686H34.1075L32.375 44.2683L28.082 41.406L37.2778 40.6797Z" fill="#24285B"/>
<path id="Vector_31" d="M28.0798 41.4062L25.4023 56.7688H27.4836L31.9791 44.0069L28.0798 41.4062Z" fill="#24285B"/>
<path id="Vector_32" opacity="0.08" d="M29.6219 22.8555C29.6219 22.8555 25.2501 36.9549 37.8636 37.8887L37.2764 40.6789L27.9501 41.4052C27.9501 41.4052 24.3051 35.0355 24.8001 28.9545C24.8001 28.9545 24.8789 25.3569 27.4034 23.7667C28.0698 23.3082 28.8261 22.9976 29.6219 22.8555Z" fill="black"/>
<path id="Vector_33" d="M25.8915 56.7344L24.636 57.6592C24.589 57.6938 24.5543 57.7425 24.5365 57.7981C24.5188 57.8538 24.5191 57.9136 24.5373 57.9691C24.5555 58.0246 24.5907 58.0729 24.6379 58.1072C24.6851 58.1414 24.7419 58.1599 24.8002 58.1599H26.9017C26.9747 58.1593 27.0445 58.1298 27.0959 58.0778C27.1474 58.0259 27.1762 57.9556 27.1762 57.8825V56.7344H25.8915Z" fill="#9ED6BE"/>
<path id="Vector_34" d="M35.8043 56.7344L36.9855 57.6592C37.0317 57.695 37.0654 57.7445 37.0821 57.8006C37.0987 57.8567 37.0973 57.9166 37.0782 57.9719C37.0591 58.0271 37.0231 58.075 36.9754 58.1088C36.9277 58.1425 36.8707 58.1604 36.8123 58.1599H35.3183C35.2134 58.1599 35.1095 58.1392 35.0126 58.0989C34.9157 58.0587 34.8277 57.9997 34.7535 57.9254C34.6793 57.851 34.6205 57.7627 34.5803 57.6656C34.5402 57.5684 34.5195 57.4643 34.5195 57.3592V56.7344H35.8043Z" fill="#9ED6BE"/>
<path id="Vector_35" d="M33.4271 23.0234C32.9616 23.7722 32.7148 24.6369 32.7148 25.5192C32.7148 26.4015 32.9616 27.2662 33.4271 28.015C34.4441 29.7382 37.3984 33.0967 39.4234 35.3094C39.652 35.5621 39.9375 35.7564 40.2561 35.8761C40.5747 35.9957 40.9173 36.0373 41.2552 35.9974C41.5931 35.9574 41.9166 35.8371 42.1987 35.6464C42.4809 35.4557 42.7135 35.2002 42.8771 34.9012L47.2286 27.2143L45.7526 26.2647L41.7656 32.1291C41.7656 32.1291 39.0364 23.1362 33.4271 23.0234Z" fill="#9ED6BE"/>
<path id="Vector_36" opacity="0.2" d="M33.4271 23.0234C32.9616 23.7722 32.7148 24.6369 32.7148 25.5192C32.7148 26.4015 32.9616 27.2662 33.4271 28.015C34.4441 29.7382 37.3984 33.0967 39.4234 35.3094C39.652 35.5621 39.9375 35.7564 40.2561 35.8761C40.5747 35.9957 40.9173 36.0373 41.2552 35.9974C41.5931 35.9574 41.9166 35.8371 42.1987 35.6464C42.4809 35.4557 42.7135 35.2002 42.8771 34.9012L47.2286 27.2143L45.7526 26.2647L41.7656 32.1291C41.7656 32.1291 39.0364 23.1362 33.4271 23.0234Z" fill="white"/>
<path id="Vector_37" d="M46.7147 26.8872C46.7147 26.8872 49.1897 25.985 48.1772 24.5775C47.1647 23.1701 45.7539 26.2692 45.7539 26.2692L46.7147 26.8872Z" fill="#F4A28C"/>
<path id="Vector_38" d="M27.3511 20.9493L26.6019 19.0997C26.5244 18.9075 26.4873 18.7014 26.4927 18.4942C26.4981 18.287 26.546 18.0831 26.6334 17.8952C26.9371 17.2321 27.5176 16.2103 28.4041 15.6397C29.7946 14.7239 31.1559 14.7194 31.0029 15.9352C30.8499 17.1509 31.4349 15.872 31.9029 16.7427C32.3709 17.6133 32.0896 17.8952 31.4034 17.9764C30.7171 18.0576 29.3784 18.0328 28.8969 18.9193C28.4154 19.8057 29.0004 20.8951 27.3511 20.9493Z" fill="#24285B"/>
<path id="Vector_39" d="M14.2761 37.489C14.2761 37.489 12.9869 36.9387 12.4986 38.1409C12.0104 39.3431 14.2761 39.9205 14.2761 39.9205V37.489Z" fill="#F4A28C"/>
<path id="Vector_40" d="M19.6383 51.4719L13.7188 51.5195L13.7721 58.1867L19.6917 58.1391L19.6383 51.4719Z" fill="#24285B"/>
</g>
</svg>
