<svg width="288" height="223" viewBox="0 0 288 223" fill="none" xmlns="http://www.w3.org/2000/svg">
<g clip-path="url(#clip0_21_1794)">
<path d="M37.2939 100.79C37.2939 100.79 46.5304 57.3379 69.7739 57.3379C93.0174 57.3379 105.38 125.647 48.8447 133.077L37.2939 100.79Z" fill="#F4A28C"/>
<path opacity="0.1" d="M37.2939 100.79C37.2939 100.79 46.5304 57.3379 69.7739 57.3379C93.0174 57.3379 105.38 125.647 48.8447 133.077L37.2939 100.79Z" fill="black"/>
<path d="M201.42 10.4348H56.8125V189.765H201.42V10.4348Z" fill="#24285B"/>
<path d="M186.905 21.3154H70.8091V174.733H186.905V21.3154Z" fill="white"/>
<path d="M161.509 -0.344482H98.2749V26.5023H161.509V-0.344482Z" fill="#FFD200"/>
<path opacity="0.21" d="M151.492 90.1326H122.808V96.456H151.492V90.1326Z" fill="#A8A8A8"/>
<path opacity="0.21" d="M168.249 102.698H122.808V109.022H168.249V102.698Z" fill="#A8A8A8"/>
<path opacity="0.21" d="M151.492 130.793H122.808V137.117H151.492V130.793Z" fill="#A8A8A8"/>
<path opacity="0.21" d="M168.249 143.369H122.808V149.693H168.249V143.369Z" fill="#A8A8A8"/>
<path d="M111.491 45.9395H85.5776V71.8524H111.491V45.9395Z" fill="#9ED6BE"/>
<path d="M111.491 86.3669H85.5776V112.28H111.491V86.3669Z" fill="#9ED6BE"/>
<path d="M111.491 126.794H85.5776V152.707H111.491V126.794Z" fill="#9ED6BE"/>
<path d="M94.2964 58.8603L97.3515 63.3162L103.685 55.115" stroke="white" stroke-width="4.06" stroke-linecap="round" stroke-linejoin="round"/>
<path d="M94.2964 99.2269L97.3515 103.683L103.685 95.4714" stroke="white" stroke-width="4.06" stroke-linecap="round" stroke-linejoin="round"/>
<path opacity="0.1" d="M131.983 128.662L128.167 135.3L141.017 133.666L154.638 128.713C154.638 128.713 161.611 139.878 173.284 146.496C186.161 153.564 196.048 165.049 201.125 178.833L201.45 179.737V117.822L183.566 99.0747L131.983 128.662Z" fill="black"/>
<path d="M94.2964 139.888L97.3515 144.344L103.685 136.143" stroke="white" stroke-width="4.06" stroke-linecap="round" stroke-linejoin="round"/>
<path d="M199.481 95.7149C199.481 95.7149 184.885 82.6316 163.276 91.6549C146.356 98.7599 154.364 107.113 163.458 106.758C172.553 106.403 187.818 100.201 186.753 115.304C185.788 128.611 169.284 109.478 159.825 110.229C150.365 110.981 151.451 121.729 163.103 127.627C174.755 133.524 191.117 146.292 203.855 136.264C216.594 126.236 212.95 108.423 199.481 95.7149Z" fill="#F4A28C"/>
<path d="M222.678 88.558L218.185 79.2085L136.527 118.455L141.021 127.804L222.678 88.558Z" fill="#9ED6BE"/>
<path d="M195.664 139.999L246.769 223.199L288.466 187.603L215.132 115.518L195.664 139.999Z" fill="#9ED6BE"/>
<path d="M136.52 118.461L125.619 129.707L141.017 127.809L136.52 118.461Z" fill="#24285B"/>
<path d="M55.5029 84.6008C55.5029 84.6008 73.4481 66.2598 81.1926 67.8838C87.5871 69.2337 87.5972 81.9517 73.6613 92.5483C70.8321 94.6755 68.4933 97.386 66.8034 100.496C65.1134 103.606 64.1119 107.044 63.8665 110.575C63.4707 116.492 61.5117 123.536 55.5029 128.845C42.8662 140.01 33.4876 130.286 34.7056 115.183C35.9236 100.08 36.7457 95.6136 55.5029 84.6008Z" fill="#F4A28C"/>
<path d="M62.4862 126.449L55.7364 219.778L0.418945 209.172L28.2401 116.066L62.4862 126.449Z" fill="#9ED6BE"/>
<path opacity="0.21" d="M151.492 48.7915H122.808V55.115H151.492V48.7915Z" fill="#A8A8A8"/>
<path opacity="0.21" d="M168.249 61.3572H122.808V67.6806H168.249V61.3572Z" fill="#A8A8A8"/>
<path opacity="0.1" d="M34.1475 215.637L46.1346 121.496L62.4863 126.449L55.7365 219.779L34.1475 215.637Z" fill="black"/>
<path opacity="0.1" d="M195.664 139.999L204.677 128.662L265.212 207.456L246.769 223.199L195.664 139.999Z" fill="black"/>
</g>
<defs>
<clipPath id="clip0_21_1794">
<rect width="288" height="223" fill="white"/>
</clipPath>
</defs>
</svg>
