<svg width="334" height="252" viewBox="0 0 334 252" fill="none" xmlns="http://www.w3.org/2000/svg">
<g clip-path="url(#clip0_21_247)">
<g opacity="0.64">
<path opacity="0.64" d="M73.0913 100.058H38.2768V213.566H73.0913V206.359H107.733V132.893H73.0913V100.058Z" fill="#DDDBDB"/>
<path opacity="0.64" d="M203.63 30.8857H170.206V171.341H203.285V198.554H244.576V133.248H203.63V30.8857Z" fill="#DDDBDB"/>
<path opacity="0.64" d="M305.821 90.7505H255.192V198.554H305.821V90.7505Z" fill="#DDDBDB"/>
</g>
<path d="M257.263 52.6474C266.854 52.6474 274.63 44.872 274.63 35.2807C274.63 25.6894 266.854 17.9141 257.263 17.9141C247.672 17.9141 239.896 25.6894 239.896 35.2807C239.896 44.872 247.672 52.6474 257.263 52.6474Z" fill="#FFD200"/>
<path opacity="0.15" d="M257.263 62.4218C272.253 62.4218 284.404 50.2704 284.404 35.2807C284.404 20.2911 272.253 8.13965 257.263 8.13965C242.273 8.13965 230.122 20.2911 230.122 35.2807C230.122 50.2704 242.273 62.4218 257.263 62.4218Z" fill="#FFD200"/>
<path d="M83.1297 243.366H13.9371V170.519L83.1297 150.189V243.366Z" fill="#FFD200"/>
<path d="M150.79 48.8105H81.597V243.366H150.79V48.8105Z" fill="#9ED6BE"/>
<path d="M219.992 103.326H150.8V243.366H219.992V103.326Z" fill="#9ED6BE"/>
<path opacity="0.12" d="M219.992 103.326H150.8V243.366H219.992V103.326Z" fill="white"/>
<path d="M321.036 189.834H220.002V243.376H321.036V189.834Z" fill="#9ED6BE"/>
<path opacity="0.44" d="M219.992 103.326H150.8V119.718H219.992V103.326Z" fill="white"/>
<path d="M330.018 243.366H4.66001C2.33364 243.366 0.447754 245.252 0.447754 247.578C0.447754 249.904 2.33364 251.79 4.66001 251.79H330.018C332.345 251.79 334.23 249.904 334.23 247.578C334.23 245.252 332.345 243.366 330.018 243.366Z" fill="#24285B"/>
<path d="M81.597 48.8107H150.79L116.188 0.171875L81.597 48.8107Z" fill="#9ED6BE"/>
<path opacity="0.15" d="M81.597 48.8107H150.79L116.188 0.171875L81.597 48.8107Z" fill="black"/>
<path d="M38.287 219.239H23.945V243.366H38.287V219.239Z" fill="white"/>
<path d="M123.273 219.239H108.931V243.366H123.273V219.239Z" fill="white"/>
<path d="M205.508 219.239H191.166V243.366H205.508V219.239Z" fill="white"/>
<path d="M246.149 219.239H231.807V243.366H246.149V219.239Z" fill="white"/>
<path opacity="0.44" d="M70.8177 179.502H26.249V185.724H70.8177V179.502Z" fill="white"/>
<path opacity="0.44" d="M70.8177 195.052H26.249V201.274H70.8177V195.052Z" fill="white"/>
<path d="M70.8177 213.565H48.5283V232.708H70.8177V213.565Z" fill="#24285B"/>
<path d="M307.972 206.542H272.437V231.307H307.972V206.542Z" fill="#24285B"/>
<path opacity="0.47" d="M101.674 60.9805H93.0361V189.825H101.674V60.9805Z" fill="white"/>
<path opacity="0.47" d="M121.03 60.9805H112.392V189.825H121.03V60.9805Z" fill="white"/>
<path opacity="0.47" d="M139.685 60.9805H131.048V189.825H139.685V60.9805Z" fill="white"/>
<path d="M153.083 116.866H80.0035V131.634H153.083V116.866Z" fill="#9ED6BE"/>
<path opacity="0.15" d="M153.083 116.866H80.0035V131.634H153.083V116.866Z" fill="black"/>
<path opacity="0.47" d="M174.256 131.645H161.467V148.402H174.256V131.645Z" fill="white"/>
<path opacity="0.47" d="M204.737 131.645H191.948V148.402H204.737V131.645Z" fill="white"/>
<path opacity="0.47" d="M174.256 160.755H161.467V177.513H174.256V160.755Z" fill="white"/>
<path opacity="0.47" d="M204.737 160.755H191.948V177.513H204.737V160.755Z" fill="white"/>
<path opacity="0.47" d="M174.256 189.774H161.467V206.532H174.256V189.774Z" fill="white"/>
<path opacity="0.47" d="M204.737 189.774H191.948V206.532H204.737V189.774Z" fill="white"/>
<path d="M189.887 88.1011H161.467V103.326H189.887V88.1011Z" fill="#24285B"/>
<path d="M279.238 177.513H250.818V190.058H279.238V177.513Z" fill="#24285B"/>
</g>
<defs>
<clipPath id="clip0_21_247">
<rect width="334" height="252" fill="white"/>
</clipPath>
</defs>
</svg>
