<svg width="149" height="152" viewBox="0 0 149 152" fill="none" xmlns="http://www.w3.org/2000/svg">
<g id="climbing guy">
<path id="Vector" d="M57.9031 63.8016C57.9031 63.8016 70.6921 86.9842 52.7672 93.9775C34.8423 100.971 7.37639 74.8651 7.37639 74.8651C7.37639 74.8651 -1.96162 70.6528 0.372879 64.9587C2.70738 59.2645 12.2991 70.1352 12.2991 70.1352C12.2991 70.1352 52.7266 88.8213 44.6878 63.8016H57.9031Z" fill="#F4A28C"/>
<path id="Vector_2" d="M43.6518 9.36865C43.6518 9.36865 42.2715 15.5094 42.7587 19.7825C42.8077 20.1968 42.938 20.5973 43.1423 20.9611C43.3466 21.3248 43.6207 21.6446 43.9489 21.9021C44.2771 22.1596 44.653 22.3497 45.0549 22.4614C45.4568 22.5732 45.8768 22.6045 46.2909 22.5535C47.6284 22.4704 48.9139 22.0042 49.9938 21.2105C51.0736 20.4168 51.9023 19.3292 52.3809 18.0773L54.9691 12.8805C55.3794 11.7838 55.4396 10.5868 55.1415 9.45433C54.8434 8.3219 54.2016 7.30971 53.3045 6.55709C50.1479 3.55269 44.3014 5.5827 43.6518 9.36865Z" fill="#F4A28C"/>
<path id="Vector_3" d="M50.686 12.3906L65.9922 26.2251L57.7605 34.1116L50.1277 21.211L50.686 12.3906Z" fill="#F4A28C"/>
<path id="Vector_4" d="M45.1652 9.83343C47.081 10.1696 49.0297 10.2786 50.971 10.1582C50.3002 10.9325 49.8707 11.8861 49.7354 12.9016C49.6001 13.917 49.765 14.9498 50.2098 15.8727C50.6223 16.773 51.3347 17.502 52.2252 17.9352C53.1157 18.3684 54.129 18.4789 55.0919 18.2478L56.1069 10.2191C56.2853 9.07685 56.1511 7.90758 55.7187 6.83537C55.2862 5.76317 54.5716 4.82802 53.6506 4.12913C52.8535 3.52327 52.0196 2.96734 51.1537 2.46453C48.9613 1.22623 45.3784 2.31228 43.5209 0.434534C43.3335 0.250035 43.1012 0.117606 42.8469 0.0503234C42.5926 -0.0169592 42.3252 -0.0167707 42.0711 0.0508694C41.8169 0.11851 41.5848 0.251262 41.3976 0.436025C41.2104 0.620787 41.0747 0.851172 41.0037 1.10443C40.3135 3.48968 40.2323 7.38728 43.3484 9.16353C43.9139 9.48343 44.5274 9.70965 45.1652 9.83343Z" fill="#24285B"/>
<path id="Vector_5" d="M49.5592 15.5981C49.5592 15.5981 49.9246 13.2027 51.711 13.629C53.4974 14.0553 52.9798 17.5164 50.4829 17.5164L49.5592 15.5981Z" fill="#F4A28C"/>
<path id="Vector_6" d="M42.9848 13.2734L40.9548 15.4455C40.8389 15.5695 40.756 15.7206 40.7136 15.8849C40.6712 16.0492 40.6706 16.2216 40.712 16.3862C40.7534 16.5507 40.8354 16.7023 40.9506 16.827C41.0657 16.9517 41.2102 17.0456 41.371 17.1L43.6953 17.8714L42.9848 13.2734Z" fill="#F4A28C"/>
<path id="Vector_7" opacity="0.31" d="M50.3505 21.5758C51.172 20.4438 51.6733 19.1115 51.8019 17.7188C51.8019 17.7188 55.4153 20.4288 52.5327 25.2704L50.3505 21.5758Z" fill="#CE8172"/>
<path id="Vector_8" d="M65.9933 26.2245L57.7616 34.1111C57.7616 34.1111 35.0967 53.1728 45.338 68.9662C55.5794 84.7596 85.1057 97.1223 85.1057 97.1223L107.07 74.7923C107.07 74.7923 96.4433 7.9444 65.9933 26.2245Z" fill="#9ED6BE"/>
<path id="Vector_9" d="M107.068 74.7617C107.068 74.7617 115.949 90.6769 104.551 97.0917C93.1525 103.507 62.2254 93.0317 60.1548 103.019C58.8391 109.855 58.0855 116.787 57.9015 123.746L49.5582 124.994C49.5582 124.994 40.7988 95.4677 50.1266 86.5459C59.4545 77.624 107.068 74.7617 107.068 74.7617Z" fill="#24285B"/>
<path id="Vector_10" d="M104.999 60.0859H148.867V89.6326H104.999V60.0859Z" fill="#FFD200"/>
<path id="Vector_11" d="M79.3695 91.2891C79.3695 91.2891 68.6207 131.382 110.347 145.47L114.844 140.04C114.844 140.04 86.2208 113.284 103.324 91.3195L79.3695 91.2891Z" fill="#24285B"/>
<path id="Vector_12" d="M71.1696 45.6137C64.0138 37.3922 68.9975 24.4712 79.7261 22.5021C91.561 20.33 108.745 19.721 121.656 29.9116C143.427 47.0753 134.1 77.9211 134.1 77.9211C134.1 77.9211 137.206 93.1461 132.537 92.933C127.868 92.7198 127.878 74.7645 127.878 74.7645C127.878 74.7645 116.997 36.7121 90.5561 47.5929C80.6497 51.6732 74.7119 49.694 71.1696 45.6137Z" fill="#F4A28C"/>
<path id="Vector_13" d="M114.094 140.973L115.505 141.379C116.216 141.581 116.834 142.023 117.254 142.63C117.674 143.238 117.87 143.972 117.809 144.708L117.403 149.61C117.367 150.073 117.193 150.514 116.904 150.877C116.616 151.241 116.225 151.51 115.783 151.65C115.341 151.791 114.867 151.796 114.421 151.666C113.976 151.536 113.579 151.276 113.282 150.92C112.359 149.712 111.598 147.651 111.466 144.139L114.094 140.973Z" fill="#9ED6BE"/>
<path id="Vector_14" d="M56.1797 124.042L55.6519 126.864C55.5888 127.203 55.4545 127.524 55.2579 127.807C55.0613 128.09 54.8068 128.329 54.5113 128.506C54.2159 128.684 53.8861 128.796 53.5438 128.837C53.2015 128.877 52.8545 128.845 52.5257 128.741L47.0548 127.026C46.7452 126.935 46.4678 126.757 46.255 126.514C46.0423 126.272 45.9028 125.973 45.8528 125.654C45.8028 125.336 45.8444 125.009 45.9728 124.713C46.1011 124.416 46.3109 124.163 46.5778 123.981C48.5266 122.621 51.7746 121.484 56.1797 124.042Z" fill="#9ED6BE"/>
<path id="Vector_15" opacity="0.09" d="M62.8468 41.9403C62.8468 41.9403 65.5568 52.5572 78.1631 57.5713C81.799 59.0363 84.7129 61.8723 86.2757 65.4671C87.8386 69.0619 87.9251 73.1272 86.5166 76.7853L107.07 74.8162C107.07 74.8162 105.04 59.7434 99.9653 48.6393C94.8903 37.5352 62.8468 41.9403 62.8468 41.9403Z" fill="black"/>
<path id="Vector_16" d="M110.855 22.0657L105.344 48.8921C105.344 48.8921 99.457 47.329 86.4955 50.9221C73.5339 54.5152 60.3288 47.2884 62.3994 35.3723C64.47 23.4562 79.2382 13.3773 110.855 22.0657Z" fill="#9ED6BE"/>
<path id="Vector_17" opacity="0.44" d="M110.855 22.0657L105.344 48.8921C105.344 48.8921 99.457 47.329 86.4955 50.9221C73.5339 54.5152 60.3288 47.2884 62.3994 35.3723C64.47 23.4562 79.2382 13.3773 110.855 22.0657Z" fill="white"/>
</g>
</svg>
