<svg width="268" height="213" viewBox="0 0 268 213" fill="none" xmlns="http://www.w3.org/2000/svg">
<path d="M119.064 181.191L99.4742 77.5546C99.4742 77.5546 82.4091 41.4999 103.261 22.3345C124.113 3.16904 119.064 59.1519 132.33 58.6555C145.596 58.1592 150.026 37.2261 156.35 48.9699C162.673 60.7137 136.129 77.5667 136.129 77.5667L166.87 181.191H119.064Z" fill="#F4A28C"/>
<path d="M23.6127 212.453L6.55061 77.5546C6.55061 77.5546 -10.4774 41.4999 10.3745 22.3345C31.2264 3.16904 26.165 59.1519 39.4434 58.6555C52.7217 58.1592 57.1396 37.2261 63.4509 48.9699C69.7621 60.7137 43.2301 77.5667 43.2301 77.5667L82.1349 212.453H23.6127Z" fill="#F2BF8C"/>
<path d="M107.127 212.444L97.5781 105.157L151.286 100.398L183.328 212.444H107.127Z" fill="#FFD200"/>
<path d="M210.898 181.193L193.573 60.6675C193.573 60.6675 181.037 51.2967 179.268 40.2793C179.073 39.0379 179.253 37.7679 179.785 36.625C180.317 35.4821 181.178 34.5159 182.264 33.845C183.349 33.1741 184.61 32.8275 185.894 32.8478C187.178 32.8681 188.427 33.2545 189.49 33.9594C194.44 37.2283 200.627 39.3834 203.684 32.2281C209.166 19.4552 199.018 2.14213 215.032 0.0839387C231.045 -1.97426 247.083 34.2863 219.276 57.3623L250.869 181.193H210.898Z" fill="#A87961"/>
<path d="M201.615 212.447L194.043 128.669L244.607 126.188L267.453 212.447H201.615Z" fill="#9ED6BE"/>
<path d="M197.768 128.487L194.043 104.345L230.302 100.398L236.984 126.562L197.768 128.487Z" fill="#9ED6BE"/>
<path opacity="0.46" d="M197.768 128.487L194.043 104.345L230.302 100.398L236.984 126.562L197.768 128.487Z" fill="white"/>
<path d="M48.4326 79.4274L3.69531 86.1875L6.15092 101.742L50.8882 94.9821L48.4326 79.4274Z" fill="#9ED6BE"/>
<path d="M19.8789 101.348C25.9002 101.348 30.7813 96.5727 30.7813 90.6819C30.7813 84.7911 25.9002 80.0156 19.8789 80.0156C13.8577 80.0156 8.97656 84.7911 8.97656 90.6819C8.97656 96.5727 13.8577 101.348 19.8789 101.348Z" fill="#CAE8DB"/>
</svg>
