<svg width="352" height="222" viewBox="0 0 352 222" fill="none" xmlns="http://www.w3.org/2000/svg">
<g clip-path="url(#clip0_21_44)">
<path opacity="0.3" d="M5.91293 76.6272C-5.25207 117.369 -3.64837 170.007 53.9021 209.125H298.213C298.213 209.125 349.318 193.027 351.49 134.127C353.662 75.2265 334.235 -4.85703 265.915 0.441272C197.596 5.73957 165.166 25.2377 119.877 12.3066L117.025 11.5149C68.5993 -1.15228 19.1181 28.3132 5.91293 76.6272Z" fill="#E6E6E6"/>
<path d="M241.038 95.5571C241.038 95.5571 222.301 112.091 228.929 147.322C235.557 182.553 231.598 209.085 231.598 209.085H252.02L255.065 156.66L241.038 95.5571Z" fill="#FFD200"/>
<path opacity="0.46" d="M241.038 95.5571C241.038 95.5571 222.301 112.091 228.929 147.322C235.557 182.553 231.598 209.085 231.598 209.085H252.02L255.065 156.66L241.038 95.5571Z" fill="white"/>
<path d="M140.685 111.279L125.845 135.436C122.468 140.94 121.08 147.435 121.911 153.838C122.742 160.242 125.743 166.167 130.413 170.626L143.75 183.344C143.75 183.344 146.399 196.468 151.433 196.996C156.468 197.524 153.291 179.447 153.291 179.447L140.685 111.279Z" fill="#F4A28C"/>
<path d="M88.5339 93.73C88.5339 93.73 99.7801 94.745 105.352 101.667C110.925 108.59 100.582 166.729 110.427 187.942L103.008 189.8C103.008 189.8 74.1108 125.246 88.5339 93.73Z" fill="#F2BF8C"/>
<path d="M123.531 176.087H81.3478V208.618H123.531V176.087Z" fill="#FFD200"/>
<path d="M161.533 91.3042C161.533 91.3042 132.433 102.327 119.918 140.684L141.486 146.662L161.533 91.3042Z" fill="#9ED6BE"/>
<path opacity="0.46" d="M161.533 91.3042C161.533 91.3042 132.433 102.327 119.918 140.684L141.486 146.662L161.533 91.3042Z" fill="white"/>
<path d="M246.427 182.238L252.01 209.125H269.843H298.213L295.462 182.238H246.427Z" fill="#24285B"/>
<path d="M317.234 209.125H38.7888V221.874H317.234V209.125Z" fill="#E6E6E6"/>
<path d="M161.614 60.9253C161.614 60.9253 161.279 67.8882 162.629 72.4557C162.76 72.8986 162.978 73.3112 163.269 73.6698C163.56 74.0285 163.919 74.3262 164.326 74.5459C164.732 74.7656 165.178 74.9029 165.637 74.9501C166.097 74.9972 166.561 74.9533 167.004 74.8207C169.297 74.1 172.19 72.476 172.82 68.7307L174.667 62.5595C174.905 61.2827 174.74 59.9633 174.195 58.7847C173.649 57.606 172.75 56.6265 171.622 55.9823C167.602 53.3534 161.604 56.6725 161.614 60.9253Z" fill="#F4A28C"/>
<path d="M174.322 63.7266L178.778 86.1276L166.253 87.7009L168.039 70.7707L174.322 63.7266Z" fill="#F4A28C"/>
<path d="M163.35 61.1483C165.506 61.1442 167.654 60.8956 169.754 60.4074C169.168 61.3776 168.879 62.4982 168.922 63.6309C168.966 64.7636 169.339 65.8589 169.998 66.7816C170.619 67.6877 171.536 68.3494 172.592 68.6532C173.647 68.9569 174.776 68.8837 175.783 68.4462L175.327 59.504C175.305 58.2218 174.938 56.9693 174.262 55.8792C173.587 54.7892 172.629 53.9022 171.49 53.3125C170.506 52.7986 169.489 52.351 168.445 51.9727C165.826 51.0288 162.121 52.8964 159.736 51.2521C159.497 51.0867 159.22 50.9863 158.931 50.9606C158.641 50.935 158.35 50.985 158.086 51.1058C157.822 51.2266 157.594 51.414 157.424 51.6497C157.254 51.8853 157.149 52.161 157.118 52.4498C156.823 55.1903 157.473 59.4533 161.178 60.8032C161.877 61.0377 162.611 61.1543 163.35 61.1483V61.1483Z" fill="#FFD200"/>
<path d="M169.247 66.5992C169.247 66.5992 169.247 63.9196 171.216 64.0516C173.185 64.1835 173.337 68.0507 170.617 68.5176L169.247 66.5992Z" fill="#F4A28C"/>
<path d="M161.624 65.3101L159.787 68.0709C159.682 68.2279 159.619 68.4089 159.603 68.597C159.587 68.7852 159.619 68.9743 159.696 69.1466C159.773 69.319 159.893 69.469 160.043 69.5826C160.194 69.6963 160.371 69.7698 160.558 69.7964L163.238 70.1922L161.624 65.3101Z" fill="#F4A28C"/>
<path opacity="0.31" d="M167.491 74.4452C169.046 73.9936 170.434 73.0933 171.48 71.8569C171.48 71.8569 171.48 76.0387 167.034 80.3423L167.491 74.4452Z" fill="#CE8172"/>
<path d="M88.2295 64.9852C88.2295 64.9852 89.0415 71.9075 88.0163 76.5562C87.9167 77.0066 87.7291 77.4329 87.4643 77.8106C87.1994 78.1882 86.8625 78.5099 86.473 78.757C86.0835 79.0041 85.649 79.1718 85.1944 79.2505C84.7399 79.3292 84.2743 79.3173 83.8244 79.2155C81.4899 78.6572 78.4855 77.1855 77.6024 73.5822L75.3288 67.5633C75.0006 66.3089 75.0704 64.9835 75.5286 63.7706C75.9869 62.5576 76.8109 61.5172 77.8866 60.7932C81.7233 57.8396 87.9453 60.7425 88.2295 64.9852Z" fill="#F2BF8C"/>
<path d="M75.7449 68.6494L72.842 91.3144L85.4483 92.0147L82.4947 75.2469L75.7449 68.6494Z" fill="#F2BF8C"/>
<path d="M88.5238 69.3701L90.5538 71.999C90.6673 72.1482 90.7413 72.3237 90.7691 72.5091C90.7968 72.6945 90.7775 72.884 90.7128 73.0599C90.648 73.2359 90.54 73.3927 90.3987 73.516C90.2574 73.6392 90.0874 73.7249 89.9042 73.7651L87.2551 74.3538L88.5238 69.3701Z" fill="#F2BF8C"/>
<path opacity="0.31" d="M83.2965 78.8905C81.718 78.5429 80.2752 77.7422 79.1452 76.5864C79.1452 76.5864 79.4497 80.7479 84.1694 84.7064L83.2965 78.8905Z" fill="#CE8172"/>
<path d="M250.386 61.3517C250.386 61.3517 250.051 68.3247 251.401 72.8922C251.53 73.3353 251.746 73.7483 252.036 74.1072C252.326 74.4661 252.684 74.7637 253.09 74.9828C253.496 75.202 253.942 75.3382 254.401 75.3835C254.861 75.4288 255.324 75.3825 255.765 75.247C258.059 74.5365 260.952 72.9125 261.581 69.157L263.429 62.996C263.667 61.7192 263.502 60.3998 262.956 59.2211C262.411 58.0425 261.511 57.063 260.384 56.4188C256.384 53.7798 250.376 57.0988 250.386 61.3517Z" fill="#9B6448"/>
<path d="M263.104 64.1528L267.56 86.564L255.035 88.1373L256.821 71.1969L263.104 64.1528Z" fill="#9B6448"/>
<path d="M250.396 65.7568L248.559 68.5176C248.456 68.6745 248.395 68.8545 248.38 69.0413C248.366 69.2281 248.398 69.4155 248.475 69.5864C248.552 69.7573 248.671 69.906 248.82 70.019C248.969 70.132 249.145 70.2056 249.33 70.233L252.01 70.639L250.396 65.7568Z" fill="#9B6448"/>
<path d="M256.273 74.8915C257.822 74.4332 259.205 73.5339 260.252 72.3032C260.252 72.3032 260.252 76.485 255.806 80.7785L256.273 74.8915Z" fill="#774B37"/>
<path d="M166.253 87.701L178.778 86.1278C178.778 86.1278 210.05 82.8087 218.779 112.518C227.508 142.227 209.319 182.238 209.319 182.238H149.647C149.647 182.238 107.18 106.692 166.253 87.701Z" fill="#9ED6BE"/>
<path d="M254.426 87.701L266.951 86.1278C266.951 86.1278 298.213 82.8087 306.952 112.518C315.691 142.227 297.492 182.238 297.492 182.238H246.427C246.427 182.238 208.243 101.657 254.426 87.701Z" fill="#FFD200"/>
<path d="M250.548 60.1642H259.216L258.019 65.4523L260.8 65.7568L263.987 68.6293L264.433 59.2608C264.433 59.2608 264.555 55.7388 262.556 54.4091C260.556 53.0795 249.279 50.2679 250.548 60.1642Z" fill="#24285B"/>
<path opacity="0.08" d="M270.29 101.677C270.29 101.677 256.719 118.161 277.578 134.157C298.436 150.154 270.473 182.268 270.473 182.268H295.462L317.234 148.012L306.891 117.958L272.32 101.718L270.29 101.677Z" fill="black"/>
<path d="M149.647 182.238L146.724 209.125H212.486L207.187 181.873L149.647 182.238Z" fill="#24285B"/>
<path d="M257.998 66.1321C257.998 66.1321 257.948 63.4525 259.978 63.5743C262.008 63.6961 262.099 67.5836 259.369 68.0505L257.998 66.1321Z" fill="#9B6448"/>
<path d="M270.29 101.677C272.848 91.5275 284.926 87.0614 293.838 92.6135C301.43 97.3434 311.154 105.565 320.319 119.653C339.239 148.763 331.484 172.535 298.243 185.628L290.966 176.655C290.966 176.655 315.955 156.833 301.116 136.055C289.504 119.744 266.524 116.486 270.29 101.677Z" fill="#FFD200"/>
<path d="M74.7807 72.8618C74.7807 72.8618 80.8707 75.2065 83.6214 67.2692L91.1933 66.4369C91.1933 66.4369 88.9298 57.9007 82.9921 56.0534C77.0543 54.2061 64.3871 59.8597 74.7807 72.8618Z" fill="#24285B"/>
<path opacity="0.08" d="M185.334 97.9932C185.334 97.9932 170.059 108.722 179.6 131.488C189.141 154.255 178.778 182.238 178.778 182.238L207.198 181.873L209.319 137.923L185.334 97.9932Z" fill="black"/>
<path opacity="0.46" d="M270.412 101.473C272.97 91.3234 285.048 86.8573 293.96 92.4094C301.552 97.1393 311.276 105.361 320.441 119.449C339.361 148.559 331.606 172.33 298.365 185.424L291.088 176.451C291.088 176.451 316.077 156.628 301.238 135.851C289.626 119.54 266.646 116.282 270.412 101.473Z" fill="white"/>
<path d="M188.075 108.955C185.101 96.9372 199.311 88.3503 208.822 96.2774C213.74 100.36 217.298 105.844 219.022 112C225.437 134.015 212.486 209.095 212.486 209.095H198.164C198.164 209.095 201.615 168.312 198.428 146.723C196.195 131.772 190.805 119.978 188.075 108.955Z" fill="#F4A28C"/>
<path d="M81.9466 71.3998C81.9466 71.3998 81.8045 68.7202 79.7948 68.9841C77.7851 69.248 77.9577 73.1355 80.7083 73.4095L81.9466 71.3998Z" fill="#F2BF8C"/>
<path d="M67.5438 65.0767C70.6381 65.0767 73.1466 62.5682 73.1466 59.4739C73.1466 56.3795 70.6381 53.8711 67.5438 53.8711C64.4494 53.8711 61.941 56.3795 61.941 59.4739C61.941 62.5682 64.4494 65.0767 67.5438 65.0767Z" fill="#24285B"/>
<path d="M72.8421 91.3145L85.4484 92.0148C85.4484 92.0148 117.37 108.072 111.361 128.2C105.353 148.327 102.815 171.662 102.815 171.662H61.941C61.941 171.662 23.7161 106.073 72.8421 91.3145Z" fill="#9ED6BE"/>
<path d="M67.5032 93.1718C67.5032 93.1718 66.4882 85.0518 76.1814 86.0668C85.8747 87.0818 90.2899 87.2442 88.534 93.791C88.534 93.7301 74.395 100.723 67.5032 93.1718Z" fill="#9ED6BE"/>
<path opacity="0.08" d="M53.9022 128.24C53.9022 128.24 58.155 159.705 75.1258 171.703H102.815L105.281 154.945L91.2034 155.361L53.9022 128.24Z" fill="black"/>
<path d="M292.295 178.34C292.295 178.34 282.47 185.08 286.388 189.698C290.306 194.316 298.213 185.638 298.213 185.638L292.295 178.34Z" fill="#9B6448"/>
<path d="M85.0626 118.729C80.485 106.062 62.8443 104.388 56.5817 116.304C55.6314 118.093 55.0612 120.059 54.907 122.079C54.2574 130.666 66.5084 148.773 76.222 161.664C79.2242 165.635 83.6392 168.299 88.5521 169.104C93.4651 169.909 98.4994 168.793 102.612 165.988L131.58 146.175C131.58 146.175 142.187 145.668 144.136 140.948C146.084 136.228 129.814 137.659 129.814 137.659L103.911 150.854C102.73 151.448 101.426 151.759 100.104 151.76C98.7813 151.762 97.4768 151.455 96.294 150.864C95.1113 150.272 94.0829 149.413 93.2907 148.354C92.4986 147.295 91.9646 146.066 91.7312 144.764C90.1999 135.923 87.9701 127.218 85.0626 118.729V118.729Z" fill="#F2BF8C"/>
<path d="M203.818 92.0148C203.818 92.0148 231.05 104.063 222.585 150.57H193.394C193.394 150.57 190.166 129.357 185.274 112.386C180.381 95.415 191.699 86.2699 203.818 92.0148Z" fill="#9ED6BE"/>
<path opacity="0.46" d="M203.818 92.0148C203.818 92.0148 231.05 104.063 222.585 150.57H193.394C193.394 150.57 190.166 129.357 185.274 112.386C180.381 95.415 191.699 86.2699 203.818 92.0148Z" fill="white"/>
<path d="M61.9308 171.662L53.9022 209.125H112.112L102.805 171.662H61.9308Z" fill="#24285B"/>
</g>
<defs>
<clipPath id="clip0_21_44">
<rect width="352" height="222" fill="white"/>
</clipPath>
</defs>
</svg>
