<svg width="324" height="234" viewBox="0 0 324 234" fill="none" xmlns="http://www.w3.org/2000/svg">
<g clip-path="url(#clip0_21_324)">
<path opacity="0.3" d="M66.8539 19.9661C35.5817 31.6589 12.3788 61.3172 7.81134 97.1873C3.95434 127.414 13.1604 160.818 67.3715 170.338C172.85 188.862 271.62 194.14 296.863 144.172C322.106 94.2032 314.321 8.62856 260.8 3.08666C218.241 -1.30829 127.926 -2.87139 66.8539 19.9661Z" fill="#E6E6E6"/>
<path d="M249.909 46.1632C251.029 46.1633 252.146 46.0373 253.238 45.7877C250.472 48.0684 247.114 49.5156 243.556 49.9604C239.998 50.4052 236.387 49.8294 233.144 48.2999C229.901 46.7705 227.16 44.3506 225.24 41.3224C223.32 38.2942 222.301 34.7826 222.301 31.1971C222.301 27.6115 223.32 24.0999 225.24 21.0717C227.16 18.0435 229.901 15.6236 233.144 14.0942C236.387 12.5648 239.998 11.9889 243.556 12.4337C247.114 12.8785 250.472 14.3257 253.238 16.6064C251.181 16.1303 249.047 16.0947 246.975 16.5018C244.903 16.909 242.941 17.7498 241.217 18.969C239.493 20.1882 238.047 21.7582 236.973 23.576C235.899 25.3938 235.221 27.4182 234.985 29.5163C234.749 31.6145 234.959 33.7389 235.602 35.75C236.244 37.7612 237.305 39.6136 238.715 41.1858C240.124 42.7579 241.85 44.0141 243.78 44.8719C245.709 45.7298 247.798 46.1698 249.909 46.1632V46.1632Z" fill="#FFD200"/>
<path d="M68.62 76.3291C68.62 73.691 67.572 71.1609 65.7066 69.2955C63.8412 67.4301 61.3111 66.3821 58.673 66.3821C58.1356 66.3882 57.5995 66.4357 57.0693 66.5242C55.9313 64.3805 54.2315 62.5868 52.1521 61.3352C50.0727 60.0836 47.6919 59.4213 45.2649 59.4192H44.7777C45.095 58.1579 45.2586 56.8628 45.2649 55.5622C45.3185 53.439 44.9466 51.3266 44.1712 49.3494C43.3957 47.3722 42.2324 45.5702 40.7497 44.0496C39.267 42.5289 37.4949 41.3205 35.5379 40.4953C33.5809 39.6702 31.4786 39.2451 29.3548 39.2451C27.2309 39.2451 25.1286 39.6702 23.1716 40.4953C21.2146 41.3205 19.4425 42.5289 17.9598 44.0496C16.4771 45.5702 15.3138 47.3722 14.5383 49.3494C13.7629 51.3266 13.391 53.439 13.4446 55.5622C13.4509 56.8628 13.6145 58.1579 13.9318 59.4192H13.4446C11.6535 59.3699 9.87061 59.6801 8.20138 60.3315C6.53215 60.9829 5.01041 61.9623 3.72608 63.2118C2.44176 64.4612 1.4209 65.9554 0.723827 67.6061C0.0267523 69.2568 -0.332397 71.0304 -0.332397 72.8223C-0.332397 74.6141 0.0267523 76.3878 0.723827 78.0384C1.4209 79.6891 2.44176 81.1833 3.72608 82.4328C5.01041 83.6823 6.53215 84.6616 8.20138 85.313C9.87061 85.9644 11.6535 86.2747 13.4446 86.2254H59.9824V86.134C62.3633 85.8179 64.5494 84.651 66.137 82.8488C67.7246 81.0466 68.6066 78.7308 68.62 76.3291V76.3291Z" fill="#E6E6E6"/>
<path d="M323.943 97.4917C323.943 95.7069 323.234 93.9953 321.972 92.7332C320.71 91.4712 318.999 90.7622 317.214 90.7622C316.85 90.7666 316.487 90.7971 316.128 90.8536C315.353 89.4093 314.201 88.2025 312.794 87.3623C311.387 86.522 309.778 86.0799 308.14 86.0831H307.815C308.032 85.2404 308.147 84.375 308.16 83.505C308.074 80.7074 306.902 78.0531 304.893 76.1046C302.884 74.1561 300.195 73.0664 297.396 73.0664C294.597 73.0664 291.908 74.1561 289.899 76.1046C287.889 78.0531 286.718 80.7074 286.632 83.505C286.634 84.3851 286.746 85.2615 286.967 86.1135H286.632C285.415 86.0728 284.203 86.2773 283.067 86.7147C281.931 87.1522 280.895 87.8136 280.02 88.6598C279.145 89.506 278.45 90.5195 277.974 91.6401C277.499 92.7607 277.254 93.9654 277.254 95.1826C277.254 96.3997 277.499 97.6045 277.974 98.725C278.45 99.8456 279.145 100.859 280.02 101.705C280.895 102.551 281.931 103.213 283.067 103.65C284.203 104.088 285.415 104.292 286.632 104.252H318.097V104.191C319.719 103.976 321.208 103.177 322.284 101.944C323.36 100.711 323.95 99.1283 323.943 97.4917V97.4917Z" fill="#E6E6E6"/>
<path opacity="0.49" d="M115.909 26.8376C115.909 25.2089 115.262 23.647 114.11 22.4954C112.959 21.3438 111.397 20.6968 109.768 20.6968C109.428 20.7 109.088 20.7305 108.753 20.7882C108.046 19.4709 106.995 18.3702 105.711 17.6034C104.428 16.8365 102.96 16.4323 101.465 16.4338H101.161C101.361 15.6578 101.463 14.86 101.465 14.0587C101.465 11.4556 100.431 8.95909 98.5906 7.11842C96.7499 5.27774 94.2534 4.24365 91.6503 4.24365C89.0472 4.24365 86.5507 5.27774 84.71 7.11842C82.8694 8.95909 81.8353 11.4556 81.8353 14.0587C81.8377 14.86 81.94 15.6578 82.1398 16.4338H81.8353C80.7252 16.3949 79.6187 16.5799 78.5818 16.9779C77.5448 17.3758 76.5986 17.9785 75.7995 18.7501C75.0005 19.5216 74.365 20.4461 73.931 21.4685C73.497 22.4909 73.2733 23.5903 73.2733 24.701C73.2733 25.8117 73.497 26.911 73.931 27.9334C74.365 28.9558 75.0005 29.8804 75.7995 30.6519C76.5986 31.4234 77.5448 32.0261 78.5818 32.4241C79.6187 32.822 80.7252 33.0071 81.8353 32.9682H110.539C112.029 32.7795 113.398 32.0516 114.388 30.9219C115.377 29.7922 115.918 28.3392 115.909 26.8376V26.8376Z" fill="#E6E6E6"/>
<path d="M67.7979 109.651C68.8154 109.651 69.7913 110.056 70.5108 110.775C71.2304 111.495 71.6346 112.471 71.6346 113.488V206.949H63.9612V113.488C63.9612 112.471 64.3654 111.495 65.0849 110.775C65.8044 110.056 66.7803 109.651 67.7979 109.651V109.651Z" fill="#24285B"/>
<path d="M280.826 168.166H69.7263V207.03H280.826V168.166Z" fill="#24285B"/>
<path d="M79.2166 155.397H272.381C274.395 155.397 276.326 156.197 277.75 157.621C279.174 159.045 279.973 160.976 279.973 162.99V168.166H71.665V162.99C71.665 160.976 72.4649 159.045 73.8887 157.621C75.3125 156.197 77.2436 155.397 79.2572 155.397H79.2166Z" fill="#9ED6BE"/>
<path opacity="0.08" d="M79.2166 155.397H272.381C274.395 155.397 276.326 156.197 277.75 157.621C279.174 159.045 279.973 160.976 279.973 162.99V168.166H71.665V162.99C71.665 160.976 72.4649 159.045 73.8887 157.621C75.3125 156.197 77.2436 155.397 79.2572 155.397H79.2166Z" fill="black"/>
<path d="M94.5837 124.105C97.3528 124.791 100.018 125.843 102.511 127.231C103.084 127.608 103.484 128.197 103.623 128.869C103.762 129.541 103.628 130.241 103.252 130.814C102.709 131.764 101.902 132.538 100.93 133.04C99.9573 133.542 98.8602 133.753 97.7708 133.646H93.0409C92.092 133.55 91.1963 133.162 90.478 132.534C89.7597 131.907 89.2542 131.072 89.0316 130.144C87.9963 126.764 91.5894 123.222 94.5837 124.105Z" fill="#F4A28C"/>
<path d="M93.8935 133.667L108.763 141.502L112.498 132.997L100.176 130.713L93.8935 133.667Z" fill="#F4A28C"/>
<path d="M94.3807 125.394C93.9285 126.913 93.3018 128.374 92.5131 129.748C93.3209 129.539 94.1723 129.57 94.9623 129.839C95.7523 130.108 96.4464 130.602 96.9588 131.261C97.4719 131.884 97.7524 132.666 97.7524 133.473C97.7524 134.281 97.4719 135.063 96.9588 135.686L94.7867 134.915C93.7354 134.473 92.6445 134.134 91.5286 133.9C90.9906 133.829 90.4527 133.9 89.9147 133.808C89.3171 133.717 88.7466 133.497 88.2434 133.162C87.7401 132.827 87.3163 132.386 87.0017 131.87C86.3775 130.816 86.1847 129.561 86.4637 128.368C86.3997 128.412 86.3267 128.441 86.2501 128.454C86.1735 128.466 86.0951 128.461 86.0204 128.44C85.9458 128.419 85.8768 128.381 85.8183 128.33C85.7598 128.279 85.7134 128.216 85.6822 128.145C85.5906 127.847 85.5906 127.529 85.6822 127.231C85.7946 125.852 86.3873 124.555 87.3569 123.567C86.9769 123.555 86.5972 123.6 86.2303 123.699C86.4472 122.961 86.8648 122.298 87.4365 121.784C88.0082 121.269 88.7115 120.924 89.4681 120.786C90.2255 120.668 91.0002 120.732 91.7276 120.974C92.455 121.216 93.1141 121.628 93.6499 122.177C94.0557 122.594 94.3385 123.115 94.4675 123.683C94.5964 124.25 94.5664 124.842 94.3807 125.394V125.394Z" fill="#24285B"/>
<path d="M97.04 130.692C97.04 130.692 95.1622 130.093 94.8273 131.545C94.4923 132.996 97.2125 133.879 98.1057 132.052L97.04 130.692Z" fill="#F4A28C"/>
<path d="M97.6896 125.049L100.014 124.328C100.144 124.296 100.28 124.296 100.41 124.327C100.54 124.359 100.66 124.423 100.76 124.512C100.86 124.601 100.937 124.713 100.984 124.838C101.031 124.964 101.046 125.099 101.029 125.232L100.745 127.211L97.6896 125.049Z" fill="#F4A28C"/>
<path opacity="0.31" d="M102.897 131.098C102.25 132.096 101.326 132.883 100.237 133.362C100.237 133.362 103.191 134.224 107.149 132.012L102.897 131.098Z" fill="#CE8172"/>
<path d="M106.865 135.828L109.545 126.937C109.545 126.937 118.609 110.118 135.316 114.412C152.023 118.705 172.333 124.704 172.333 124.704L170.384 149.48C170.384 149.48 107.312 178.052 106.865 135.828Z" fill="#9ED6BE"/>
<path opacity="0.08" d="M110.093 136.864C110.093 136.864 114.66 147.572 121.704 150.749C128.749 153.926 164.03 148.465 170.851 143.573L171.602 134.042L110.093 136.864Z" fill="black"/>
<path d="M281.364 172.825C281.364 172.825 247.372 175.038 214.455 176.337C183.782 177.534 154.032 177.94 153.555 174.997C153.555 174.997 154.124 161.609 154.306 158.828C154.59 154.311 155.118 147.044 155.798 139.929C156.813 129.474 158.194 119.344 159.797 118.766C161.401 118.187 171.277 121.253 182.929 123.841C184.959 124.298 186.989 124.734 189.019 125.13C198.154 126.886 207.888 127.942 215.409 126.439C234.694 122.613 266.829 119.497 272.351 126.115C277.872 132.732 281.364 172.825 281.364 172.825Z" fill="#FFD200"/>
<path opacity="0.08" d="M214.455 176.327C183.782 177.525 154.032 177.931 153.555 174.987C153.555 174.987 154.124 161.599 154.306 158.818C154.59 154.301 155.118 147.034 155.798 139.919C157.209 139.229 158.569 138.427 159.858 137.645L174.068 129.079C175.977 127.942 179.61 125.019 182.868 123.862C183.514 123.55 184.215 123.369 184.931 123.329C185.647 123.289 186.364 123.391 187.04 123.628C187.807 123.964 188.478 124.487 188.989 125.151C192.46 130.043 180.219 139.513 177.824 141.238C171.815 145.623 165.319 150.587 163.705 157.844C163.127 160.452 163.451 163.609 165.644 165.132C166.654 165.736 167.776 166.13 168.943 166.289C184.137 169.334 199.728 171.902 214.455 176.327Z" fill="black"/>
<path d="M116.761 124.105C109.514 128.804 106.49 137.3 114.823 142.821C123.156 148.343 145.273 149.51 156.529 146.384C167.785 143.258 188.705 128.276 188.705 128.276L183.751 121.608C183.751 121.608 157.148 134.407 149.871 133.676C142.593 132.945 124.009 119.416 116.761 124.105Z" fill="#9ED6BE"/>
<path opacity="0.2" d="M116.761 124.105C109.514 128.804 106.49 137.3 114.823 142.821C123.156 148.343 145.273 149.51 156.529 146.384C167.785 143.258 188.705 128.276 188.705 128.276L183.751 121.608C183.751 121.608 157.148 134.407 149.871 133.676C142.593 132.945 124.009 119.416 116.761 124.105Z" fill="white"/>
<path d="M183.751 121.628C184.572 120.995 185.561 120.617 186.595 120.541C187.629 120.465 188.663 120.695 189.567 121.202C192.612 123.009 194.713 124.247 194.328 125.485C193.942 126.724 188.705 128.297 188.705 128.297L183.751 121.628Z" fill="#F4A28C"/>
<path d="M112.559 152.951C112.133 157.711 105.678 156.859 101.861 156.859C95.978 156.835 90.1422 155.805 84.6062 153.814C79.3688 151.936 68.5185 148.505 73.2281 140.781C74.5373 138.442 76.4606 136.505 78.7903 135.178C81.0746 134.003 83.6223 133.433 86.1896 133.524C94.444 133.562 102.367 136.775 108.317 142.497C110.511 144.783 111.959 147.682 112.468 150.809C112.468 151.073 112.549 151.327 112.58 151.591C112.618 152.044 112.611 152.5 112.559 152.951V152.951Z" fill="#E6E6E6"/>
<path opacity="0.08" d="M112.559 152.951C112.133 157.712 105.678 156.859 101.861 156.859C95.978 156.835 90.1422 155.806 84.6062 153.814C79.3688 151.936 68.5185 148.506 73.2281 140.781C74.5373 138.442 76.4606 136.505 78.7903 135.179C78.7903 135.412 78.7903 135.615 78.8715 135.808C79.8865 141.492 83.6623 144.151 89.0215 145.684C94.1473 147.156 99.4658 147.866 104.571 149.409C107.379 150.23 110.066 151.421 112.559 152.951V152.951Z" fill="black"/>
<path d="M8.17676 190.425C8.17676 190.425 18.9764 176.987 46.1987 181.057C73.421 185.127 72.5278 190.486 105.18 185.665C137.833 180.844 150.967 198.758 177.733 191.065C204.498 183.371 213.349 181.818 232.614 190.588C251.878 199.357 266.941 185.31 286.551 187.35C306.16 189.39 314.504 199.733 314.504 199.733C314.504 199.733 306.922 238.729 232.461 232.994C158.001 227.26 18.4486 249.113 8.17676 190.425Z" fill="#E6E6E6"/>
<path d="M107.982 99.1663C107.547 99.113 107.132 98.9526 106.774 98.6994C106.433 98.3137 106.252 97.813 106.266 97.2987C106.254 97.2213 106.254 97.1426 106.266 97.0653L114.315 87.575H114.062H113.838L110.712 87.7273C110.661 87.7273 110.276 87.7983 109.535 87.9607C109.031 88.0793 108.518 88.154 108.002 88.184C107.758 88.184 107.484 87.981 107.19 87.5547C106.975 87.3038 106.835 86.998 106.784 86.6717C106.783 86.5189 106.814 86.3677 106.875 86.2278C106.936 86.0878 107.026 85.9624 107.139 85.8597C107.36 85.6281 107.654 85.4809 107.972 85.4435C108.317 85.3488 108.844 85.2371 109.555 85.1086C110.474 84.9866 111.399 84.9121 112.326 84.8853H116.711H117.066H117.431C117.655 84.9086 117.868 84.9929 118.047 85.1289C118.226 85.265 118.364 85.4475 118.446 85.6567C118.664 85.9897 118.787 86.3757 118.802 86.7732C118.822 86.9456 118.787 87.1201 118.7 87.2705C118.497 87.4228 118.203 87.6765 117.817 88.0115C117.431 88.3464 116.802 89.0264 116.02 89.8689L110.945 95.8777C111.017 95.9386 111.067 95.9792 111.118 95.9792L117.787 95.9285C118.406 96.0198 118.741 96.4969 118.802 97.3495C118.862 98.2021 118.05 98.5878 116.538 98.8314C115.41 98.9672 114.274 99.0248 113.138 99.0039H110.773L109.342 99.0953L107.982 99.1663Z" fill="#E6E6E6"/>
<path d="M148.348 81.9722C147.7 81.9986 147.056 81.8661 146.471 81.5865C145.87 81.121 145.473 80.4405 145.364 79.6884C145.343 79.5709 145.343 79.4507 145.364 79.3332L154.641 63.4383H154.266H153.88L149.363 64.4533C149.292 64.4533 148.744 64.6766 147.709 65.0826C147.011 65.3885 146.287 65.633 145.547 65.8134C145.181 65.8743 144.725 65.6408 144.187 65.1029C143.815 64.7885 143.532 64.3827 143.365 63.9255C143.329 63.7021 143.339 63.4738 143.393 63.2542C143.447 63.0346 143.544 62.828 143.679 62.6466C143.943 62.2557 144.334 61.9686 144.786 61.8346C145.273 61.6113 146.014 61.3068 147.008 60.9312C148.866 60.3831 150.196 60.038 150.987 59.9162L157.382 58.7896H157.889L158.437 58.7287C158.78 58.6904 159.126 58.7491 159.436 58.8981C159.747 59.047 160.009 59.2802 160.193 59.5711C160.593 60.0053 160.869 60.5377 160.995 61.1139C161.079 61.3538 161.079 61.6149 160.995 61.8549C160.741 62.1391 160.376 62.5857 159.899 63.1744C159.422 63.7631 158.661 64.8999 157.747 66.3412C156.326 68.8042 154.388 72.1504 151.931 76.3795C152.008 76.4461 152.104 76.4854 152.205 76.4912L161.909 74.7048C162.842 74.7048 163.451 75.2833 163.736 76.5216C163.925 77.5975 162.954 78.511 160.823 79.2621C159.214 79.7512 157.572 80.1243 155.91 80.3786L154.215 80.6831L152.469 80.9876L150.439 81.4951L148.348 81.9722Z" fill="#E6E6E6"/>
<path d="M183.467 51.37C182.823 51.4091 182.178 51.2906 181.59 51.0249C180.99 50.558 180.594 49.8783 180.483 49.1269C180.468 49.0089 180.468 48.8896 180.483 48.7716L189.77 32.8767H189.385H189.06L184.533 33.8917C184.472 33.8917 183.924 34.115 182.889 34.521C182.187 34.8274 181.461 35.072 180.717 35.2518C180.351 35.3127 179.905 35.0793 179.367 34.5413C178.988 34.2331 178.703 33.8253 178.545 33.3639C178.505 33.1413 178.511 32.9128 178.563 32.6927C178.616 32.4726 178.713 32.2658 178.849 32.085C179.115 31.6922 179.51 31.4049 179.966 31.273C180.453 31.0497 181.194 30.7452 182.178 30.3697C184.036 29.8216 185.365 29.4765 186.157 29.3547L192.552 28.228L193.069 28.1773L193.607 28.1164C193.949 28.0781 194.295 28.1368 194.606 28.2857C194.916 28.4347 195.179 28.6679 195.363 28.9588C195.765 29.3927 196.045 29.9248 196.175 30.5016C196.248 30.7432 196.248 31.001 196.175 31.2426C195.911 31.5369 195.546 31.9734 195.079 32.5621C194.306 33.579 193.588 34.6361 192.927 35.7289C191.506 38.1987 189.567 41.5448 187.111 45.7672C187.147 45.8034 187.19 45.832 187.237 45.8512C187.284 45.8704 187.334 45.8798 187.385 45.8789L197.078 44.0925C198.012 44.0925 198.621 44.671 198.905 45.9093C199.095 46.9852 198.124 47.8987 195.992 48.6498C194.383 49.1384 192.741 49.5149 191.08 49.7765L189.405 50.0099L187.659 50.3144L185.629 50.8219L183.467 51.37Z" fill="#E6E6E6"/>
<path d="M98.7046 124.734C98.7046 124.734 95.5277 123.648 95.2536 124.298C94.9796 124.948 93.5484 127.79 95.0405 128.612C96.5325 129.434 99.476 126.815 98.7046 124.734Z" fill="#24285B"/>
<path d="M95.1521 127.972L94.7461 131.098L95.4363 130.571L96.6035 127.211L95.1521 127.972Z" fill="#24285B"/>
</g>
<defs>
<clipPath id="clip0_21_324">
<rect width="324" height="234" fill="white"/>
</clipPath>
</defs>
</svg>
