<svg width="201" height="152" viewBox="0 0 201 152" fill="none" xmlns="http://www.w3.org/2000/svg">
<path d="M90.4766 24.7344H23.9766V83.7294H90.4766V24.7344Z" fill="#F2F2F2"/>
<path d="M90.4766 74.5625H23.9766V83.7275H90.4766V74.5625Z" fill="#E6E6E6"/>
<path d="M29.5463 81.6237C31.0733 81.6237 32.3113 80.3858 32.3113 78.8587C32.3113 77.3317 31.0733 76.0938 29.5463 76.0938C28.0192 76.0938 26.7812 77.3317 26.7812 78.8587C26.7812 80.3858 28.0192 81.6237 29.5463 81.6237Z" fill="#9ED6BE"/>
<path d="M36.2142 81.6237C37.7413 81.6237 38.9792 80.3858 38.9792 78.8587C38.9792 77.3317 37.7413 76.0938 36.2142 76.0938C34.6872 76.0938 33.4492 77.3317 33.4492 78.8587C33.4492 80.3858 34.6872 81.6237 36.2142 81.6237Z" fill="#FFD200"/>
<path d="M37.497 79.5596C37.381 79.4357 37.2459 79.331 37.097 79.2496C37.0626 79.2298 37.034 79.2014 37.0138 79.1673C36.9937 79.1331 36.9827 79.0943 36.982 79.0546L36.937 78.6646C36.5844 78.5319 36.1982 78.5179 35.837 78.6246L35.772 79.0046C35.7698 79.0458 35.7565 79.0856 35.7337 79.1199C35.7108 79.1542 35.6791 79.1818 35.642 79.1996C35.4868 79.2701 35.3448 79.3665 35.222 79.4846C35.2015 79.5057 35.177 79.5224 35.1499 79.5338C35.1229 79.5452 35.0938 79.551 35.0645 79.551C35.0351 79.551 35.006 79.5452 34.979 79.5338C34.952 79.5224 34.9275 79.5057 34.907 79.4846L34.557 79.1096C34.5154 79.0667 34.4922 79.0094 34.4922 78.9496C34.4922 78.8899 34.5154 78.8325 34.557 78.7896C35.0557 78.3265 35.7175 78.0797 36.3978 78.1031C37.078 78.1265 37.7213 78.4183 38.187 78.9146C38.208 78.9351 38.2247 78.9596 38.2361 78.9867C38.2475 79.0137 38.2534 79.0428 38.2534 79.0721C38.2534 79.1015 38.2475 79.1305 38.2361 79.1576C38.2247 79.1846 38.208 79.2091 38.187 79.2296L37.812 79.5796C37.7902 79.5994 37.7646 79.6146 37.7368 79.6243C37.7091 79.634 37.6796 79.6381 37.6502 79.6362C37.6209 79.6344 37.5922 79.6266 37.5658 79.6135C37.5395 79.6003 37.5161 79.582 37.497 79.5596Z" fill="white"/>
<path d="M42.8822 81.6237C44.4093 81.6237 45.6472 80.3858 45.6472 78.8587C45.6472 77.3317 44.4093 76.0938 42.8822 76.0938C41.3551 76.0938 40.1172 77.3317 40.1172 78.8587C40.1172 80.3858 41.3551 81.6237 42.8822 81.6237Z" fill="#9ED6BE"/>
<path d="M30.1731 77.875H27.8281V79.845H30.1731V77.875Z" fill="white"/>
<path d="M31.2644 79.6428L30.4844 79.3828V78.3928L31.2644 78.1328V79.6428Z" fill="white"/>
<path d="M42.8831 76.9453H42.8781C42.4363 76.9453 42.0781 77.3035 42.0781 77.7453V78.9653C42.0781 79.4071 42.4363 79.7653 42.8781 79.7653H42.8831C43.325 79.7653 43.6831 79.4071 43.6831 78.9653V77.7453C43.6831 77.3035 43.325 76.9453 42.8831 76.9453Z" fill="white"/>
<path d="M43.0548 79.5H42.7148V80.45H43.0548V79.5Z" fill="white"/>
<path d="M43.5897 80.3594H42.1797V80.7594H43.5897V80.3594Z" fill="white"/>
<path d="M180.723 24.7344H102.723V107.934H180.723V24.7344Z" fill="#F2F2F2"/>
<path d="M180.723 97.1797H102.723V107.93H180.723V97.1797Z" fill="#E6E6E6"/>
<path d="M109.252 105.457C111.041 105.457 112.492 104.006 112.492 102.217C112.492 100.427 111.041 98.9766 109.252 98.9766C107.462 98.9766 106.012 100.427 106.012 102.217C106.012 104.006 107.462 105.457 109.252 105.457Z" fill="#9ED6BE"/>
<path d="M117.08 105.457C118.869 105.457 120.32 104.006 120.32 102.217C120.32 100.427 118.869 98.9766 117.08 98.9766C115.29 98.9766 113.84 100.427 113.84 102.217C113.84 104.006 115.29 105.457 117.08 105.457Z" fill="#FFD200"/>
<path d="M118.584 103.035C118.448 102.888 118.289 102.765 118.114 102.67C118.073 102.648 118.039 102.615 118.016 102.576C117.992 102.536 117.979 102.491 117.979 102.445L117.929 101.985C117.513 101.83 117.059 101.814 116.634 101.94L116.559 102.385C116.556 102.433 116.541 102.48 116.514 102.52C116.488 102.56 116.451 102.593 116.409 102.615C116.225 102.698 116.057 102.809 115.909 102.945C115.884 102.969 115.856 102.989 115.824 103.002C115.792 103.015 115.758 103.022 115.724 103.022C115.689 103.022 115.655 103.015 115.623 103.002C115.592 102.989 115.563 102.969 115.539 102.945L115.129 102.505C115.104 102.48 115.084 102.451 115.071 102.419C115.058 102.387 115.051 102.352 115.051 102.317C115.051 102.283 115.058 102.248 115.071 102.216C115.084 102.184 115.104 102.154 115.129 102.13C115.417 101.858 115.756 101.646 116.127 101.506C116.498 101.366 116.893 101.301 117.289 101.314C117.685 101.328 118.074 101.42 118.435 101.584C118.795 101.749 119.119 101.984 119.389 102.275C119.414 102.299 119.434 102.327 119.447 102.359C119.461 102.391 119.468 102.425 119.468 102.46C119.468 102.494 119.461 102.529 119.447 102.561C119.434 102.592 119.414 102.621 119.389 102.645L118.954 103.055C118.928 103.078 118.898 103.096 118.866 103.108C118.833 103.119 118.799 103.124 118.764 103.122C118.73 103.12 118.696 103.112 118.665 103.097C118.634 103.082 118.606 103.061 118.584 103.035Z" fill="white"/>
<path d="M124.896 105.457C126.686 105.457 128.136 104.006 128.136 102.217C128.136 100.427 126.686 98.9766 124.896 98.9766C123.107 98.9766 121.656 100.427 121.656 102.217C121.656 104.006 123.107 105.457 124.896 105.457Z" fill="#9ED6BE"/>
<path d="M109.992 101.062H107.242V103.373H109.992V101.062Z" fill="white"/>
<path d="M111.269 103.145L110.359 102.84V101.68L111.269 101.375V103.145Z" fill="white"/>
<path d="M125.017 99.9766H124.777C124.324 99.9766 123.957 100.344 123.957 100.797V102.467C123.957 102.919 124.324 103.287 124.777 103.287H125.017C125.47 103.287 125.837 102.919 125.837 102.467V100.797C125.837 100.344 125.47 99.9766 125.017 99.9766Z" fill="white"/>
<path d="M125.099 102.969H124.699V104.084H125.099V102.969Z" fill="white"/>
<path d="M125.721 103.984H124.066V104.454H125.721V103.984Z" fill="white"/>
<path d="M95.753 96.875H49.918V130.64H95.753V96.875Z" fill="#F2F2F2"/>
<path d="M95.753 90.5547H49.918V96.8747H95.753V90.5547Z" fill="#E6E6E6"/>
<path d="M53.7566 95.6225C54.8087 95.6225 55.6615 94.7696 55.6615 93.7175C55.6615 92.6654 54.8087 91.8125 53.7566 91.8125C52.7045 91.8125 51.8516 92.6654 51.8516 93.7175C51.8516 94.7696 52.7045 95.6225 53.7566 95.6225Z" fill="#9ED6BE"/>
<path d="M58.3542 95.6225C59.4063 95.6225 60.2592 94.7696 60.2592 93.7175C60.2592 92.6654 59.4063 91.8125 58.3542 91.8125C57.3021 91.8125 56.4492 92.6654 56.4492 93.7175C56.4492 94.7696 57.3021 95.6225 58.3542 95.6225Z" fill="#FFD200"/>
<path d="M59.2384 94.2034C59.1597 94.1166 59.0666 94.0439 58.9634 93.9884C58.9389 93.9755 58.9184 93.9561 58.9043 93.9322C58.8902 93.9084 58.8829 93.8811 58.8834 93.8534L58.8534 93.5834C58.6094 93.4929 58.3427 93.4842 58.0934 93.5584L58.0484 93.8184C58.0485 93.8474 58.04 93.8757 58.024 93.8997C58.008 93.9238 57.9851 93.9425 57.9584 93.9534C57.8538 94.0032 57.7576 94.069 57.6734 94.1484C57.659 94.163 57.6418 94.1745 57.6229 94.1823C57.6041 94.1902 57.5838 94.1942 57.5634 94.1942C57.5429 94.1942 57.5227 94.1902 57.5038 94.1823C57.4849 94.1745 57.4678 94.163 57.4534 94.1484L57.2134 93.8884C57.199 93.8745 57.1876 93.8578 57.1798 93.8393C57.172 93.8208 57.168 93.801 57.168 93.7809C57.168 93.7609 57.172 93.7411 57.1798 93.7226C57.1876 93.7041 57.199 93.6874 57.2134 93.6734C57.5556 93.3529 58.0112 93.1812 58.4799 93.1962C58.9486 93.2112 59.3923 93.4116 59.7134 93.7534C59.7279 93.7678 59.7394 93.785 59.7472 93.8039C59.7551 93.8227 59.7592 93.843 59.7592 93.8634C59.7592 93.8839 59.7551 93.9041 59.7472 93.923C59.7394 93.9419 59.7279 93.959 59.7134 93.9734L59.4584 94.2134C59.4433 94.2273 59.4256 94.2381 59.4064 94.2451C59.3872 94.2521 59.3667 94.2552 59.3463 94.2543C59.3258 94.2534 59.3057 94.2484 59.2872 94.2397C59.2687 94.2309 59.2521 94.2186 59.2384 94.2034Z" fill="white"/>
<path d="M62.948 95.6225C64.0001 95.6225 64.853 94.7696 64.853 93.7175C64.853 92.6654 64.0001 91.8125 62.948 91.8125C61.8959 91.8125 61.043 92.6654 61.043 93.7175C61.043 94.7696 61.8959 95.6225 62.948 95.6225Z" fill="#9ED6BE"/>
<path d="M54.1892 93.0391H52.5742V94.3991H54.1892V93.0391Z" fill="white"/>
<path d="M54.9423 94.2588L54.4023 94.0838V93.3988L54.9423 93.2188V94.2588Z" fill="white"/>
<path d="M63.5034 92.9534C63.5034 92.6469 63.2561 92.3984 62.9509 92.3984C62.6458 92.3984 62.3984 92.6469 62.3984 92.9534V93.7884C62.3984 94.095 62.6458 94.3434 62.9509 94.3434C63.2561 94.3434 63.5034 94.095 63.5034 93.7884V92.9534Z" fill="white"/>
<path d="M63.067 94.1641H62.832V94.8191H63.067V94.1641Z" fill="white"/>
<path d="M63.4348 94.7578H62.4648V95.0328H63.4348V94.7578Z" fill="white"/>
<path d="M119.103 114.641H102.723V130.556H119.103V114.641Z" fill="#F2F2F2"/>
<path d="M180.718 116.391H125.723V118.891H180.718V116.391Z" fill="#F2F2F2"/>
<path d="M180.718 121.352H125.723V123.852H180.718V121.352Z" fill="#F2F2F2"/>
<path d="M170.723 126.312H125.723V128.813H170.723V126.312Z" fill="#F2F2F2"/>
<path opacity="0.58" d="M32.3722 120.909C32.3722 120.909 25.1672 118.944 23.6172 112.249C23.6172 112.249 34.7622 109.994 35.0772 121.499L32.3722 120.909Z" fill="#9ED6BE"/>
<path opacity="0.73" d="M33.2571 120.195C33.2571 120.195 28.2271 112.25 32.6671 104.82C32.6671 104.82 41.1671 110.2 37.3771 120.21L33.2571 120.195Z" fill="#9ED6BE"/>
<path d="M34.5547 120.203C34.5547 120.203 37.2097 111.813 45.2347 110.203C45.2347 110.203 46.7347 115.653 40.0397 120.203H34.5547Z" fill="#9ED6BE"/>
<path d="M29.332 120.008L30.792 129.983L39.977 130.023L41.327 120.058L29.332 120.008Z" fill="#24285B"/>
<path d="M69.3287 40.79C69.3287 40.79 82.0537 43.195 89.7187 40.48C97.3837 37.765 92.2936 27.875 84.6186 22.665L87.9737 19.875C87.9737 19.875 108.549 33.425 97.3887 48.64C86.2287 63.855 58.8887 61.035 69.3287 40.79Z" fill="#9ED6BE"/>
<path opacity="0.46" d="M69.3287 40.79C69.3287 40.79 82.0537 43.195 89.7187 40.48C97.3837 37.765 92.2936 27.875 84.6186 22.665L87.9737 19.875C87.9737 19.875 108.549 33.425 97.3887 48.64C86.2287 63.855 58.8887 61.035 69.3287 40.79Z" fill="white"/>
<path d="M41.5086 74.5627H75.0086C78.0486 67.4427 88.1336 40.1127 63.9386 40.1877C61.9658 40.213 59.9974 40.3801 58.0486 40.6877C57.2336 40.8077 56.3886 40.9527 55.5086 41.1227C55.5086 41.1227 32.5586 40.7527 34.7086 52.9877C36.3386 62.2027 39.8736 70.8677 41.5086 74.5627Z" fill="#9ED6BE"/>
<path opacity="0.08" d="M61.1688 47.4391C57.3338 49.3591 56.6988 45.5241 56.6988 45.5241C56.0288 44.5541 56.8988 42.4191 58.0288 40.6641C59.9777 40.3565 61.9461 40.1894 63.9188 40.1641C64.0138 42.5591 63.6688 46.1891 61.1688 47.4391Z" fill="black"/>
<path d="M55.9166 41.193C56.0822 41.7296 56.2158 42.2756 56.3166 42.828C56.4466 43.583 56.8516 44.683 58.0866 44.738C59.9916 44.818 60.0866 41.818 60.0866 41.818C60.0866 41.818 60.8666 38.903 58.8016 38.818C56.9316 38.723 55.1966 38.718 55.9166 41.193Z" fill="#F4A28C"/>
<path d="M59.9727 41.9487C59.9727 41.9487 59.9727 41.0387 60.7327 40.9487C61.4927 40.8587 61.4427 42.6037 59.9727 41.9487Z" fill="#F4A28C"/>
<path d="M56.4813 41.9379C56.4813 41.9379 56.6313 41.0429 55.8713 40.8579C55.1113 40.6729 54.9263 42.3679 56.4813 41.9379Z" fill="#F4A28C"/>
<path opacity="0.08" d="M43.9661 74.5594H68.7961C68.7961 74.5594 43.2961 70.3144 46.8911 63.4594C50.4861 56.6044 46.8911 48.9844 46.8911 48.9844L35.2461 56.5994L37.1011 69.0994L43.9661 74.5594Z" fill="black"/>
<path d="M55.9192 41.1934C55.9192 41.1934 52.8542 41.1934 53.8892 38.7834C54.9242 36.3734 55.4492 37.9984 55.8442 36.1984C56.2392 34.3984 56.7642 33.9834 57.7992 34.5884C58.8342 35.1934 58.1442 36.8434 59.4892 36.2184C60.8342 35.5934 61.7392 35.0534 62.1742 36.1784C62.6092 37.3034 62.4192 37.9034 61.5642 38.4284C60.7092 38.9534 62.3592 40.3284 60.1742 41.2884C57.9892 42.2484 56.4492 39.9234 56.4492 39.9234L55.9192 41.1934Z" fill="#24285B"/>
<path d="M32.6079 74.5649H57.8929L57.5479 73.1149C57.5479 73.1149 35.7179 70.2949 38.2429 63.4299C40.3429 57.7049 50.3229 54.6849 46.3129 47.7649C45.8763 47.0339 45.2995 46.3964 44.6158 45.8891C43.932 45.3818 43.1546 45.0147 42.3285 44.8088C41.5023 44.603 40.6436 44.5625 39.8017 44.6897C38.9598 44.8169 38.1514 45.1092 37.4229 45.5499C31.4679 49.0949 22.2129 56.3899 24.7229 66.4899C25.7329 70.5499 28.7629 73.0599 32.6079 74.5649Z" fill="#9ED6BE"/>
<path opacity="0.46" d="M32.6079 74.5649H57.8929L57.5479 73.1149C57.5479 73.1149 35.7179 70.2949 38.2429 63.4299C40.3429 57.7049 50.3229 54.6849 46.3129 47.7649C45.8763 47.0339 45.2995 46.3964 44.6158 45.8891C43.932 45.3818 43.1546 45.0147 42.3285 44.8088C41.5023 44.603 40.6436 44.5625 39.8017 44.6897C38.9598 44.8169 38.1514 45.1092 37.4229 45.5499C31.4679 49.0949 22.2129 56.3899 24.7229 66.4899C25.7329 70.5499 28.7629 73.0599 32.6079 74.5649Z" fill="white"/>
<path d="M85.4666 21.9631C85.1116 22.2531 84.2866 20.8981 84.2016 20.7031C83.8016 19.7924 83.4756 18.851 83.2266 17.8881C83.6905 18.0707 84.0724 18.4153 84.3016 18.8581C84.3716 18.0631 84.0116 17.2331 84.2716 16.4781C84.3086 16.3196 84.3998 16.1789 84.5294 16.0804C84.659 15.9818 84.8189 15.9315 84.9816 15.9381C85.8466 15.9131 86.5216 16.6881 86.8966 17.4681C87.2267 18.069 87.5222 18.6884 87.7815 19.3231C87.9815 19.9081 87.6765 20.1131 87.2416 20.4831C86.6666 20.9831 86.0566 21.4681 85.4666 21.9631Z" fill="#F4A28C"/>
<path d="M62.5769 74.5582C62.6221 74.5259 62.6605 74.485 62.6898 74.4378C62.7191 74.3905 62.7388 74.3379 62.7476 74.2831C62.7565 74.2282 62.7543 74.1721 62.7413 74.118C62.7283 74.064 62.7047 74.0131 62.6719 73.9682C61.8469 72.7332 57.5469 73.1082 57.5469 73.1082L57.8919 74.5582H62.5769Z" fill="#F4A28C"/>
<path d="M46.4466 90.5547H23.9766V102.21H46.4466V90.5547Z" fill="#F2F2F2"/>
<path d="M87.0633 107.789C87.0633 107.789 93.4383 111.064 95.6233 109.564C97.8083 108.064 98.4333 99.7891 98.4333 99.7891L101.433 100.449C101.433 100.449 102.583 116.904 97.5233 118.609C92.4633 120.314 83.6133 115.949 83.6133 115.949L87.0633 107.789Z" fill="#F4A28C"/>
<path d="M69.6688 107.79C71.7688 111.965 76.3738 117.565 86.1438 118.595L88.2338 108.095C88.2338 108.095 80.8038 103.4 72.9438 102.82C72.3405 102.781 71.7376 102.902 71.1963 103.171C70.655 103.44 70.1946 103.848 69.862 104.353C69.5293 104.858 69.3362 105.442 69.3023 106.045C69.2683 106.649 69.3948 107.251 69.6688 107.79Z" fill="#9ED6BE"/>
<path opacity="0.46" d="M69.6688 107.79C71.7688 111.965 76.3738 117.565 86.1438 118.595L88.2338 108.095C88.2338 108.095 80.8038 103.4 72.9438 102.82C72.3405 102.781 71.7376 102.902 71.1963 103.171C70.655 103.44 70.1946 103.848 69.862 104.353C69.5293 104.858 69.3362 105.442 69.3023 106.045C69.2683 106.649 69.3948 107.251 69.6688 107.79Z" fill="white"/>
<path d="M98.5763 99.7888C98.4313 99.7538 98.2812 96.5738 98.6662 96.8688C98.9163 97.1082 99.0902 97.416 99.1662 97.7538C99.1662 97.7538 99.1663 95.5038 100.326 95.7538C101.486 96.0038 101.881 98.5938 101.421 100.414L98.5763 99.8888" fill="#F4A28C"/>
<path d="M71.364 93.2888C71.5241 94.4633 71.5241 95.6542 71.364 96.8288C71.3365 96.9667 71.2821 97.0979 71.2039 97.2148C71.1257 97.3317 71.0252 97.432 70.9081 97.51C70.7911 97.588 70.6599 97.6422 70.5219 97.6694C70.3839 97.6967 70.2419 97.6965 70.104 97.6688C69.6535 97.6046 69.2309 97.412 68.8869 97.1141C68.5429 96.8162 68.2919 96.4255 68.164 95.9888L67.429 94.1688C67.3204 93.7884 67.3323 93.3837 67.463 93.0104C67.5938 92.6371 67.8369 92.3134 68.159 92.0838C69.329 91.1388 71.249 91.9788 71.364 93.2888Z" fill="#F4A28C"/>
<path d="M67.5727 94.4844L66.8477 101.424L70.7026 101.549L69.6826 96.4494L67.5727 94.4844Z" fill="#F4A28C"/>
<path d="M70.8417 93.4001C70.1853 93.4573 69.5245 93.4405 68.8717 93.3501C69.0774 93.6295 69.1969 93.963 69.2155 94.3094C69.2342 94.6559 69.1512 95.0002 68.9767 95.3001C68.8126 95.5929 68.5517 95.8194 68.2387 95.9407C67.9258 96.0621 67.5803 96.0707 67.2617 95.9651L67.1517 93.2351C67.1195 92.8422 67.1957 92.4479 67.372 92.0953C67.5484 91.7426 67.8181 91.4451 68.1517 91.2351C68.4352 91.0489 68.7309 90.8818 69.0367 90.7351C69.8067 90.3751 70.9867 90.8401 71.6667 90.2701C71.7337 90.2094 71.8158 90.168 71.9044 90.1503C71.993 90.1326 72.0848 90.1392 72.1699 90.1695C72.2551 90.1998 72.3304 90.2525 72.388 90.3222C72.4455 90.3918 72.4831 90.4758 72.4967 90.5651C72.6617 91.3901 72.5867 92.7051 71.4967 93.2201C71.2891 93.3137 71.0681 93.3745 70.8417 93.4001Z" fill="#24285B"/>
<path d="M69.2046 95.2199C69.2046 95.2199 69.1446 94.4049 68.5296 94.4999C67.9146 94.5949 67.9996 95.7799 68.8396 95.8449L69.2046 95.2199Z" fill="#F4A28C"/>
<path d="M71.4839 94.6172L72.1189 95.4022C72.155 95.4473 72.1792 95.5007 72.1892 95.5576C72.1993 95.6145 72.1949 95.6729 72.1765 95.7277C72.1581 95.7824 72.1262 95.8316 72.0838 95.8709C72.0415 95.9101 71.9899 95.9381 71.9339 95.9522L71.1289 96.1472L71.4839 94.6172Z" fill="#F4A28C"/>
<path opacity="0.31" d="M69.953 97.5578C69.4679 97.4632 69.0212 97.2285 68.668 96.8828C68.869 97.8725 69.437 98.7495 70.258 99.3378L69.953 97.5578Z" fill="#CE8172"/>
<path d="M80.1126 130.642C81.4176 127.857 84.2126 120.767 83.5076 112.322C82.5976 101.397 70.5976 101.447 70.5976 101.447L68.8876 101.392C66.6502 101.3 64.441 101.918 62.5759 103.157C60.7108 104.397 59.2851 106.194 58.5026 108.292C55.7776 115.842 60.2926 126.427 62.3776 130.662L80.1126 130.642Z" fill="#9ED6BE"/>
<path opacity="0.08" d="M62.3319 130.638H68.4819C68.0219 129.318 67.6669 127.003 68.0869 123.038C68.9319 115.178 66.6319 107.062 66.6319 107.062C57.8669 107.383 60.5269 126.018 61.0219 127.678C61.3773 128.698 61.8154 129.688 62.3319 130.638Z" fill="black"/>
<path d="M61.0884 104.139C57.3734 106.974 52.7284 112.534 53.5284 122.324L64.2234 122.434C64.2234 122.434 67.4584 114.264 66.5684 106.434C66.495 105.835 66.2646 105.266 65.9004 104.785C65.5363 104.304 65.0513 103.928 64.4948 103.695C63.9383 103.462 63.3301 103.38 62.7318 103.458C62.1335 103.536 61.5665 103.771 61.0884 104.139Z" fill="#9ED6BE"/>
<path opacity="0.46" d="M61.0884 104.139C57.3734 106.974 52.7284 112.534 53.5284 122.324L64.2234 122.434C64.2234 122.434 67.4584 114.264 66.5684 106.434C66.495 105.835 66.2646 105.266 65.9004 104.785C65.5363 104.304 65.0513 103.928 64.4948 103.695C63.9383 103.462 63.3301 103.38 62.7318 103.458C62.1335 103.536 61.5665 103.771 61.0884 104.139Z" fill="white"/>
<path d="M60.5765 130.638C60.8434 127.811 61.5275 125.04 62.6065 122.413L54.5365 122.328C54.5203 125.103 54.6504 127.877 54.9265 130.638H60.5765Z" fill="#F4A28C"/>
<path d="M144.973 23.8331C144.973 23.8331 148.273 21.0381 150.873 22.9881C153.473 24.9381 151.703 32.8331 157.373 31.0181C157.373 31.0181 151.228 36.1131 146.928 27.7931L144.973 23.8331Z" fill="#24285B"/>
<path d="M147.609 29.246C147.609 29.246 149.854 28.931 148.924 25.871C147.994 22.811 145.459 22.921 144.734 23.726L147.609 29.246Z" fill="#9ED6BE"/>
<path d="M140.897 27.5885C141.052 29.069 141.405 30.5219 141.947 31.9085C142.022 32.0687 142.129 32.2123 142.26 32.3311C142.391 32.45 142.544 32.5418 142.711 32.6013C142.878 32.6607 143.055 32.6867 143.232 32.6776C143.408 32.6686 143.582 32.6247 143.741 32.5485C144.27 32.3324 144.725 31.9702 145.054 31.5044C145.384 31.0385 145.574 30.4884 145.601 29.9185L145.946 27.4685C145.963 26.9716 145.826 26.4817 145.553 26.0663C145.279 25.6508 144.884 25.3302 144.422 25.1485C142.737 24.3685 140.667 25.9735 140.897 27.5885Z" fill="#F4A28C"/>
<path d="M146.499 28.8359L148.239 37.4309L143.434 38.0509L144.079 31.7109L146.499 28.8359Z" fill="#F4A28C"/>
<path d="M141.168 29.2578L140.633 30.4128C140.603 30.4783 140.59 30.5503 140.595 30.6222C140.6 30.6942 140.623 30.7637 140.661 30.8244C140.7 30.8852 140.754 30.9352 140.817 30.9699C140.88 31.0045 140.951 31.0227 141.023 31.0228H142.063L141.168 29.2578Z" fill="#F4A28C"/>
<path opacity="0.31" d="M144.064 31.8875C144.629 31.7088 145.135 31.3805 145.529 30.9375C145.529 30.9375 146.084 32.7725 143.879 33.7025L144.064 31.8875Z" fill="#CE8172"/>
<path d="M146.318 28.88C146.318 28.88 146.143 27.88 146.918 27.8C147.693 27.72 147.953 29.195 146.948 29.53L146.318 28.88Z" fill="#F4A28C"/>
<path d="M141.429 27.3625C142.289 27.406 143.151 27.3063 143.979 27.0675C143.979 27.0675 144.859 29.9575 147.284 30.4325C147.284 30.4325 149.004 25.7725 146.084 24.3725C143.644 23.2025 141.799 22.1225 140.114 24.0425C139.868 24.3193 139.704 24.6588 139.64 25.0233C139.575 25.3878 139.614 25.763 139.75 26.1072C139.886 26.4513 140.115 26.7508 140.412 26.9725C140.708 27.1941 141.06 27.3291 141.429 27.3625Z" fill="#24285B"/>
<path d="M137.392 63.8838C137.392 63.8838 137.237 82.3839 124.722 83.6039C112.207 84.8238 104.952 60.3338 104.877 60.1038C104.692 59.4738 103.672 58.8938 103.307 58.3038C102.796 57.4688 102.527 56.5079 102.532 55.5288C102.528 55.4234 102.55 55.3185 102.597 55.2238C102.65 55.1543 102.723 55.103 102.806 55.077C102.889 55.0511 102.979 55.0517 103.062 55.0788C103.229 55.1344 103.382 55.2247 103.512 55.3438C103.341 54.7749 103.262 54.1826 103.277 53.5888C103.312 52.3338 104.277 50.9338 105.367 52.2838C105.856 52.9904 106.231 53.7701 106.477 54.5938C106.802 55.4738 107.077 56.3788 107.332 57.2838C107.395 57.7082 107.506 58.1242 107.662 58.5238C107.662 58.5238 114.927 71.2888 120.982 72.2788C127.037 73.2688 122.037 53.3338 135.667 43.5988C149.297 33.8638 137.392 63.8838 137.392 63.8838Z" fill="#F4A28C"/>
<path d="M144.109 28.6188C144.109 28.6188 144.109 27.4238 145.059 27.5038C146.009 27.5838 146.164 28.9638 145.059 29.6438L144.109 28.6188Z" fill="#F4A28C"/>
<path d="M148.237 37.4297L143.432 38.0497C143.432 38.0497 117.432 50.5497 132.312 68.1147C133.57 69.5784 134.375 71.3765 134.627 73.2897L135.977 84.0847H155.512C155.512 84.0847 183.727 43.7347 148.237 37.4297Z" fill="#9ED6BE"/>
<path opacity="0.08" d="M148.096 47.4297C148.096 47.4297 142.631 55.7097 150.121 63.5497C157.611 71.3897 153.266 78.2247 144.731 72.8547C136.196 67.4847 134.816 74.4847 134.816 74.4847L135.316 78.8797L148.601 78.7297L163.321 78.7847L168.501 66.5047L148.096 47.4297Z" fill="black"/>
<path d="M163.968 97.175L159.833 78.875H135.328L132.293 97.175H163.968Z" fill="#24285B"/>
<path d="M148.099 47.4281C147.794 41.6581 154.494 38.2281 159.174 41.6131C165.494 46.1881 174.459 53.9681 172.014 74.1831C169.044 98.6831 138.309 73.2881 138.309 73.2881L139.579 70.0531C139.579 70.0531 156.474 80.6131 161.009 73.9931C162.404 71.9531 160.509 68.8681 159.054 66.4231C156.454 62.0031 148.469 54.4681 148.099 47.4281Z" fill="#F4A28C"/>
<path d="M139.456 70.0656C139.316 69.0006 137.456 67.4456 136.696 66.8156C136.474 66.6064 136.21 66.4463 135.921 66.3456C135.776 66.2983 135.62 66.2919 135.471 66.3271C135.322 66.3624 135.185 66.438 135.076 66.5456C134.983 66.6928 134.923 66.8581 134.899 67.0305C134.874 67.203 134.887 67.3786 134.936 67.5456C135.131 68.7556 135.371 70.3706 136.021 71.4306C136.186 71.7006 138.101 73.2956 138.306 72.8356C138.661 72.0556 139.271 71.1606 139.446 70.3356C139.464 70.2468 139.468 70.1556 139.456 70.0656Z" fill="#F4A28C"/>
<path d="M150.124 37.7939C150.124 37.7939 150.789 35.7189 146.954 35.2939C143.119 34.8689 140.059 36.4889 141.319 39.2039C141.319 39.2139 144.209 41.5139 150.124 37.7939Z" fill="#9ED6BE"/>
<path opacity="0.46" d="M150.124 37.7939C150.124 37.7939 150.789 35.7189 146.954 35.2939C143.119 34.8689 140.059 36.4889 141.319 39.2039C141.319 39.2139 144.209 41.5139 150.124 37.7939Z" fill="white"/>
<path d="M136.83 73.3447L138.809 74.9453L141.853 71.1823L139.874 69.5817L136.83 73.3447Z" fill="#24285B"/>
</svg>
