<svg width="332" height="285" viewBox="0 0 332 285" fill="none" xmlns="http://www.w3.org/2000/svg">
<g clip-path="url(#clip0_21_410)">
<path opacity="0.3" d="M63.6823 58.674C39.4441 77.6647 25.1123 112.52 27.3554 148.918C28.5227 167.523 33.8209 185.59 48.1121 195.283C86.3979 221.257 253.254 221.064 276 175.673C299.426 128.922 291.377 63.8302 238.11 36.4252C191.948 12.7554 126.298 9.62921 63.6823 58.674Z" fill="#E6E6E6"/>
<path d="M226.844 133.865L252.219 132.576C252.219 132.576 256.38 128.79 259.902 128.79C263.424 128.79 264.713 137.133 254.776 138.412C254.776 138.412 240.018 150.592 217.221 146.116C194.424 141.64 198.911 129.409 226.844 133.865Z" fill="#F4A28C"/>
<path opacity="0.45" d="M169.151 284.684C238.129 284.684 294.047 276.881 294.047 267.256C294.047 257.631 238.129 249.829 169.151 249.829C100.173 249.829 44.2551 257.631 44.2551 267.256C44.2551 276.881 100.173 284.684 169.151 284.684Z" fill="#E6E6E6"/>
<path d="M123.709 175.825L139.655 263.836L145.654 264.353L147.146 177.865L123.709 175.825Z" fill="#F4A28C"/>
<path d="M150.891 183.387L222.063 237.557L226.843 233.893L169.557 169.075L150.891 183.387Z" fill="#F4A28C"/>
<path d="M92.9447 51.8325L82.4598 33.8467L76.9788 37.115L88.8441 65.3929L98.04 59.8104L92.9447 51.8325Z" fill="#F4A28C"/>
<path d="M169.496 150.633C167.907 148.856 166.986 146.582 166.89 144.201C166.793 141.82 167.528 139.479 168.968 137.58V137.58L174.155 130.749C191.593 159.636 232.264 154.348 232.264 154.348L235.065 127.359C220.855 130.993 194.221 118.224 190.831 102.999C187.441 87.7739 162.777 83.4195 162.777 83.4195L154.464 78.6084C136.295 72.6707 127.373 82.0797 123.09 94.7063C123.09 94.7063 111.326 124.588 113.468 140.188C115.61 155.789 118.979 233.832 118.979 233.832L214.4 200.855L169.496 150.633Z" fill="#24285B"/>
<path d="M139.533 262.516C139.533 262.516 136.904 267.266 132.621 267.743C128.338 268.22 128.703 274.331 135.422 272.595C137.508 272.066 139.545 271.363 141.512 270.494C143.343 269.745 145.339 269.493 147.298 269.763C147.676 269.786 148.053 269.694 148.377 269.498C148.702 269.302 148.959 269.013 149.115 268.667C150.688 266.079 145.055 261.613 145.055 261.613L139.533 262.516Z" fill="#9ED6BE"/>
<path d="M221.779 237.446C221.779 237.446 225.483 241.415 224.621 245.627C223.758 249.839 229.696 251.392 230.102 244.47C230.248 242.315 230.211 240.152 229.99 238.004C229.846 236.031 230.22 234.054 231.076 232.269C231.207 231.922 231.232 231.543 231.147 231.182C231.062 230.82 230.871 230.492 230.599 230.239C228.569 227.946 223.667 230.341 223.667 230.341L221.779 237.446Z" fill="#9ED6BE"/>
<path d="M149.46 78.7503C149.46 78.7503 107.429 73.7971 96.9641 48.4932L71.8022 69.1281C71.8022 69.1281 103.937 104.765 136.519 100.461L149.46 78.7503Z" fill="#24285B"/>
<path d="M162.32 63.3731C160.742 65.125 159.407 67.0812 158.351 69.189C158.142 69.7076 158.145 70.2877 158.36 70.8042C158.574 71.3207 158.983 71.7321 159.498 71.9498C160.313 72.3463 161.225 72.4998 162.125 72.3918C163.025 72.2838 163.875 71.9189 164.573 71.3408L167.811 69.1586C168.415 68.6506 168.847 67.9679 169.047 67.2045C169.247 66.441 169.205 65.6344 168.928 64.8956C168.075 62.1145 163.954 61.3634 162.32 63.3731Z" fill="#F4A28C"/>
<path d="M166.573 69.5747L162.726 83.4498L154.586 79.2274L161.051 71.1277L166.573 69.5747Z" fill="#F4A28C"/>
<path d="M156.017 77.4414C156.017 77.4414 145.248 75.5941 139.279 76.5076C133.311 77.4211 115.062 91.3367 135.037 105.689C155.012 120.041 176.997 120.457 190.781 103.03C190.781 103.03 189.766 93.8945 179.616 88.6977C169.466 83.5009 156.017 77.4414 156.017 77.4414Z" fill="#9ED6BE"/>
<path opacity="0.08" d="M160.584 79.522C160.584 79.522 154.393 85.612 161.224 91.5091C168.055 97.4063 171.374 90.961 173.404 99.5276C175.434 108.094 188.822 97.4976 188.822 97.4976C188.822 97.4976 185.706 92.0572 181.808 89.9359L160.584 79.522Z" fill="black"/>
<path d="M163.731 68.9862C163.731 68.9862 164.746 67.6971 165.639 68.5396C166.532 69.382 165.091 71.2395 163.609 70.4173L163.731 68.9862Z" fill="#F4A28C"/>
<path d="M162.32 63.373C163.634 64.7146 164.41 66.4913 164.502 68.3668C164.573 71.4118 158.311 81.5618 162.898 84.0384C167.486 86.515 170.826 83.5715 173.921 89.1134C177.017 94.6553 184.366 89.692 185.391 84.8707C186.416 80.0495 184.701 76.8319 178.743 75.1166C172.785 73.4012 174.033 64.9666 174.033 64.9666L162.32 63.373Z" fill="#FFD200"/>
<path d="M160.188 66.2153L158.26 66.804C158.152 66.8354 158.053 66.8932 157.973 66.9723C157.892 67.0513 157.833 67.149 157.8 67.2567C157.766 67.3644 157.76 67.4787 157.782 67.5892C157.804 67.6998 157.853 67.8032 157.925 67.8901L159.031 69.1081L160.188 66.2153Z" fill="#F4A28C"/>
<path opacity="0.31" d="M160.209 72.2241C161.257 72.5524 162.371 72.6082 163.447 72.3865C163.447 72.3865 162.036 74.7718 158.29 74.5891L160.209 72.2241Z" fill="#CE8172"/>
<path d="M155.479 54.6949L173.536 52.5532L185.675 66.2862L169.151 70.6202L162.32 63.3731L155.479 54.6949Z" fill="#24285B"/>
<path d="M182.884 66.2153C182.884 66.2153 181.706 74.7616 190.781 74.5992C199.855 74.4368 202.961 81.1663 202.961 81.1663" stroke="#24285B" stroke-width="1.015" stroke-miterlimit="10"/>
<path d="M202.717 82.8916C204.18 82.8916 205.366 81.7055 205.366 80.2424C205.366 78.7793 204.18 77.5933 202.717 77.5933C201.254 77.5933 200.068 78.7793 200.068 80.2424C200.068 81.7055 201.254 82.8916 202.717 82.8916Z" fill="#9ED6BE"/>
<path d="M86.5024 13.0964L56.5831 34.1787L60.6815 39.995L90.6008 18.9127L86.5024 13.0964Z" fill="#FFD200"/>
<path d="M70.8278 22.1035L80.3181 28.3255L75.3547 31.8374L66.4532 25.1891L70.8278 22.1035Z" fill="#24285B"/>
<path d="M118.31 220.181L202.92 187.985L214.4 200.814L118.929 233.853L118.31 220.181Z" fill="#9ED6BE"/>
<path opacity="0.08" d="M195.338 207.412C195.338 207.412 152.637 166.386 155.479 144.584C158.321 122.781 171.404 116.356 178.976 121.634C186.548 126.912 189.623 143.589 233.187 145.345L232.264 154.348C232.264 154.348 192.212 159.575 174.155 130.749L168.968 137.58C167.554 139.489 166.835 141.825 166.931 144.2C167.027 146.574 167.932 148.844 169.496 150.633L214.4 200.855L195.338 207.412Z" fill="black"/>
<path d="M82.4597 33.8469C82.4597 33.8469 81.2722 26.7419 76.9787 24.5089C72.6853 22.2759 67.9249 29.5839 76.9787 37.1152L82.4597 33.8469Z" fill="#F4A28C"/>
<path d="M311.626 30.5585C313.841 30.5585 315.636 28.7635 315.636 26.5493C315.636 24.335 313.841 22.54 311.626 22.54C309.412 22.54 307.617 24.335 307.617 26.5493C307.617 28.7635 309.412 30.5585 311.626 30.5585Z" fill="#C9C9C9"/>
<path d="M241.906 83.5312C244.12 83.5312 245.915 81.7362 245.915 79.5219C245.915 77.3077 244.12 75.5127 241.906 75.5127C239.692 75.5127 237.897 77.3077 237.897 79.5219C237.897 81.7362 239.692 83.5312 241.906 83.5312Z" fill="#C9C9C9"/>
<path d="M82.4598 179.926C84.674 179.926 86.469 178.131 86.469 175.916C86.469 173.702 84.674 171.907 82.4598 171.907C80.2455 171.907 78.4505 173.702 78.4505 175.916C78.4505 178.131 80.2455 179.926 82.4598 179.926Z" fill="#C9C9C9"/>
<path d="M3.92917 150.541C6.14342 150.541 7.93842 148.746 7.93842 146.532C7.93842 144.318 6.14342 142.523 3.92917 142.523C1.71492 142.523 -0.0800781 144.318 -0.0800781 146.532C-0.0800781 148.746 1.71492 150.541 3.92917 150.541Z" fill="#C9C9C9"/>
<path d="M288.444 235.416C290.658 235.416 292.453 233.621 292.453 231.407C292.453 229.192 290.658 227.397 288.444 227.397C286.23 227.397 284.435 229.192 284.435 231.407C284.435 233.621 286.23 235.416 288.444 235.416Z" fill="#C9C9C9"/>
<path opacity="0.36" d="M14.0589 25.5644C16.2732 25.5644 18.0682 23.7694 18.0682 21.5551C18.0682 19.3409 16.2732 17.5459 14.0589 17.5459C11.8447 17.5459 10.0497 19.3409 10.0497 21.5551C10.0497 23.7694 11.8447 25.5644 14.0589 25.5644Z" fill="#C9C9C9"/>
<path opacity="0.36" d="M166.573 8.50239C168.787 8.50239 170.582 6.70738 170.582 4.49314C170.582 2.27889 168.787 0.483887 166.573 0.483887C164.359 0.483887 162.564 2.27889 162.564 4.49314C162.564 6.70738 164.359 8.50239 166.573 8.50239Z" fill="#C9C9C9"/>
<path opacity="0.36" d="M71.8022 105.486C74.0165 105.486 75.8115 103.691 75.8115 101.477C75.8115 99.2623 74.0165 97.4673 71.8022 97.4673C69.588 97.4673 67.793 99.2623 67.793 101.477C67.793 103.691 69.588 105.486 71.8022 105.486Z" fill="#C9C9C9"/>
<path opacity="0.36" d="M37.1501 241.313C39.3644 241.313 41.1594 239.518 41.1594 237.304C41.1594 235.089 39.3644 233.294 37.1501 233.294C34.9359 233.294 33.1409 235.089 33.1409 237.304C33.1409 239.518 34.9359 241.313 37.1501 241.313Z" fill="#C9C9C9"/>
<path opacity="0.36" d="M327.714 132.779C329.928 132.779 331.723 130.984 331.723 128.77C331.723 126.555 329.928 124.76 327.714 124.76C325.5 124.76 323.705 126.555 323.705 128.77C323.705 130.984 325.5 132.779 327.714 132.779Z" fill="#C9C9C9"/>
</g>
<defs>
<clipPath id="clip0_21_410">
<rect width="332" height="285" fill="white"/>
</clipPath>
</defs>
</svg>
