<svg width="438" height="286" viewBox="0 0 438 286" fill="none" xmlns="http://www.w3.org/2000/svg">
<path d="M398.573 0H192.008V256.276H398.573V0Z" fill="#E6E6E6"/>
<path opacity="0.08" d="M398.573 0H192.008V73.1136H398.573V0Z" fill="black"/>
<path opacity="0.44" d="M215.464 11.0938H375.244C379.153 11.0938 382.306 14.2452 382.306 18.153V55.088C382.306 58.9958 379.153 62.1472 375.244 62.1472H215.464C211.555 62.1472 208.402 58.9958 208.402 55.088V18.153C208.402 14.2452 211.555 11.0938 215.464 11.0938Z" fill="white"/>
<path opacity="0.08" d="M247.117 92.1484H206.258V121.898H247.117V92.1484Z" fill="black"/>
<path opacity="0.08" d="M293.148 92.1484H252.289V121.898H293.148V92.1484Z" fill="black"/>
<path opacity="0.08" d="M339.304 92.1484H298.445V121.898H339.304V92.1484Z" fill="black"/>
<path opacity="0.08" d="M385.457 92.1484H344.598V121.898H385.457V92.1484Z" fill="black"/>
<path opacity="0.08" d="M247.117 129.211H206.258V158.961H247.117V129.211Z" fill="black"/>
<path opacity="0.08" d="M293.148 129.211H252.289V158.961H293.148V129.211Z" fill="black"/>
<path opacity="0.08" d="M339.304 129.211H298.445V158.961H339.304V129.211Z" fill="black"/>
<path opacity="0.08" d="M385.457 129.211H344.598V158.961H385.457V129.211Z" fill="black"/>
<path opacity="0.08" d="M247.117 166.266H206.258V196.015H247.117V166.266Z" fill="black"/>
<path opacity="0.08" d="M293.148 166.266H252.289V196.015H293.148V166.266Z" fill="black"/>
<path opacity="0.08" d="M339.304 166.266H298.445V196.015H339.304V166.266Z" fill="black"/>
<path opacity="0.08" d="M293.273 203.328H206.258V233.078H293.273V203.328Z" fill="black"/>
<path opacity="0.08" d="M339.304 203.328H298.445V233.078H339.304V203.328Z" fill="black"/>
<path d="M385.457 166.266H344.598V233.076H385.457V166.266Z" fill="#FFD200"/>
<path opacity="0.2" d="M269.187 117.106C276.012 117.106 281.545 111.575 281.545 104.752C281.545 97.9294 276.012 92.3984 269.187 92.3984C262.361 92.3984 256.828 97.9294 256.828 104.752C256.828 111.575 262.361 117.106 269.187 117.106Z" fill="#FFD200"/>
<path opacity="0.08" d="M271.458 122.023L242.957 164.253L219.249 159.084L197.18 125.301V178.75C208.908 188.582 225.68 200.179 237.03 196.776C255.946 191.103 283.816 164.001 271.458 122.023Z" fill="black"/>
<path d="M269.187 110.932C272.6 110.932 275.366 108.166 275.366 104.755C275.366 101.344 272.6 98.5781 269.187 98.5781C265.774 98.5781 263.008 101.344 263.008 104.755C263.008 108.166 265.774 110.932 269.187 110.932Z" fill="#FFD200"/>
<path d="M130.846 110.68C130.846 110.68 102.22 132.11 117.479 178.247C132.738 224.384 165.274 201.946 165.274 201.946V164.254L130.846 110.68Z" fill="#9ED6BE"/>
<path opacity="0.46" d="M130.846 110.68C130.846 110.68 102.22 132.11 117.479 178.247C132.738 224.384 165.274 201.946 165.274 201.946V164.254L130.846 110.68Z" fill="white"/>
<path d="M203.234 270.141L209.035 274.679C209.666 275.183 209.792 275.939 209.287 276.57C209.035 276.948 208.657 277.074 208.152 277.074H200.838C198.694 277.074 197.055 275.309 197.055 273.292V270.141H203.234Z" fill="#9ED6BE"/>
<path d="M141.943 270.141L136.142 274.679C135.511 275.183 135.385 275.939 135.889 276.57C136.142 276.948 136.52 277.074 137.024 277.074H144.339C146.482 277.074 148.122 275.309 148.122 273.292V270.141H141.943Z" fill="#9ED6BE"/>
<path d="M165.273 104.749L166.282 88.488C166.282 88.488 167.417 78.0252 172.714 79.9161C178.01 81.8069 183.433 92.1437 180.659 95.2951C179.145 97.06 177.506 95.9254 175.488 96.1775C173.723 96.3036 173.975 96.0515 173.975 97.8163V103.993L165.273 104.749Z" fill="#F4A28C"/>
<path d="M160.103 103.995C160.103 103.995 127.44 101.096 123.153 123.156C118.865 145.216 149.257 186.815 149.257 186.815L191.63 185.177C191.63 185.177 257.458 92.6502 160.103 103.995Z" fill="#9ED6BE"/>
<path opacity="0.08" d="M188.856 112.82C188.856 112.82 163.508 128.199 175.993 151.394C183.937 166.395 163.508 186.186 163.508 186.186L191.63 185.052C191.63 185.052 201.845 169.799 203.989 163.874C206.132 158.075 188.856 112.82 188.856 112.82Z" fill="black"/>
<path d="M149.257 186.818L139.547 270.143H149.005L170.065 203.206L193.773 270.143H204.493L191.63 185.18L149.257 186.818Z" fill="#24285B"/>
<path d="M165.275 97.9469H170.446C170.446 97.9469 171.581 88.4926 175.112 86.7277C178.643 84.9629 182.3 81.5594 179.147 78.4079C175.994 75.2565 171.328 71.7268 166.032 75.3825C160.735 79.1643 158.718 88.1144 165.275 97.9469Z" fill="#24285B"/>
<path d="M186.331 118.114C187.844 111.181 194.654 106.769 201.464 108.282C203.608 108.786 205.499 109.668 207.139 111.055C211.174 114.584 215.21 119.879 217.984 128.073C221.137 137.401 225.803 146.225 231.856 154.041C234.504 157.318 239.17 157.822 242.449 155.175C243.332 154.545 243.962 153.662 244.467 152.78L261.365 119.375L271.328 124.921C271.328 124.921 259.726 174.588 242.449 179.378C227.19 183.79 178.134 154.797 186.331 118.114Z" fill="#9ED6BE"/>
<path opacity="0.46" d="M186.331 118.114C187.844 111.181 194.654 106.769 201.464 108.282C203.608 108.786 205.499 109.668 207.139 111.055C211.174 114.584 215.21 119.879 217.984 128.073C221.137 137.401 225.803 146.225 231.856 154.041C234.504 157.318 239.17 157.822 242.449 155.175C243.332 154.545 243.962 153.662 244.467 152.78L261.365 119.375L271.328 124.921C271.328 124.921 259.726 174.588 242.449 179.378C227.19 183.79 178.134 154.797 186.331 118.114Z" fill="white"/>
<path d="M263.512 120.639C263.512 120.639 265.403 104.377 269.313 102.99C273.348 101.73 269.313 112.823 269.313 112.823C269.313 112.823 280.284 114.084 271.33 124.925L263.512 120.639Z" fill="#F4A28C"/>
<path opacity="0.3" fill-rule="evenodd" clip-rule="evenodd" d="M431.23 0.00890769V4.72998C431.23 74.4594 431.23 144.189 431.203 213.927C431.203 214.775 431.054 215.624 430.905 216.472C430.762 217.28 430.62 218.089 430.607 218.898C430.589 219.984 430.927 221.133 431.346 222.158C432.667 225.351 434.026 228.525 435.386 231.699C436.09 233.343 436.793 234.986 437.492 236.633C437.59 236.856 437.626 237.239 437.501 237.408C435.17 240.444 436.114 243.403 437.049 246.335C437.461 247.627 437.872 248.913 438 250.199H394.014C388.31 250.199 382.606 250.21 376.903 250.221H376.902H376.901H376.9C361.47 250.251 346.042 250.281 330.609 250.092C325.585 250.03 321.47 251.624 317.479 254.19C314.664 255.998 312.027 256.782 308.366 256.043C305.869 255.537 303.17 256.014 300.479 256.489C299.378 256.684 298.279 256.878 297.196 257.005C296.803 257.049 296.381 257.193 295.967 257.335C295.304 257.561 294.664 257.78 294.203 257.566C290.519 255.834 288.114 257.62 285.598 259.489C285.073 259.879 284.543 260.273 283.995 260.639C282.613 261.562 280.875 261.971 279.149 262.377C278.493 262.531 277.84 262.685 277.207 262.866C275.521 263.345 273.818 263.78 272.115 264.214C268.594 265.113 265.074 266.011 261.699 267.302C259.622 268.096 257.612 269.062 255.601 270.029C251.384 272.056 247.168 274.083 242.343 274.517C242.045 274.544 241.749 274.574 241.455 274.605C239.078 274.851 236.83 275.084 234.682 272.967C232.384 270.696 229.89 269.858 226.531 272.647C224.207 274.583 221.304 275.828 218.405 277.07C217.237 277.57 216.07 278.07 214.943 278.615C214.506 278.829 213.865 278.837 213.384 278.695C208.761 277.359 204.556 277.564 200.842 281.207C199.345 282.677 198.045 282 197.43 279.906C196.352 276.192 191.07 273.404 187.186 274.277L187.001 274.319C185.779 274.595 184.09 274.977 183.463 274.401C180.381 271.586 177.299 272.417 174.1 273.28C173.555 273.427 173.006 273.576 172.453 273.707C171.298 273.98 170.079 273.962 168.855 273.943C167.803 273.928 166.748 273.912 165.728 274.081C163.554 274.437 161.3 274.998 159.376 276.023C157.133 277.214 154.958 278.525 152.782 279.837C150.776 281.046 148.769 282.256 146.71 283.371C144.697 284.458 142.425 285.572 140.216 285.687C136.466 285.883 132.538 285.839 128.939 284.912C123.167 283.425 117.528 281.314 112.005 279.06C110.803 278.57 109.769 276.45 109.547 274.954C109.169 272.382 108.934 269.78 108.698 267.18C108.299 262.783 107.901 258.393 106.821 254.172C104.977 246.966 100.247 241.416 93.4417 237.693C93.0436 237.476 92.6605 237.254 92.2881 237.039C89.4687 235.41 87.265 234.137 83.8659 237.702C80.3741 241.363 72.7491 237.408 72.2057 232.224C71.8494 228.785 69.3553 227.583 65.1776 228.233C62.2737 228.687 59.0758 228.954 57.7842 224.83C56.9389 225.173 56.0474 225.452 55.164 225.728C53.2265 226.333 51.3282 226.926 50.0434 228.162C46.8812 231.199 45.1798 229.498 43.3092 227.191C40.7349 224.011 39.3274 223.93 36.9402 227.476V197.421C38.8977 198.501 38.9002 198.975 38.9425 206.874L38.9444 207.229C38.9566 209.886 39.2385 212.543 39.5267 215.259L39.5267 215.259L39.5267 215.259C39.6608 216.523 39.7962 217.799 39.9064 219.094H43.6566L41.2871 211.869C42.3468 210.98 43.2489 210.223 44.0672 209.535C45.175 208.605 46.1291 207.804 47.1128 206.979C45.6341 204.244 44.3514 201.875 42.9172 199.229C43.6166 199.274 44.2367 199.309 45.1624 199.362L45.1766 199.363L45.1798 199.363C43.612 195.007 46.6763 193.502 49.9276 191.987C49.4319 191.472 48.9609 190.979 48.5028 190.5L48.5025 190.5C47.9318 189.903 47.3811 189.327 46.8277 188.754C43.6031 191.373 39.2473 191.587 36.1029 189.288C35.6397 188.95 35.0785 188.433 35.0072 187.943C34.5993 185.088 34.2559 182.222 33.8726 179.025L33.8726 179.025C33.7621 178.103 33.6482 177.153 33.5285 176.167C34.5273 177.171 35.4023 178.054 36.2265 178.886L36.2286 178.888L36.2433 178.903L36.2436 178.903L36.25 178.91C36.8507 179.516 37.4247 180.095 38.0002 180.675L38.6148 180.14L36.9046 177.45C40.0683 176.015 43.1224 174.635 46.1421 173.27L46.1552 173.264L46.1622 173.261L46.1689 173.258L46.2164 173.236L46.2808 173.207C47.4315 172.687 48.5775 172.169 49.7227 171.651L49.5535 171.09C49.2395 171.073 48.9111 171.087 48.5826 171.1H48.5824H48.5823H48.5822C47.8764 171.129 47.1702 171.159 46.605 170.885C45.8295 170.511 44.9104 170.401 43.9855 170.29C41.9147 170.043 39.8144 169.791 39.2295 166.565C39.1131 165.94 37.5177 165.581 35.93 165.223L35.9296 165.223L35.9295 165.223C35.2089 165.06 34.4899 164.898 33.9116 164.712C33.7844 165.131 33.626 165.552 33.4676 165.972C33.1045 166.935 32.7412 167.899 32.7536 168.854C32.772 169.774 33.1661 170.685 33.593 171.673C33.7862 172.119 33.9861 172.582 34.161 173.068L31.7915 173.237C31.5027 171.019 31.2273 168.811 30.9529 166.611C30.2036 160.604 29.4625 154.662 28.4779 148.767C28.1127 146.585 26.5627 144.483 25.182 142.63C22.8313 139.47 22.3208 135.873 21.8041 132.234C21.6728 131.308 21.541 130.38 21.3785 129.455C21.1596 128.204 20.9491 126.947 20.7383 125.688C19.645 119.159 18.5433 112.579 16.2209 106.5C14.5552 102.144 11.0901 98.136 6.68967 94.9649C4.58658 93.4515 3.80394 89.9036 3.07607 86.6039C2.8914 85.7668 2.71026 84.9456 2.51197 84.1777C1.79082 81.3609 1.35969 78.4673 0.917554 75.4999L0.917545 75.4999C0.720715 74.1788 0.521704 72.8432 0.293954 71.4931C0.474438 70.696 0.663387 69.865 0.857824 69.0099L0.857942 69.0093C1.35441 66.8259 1.88664 64.4851 2.40508 62.149C2.45131 61.9463 2.44501 61.7052 2.43889 61.4712C2.42968 61.119 2.42089 60.7827 2.59214 60.6168C4.98831 58.3276 3.66997 56.9291 1.56775 55.5573C1.13765 55.2808 0.809258 54.8517 0.471496 54.4104L0.471457 54.4103C0.319568 54.2118 0.165784 54.0109 0 53.8203C2.69903 52.4218 6.37791 52.787 9.36198 54.7021C9.99156 55.1062 10.618 55.5136 11.2438 55.9206C16.3286 59.2274 21.3657 62.5032 27.6317 63.7167C29.1872 64.016 30.5481 65.1507 31.9303 66.303C33.0572 67.2425 34.1982 68.1938 35.4704 68.7139C39.2206 70.246 43.2825 71.2882 47.2998 71.8049C49.3801 72.0741 51.5277 71.7886 53.679 71.5025C54.6596 71.3721 55.6411 71.2416 56.6173 71.1635C56.7108 71.155 56.8115 71.1404 56.914 71.1256C57.2411 71.0781 57.5875 71.0279 57.7842 71.1635C59.8076 72.5903 62.0814 72.8367 64.375 73.0852C65.2317 73.178 66.0911 73.2711 66.9413 73.4261C68.3318 73.6803 69.7136 74.027 71.0904 74.3725L71.0906 74.3725L71.0907 74.3725L71.0909 74.3725C76.3728 75.6979 81.5814 77.0048 86.9301 72.9985C89.2996 71.2259 93.5664 74.8424 94.3592 78.7974C94.5222 79.6127 94.7876 80.4075 95.0527 81.2013L95.0528 81.2015C95.1787 81.5785 95.3045 81.9552 95.4192 82.3338L96.4703 82.0666C96.2921 80.766 96.114 79.4655 95.9091 77.9601L99.9799 76.8199C101.098 78.7429 102.211 80.6704 103.53 82.9541L103.535 82.9627L103.537 82.966L103.542 82.9742C104.059 83.8688 104.607 84.8182 105.2 85.8434C105.269 85.1823 105.402 84.5268 105.527 83.909L105.527 83.9088L105.527 83.9086L105.527 83.9085C105.789 82.6204 106.017 81.4966 105.565 80.8284C105.29 80.4177 104.868 80.0827 104.454 79.7535L104.454 79.7535L104.454 79.7534L104.454 79.7534C103.476 78.9758 102.539 78.2306 103.659 76.5972C105.12 74.4594 106.759 72.1701 110.438 74.2367C109.654 75.3145 108.843 76.4191 107.908 77.6929C108.361 78.5459 108.862 79.4829 109.414 80.5144C109.687 81.0232 109.971 81.555 110.268 82.1111C110.814 80.9651 111.314 79.9241 111.922 78.6597L111.923 78.6572C112.316 77.8386 112.754 76.9263 113.279 75.8312L115.248 83.082C114.574 83.2994 114.004 83.4849 113.487 83.6532L113.487 83.6534C112.945 83.8297 112.462 83.9871 111.979 84.142C112.13 84.4338 112.276 84.7298 112.423 85.0262C112.75 85.6888 113.078 86.353 113.466 86.9747C113.633 87.2398 113.925 87.5275 114.196 87.7946C114.563 88.1556 114.892 88.479 114.82 88.6582C113.889 90.8667 115.061 92.089 116.261 93.3409C116.886 93.9927 117.519 94.6525 117.867 95.4637C111.437 98.2486 110.007 103.862 108.39 110.207L108.389 110.208C108.263 110.702 108.136 111.201 108.006 111.702C107.906 111.403 107.774 111.1 107.642 110.797C107.35 110.128 107.057 109.457 107.106 108.807C107.164 108.021 107.237 107.235 107.309 106.449L107.309 106.448C107.545 103.878 107.781 101.301 107.543 98.6616C107.285 99.2965 107.027 99.9337 106.765 100.583L106.756 100.604L106.751 100.617L106.747 100.626C106.507 101.22 106.263 101.825 106.01 102.447L104.407 100.639L103.721 100.933L103.856 101.652L104.019 102.515L104.02 102.523C104.213 103.549 104.417 104.639 104.656 105.904C104.542 106.19 104.424 106.533 104.293 106.911C103.965 107.861 103.56 109.032 102.955 110.09C101.995 111.771 100.908 113.381 99.8196 114.992L99.8186 114.994C99.3616 115.67 98.9045 116.347 98.4567 117.029C98.1043 117.564 97.7377 118.093 97.371 118.621L97.371 118.621C96.5049 119.869 95.6381 121.117 94.956 122.463C92.7023 126.908 90.5734 131.424 88.5068 135.967C87.3666 138.479 87.8565 139.619 91.0811 139.432C96.3107 139.136 100.197 136.392 104.152 133.6L104.434 133.402C102.612 133.482 100.979 134.356 99.3312 135.237C96.6026 136.697 93.8332 138.179 90.1013 136.118C90.5405 135.206 90.9685 134.286 91.3965 133.366L91.3968 133.365C93.7381 128.334 96.0835 123.293 100.301 119.31C100.549 119.073 100.734 118.761 100.918 118.45C101.136 118.082 101.353 117.716 101.672 117.484C102.152 117.133 102.548 116.663 102.946 116.191C103.913 115.043 104.887 113.885 107.097 114.428C108.104 114.678 110.865 112.477 110.794 111.551C110.5 107.747 112.388 105.253 114.606 102.67C115.598 101.511 116.461 100.248 117.409 98.8622L117.409 98.8618L117.409 98.8618L117.409 98.8617L117.409 98.8616L117.411 98.8595C117.876 98.1795 118.361 97.47 118.891 96.7286C119.169 97.3165 119.398 97.8003 119.598 98.2252C119.859 98.7788 120.073 99.2324 120.289 99.686L121.056 99.4811C120.834 98.1479 120.615 96.8147 120.395 95.4716L120.395 95.4697C120.207 94.3277 120.019 93.1787 119.826 92.0164C122.053 91.4464 123.372 91.6512 123.737 94.3235C124.109 97.0756 124.707 99.7974 125.331 102.637C125.602 103.869 125.878 105.123 126.142 106.411H122.463C122.816 108.108 123.172 109.823 123.539 111.594C124.127 114.424 124.744 117.399 125.429 120.681L119.826 118.25C120.398 119.185 120.917 120.027 121.398 120.807L121.398 120.808C122.484 122.569 123.372 124.011 124.218 125.474C124.458 125.883 124.521 126.525 124.414 126.997C123.618 130.377 122.791 133.752 121.964 137.126C121.7 138.207 121.435 139.287 121.171 140.367C121.145 140.492 121.082 140.626 120.993 140.715C120.336 141.376 120.73 142.33 121.114 143.257C121.656 144.566 122.176 145.823 119.684 146.131C118.582 146.268 117.385 145.622 116.061 144.907L116.061 144.907C115.414 144.558 114.737 144.193 114.027 143.895C114.474 142.972 114.942 142.007 115.439 140.984L115.462 140.937L115.469 140.924L115.471 140.918L115.485 140.889C116.174 139.471 116.917 137.94 117.733 136.252C113.751 137.722 111.72 140.109 110.919 143.556C110.785 144.138 110.802 144.76 110.818 145.377L110.818 145.378C110.824 145.582 110.829 145.786 110.829 145.988C110.829 148.643 110.829 151.297 110.366 153.969C106.759 150.585 105.814 146.968 107.712 142.363C108.216 141.138 107.992 139.609 107.743 137.913C107.623 137.093 107.497 136.235 107.445 135.352C107.012 136.403 106.589 137.357 106.193 138.249L106.193 138.249L106.193 138.25L106.193 138.25C105.351 140.148 104.632 141.768 104.202 143.458C103.783 145.124 103.596 147.467 104.452 148.732C106.718 152.097 104.681 152.477 102.504 152.884L102.465 152.892C103.077 154.413 103.698 155.951 104.445 157.804L104.914 158.966L105.672 160.846L106.411 154.335L107.578 154.442C107.646 154.962 107.714 155.481 107.793 156.087L107.938 157.201L108.113 158.539C108.341 157.75 108.506 157.187 108.65 156.692L108.651 156.69C108.777 156.258 108.888 155.879 109.012 155.448C109.227 155.822 109.406 156.22 109.579 156.604C109.945 157.416 110.281 158.162 110.856 158.477C112.005 159.1 114.205 159.688 114.802 159.109C119.354 154.682 122.009 149.159 123.051 142.986C125.066 144.06 127.116 145.152 129.167 146.244L129.188 146.255L129.83 145.178L127.843 143.369C128.161 143.146 128.474 142.908 128.789 142.669L128.79 142.669C129.43 142.183 130.078 141.691 130.783 141.303C135.014 138.996 135.281 136.822 132.707 132.529C131.887 131.169 131.597 129.491 131.307 127.81C131.171 127.024 131.035 126.237 130.845 125.483C130.59 124.475 130.329 123.467 130.06 122.428L130.059 122.426C129.832 121.546 129.598 120.645 129.357 119.702C129.934 119.64 130.508 119.58 131.136 119.514L131.139 119.514L131.142 119.514C132.153 119.408 133.305 119.287 134.836 119.123C132.377 116.985 130.587 115.426 128.44 113.555C131.691 110.348 132.368 106.554 130.854 102.34C130.694 101.895 130.747 101.031 131.032 100.835C133.268 99.2594 133.8 96.9317 134.33 94.6084C134.631 93.2935 134.931 91.98 135.539 90.805C135.627 90.6407 135.701 90.4195 135.773 90.2062C135.892 89.8529 136.004 89.5211 136.154 89.5045C139.568 89.182 140.058 86.8677 140.55 84.5418L140.551 84.5414L140.551 84.5411L140.551 84.5408C140.684 83.9117 140.817 83.2817 141.009 82.6901C135.789 80.6146 132.146 75.8312 132.493 70.5667C132.751 66.6384 130.489 66.0505 127.799 65.5873C124.908 69.9444 127.113 72.8007 129.327 75.6694C130.314 76.9471 131.302 78.2273 131.843 79.6437C130.852 78.118 129.307 76.9153 127.762 75.7127C124.319 73.0326 120.877 70.353 123.576 64.0997C124.681 63.9253 125.994 63.7206 127.565 63.4756L128.633 63.3091L130.302 63.0486C130.439 62.7852 130.6 62.5254 130.762 62.2656C131.695 60.7604 132.627 59.2582 128.966 57.0627C128.493 56.7796 127.952 56.5048 127.385 56.2164C124.558 54.7805 121.071 53.0093 122.124 48.2173L120.913 47.9768C120.78 48.3081 120.611 48.6411 120.442 48.9745C120.064 49.7168 119.686 50.461 119.71 51.1925C119.764 52.787 120.076 54.5685 120.913 55.869C121.426 56.6713 122.303 57.2431 123.488 58.0164C124.093 58.4109 124.778 58.8577 125.536 59.4143C124.857 59.6521 124.257 59.924 123.73 60.1631C122.755 60.6048 122.027 60.9349 121.501 60.7326C118.321 59.5034 116.976 61.0444 115.595 63.5742C115.187 64.3251 114.284 64.8127 113.302 65.3429L113.302 65.3429C112.828 65.5989 112.336 65.8649 111.872 66.1752C112.099 66.2673 112.338 66.3975 112.572 66.5253L112.572 66.5254C113.062 66.7931 113.533 67.0501 113.84 66.9235C117.51 65.3914 118.882 67.4847 119.675 70.4777C119.787 70.9046 119.898 71.3319 120.009 71.7593C120.996 75.5494 121.985 79.3508 123.514 83.0731L123.87 76.811L124.752 76.3567C125.426 78.4363 127.027 79.6802 128.622 80.9185C130.381 82.2845 132.132 83.6437 132.618 86.1106C132.894 87.5003 132.805 89.1749 132.226 90.422C131.896 91.1346 129.928 91.8383 129.295 91.482C128.44 91.001 127.95 89.549 127.665 88.4267C126.97 85.7098 126.195 85.5406 123.336 87.2686C119.111 84.8758 119.002 81.1257 118.892 77.3649C118.829 75.2178 118.767 73.0671 117.938 71.1635C115.07 71.6089 114.571 71.2882 109.28 65.6675C109.708 64.9402 110.153 64.2132 110.6 63.4828C114.021 57.8885 117.562 52.0982 115.096 44.5028L113.092 45.7321L112.335 44.6008C113.078 44.1236 113.822 43.6449 114.592 43.1494L114.601 43.1432L114.607 43.1394C115.686 42.4446 116.817 41.7165 118.071 40.913C118.676 42.6961 119.073 43.8575 119.605 45.4155L119.607 45.4203L119.96 46.4536L121.047 41.8661C121.25 42.3031 121.399 42.6542 121.522 42.9433L121.522 42.9435C121.736 43.4501 121.87 43.7666 122.08 44.0218C122.608 44.6683 123.189 45.2708 123.77 45.8728L123.77 45.8728L123.77 45.8731C123.974 46.0839 124.177 46.2946 124.378 46.5071C124.539 46.1474 124.756 45.7766 124.973 45.4055C125.455 44.5819 125.938 43.7571 125.803 43.0509C125.502 41.4529 124.884 39.9166 124.212 38.2467C123.929 37.5429 123.636 36.8153 123.354 36.0494L126.079 37.8755C129.179 35.9425 128.787 34.2055 126.756 31.5065C125.754 30.1758 125.355 28.3933 124.955 26.6037C124.757 25.7219 124.559 24.8383 124.289 24.0062C124.179 23.6642 124.074 23.2711 123.968 22.8685L123.968 22.8684C123.636 21.6146 123.279 20.2689 122.632 20.0868C121.421 19.7394 119.639 20.7015 118.356 21.5032C118.019 21.7164 117.746 22.032 117.447 22.377C116.972 22.9254 116.433 23.5482 115.47 23.9528C115.613 23.0945 115.752 22.2337 115.902 21.3139C116.033 20.5059 116.171 19.6524 116.326 18.7151L112.745 17.5838C112.712 17.0249 112.676 16.435 112.639 15.8165L112.637 15.7888L112.637 15.7779C112.583 14.8893 112.526 13.9419 112.468 12.9429C111.773 12.5279 111.062 12.0988 110.295 11.6368C109.696 11.2758 109.064 10.8946 108.38 10.4844C108.593 10.2055 108.825 9.95035 109.045 9.70775C109.514 9.19081 109.931 8.73106 110.01 8.2218C110.117 7.54481 109.538 6.64514 109.039 6.03051C108.579 5.46534 108.012 4.9911 107.444 4.51723L107.444 4.51704C107.198 4.31132 106.951 4.10566 106.714 3.89266L107.56 2.97517L111.943 3.94611L110.892 0H431.23V0.00890769ZM98.0114 40.8508C97.7524 41.1738 97.442 41.4978 97.1474 41.8053C96.5403 42.4391 96.0001 43.0031 96.114 43.3449C96.39 44.1792 97.015 44.8942 97.6716 45.6454C97.9474 45.961 98.2289 46.283 98.4924 46.6229C98.4901 46.6253 98.4834 46.6355 98.473 46.6515C98.403 46.7593 98.1627 47.1295 97.9223 47.1218C93.5664 47.0149 87.919 41.8573 87.2509 37.5727C87.209 37.297 87.3039 36.9335 87.4014 36.5604C87.6564 35.5837 87.9285 34.5416 85.8078 34.8381C85.9429 34.6589 86.1002 34.4259 86.2583 34.1917L86.2586 34.1912L86.2588 34.191L86.2589 34.1908C86.6113 33.6687 86.9676 33.141 87.0905 33.1901C87.4328 33.3256 87.7779 33.459 88.1238 33.5926C89.9837 34.3111 91.8673 35.0387 93.4595 36.1653C94.7187 37.0612 95.7576 38.2742 96.7498 39.4327L96.75 39.433L96.7505 39.4335C97.1688 39.922 97.5788 40.4007 97.9936 40.8419L98.0114 40.8508ZM110.765 29.4244L110.767 29.4222L110.776 29.4311L110.765 29.4244ZM108.938 28.2416C109.533 28.6339 110.137 29.0331 110.765 29.4244C109.421 31.018 108.156 32.5229 106.527 34.4639C105.814 33.2205 105.101 31.9749 104.388 30.7292C103.676 29.4852 102.963 28.2411 102.251 26.9993L101.628 27.0973C101.746 27.5842 101.869 28.0701 101.992 28.556L101.992 28.5568C102.238 29.5285 102.483 30.5002 102.697 31.4799C102.873 32.2876 103.01 33.1001 103.148 33.9139L103.148 33.9141L103.148 33.9143C103.199 34.2132 103.25 34.5123 103.302 34.8113C102.94 34.6529 102.573 34.5025 102.207 34.3522L102.207 34.3522C101.358 34.004 100.509 33.6559 99.7126 33.2079C99.328 32.9901 99.0634 32.5739 98.8457 32.2315C98.7608 32.098 98.683 31.9757 98.608 31.8807L96.2029 33.1278C96.1066 32.9434 95.9704 32.7268 95.8333 32.5088C95.5266 32.0211 95.2158 31.5269 95.3389 31.373C95.5656 31.0883 95.7917 30.8012 96.0183 30.5135C97.4654 28.6761 98.9336 26.8118 100.728 25.387C101.503 24.7635 103.561 25.2356 104.772 25.7878C106.212 26.4421 107.546 27.323 108.938 28.2416ZM126.427 135.192C126.158 136.036 125.887 136.882 125.611 137.742L125.611 137.742C125.285 138.76 124.952 139.798 124.61 140.875C122.792 136.029 123.817 130.498 127.086 126.765C127.772 127.673 127.865 128.84 127.959 130.036C128.12 132.069 128.287 134.182 131.388 135.237C129.73 136.361 128.269 137.357 127.109 138.148L127.098 138.155L126.819 138.345C126.875 138.157 126.974 137.822 127.098 137.407L127.62 135.646L126.427 135.192ZM106.365 45.665C106.118 46.3101 105.92 46.8273 105.725 47.3445L105.743 47.3623L105.057 47.3267C104.755 45.8023 104.453 44.2757 104.151 42.7491C103.847 41.2159 103.544 39.6827 103.24 38.1517C102.085 39.2063 101.616 40.1458 101.195 40.9891C101.054 41.2712 100.918 41.5426 100.764 41.8039C99.1159 44.592 99.6949 46.1241 102.786 47.4336C103.175 47.5976 103.398 48.1511 103.627 48.7211C103.735 48.9868 103.843 49.2561 103.971 49.4912L108.113 48.4758C107.901 47.7702 107.705 47.1148 107.499 46.4242C107.307 45.7809 107.106 45.107 106.874 44.3337C106.68 44.8423 106.514 45.2768 106.365 45.665Z" fill="#E6E6E6"/>
</svg>
