<svg width="513" height="386" viewBox="0 0 513 386" fill="none" xmlns="http://www.w3.org/2000/svg">
<path opacity="0.3" fill-rule="evenodd" clip-rule="evenodd" d="M451.535 36.0324V40.7566C451.535 110.533 451.535 180.31 451.509 250.096C451.509 250.945 451.359 251.794 451.209 252.643C451.067 253.452 450.924 254.261 450.911 255.07C450.893 256.157 451.232 257.307 451.651 258.332C452.971 261.523 454.329 264.695 455.688 267.867L455.69 267.872L455.692 267.877L455.694 267.881C456.398 269.526 457.103 271.17 457.802 272.817C457.9 273.04 457.935 273.423 457.811 273.593C455.478 276.631 456.422 279.592 457.358 282.526C457.771 283.819 458.182 285.106 458.31 286.393H414.294C408.586 286.393 402.878 286.404 397.171 286.415C381.729 286.445 366.29 286.475 350.846 286.286C345.818 286.224 341.7 287.819 337.707 290.386C334.89 292.196 332.251 292.98 328.588 292.24C326.089 291.734 323.388 292.211 320.695 292.687C319.594 292.882 318.494 293.076 317.41 293.203C317.017 293.247 316.594 293.392 316.181 293.533C315.517 293.76 314.876 293.979 314.415 293.765C310.728 292.032 308.322 293.819 305.804 295.689C305.278 296.079 304.748 296.473 304.2 296.84C302.817 297.764 301.078 298.173 299.35 298.579C298.695 298.733 298.04 298.887 297.408 299.068C295.721 299.547 294.018 299.982 292.315 300.416L292.314 300.417L292.313 300.417L292.312 300.417L292.312 300.417C288.788 301.316 285.266 302.215 281.889 303.507C279.811 304.302 277.799 305.269 275.787 306.236C271.567 308.264 267.348 310.293 262.519 310.727C262.221 310.754 261.925 310.785 261.631 310.815C259.252 311.062 257.003 311.295 254.853 309.176C252.554 306.903 250.058 306.066 246.697 308.856C244.372 310.794 241.466 312.039 238.565 313.282C237.397 313.782 236.229 314.283 235.101 314.828C234.664 315.042 234.022 315.051 233.541 314.908C228.914 313.571 224.707 313.776 220.99 317.422C219.493 318.892 218.191 318.215 217.576 316.12C216.498 312.403 211.212 309.613 207.325 310.487L207.139 310.529C205.917 310.805 204.227 311.188 203.599 310.612C200.515 307.794 197.431 308.626 194.23 309.49C193.684 309.637 193.135 309.785 192.582 309.916C191.426 310.19 190.206 310.171 188.981 310.153C187.929 310.137 186.873 310.122 185.852 310.291C183.677 310.647 181.422 311.209 179.497 312.234C177.252 313.426 175.075 314.738 172.898 316.051L172.897 316.051C170.89 317.261 168.882 318.472 166.821 319.588C164.807 320.675 162.534 321.789 160.323 321.905C156.57 322.101 152.639 322.057 149.038 321.13C143.262 319.641 137.62 317.529 132.093 315.273C130.89 314.783 129.856 312.662 129.633 311.164C129.255 308.591 129.019 305.987 128.784 303.385C128.385 298.985 127.987 294.592 126.905 290.368C125.06 283.157 120.327 277.604 113.517 273.878C113.119 273.661 112.735 273.439 112.363 273.224C109.541 271.594 107.336 270.32 103.935 273.887C100.44 277.55 92.8103 273.593 92.2666 268.405C91.91 264.964 89.4142 263.761 85.2336 264.412C82.3278 264.866 79.1277 265.134 77.8352 261.007C76.9896 261.35 76.0978 261.628 75.214 261.904L75.2137 261.904L75.2133 261.905C73.2745 262.51 71.3749 263.104 70.0892 264.34C66.9248 267.38 65.2223 265.677 63.3504 263.369C60.7743 260.186 59.3659 260.106 56.977 263.654V233.579C58.9359 234.659 58.9384 235.134 58.9807 243.038L58.9826 243.393C58.9948 246.052 59.2769 248.711 59.5653 251.429L59.5654 251.429C59.6995 252.693 59.835 253.97 59.9453 255.266H63.698L61.327 248.037C62.3904 247.144 63.2952 246.385 64.1159 245.695L64.1493 245.667L64.2099 245.617C65.2756 244.722 66.2022 243.944 67.1565 243.143C65.6769 240.407 64.3933 238.036 62.9582 235.388C63.6624 235.433 64.2863 235.469 65.2223 235.522C63.6534 231.163 66.7198 229.657 69.9733 228.142C69.4783 227.627 69.008 227.135 68.5506 226.656L68.5477 226.654L68.5459 226.652C67.9753 226.055 67.4247 225.479 66.8713 224.906C63.6445 227.526 59.2857 227.74 56.1391 225.441C55.6756 225.102 55.1141 224.585 55.0428 224.095C54.6346 221.238 54.2909 218.37 53.9074 215.17L53.9072 215.168L53.9057 215.156C53.7956 214.237 53.6822 213.292 53.5631 212.311C54.5697 213.322 55.4507 214.212 56.2807 215.049L56.2912 215.06C56.8905 215.665 57.4634 216.243 58.0378 216.821L58.6528 216.286L56.9414 213.594C60.0844 212.168 63.1193 210.797 66.1198 209.441L66.1548 209.425L66.2088 209.4L66.2216 209.395C67.4076 208.859 68.5883 208.325 69.7683 207.791L69.5989 207.23C69.2847 207.213 68.9561 207.226 68.6274 207.24H68.6273H68.6271H68.627C67.9207 207.269 67.2141 207.299 66.6485 207.025C65.8724 206.651 64.9527 206.541 64.0272 206.43C61.9549 206.182 59.8532 205.93 59.2679 202.702C59.1514 202.076 57.5549 201.717 55.9661 201.359L55.9658 201.359C55.2447 201.196 54.5252 201.034 53.9464 200.848C53.8191 201.267 53.6607 201.687 53.5022 202.108L53.5021 202.108C53.1387 203.072 52.7752 204.037 52.7876 204.992C52.806 205.913 53.2004 206.825 53.6275 207.813C53.8209 208.26 54.021 208.723 54.1959 209.209L51.8249 209.378C51.5359 207.159 51.2603 204.95 50.9858 202.749L50.9857 202.748L50.9857 202.748C50.2359 196.737 49.4942 190.79 48.509 184.892C48.1435 182.708 46.5925 180.604 45.2109 178.75C42.8586 175.588 42.3477 171.989 41.8307 168.347C41.6992 167.421 41.5674 166.492 41.4047 165.567C41.1857 164.315 40.9751 163.057 40.7641 161.797L40.7641 161.797C39.6701 155.263 38.5677 148.679 36.2437 142.596C34.5768 138.237 31.1093 134.226 26.7059 131.053C24.6014 129.539 23.8182 125.988 23.0899 122.686L23.0899 122.686C22.9051 121.848 22.7238 121.027 22.5254 120.258C21.8038 117.44 21.3723 114.544 20.9299 111.575C20.7329 110.253 20.5338 108.916 20.3059 107.565C20.4865 106.767 20.6756 105.936 20.8702 105.08C21.367 102.895 21.8996 100.553 22.4184 98.2147C22.4647 98.0118 22.4584 97.7706 22.4523 97.5364C22.4431 97.184 22.4343 96.8475 22.6056 96.6815C25.0034 94.3907 23.6842 92.9912 21.5805 91.6185C21.1501 91.3418 20.8215 90.9124 20.4835 90.4708L20.4835 90.4707C20.3315 90.2721 20.1776 90.0711 20.0117 89.8803C22.7126 88.4809 26.394 88.8463 29.3801 90.7628C30.0101 91.1672 30.637 91.5748 31.2631 91.9821C36.3514 95.2911 41.3919 98.5691 47.6622 99.7835C49.2188 100.083 50.5806 101.218 51.9637 102.372C53.0914 103.312 54.2332 104.264 55.5063 104.784C59.259 106.317 63.3236 107.36 67.3437 107.877C69.4255 108.147 71.5745 107.861 73.7272 107.575L73.7274 107.575L73.7276 107.575L73.7278 107.575C74.7089 107.444 75.6909 107.314 76.6675 107.235C76.7611 107.227 76.8619 107.212 76.9645 107.197C77.2918 107.15 77.6384 107.1 77.8352 107.235C79.8601 108.663 82.1353 108.91 84.4305 109.158L84.4307 109.158L84.4308 109.158L84.4309 109.158C85.288 109.251 86.1479 109.344 86.9986 109.499C88.3902 109.754 89.7731 110.101 91.1509 110.447C96.4365 111.773 101.649 113.081 107.001 109.072C109.372 107.298 113.642 110.917 114.435 114.874C114.598 115.69 114.864 116.485 115.129 117.28L115.129 117.28L115.129 117.28L115.129 117.28L115.129 117.28C115.255 117.657 115.381 118.034 115.496 118.413L116.548 118.146L116.545 118.124L116.543 118.114L116.542 118.102C116.365 116.815 116.189 115.526 115.986 114.037L120.06 112.896C121.182 114.826 122.299 116.76 123.624 119.055L123.653 119.104C124.162 119.985 124.701 120.918 125.283 121.925C125.352 121.264 125.485 120.608 125.611 119.989L125.611 119.989L125.611 119.989C125.872 118.7 126.1 117.575 125.649 116.907C125.373 116.496 124.951 116.161 124.537 115.831C123.558 115.053 122.62 114.307 123.741 112.673C125.203 110.533 126.843 108.243 130.524 110.311C129.74 111.389 128.929 112.495 127.993 113.769C128.447 114.623 128.949 115.561 129.501 116.594L129.502 116.595C129.774 117.103 130.058 117.635 130.355 118.19C130.902 117.043 131.403 116 132.011 114.733L132.011 114.733C132.405 113.914 132.843 113.002 133.368 111.906L135.338 119.162C134.664 119.379 134.094 119.565 133.577 119.733L133.577 119.733L133.576 119.734C133.034 119.91 132.55 120.068 132.066 120.223C132.218 120.515 132.364 120.811 132.511 121.108L132.511 121.108C132.839 121.771 133.167 122.435 133.555 123.057C133.722 123.323 134.014 123.61 134.286 123.878C134.653 124.239 134.982 124.563 134.91 124.742C133.978 126.952 135.151 128.175 136.352 129.428C136.977 130.08 137.611 130.74 137.958 131.552C131.525 134.339 130.093 139.956 128.475 146.305L128.475 146.307L128.472 146.317C128.347 146.808 128.221 147.303 128.091 147.802C127.991 147.502 127.859 147.199 127.727 146.896L127.727 146.896L127.727 146.896L127.727 146.896C127.435 146.227 127.142 145.555 127.191 144.905C127.249 144.118 127.321 143.333 127.393 142.547L127.393 142.546L127.393 142.545L127.394 142.544C127.63 139.972 127.866 137.394 127.627 134.752C127.364 135.402 127.1 136.054 126.831 136.719L126.825 136.734C126.587 137.324 126.344 137.923 126.094 138.54L124.49 136.731L123.803 137.025C123.901 137.546 124 138.068 124.101 138.607L124.103 138.618C124.296 139.644 124.5 140.734 124.739 141.999C124.625 142.286 124.507 142.629 124.376 143.007C124.048 143.957 123.643 145.13 123.037 146.188C122.077 147.871 120.988 149.482 119.899 151.094C119.441 151.772 118.984 152.449 118.535 153.132C118.183 153.668 117.816 154.196 117.449 154.725L117.449 154.725C116.582 155.974 115.715 157.223 115.032 158.57C112.777 163.018 110.647 167.537 108.579 172.083C107.438 174.597 107.928 175.738 111.155 175.55C116.388 175.254 120.277 172.509 124.235 169.715L124.517 169.516C122.694 169.596 121.06 170.471 119.41 171.353C116.68 172.814 113.909 174.296 110.174 172.234C110.614 171.321 111.042 170.4 111.471 169.48C113.814 164.445 116.161 159.401 120.381 155.414C120.629 155.178 120.814 154.865 120.998 154.554C121.217 154.185 121.434 153.819 121.753 153.587C122.234 153.236 122.63 152.766 123.027 152.294L123.027 152.294C123.995 151.144 124.971 149.986 127.182 150.529C128.189 150.779 130.952 148.577 130.881 147.65C130.587 143.844 132.477 141.348 134.696 138.763C135.688 137.604 136.552 136.34 137.501 134.952L137.501 134.952L137.501 134.952L137.501 134.951C137.967 134.271 138.452 133.56 138.984 132.818C139.261 133.404 139.489 133.887 139.689 134.312L139.691 134.315C139.952 134.869 140.166 135.323 140.383 135.777L141.15 135.572C140.928 134.238 140.709 132.904 140.489 131.56C140.301 130.417 140.112 129.266 139.919 128.102C142.148 127.532 143.467 127.737 143.833 130.411C144.206 133.165 144.804 135.889 145.428 138.73L145.429 138.731L145.429 138.732C145.7 139.964 145.975 141.219 146.239 142.507H142.558C142.911 144.206 143.268 145.922 143.636 147.695L143.639 147.711L143.645 147.739L143.65 147.763C144.233 150.575 144.847 153.53 145.526 156.787L139.919 154.353C140.491 155.288 141.01 156.131 141.491 156.91L141.492 156.913C142.578 158.676 143.468 160.118 144.314 161.583C144.555 161.993 144.617 162.634 144.51 163.107C143.714 166.489 142.886 169.865 142.059 173.241L142.059 173.242L142.059 173.242L142.059 173.243C141.794 174.324 141.529 175.405 141.265 176.486C141.239 176.611 141.176 176.745 141.087 176.834C140.429 177.496 140.824 178.45 141.208 179.378C141.75 180.688 142.271 181.946 139.777 182.254C138.675 182.391 137.476 181.744 136.151 181.029C135.504 180.68 134.827 180.314 134.117 180.016C134.573 179.074 135.051 178.088 135.559 177.042C136.253 175.613 137.002 174.071 137.825 172.368C133.84 173.839 131.808 176.228 131.006 179.677C130.872 180.26 130.889 180.882 130.906 181.499C130.911 181.704 130.917 181.909 130.917 182.111C130.917 184.767 130.917 187.423 130.453 190.098C126.843 186.71 125.898 183.091 127.797 178.483C128.302 177.257 128.077 175.727 127.828 174.03C127.708 173.21 127.582 172.351 127.529 171.468C127.096 172.519 126.673 173.473 126.277 174.366L126.277 174.367C125.434 176.266 124.715 177.888 124.285 179.579C123.866 181.246 123.679 183.591 124.534 184.856C126.803 188.223 124.764 188.605 122.586 189.012L122.547 189.019C123.157 190.537 123.776 192.071 124.521 193.918L124.53 193.941C124.902 194.863 125.306 195.864 125.756 196.979L126.495 190.463L127.663 190.57C127.731 191.09 127.798 191.608 127.877 192.214C127.965 192.885 128.067 193.663 128.198 194.67C128.427 193.879 128.592 193.314 128.737 192.818C128.863 192.387 128.974 192.008 129.098 191.577C129.313 191.952 129.492 192.35 129.665 192.734C130.031 193.546 130.368 194.293 130.943 194.608C132.093 195.232 134.295 195.82 134.892 195.241C139.447 190.811 142.103 185.284 143.146 179.107C145.17 180.186 147.229 181.282 149.288 182.378L149.93 181.3L147.942 179.49C148.259 179.267 148.573 179.029 148.888 178.79L148.889 178.789L148.889 178.789C149.53 178.303 150.179 177.81 150.883 177.422C155.117 175.114 155.385 172.939 152.809 168.642C151.989 167.282 151.699 165.602 151.408 163.92C151.272 163.134 151.136 162.347 150.946 161.591C150.69 160.584 150.429 159.576 150.161 158.537L150.16 158.533C149.932 157.653 149.698 156.75 149.457 155.806C150.035 155.745 150.609 155.685 151.239 155.619L151.239 155.619C152.252 155.513 153.406 155.392 154.939 155.227C152.479 153.088 150.687 151.528 148.539 149.656C151.793 146.447 152.47 142.65 150.955 138.434C150.794 137.988 150.848 137.123 151.133 136.927C153.37 135.35 153.902 133.021 154.434 130.696C154.734 129.38 155.035 128.066 155.643 126.89C155.731 126.726 155.805 126.504 155.877 126.291C155.996 125.937 156.108 125.605 156.258 125.589C159.675 125.266 160.165 122.95 160.658 120.623L160.658 120.622L160.658 120.622L160.658 120.622C160.791 119.992 160.925 119.362 161.116 118.77C155.893 116.693 152.247 111.906 152.595 106.638C152.853 102.707 150.589 102.119 147.897 101.655C145.005 106.015 147.211 108.874 149.427 111.744C150.414 113.023 151.403 114.304 151.944 115.721C150.953 114.195 149.407 112.991 147.861 111.788C144.416 109.106 140.971 106.424 143.672 100.167C144.778 99.9922 146.093 99.7871 147.667 99.5418C148.503 99.4114 149.412 99.2696 150.402 99.115C150.54 98.8513 150.701 98.5913 150.862 98.3314C151.797 96.8252 152.729 95.3219 149.065 93.1249C148.592 92.8417 148.051 92.5667 147.483 92.2782L147.483 92.2781C144.654 90.8413 141.165 89.0688 142.219 84.2736L141.007 84.0329C140.874 84.3644 140.705 84.6977 140.535 85.0313C140.158 85.7741 139.779 86.5188 139.804 87.2508C139.857 88.8463 140.169 90.6291 141.007 91.9305C141.521 92.7333 142.398 93.3055 143.584 94.0793C144.189 94.474 144.875 94.9212 145.633 95.4782C144.954 95.7161 144.354 95.9881 143.826 96.2274L143.826 96.2275C142.85 96.6695 142.122 96.9998 141.595 96.7974C138.413 95.5673 137.067 97.1094 135.685 99.6409C135.277 100.392 134.373 100.88 133.391 101.411L133.391 101.411C132.917 101.667 132.424 101.933 131.96 102.244C132.187 102.336 132.426 102.466 132.66 102.594C133.151 102.862 133.622 103.119 133.929 102.992C137.602 101.459 138.975 103.554 139.768 106.549C139.88 106.976 139.991 107.403 140.102 107.831L140.103 107.832C141.09 111.624 142.08 115.428 143.61 119.153L143.966 112.887L144.849 112.432C145.523 114.513 147.126 115.758 148.721 116.997C150.482 118.364 152.233 119.724 152.72 122.193C152.996 123.583 152.907 125.259 152.327 126.507C151.998 127.22 150.028 127.924 149.395 127.568C148.539 127.086 148.049 125.633 147.764 124.51C147.068 121.792 146.293 121.622 143.432 123.351C139.204 120.957 139.095 117.204 138.985 113.441C138.922 111.292 138.859 109.14 138.03 107.235C135.16 107.681 134.66 107.36 129.366 101.736C129.795 101.008 130.24 100.281 130.686 99.5499L130.687 99.5494C134.11 93.9514 137.654 88.1571 135.186 80.5565L133.181 81.7866L132.423 80.6546C133.166 80.1779 133.909 79.6996 134.677 79.2046L134.686 79.199L134.69 79.1964C135.772 78.4998 136.906 77.77 138.163 76.9643C138.769 78.7505 139.166 79.9132 139.7 81.4749L139.7 81.475L140.053 82.5086L141.141 77.9181C141.344 78.3548 141.493 78.7058 141.616 78.995L141.616 78.9957L141.616 78.9961C141.831 79.5031 141.965 79.8198 142.175 80.0752C142.703 80.7221 143.285 81.3251 143.866 81.9275C144.07 82.1385 144.273 82.3494 144.474 82.5621C144.635 82.2023 144.852 81.8313 145.07 81.4601L145.07 81.46L145.07 81.4599L145.07 81.4598C145.552 80.6356 146.036 79.8103 145.901 79.1036C145.6 77.5045 144.981 75.9672 144.309 74.2961L144.308 74.2961C144.025 73.5918 143.732 72.8638 143.449 72.0974L146.177 73.9247C149.279 71.9904 148.887 70.2522 146.854 67.5514C145.851 66.2197 145.452 64.4361 145.051 62.6452C144.854 61.7628 144.656 60.8787 144.385 60.046C144.275 59.7038 144.171 59.3106 144.064 58.9079L144.064 58.9075L144.064 58.9074C143.732 57.6528 143.375 56.3061 142.727 56.1239C141.515 55.7763 139.732 56.739 138.449 57.5412C138.111 57.7546 137.838 58.0703 137.539 58.4155L137.539 58.4156L137.539 58.4156L137.539 58.4157C137.063 58.9644 136.524 59.5876 135.561 59.9925C135.703 59.1333 135.843 58.2715 135.992 57.3507L135.993 57.3492C136.124 56.5414 136.262 55.6882 136.416 54.7512L132.833 53.6192C132.8 53.0527 132.764 52.4542 132.726 51.8264L132.726 51.824L132.725 51.8125L132.725 51.8051L132.724 51.7989L132.724 51.7975C132.671 50.9125 132.614 49.9694 132.557 48.9751C131.861 48.5599 131.149 48.1306 130.382 47.6684C129.783 47.3071 129.15 46.9256 128.465 46.5149C128.679 46.2359 128.911 45.9805 129.131 45.7378C129.6 45.2205 130.018 44.7604 130.097 44.2508C130.204 43.5734 129.624 42.6731 129.125 42.058C128.665 41.4925 128.097 41.0179 127.529 40.5438L127.529 40.5436C127.282 40.3377 127.036 40.1319 126.798 39.9187L127.645 39.0006L132.031 39.9722L130.979 36.0234H451.535V36.0324ZM118.091 76.9025C117.831 77.2258 117.521 77.55 117.226 77.8577C116.618 78.492 116.078 79.0563 116.192 79.3984C116.468 80.2332 117.093 80.9487 117.751 81.7004L117.751 81.7005L117.751 81.7005L117.751 81.7006C118.027 82.0164 118.308 82.3385 118.572 82.6786C118.57 82.681 118.563 82.6911 118.553 82.7071L118.552 82.7072C118.482 82.8151 118.242 83.1856 118.001 83.1778C113.643 83.0709 107.991 77.9098 107.323 73.6223C107.281 73.3463 107.376 72.9826 107.473 72.6093C107.729 71.6319 108.001 70.589 105.879 70.8858C106.014 70.7063 106.171 70.473 106.33 70.2386L106.33 70.2384L106.33 70.2383L106.33 70.2381C106.683 69.7156 107.039 69.1875 107.162 69.2367C107.505 69.3722 107.85 69.5056 108.196 69.6393L108.196 69.6394C110.057 70.3584 111.942 71.0865 113.536 72.2139C114.796 73.1104 115.835 74.3243 116.828 75.4835L116.828 75.4837C117.247 75.9727 117.658 76.452 118.073 76.8936L118.091 76.9025ZM130.855 65.4662L130.857 65.464L130.866 65.4729L130.855 65.4662ZM129.028 64.2833C129.622 64.6757 130.227 65.0749 130.855 65.4662C129.51 67.0609 128.244 68.5669 126.614 70.5092C125.902 69.267 125.189 68.0226 124.477 66.7783L124.473 66.7719C123.761 65.527 123.048 64.2821 122.335 63.0394L121.711 63.1375C121.83 63.6247 121.953 64.111 122.076 64.5973C122.321 65.5699 122.567 66.5425 122.781 67.5231C122.957 68.3315 123.095 69.1448 123.233 69.9593C123.284 70.2584 123.334 70.5576 123.387 70.8568C123.024 70.6983 122.658 70.5478 122.291 70.3974L122.291 70.3973C121.441 70.0489 120.592 69.7006 119.795 69.2523C119.41 69.0343 119.145 68.6178 118.927 68.2752C118.842 68.1416 118.765 68.0192 118.69 67.9242L116.283 69.1721C116.187 68.9876 116.05 68.7708 115.913 68.5527C115.606 68.0647 115.295 67.5701 115.418 67.4161C115.645 67.1314 115.871 66.8442 116.098 66.5564L116.098 66.5562L116.098 66.556C117.546 64.7173 119.015 62.8518 120.811 61.4261C121.587 60.8021 123.646 61.2745 124.858 61.8272C126.298 62.4819 127.634 63.3634 129.027 64.2826L129.027 64.2828L129.028 64.2833ZM146.528 171.307C146.258 172.152 145.987 172.998 145.712 173.857C145.385 174.877 145.052 175.916 144.709 176.994C142.891 172.145 143.916 166.61 147.187 162.875C147.874 163.783 147.966 164.951 148.061 166.148C148.222 168.182 148.389 170.297 151.492 171.352C149.827 172.482 148.359 173.482 147.196 174.275L147.195 174.275L146.92 174.463C147.042 174.051 147.371 172.943 147.704 171.822L147.722 171.762L146.528 171.307ZM126.448 81.7194C126.201 82.3655 126.003 82.8833 125.808 83.4011L125.825 83.419L125.139 83.3833C124.836 81.8549 124.533 80.3243 124.23 78.7937C123.927 77.2624 123.624 75.7312 123.321 74.2021C122.165 75.2574 121.695 76.1976 121.274 77.0414C121.133 77.3237 120.997 77.5953 120.843 77.8568C119.194 80.6468 119.773 82.18 122.866 83.4903C123.255 83.6544 123.478 84.2083 123.708 84.7786C123.815 85.0446 123.924 85.3141 124.052 85.5494L128.197 84.5332C127.984 83.8271 127.789 83.1711 127.583 82.48C127.391 81.8363 127.19 81.162 126.958 80.3883C126.763 80.8968 126.597 81.3313 126.448 81.7194Z" fill="#E6E6E6"/>
<path d="M410.855 68.0469H204.148V324.497H410.855V68.0469Z" fill="#E6E6E6"/>
<path opacity="0.08" d="M410.855 68.0469H204.148V141.21H410.855V68.0469Z" fill="black"/>
<path opacity="0.44" d="M227.618 79.1484H387.506C391.418 79.1484 394.573 82.302 394.573 86.2125V123.173C394.573 127.083 391.418 130.237 387.506 130.237H227.618C223.706 130.237 220.551 127.083 220.551 123.173V86.2125C220.551 82.302 223.706 79.1484 227.618 79.1484Z" fill="white"/>
<path opacity="0.08" d="M259.293 160.258H218.406V190.028H259.293V160.258Z" fill="black"/>
<path opacity="0.08" d="M305.356 160.258H264.469V190.028H305.356V160.258Z" fill="black"/>
<path opacity="0.08" d="M351.543 160.258H310.656V190.028H351.543V160.258Z" fill="black"/>
<path opacity="0.08" d="M397.727 160.258H356.84V190.028H397.727V160.258Z" fill="black"/>
<path opacity="0.08" d="M259.293 197.344H218.406V227.114H259.293V197.344Z" fill="black"/>
<path opacity="0.08" d="M305.356 197.344H264.469V227.114H305.356V197.344Z" fill="black"/>
<path opacity="0.08" d="M351.543 197.344H310.656V227.114H351.543V197.344Z" fill="black"/>
<path opacity="0.08" d="M397.727 197.344H356.84V227.114H397.727V197.344Z" fill="black"/>
<path opacity="0.08" d="M259.293 234.426H218.406V264.196H259.293V234.426Z" fill="black"/>
<path opacity="0.08" d="M305.356 234.426H264.469V264.196H305.356V234.426Z" fill="black"/>
<path opacity="0.08" d="M351.543 234.426H310.656V264.196H351.543V234.426Z" fill="black"/>
<path opacity="0.08" d="M305.48 271.514H218.406V301.284H305.48V271.514Z" fill="black"/>
<path opacity="0.08" d="M351.543 271.512H310.656V301.282H351.543V271.512Z" fill="black"/>
<path d="M397.727 234.426H356.84V301.282H397.727V234.426Z" fill="#FFD200"/>
<path opacity="0.2" d="M281.379 185.232C288.209 185.232 293.746 179.697 293.746 172.87C293.746 166.043 288.209 160.508 281.379 160.508C274.549 160.508 269.012 166.043 269.012 172.87C269.012 179.697 274.549 185.232 281.379 185.232Z" fill="#FFD200"/>
<path opacity="0.08" d="M283.649 190.152L255.129 232.411L231.404 227.239L209.32 193.432V246.917C221.056 256.756 237.84 268.362 249.198 264.956C268.127 259.279 296.016 232.158 283.649 190.152Z" fill="black"/>
<path d="M281.379 179.053C284.794 179.053 287.562 176.286 287.562 172.872C287.562 169.459 284.794 166.691 281.379 166.691C277.964 166.691 275.195 169.459 275.195 172.872C275.195 176.286 277.964 179.053 281.379 179.053Z" fill="#FFD200"/>
<path d="M142.944 178.801C142.944 178.801 114.298 200.245 129.568 246.414C144.837 292.582 177.395 270.129 177.395 270.129V232.412L142.944 178.801Z" fill="#9ED6BE"/>
<path opacity="0.46" d="M142.944 178.801C142.944 178.801 114.298 200.245 129.568 246.414C144.837 292.582 177.395 270.129 177.395 270.129V232.412L142.944 178.801Z" fill="white"/>
<path d="M215.379 338.371L221.184 342.912C221.815 343.417 221.941 344.174 221.436 344.804C221.184 345.183 220.805 345.309 220.3 345.309H212.981C210.836 345.309 209.195 343.543 209.195 341.525V338.371H215.379Z" fill="#9ED6BE"/>
<path d="M154.048 338.371L148.244 342.912C147.613 343.417 147.486 344.174 147.991 344.804C148.244 345.183 148.622 345.309 149.127 345.309H156.446C158.591 345.309 160.232 343.543 160.232 341.525V338.371H154.048Z" fill="#9ED6BE"/>
<path d="M177.395 172.868L178.404 156.596C178.404 156.596 179.54 146.126 184.84 148.018C190.14 149.91 195.566 160.254 192.79 163.407C191.276 165.173 189.635 164.038 187.616 164.29C185.85 164.416 186.102 164.164 186.102 165.93V172.111L177.395 172.868Z" fill="#F4A28C"/>
<path d="M172.218 172.113C172.218 172.113 139.533 169.212 135.243 191.287C130.952 213.362 161.365 254.99 161.365 254.99L203.766 253.35C203.766 253.35 269.64 160.76 172.218 172.113Z" fill="#9ED6BE"/>
<path opacity="0.08" d="M200.994 180.943C200.994 180.943 175.629 196.333 188.122 219.543C196.072 234.554 175.629 254.359 175.629 254.359L203.77 253.224C203.77 253.224 213.992 237.96 216.137 232.032C218.283 226.229 200.994 180.943 200.994 180.943Z" fill="black"/>
<path d="M161.365 254.991L151.648 338.372H161.113L182.187 271.39L205.912 338.372H216.638L203.767 253.352L161.365 254.991Z" fill="#24285B"/>
<path d="M177.395 166.061H182.569C182.569 166.061 183.705 156.6 187.238 154.834C190.772 153.068 194.431 149.662 191.277 146.509C188.122 143.355 183.453 139.823 178.152 143.481C172.852 147.266 170.833 156.222 177.395 166.061Z" fill="#24285B"/>
<path d="M198.464 186.242C199.979 179.304 206.793 174.889 213.608 176.403C215.753 176.907 217.646 177.79 219.286 179.178C223.325 182.71 227.363 188.008 230.139 196.207C233.294 205.542 237.963 214.372 244.02 222.193C246.67 225.473 251.34 225.977 254.621 223.328C255.504 222.698 256.135 221.815 256.64 220.932L273.55 187.503L283.519 193.054C283.519 193.054 271.909 242.754 254.621 247.548C239.351 251.963 190.262 222.95 198.464 186.242Z" fill="#9ED6BE"/>
<path opacity="0.46" d="M198.464 186.242C199.979 179.304 206.793 174.889 213.608 176.403C215.753 176.907 217.646 177.79 219.286 179.178C223.325 182.71 227.363 188.008 230.139 196.207C233.294 205.542 237.963 214.372 244.02 222.193C246.67 225.473 251.34 225.977 254.621 223.328C255.504 222.698 256.135 221.815 256.64 220.932L273.55 187.503L283.519 193.054C283.519 193.054 271.909 242.754 254.621 247.548C239.351 251.963 190.262 222.95 198.464 186.242Z" fill="white"/>
<path d="M275.699 188.768C275.699 188.768 277.592 172.495 281.504 171.108C285.542 169.846 281.504 180.947 281.504 180.947C281.504 180.947 292.483 182.208 283.523 193.057L275.699 188.768Z" fill="#F4A28C"/>
</svg>
