<svg width="214" height="216" viewBox="0 0 214 216" fill="none" xmlns="http://www.w3.org/2000/svg">
<path d="M88.8925 68.556C88.8925 68.556 116.551 64.496 160.166 6.10303L175.462 127.467C175.462 127.467 128.457 97.6662 96.4136 109.521C96.4136 109.521 79.0571 90.9469 88.8925 68.556Z" fill="#9ED6BE"/>
<path d="M185.302 128.978C204.348 127.046 216.871 96.7194 213.274 61.2404C209.676 25.7614 191.32 -1.43441 172.274 0.496833C153.229 2.42807 140.705 32.7551 144.303 68.234C147.901 103.713 166.257 130.909 185.302 128.978Z" fill="#CBE9DC"/>
<path d="M63.0319 112.889C63.0319 112.889 59.7636 128.794 75.6382 131.402C91.5128 134.011 109.905 174.398 109.905 174.398L129.514 162.431C129.514 162.431 95.8063 117.02 105.956 107.205L63.0319 112.889Z" fill="#9ED6BE"/>
<path opacity="0.46" d="M63.0319 112.889C63.0319 112.889 59.7636 128.794 75.6382 131.402C91.5128 134.011 109.905 174.398 109.905 174.398L129.514 162.431C129.514 162.431 95.8063 117.02 105.956 107.205L63.0319 112.889Z" fill="white"/>
<path d="M150.221 95.8149L181.168 85.4112L177.484 49.1655L143.624 51.3579C143.624 51.3579 140.903 71.3534 150.221 95.8149Z" fill="#9ED6BE"/>
<path opacity="0.18" d="M150.221 95.8149L181.168 85.4112L177.484 49.1655L143.624 51.3579C143.624 51.3579 140.903 71.3534 150.221 95.8149Z" fill="black"/>
<path d="M181.169 85.4239C186.584 84.8747 190.151 76.3142 189.136 66.3033C188.121 56.2924 182.908 48.6221 177.493 49.1713C172.078 49.7204 168.51 58.2809 169.526 68.2918C170.541 78.3027 175.754 85.973 181.169 85.4239Z" fill="#9ED6BE"/>
<path d="M92.1714 67.728C92.1714 67.728 46.4964 78.5682 43.9386 88.1904C41.3808 97.8126 49.3993 119.655 60.747 119.26C72.0947 118.864 95.5818 108.572 95.5818 108.572C95.5818 108.572 83.889 86.2213 92.1714 67.728Z" fill="#CBE9DC"/>
<path d="M4.49609 215.351L75.6577 158.064L97.7441 175.654L68.5 215.351H4.49609Z" fill="#F2BF8C"/>
<path d="M109.316 126.042C112.244 125.796 115.173 126.495 117.674 128.037C120.175 129.579 122.116 131.882 123.211 134.609C127.271 144.363 127.119 150.727 116.421 154.249C105.723 157.771 103.145 129.168 103.145 129.168L109.316 126.042Z" fill="#F2BF8C"/>
<path d="M99.2773 108.094L107.986 126.861L117.182 121.665C118.279 121.059 119.114 120.068 119.524 118.884C119.934 117.699 119.892 116.405 119.405 115.25L115.893 106.795C115.893 106.795 105.956 105.191 99.2773 108.094Z" fill="#24285B"/>
<path d="M73.8906 162.322C73.8906 162.322 77.2097 130.928 88.5269 127.172C99.8442 123.417 113.648 131.232 107.03 139.636C100.413 148.041 91.9881 138.855 91.9881 138.855L105.041 164.94L97.7431 175.659L73.8906 162.322Z" fill="#F2BF8C"/>
<path d="M105.71 113.323C106.429 112.794 107.299 112.509 108.192 112.509C109.084 112.509 109.954 112.794 110.673 113.323C112.399 114.571 114.297 116.713 113.465 119.727C112.033 124.914 102.969 131.776 99.2546 128.984C96.1284 126.629 100.665 117.038 105.71 113.323Z" fill="#F4A28C"/>
<path d="M0 215.994H77L95.5828 187.097L60.8596 162.564L0 215.994Z" fill="#FFD200"/>
<path opacity="0.06" d="M83.5249 178.572L40.5 213.494H78.5L95.5831 187.098L83.5249 178.572Z" fill="black"/>
</svg>
