<svg width="270" height="218" viewBox="0 0 270 218" fill="none" xmlns="http://www.w3.org/2000/svg">
<g clip-path="url(#clip0_21_560)">
<path d="M101.779 202.461C93.7605 206.927 83.8135 207.475 74.4755 207.323C65.8886 207.181 57.2205 206.602 49.1005 203.72C40.9805 200.837 33.5304 195.387 29.8155 187.632C25.8367 179.258 22.8424 138.161 22.071 125.92C21.5737 118.013 21.4214 109.822 24.3751 102.463C27.7652 94.0897 34.9209 87.6851 43.0105 83.6251C51.1 79.5651 60.1234 77.87 69.0858 76.8246C80.1696 75.5152 91.5985 75.2615 102.297 78.4486C112.995 81.6357 122.942 88.7001 127.55 98.8501C130.057 104.392 130.889 110.553 131.082 116.633C131.6 132.325 128.108 147.814 123.51 162.724C119.633 175.249 116.233 191.611 105.24 200.127C104.148 200.993 102.991 201.773 101.779 202.461Z" fill="#24285B"/>
<path d="M154.691 66.8574C154.691 66.8574 167.409 93.3388 155.777 125.727C144.145 158.116 169.51 174.529 120.384 178.873C71.258 183.217 154.691 66.8574 154.691 66.8574Z" fill="#9ED6BE"/>
<path opacity="0.46" d="M154.691 66.8574C154.691 66.8574 167.409 93.3388 155.777 125.727C144.145 158.116 169.51 174.529 120.384 178.873C71.258 183.217 154.691 66.8574 154.691 66.8574Z" fill="white"/>
<path d="M129.803 15.0823C129.803 15.0823 128.707 23.2023 126.159 28.2773C125.912 28.7632 125.572 29.1955 125.157 29.5495C124.742 29.9034 124.262 30.172 123.743 30.3399C123.225 30.5077 122.678 30.5715 122.135 30.5276C121.591 30.4837 121.062 30.3329 120.577 30.084C118.06 28.7645 115.045 26.2473 115.106 21.8016L114.274 14.2297C114.267 12.6973 114.735 11.2005 115.615 9.94602C116.495 8.69151 117.743 7.74114 119.186 7.22617C124.454 4.99317 130.727 10.1392 129.803 15.0823Z" fill="#F4A28C"/>
<path d="M115.055 16.3608L98.7747 37.9296L111.31 46.0496L117.948 27.5766L115.055 16.3608Z" fill="#F4A28C"/>
<path d="M128.849 20.1978L130.392 23.801C130.479 24.0052 130.513 24.2281 130.492 24.4491C130.47 24.6701 130.393 24.882 130.267 25.0652C130.142 25.2484 129.972 25.3969 129.774 25.4971C129.575 25.5972 129.355 25.6458 129.133 25.6382L125.926 25.5265L128.849 20.1978Z" fill="#F4A28C"/>
<path opacity="0.31" d="M117.745 28.0943C117.745 28.0943 114.04 24.0343 113.583 21.5679C113.583 21.5679 109.605 31.5961 114.497 37.1075L117.745 28.0943Z" fill="#CE8172"/>
<path d="M119.328 18.7258C119.328 18.7258 119.958 15.6199 117.583 15.3357C115.207 15.0515 114.253 19.5378 117.329 20.6644L119.328 18.7258Z" fill="#F4A28C"/>
<path d="M112.122 11.3163L112.538 14.7267C112.538 14.7267 111.442 22.5524 114.568 28.1755C117.694 33.7986 124.566 35.859 127.245 31.1697C130.29 25.7902 125.936 25.5263 120.973 23.1208C116.009 20.7152 119.684 14.2497 119.684 14.2497C120.625 14.6574 121.651 14.8289 122.674 14.7493C123.696 14.6697 124.684 14.3414 125.55 13.793L129.174 13.5493C129.997 13.4966 130.798 13.2669 131.524 12.8757C132.25 12.4845 132.882 11.9413 133.379 11.283C133.875 10.6247 134.223 9.867 134.4 9.06167C134.576 8.25634 134.577 7.42241 134.401 6.6169C134.232 5.61802 133.867 4.66247 133.327 3.80536C132.787 2.94826 132.083 2.20657 131.255 1.6231C126.393 -1.53355 110.64 1.075 112.122 11.3163Z" fill="#24285B"/>
<path d="M116.233 13.9048C116.233 13.9048 113.482 10.1493 110.853 12.494C108.224 14.8386 111.361 18.8885 114.913 18.2998C114.809 16.7237 115.278 15.1631 116.233 13.9048Z" fill="#F4A28C"/>
<path d="M121.632 36.0824L106.925 33.5449C106.925 33.5449 57.9817 33.616 49.4151 50.3736C40.8485 67.1313 42.6552 129.544 70.9534 180.73L128.91 182.405C128.91 182.405 125.692 144.789 136.492 124.306C147.292 103.824 180.878 60.28 121.632 36.0824Z" fill="#9ED6BE"/>
<path opacity="0.08" d="M75.927 56.3823C75.927 56.3823 91.9944 70.4705 88.7667 86.0203C88.2491 88.5375 87.7517 91.5724 87.163 94.9016C85.07 107.801 85.8526 121.003 89.4549 133.564C93.0572 146.126 99.3901 157.736 108.001 167.565L118.151 179.136L70.9839 180.73L66.9239 172.823L44.9086 136.283L75.927 56.3823Z" fill="black"/>
<path d="M48.6032 51.9164C37.8645 67.0297 28.3032 100.403 36.6059 147.418C37.8482 154.374 41.3913 160.71 46.6665 165.411C51.9418 170.112 58.6434 172.905 65.6958 173.341L109.98 176.142V161.699L76.3229 156.827C74.4818 156.561 72.7199 155.9 71.1581 154.89C69.5964 153.879 68.2716 152.543 67.2747 150.972C66.2778 149.401 65.6324 147.634 65.3826 145.791C65.1329 143.947 65.2847 142.072 65.8278 140.292C71.7554 120.774 80.9411 85.4114 78.566 60.1988C77.145 44.8926 57.5048 39.3811 48.6032 51.9164Z" fill="#9ED6BE"/>
<path opacity="0.46" d="M48.6032 51.9164C37.8645 67.0297 28.3032 100.403 36.6059 147.418C37.8482 154.374 41.3913 160.71 46.6665 165.411C51.9418 170.112 58.6434 172.905 65.6958 173.341L109.98 176.142V161.699L76.3229 156.827C74.4818 156.561 72.7199 155.9 71.1581 154.89C69.5964 153.879 68.2716 152.543 67.2747 150.972C66.2778 149.401 65.6324 147.634 65.3826 145.791C65.1329 143.947 65.2847 142.072 65.8278 140.292C71.7554 120.774 80.9411 85.4114 78.566 60.1988C77.145 44.8926 57.5048 39.3811 48.6032 51.9164Z" fill="white"/>
<path d="M110.944 164.378C110.944 164.378 130.229 163.891 127.519 173.96C124.809 184.029 110.944 176.142 110.944 176.142V164.378Z" fill="#F4A28C"/>
<path d="M195.575 181.237L206.598 118.947H128.443L121.663 172.052L85.8334 172.549V181.237H195.575Z" fill="#FFD200"/>
<path d="M164.455 156.644C168.777 156.644 172.281 153.14 172.281 148.818C172.281 144.496 168.777 140.993 164.455 140.993C160.133 140.993 156.63 144.496 156.63 148.818C156.63 153.14 160.133 156.644 164.455 156.644Z" fill="white"/>
<path d="M-0.29953 217.646L270.289 217.646V179.776L-0.29953 179.776V217.646Z" fill="#E6E6E6"/>
<path opacity="0.09" d="M75.6124 179.766H-0.289307V217.635H75.6124V179.766Z" fill="black"/>
<path opacity="0.58" d="M231.009 171.077C231.009 171.077 222.99 168.885 221.245 161.425C221.245 161.425 233.668 158.918 234.023 171.737L231.009 171.077Z" fill="#9ED6BE"/>
<path opacity="0.73" d="M231.993 170.286C231.993 170.286 226.391 161.425 231.323 153.152C231.323 153.152 240.763 159.151 236.571 170.306L231.993 170.286Z" fill="#9ED6BE"/>
<path d="M233.455 170.286C233.455 170.286 236.419 160.937 245.361 159.171C245.361 159.171 247.036 165.261 239.565 170.336L233.455 170.286Z" fill="#9ED6BE"/>
<path d="M227.619 170.083L229.243 181.197L239.484 181.237L240.986 170.133L227.619 170.083Z" fill="#24285B"/>
<path d="M174.027 63.3555V95.1453H192.774V109.508L203.594 95.1453H234.308V63.3555H174.027Z" fill="#E6E6E6"/>
<path d="M206.598 25.6382H160.679V55.063H167.115V67.852L174.392 55.063H206.598V25.6382Z" fill="#E6E6E6"/>
<path d="M245.503 22.4712H215.835V47.8665H236.053L241.067 54.2508V47.8665H245.503V22.4712Z" fill="#E6E6E6"/>
</g>
<defs>
<clipPath id="clip0_21_560">
<rect width="270" height="218" fill="white"/>
</clipPath>
</defs>
</svg>
