<svg width="314" height="242" viewBox="0 0 314 242" fill="none" xmlns="http://www.w3.org/2000/svg">
<g clip-path="url(#clip0_21_587)">
<path opacity="0.45" d="M136.939 241.946C191.749 241.946 236.182 235.843 236.182 228.315C236.182 220.786 191.749 214.683 136.939 214.683C82.1288 214.683 37.6963 220.786 37.6963 228.315C37.6963 235.843 82.1288 241.946 136.939 241.946Z" fill="#E6E6E6"/>
<path opacity="0.3" d="M235.704 49.8673C261.094 67.5994 276.136 100.12 273.772 134.112C272.55 151.479 266.92 168.237 252.038 177.382C212.349 201.742 39.0862 202.199 13.4389 159.112C-12.2085 116.025 -2.66486 54.7292 53.1005 29.1918C101.421 7.02418 170.147 4.10098 235.704 49.8673Z" fill="#E6E6E6"/>
<path d="M220.308 136.711H219.423V131.798C219.421 130.9 219.108 130.039 218.554 129.404C218 128.769 217.249 128.411 216.466 128.408H203.337C202.553 128.411 201.803 128.769 201.249 129.404C200.695 130.039 200.382 130.9 200.38 131.798V136.711H199.495V131.798C199.497 130.631 199.903 129.512 200.623 128.686C201.343 127.861 202.319 127.396 203.337 127.393H216.475C217.493 127.396 218.469 127.861 219.189 128.686C219.909 129.512 220.315 130.631 220.317 131.798L220.308 136.711Z" fill="#FFD200"/>
<path d="M205.993 119.72C205.869 120.153 205.703 120.568 205.497 120.958C204.7 122.43 204.107 123.404 204.143 125.221C204.143 126.804 204.054 131.686 205.355 132.397C206.627 133.089 207.952 133.647 209.313 134.061C218.812 136.944 215.926 120.054 213.863 114.705C213.662 114.119 213.361 113.584 212.978 113.132C212.306 112.535 211.509 112.15 210.667 112.016C206.365 110.767 207.082 116.147 205.993 119.72Z" fill="#F4A28C"/>
<path d="M37.59 63.834C37.8976 63.834 38.1926 63.9741 38.4101 64.2235C38.6276 64.4728 38.7497 64.811 38.7497 65.1637V80.7236H36.4214V65.1637C36.4214 64.9882 36.4517 64.8145 36.5105 64.6525C36.5693 64.4905 36.6556 64.3435 36.7642 64.2199C36.8728 64.0963 37.0017 63.9985 37.1435 63.9323C37.2852 63.8661 37.4369 63.8327 37.59 63.834V63.834Z" fill="#24285B"/>
<path d="M49.0014 60.0681C49.0014 60.0681 42.1403 55.1149 40.7769 55.3483C38.8439 55.8888 37.0449 56.9305 35.5182 58.3933C33.0659 60.606 32.6498 63.2247 33.1899 66.6757C33.2665 67.5891 33.5742 68.457 34.0752 69.1726C34.2039 69.3442 34.3611 69.4847 34.5376 69.5859C34.7141 69.6871 34.9065 69.747 35.1034 69.7621C35.3004 69.7772 35.4979 69.7472 35.6847 69.6739C35.8714 69.6006 36.0435 69.4854 36.191 69.335C36.3082 69.1588 36.4176 68.9759 36.5186 68.7869C36.7155 68.505 36.9483 68.2587 37.2091 68.0561C37.4204 67.8549 37.664 67.7031 37.9262 67.6095C38.0594 67.5672 38.2009 67.5749 38.33 67.6315C38.459 67.6882 38.5689 67.7907 38.6433 67.9242C38.7074 68.1202 38.7491 68.3249 38.7673 68.5332C38.8383 68.7695 38.9686 68.9764 39.1419 69.1281C39.3151 69.2798 39.5236 69.3694 39.7411 69.3858C40.4446 69.3596 41.1416 69.223 41.8127 68.9798C44.8228 68.2693 47.8062 67.2746 50.8783 68.1982L49.0014 60.0681Z" fill="#F4A28C"/>
<path d="M46.6379 116.259C46.6 116.268 46.5607 116.268 46.5228 116.259C46.4754 116.242 46.4314 116.216 46.3932 116.18C46.355 116.144 46.3235 116.099 46.3004 116.049C46.2773 115.999 46.2632 115.944 46.2588 115.888C46.2544 115.832 46.2599 115.775 46.2749 115.721L55.6149 80.622C55.6464 80.542 55.6975 80.4741 55.7619 80.4265C55.8262 80.3788 55.9012 80.3535 55.9778 80.3535C56.0545 80.3535 56.1294 80.3788 56.1938 80.4265C56.2582 80.4741 56.3092 80.542 56.3408 80.622L65.6719 115.721C65.6869 115.775 65.6924 115.832 65.688 115.888C65.6837 115.944 65.6695 115.999 65.6464 116.049C65.6234 116.099 65.5918 116.144 65.5536 116.18C65.5154 116.216 65.4714 116.242 65.424 116.259C65.3764 116.276 65.3262 116.282 65.2764 116.278C65.2265 116.273 65.1781 116.257 65.1337 116.23C65.0893 116.204 65.0498 116.168 65.0176 116.124C64.9854 116.08 64.9611 116.029 64.946 115.974L55.9601 82.2156L46.9831 115.954C46.9586 116.039 46.9126 116.113 46.8511 116.167C46.7896 116.221 46.7153 116.253 46.6379 116.259Z" fill="#24285B"/>
<path d="M45.248 115.822H66.6724V116.482C66.6724 119.36 65.6754 122.12 63.9005 124.154C62.1257 126.189 59.7185 127.332 57.2085 127.332H54.712C52.202 127.332 49.7948 126.189 48.02 124.154C46.2451 122.12 45.248 119.36 45.248 116.482V115.822V115.822Z" fill="#FFD200"/>
<path d="M28.5598 116.258C28.4789 116.258 28.4001 116.229 28.3348 116.174C28.2696 116.119 28.2212 116.042 28.1968 115.954L19.1932 82.2153L10.2428 115.954C10.2122 116.062 10.1461 116.152 10.0585 116.205C9.97087 116.258 9.86866 116.27 9.77357 116.238C9.72543 116.223 9.68044 116.197 9.64128 116.161C9.60212 116.126 9.5696 116.082 9.54564 116.032C9.52168 115.981 9.50678 115.926 9.50183 115.869C9.49688 115.812 9.50198 115.755 9.51683 115.7L18.8568 80.6015C18.8884 80.5215 18.9394 80.4536 19.0038 80.406C19.0682 80.3583 19.1432 80.333 19.2198 80.333C19.2964 80.333 19.3714 80.3583 19.4358 80.406C19.5001 80.4536 19.5512 80.5215 19.5828 80.6015L28.9316 115.7C28.9464 115.755 28.9515 115.812 28.9466 115.869C28.9416 115.926 28.9267 115.981 28.9028 116.032C28.8788 116.082 28.8463 116.126 28.8071 116.161C28.768 116.197 28.723 116.223 28.6748 116.238C28.6387 116.257 28.599 116.264 28.5598 116.258V116.258Z" fill="#24285B"/>
<path d="M8.50781 115.822H29.9322V116.482C29.9322 119.36 28.9351 122.12 27.1603 124.154C25.3855 126.189 22.9783 127.332 20.4683 127.332H17.9717C15.4617 127.332 13.0546 126.189 11.2797 124.154C9.5049 122.12 8.50781 119.36 8.50781 116.482V115.822V115.822Z" fill="#FFD200"/>
<path d="M55.9597 81.1598H19.193C19.1387 81.1694 19.0833 81.1654 19.0305 81.1481C18.9778 81.1308 18.9289 81.1007 18.8872 81.0597C18.8455 81.0187 18.8121 80.9679 18.7892 80.9107C18.7663 80.8536 18.7544 80.7914 18.7544 80.7284C18.7544 80.6655 18.7663 80.6033 18.7892 80.5462C18.8121 80.489 18.8455 80.4382 18.8872 80.3972C18.9289 80.3562 18.9778 80.3261 19.0305 80.3088C19.0833 80.2915 19.1387 80.2875 19.193 80.2971H55.9331C56.023 80.3129 56.105 80.3651 56.1642 80.4443C56.2234 80.5234 56.2559 80.6242 56.2559 80.7284C56.2559 80.8327 56.2234 80.9335 56.1642 81.0126C56.105 81.0918 56.023 81.144 55.9331 81.1598H55.9597Z" fill="#24285B"/>
<path d="M121.889 37.2407C121.889 37.2407 73.3918 66.219 47.9658 57.9264V69.467C47.9658 69.467 65.911 81.3729 87.8488 76.6532C109.787 71.9334 121.889 62.4432 121.889 62.4432V37.2407Z" fill="#9ED6BE"/>
<path opacity="0.46" d="M121.889 37.2407C121.889 37.2407 73.3918 66.219 47.9658 57.9264V69.467C47.9658 69.467 65.911 81.3729 87.8488 76.6532C109.787 71.9334 121.889 62.4432 121.889 62.4432V37.2407Z" fill="white"/>
<path d="M123.102 12.0588C122.923 15.0794 123.096 18.1137 123.615 21.0822C123.787 21.7829 124.193 22.3776 124.745 22.7368C125.297 23.0961 125.951 23.1908 126.563 23.0005C127.554 22.7531 128.462 22.1859 129.181 21.3657C129.899 20.5456 130.398 19.5068 130.618 18.3721L131.964 13.5915C132.142 12.6041 132.049 11.5779 131.699 10.6531C131.349 9.72833 130.758 8.95018 130.007 8.42511C127.298 6.24286 123.164 8.72961 123.102 12.0588Z" fill="#F4A28C"/>
<path d="M131.14 14.9717L135.611 32.0643L127.227 34.2161L127.342 20.9094L131.14 14.9717Z" fill="#F4A28C"/>
<path d="M123.048 15.5298L121.756 17.6511C121.682 17.7717 121.637 17.9116 121.623 18.0578C121.609 18.204 121.628 18.3518 121.678 18.4874C121.727 18.6231 121.806 18.7423 121.906 18.8338C122.006 18.9254 122.125 18.9864 122.252 19.0112L124.075 19.3665L123.048 15.5298Z" fill="#F4A28C"/>
<path opacity="0.31" d="M127.351 22.6859C127.351 22.6859 128.431 22.422 130.317 20.2905C130.317 20.2905 130.724 23.8227 127.289 26.5937L127.351 22.6859Z" fill="#CE8172"/>
<path d="M129.396 15.3674C129.29 16.1084 128.83 16.7377 128.679 17.4989C128.595 17.8752 128.595 18.2696 128.679 18.6459C128.782 18.9813 128.975 19.2701 129.232 19.4694C129.489 19.6686 129.795 19.7678 130.104 19.7522C131.698 19.671 132.433 16.4433 132.964 15.0629C132.964 15.0629 134.655 9.25712 133.141 6.43542C131.946 4.20242 129.6 4.84187 128.033 3.23817C127.148 2.22317 126.448 0.792017 125.226 0.467217C124.005 0.142417 122.827 1.16757 122.084 2.30437C121.292 3.47954 120.804 4.88645 120.676 6.36437C120.562 7.83325 120.942 9.29639 121.738 10.4548C122.88 12.0078 125.28 12.3529 126.953 12.3529C127.537 12.3613 128.101 12.603 128.547 13.0365C128.993 13.47 129.293 14.0681 129.396 14.728C129.429 14.9394 129.429 15.156 129.396 15.3674V15.3674Z" fill="#24285B"/>
<path d="M127.776 15.2052C127.776 15.2052 127.776 13.1143 129.157 13.2462C130.538 13.3782 130.538 16.413 128.679 16.7277L127.776 15.2052Z" fill="#F4A28C"/>
<path d="M172.493 75.5064C167.039 121.628 163.498 134.793 163.498 134.793L122.021 135.249C122.021 135.249 121.747 130.489 121.136 123.871C119.932 111.539 117.462 92.7309 113.168 86.3161C106.582 76.5011 93.6209 47.5431 125.642 34.6323L132.858 32.785C132.858 32.785 148.501 30.5723 160.302 38.672C168.544 44.3763 174.901 55.1962 172.493 75.5064Z" fill="#9ED6BE"/>
<path opacity="0.08" d="M172.493 75.5064C167.039 121.628 163.498 134.793 163.498 134.793L122.022 135.249C122.022 135.249 121.747 130.489 121.136 123.871C123.773 121.003 126.673 118.471 129.786 116.32C132.504 114.361 135.345 112.513 137.559 109.854C140.763 106.007 142.392 100.831 143.756 95.7455C147.616 80.8352 150.015 76.9376 149.776 61.3776L154.53 39.9814C156.34 39.0416 158.316 38.5968 160.302 38.6822C168.544 44.3764 174.901 55.1963 172.493 75.5064Z" fill="black"/>
<path d="M122.933 35.8299C122.933 35.8299 119.941 82.8954 132.858 103.835C132.858 103.835 132.132 54.242 143.242 32.8458C143.242 32.7849 132.858 29.5267 122.933 35.8299Z" fill="white"/>
<path opacity="0.27" d="M122.933 35.8301L114.806 62.352L121.304 75.1816L118.852 87.5951L132.858 103.835C132.858 103.835 121.26 91.8682 122.933 35.8301Z" fill="white"/>
<path d="M127.315 33.993C127.369 32.643 128.139 32.8968 129.272 32.5212C130.405 32.1457 131.574 30.6942 132.556 31.9528C134.451 34.3584 131.096 38.9157 131.096 38.9157H127.997C127.595 37.3129 127.366 35.6596 127.315 33.993Z" fill="#24285B"/>
<path d="M127.997 38.875H131.096C131.096 38.875 131.388 66.4424 133.433 82.7331L132.857 103.835C132.857 103.835 126.173 93.5936 125.111 80.49C125.111 80.4291 125.43 54.6177 127.997 38.875Z" fill="#24285B"/>
<path d="M122.934 35.8302L126.732 38.8752L129.768 33.8002L132.938 38.3169L143.243 32.7852C143.243 32.7852 130.742 27.02 122.934 35.8302Z" fill="#9ED6BE"/>
<path opacity="0.55" d="M122.934 35.8302L126.732 38.8752L129.768 33.8002L132.938 38.3169L143.243 32.7852C143.243 32.7852 130.742 27.02 122.934 35.8302Z" fill="white"/>
<path opacity="0.27" d="M143.242 32.7852L144.96 67.8534L136.939 73.3852L141.675 84.8039L132.822 103.815C132.822 103.815 132.327 53.9276 143.242 32.7852Z" fill="white"/>
<path d="M179.336 113.153H94.5415V224.204H179.336V113.153Z" fill="#24285B"/>
<path d="M188.313 217.698H85.5557V229.594H188.313V217.698Z" fill="#24285B"/>
<path opacity="0.08" d="M188.313 217.698H85.5557V229.594H188.313V217.698Z" fill="white"/>
<path d="M188.313 112.645H85.5557V124.541H188.313V112.645Z" fill="#24285B"/>
<path opacity="0.08" d="M188.313 112.645H85.5557V124.541H188.313V112.645Z" fill="white"/>
<path opacity="0.08" d="M168.898 138.051H104.97V208.817H168.898V138.051Z" fill="white"/>
<path d="M156.469 36.4592C156.469 36.4592 206.471 59.8042 211.668 69.8121C216.864 79.82 216.616 118.583 216.616 118.583L204.222 117.73C203.965 116.187 196.493 82.5706 193.005 77.7595C190.04 73.6995 150.971 70.2282 149.776 61.3774C148.581 52.5266 153.468 36.0633 156.469 36.4592Z" fill="#9ED6BE"/>
<path d="M127.776 92.6699H94.5415V112.645H127.776V92.6699Z" fill="#E6E6E6"/>
<path d="M123.261 85.8086H91.6821V92.67H123.261V85.8086Z" fill="#E6E6E6"/>
<path d="M127.767 101.815H104.926V102.779H127.767V101.815Z" fill="#C1C1C1"/>
<path d="M117.551 108.961H94.71V109.925H117.551V108.961Z" fill="#C1C1C1"/>
<path d="M122.208 97.7246H99.3667V98.6889H122.208V97.7246Z" fill="#C1C1C1"/>
<path d="M123.252 88.2749H100.411V89.2392H123.252V88.2749Z" fill="#C1C1C1"/>
<path d="M113.036 92.6699H94.71V93.4312H113.036V92.6699Z" fill="#C1C1C1"/>
<path d="M232.295 135.655H187.499V172.419H232.295V135.655Z" fill="#FFD200"/>
<path opacity="0.46" d="M225.346 149.287H194.449L187.499 135.655H232.295L225.346 149.287Z" fill="white"/>
</g>
<defs>
<clipPath id="clip0_21_587">
<rect width="314" height="242" fill="white"/>
</clipPath>
</defs>
</svg>
