<svg width="142" height="218" viewBox="0 0 142 218" fill="none" xmlns="http://www.w3.org/2000/svg">
<path opacity="0.36" d="M125.32 50.4315V44.5547H58.3297V50.4315C58.3297 52.542 57.4913 54.5661 55.999 56.0584C54.5067 57.5507 52.4826 58.3891 50.3721 58.3891C48.4635 58.3891 46.6331 59.1473 45.2835 60.4969C43.934 61.8465 43.1758 63.6769 43.1758 65.5855V145.933C43.1758 150.375 44.9402 154.634 48.081 157.775C51.2218 160.916 55.4816 162.68 59.9233 162.68H124.711C129.153 162.68 133.414 160.916 136.557 157.776C139.699 154.635 141.466 150.376 141.468 145.933V65.5855C141.468 64.6396 141.282 63.703 140.92 62.8292C140.557 61.9555 140.026 61.1617 139.357 60.4933C138.688 59.8249 137.893 59.2951 137.019 58.934C136.145 58.573 135.208 58.3878 134.262 58.3891H133.247C131.141 58.3838 129.123 57.5427 127.637 56.0506C126.15 54.5586 125.317 52.5376 125.32 50.4315V50.4315Z" fill="#9ED6BE"/>
<path d="M89.7154 33.5559C98.9817 33.5559 106.493 26.0442 106.493 16.778C106.493 7.51175 98.9817 0 89.7154 0C80.4492 0 72.9375 7.51175 72.9375 16.778C72.9375 26.0442 80.4492 33.5559 89.7154 33.5559Z" fill="#FFD200"/>
<path d="M88.3517 19.3775V15.0831C87.0124 14.7005 86.0285 14.1231 85.3999 13.351C84.7781 12.5721 84.4672 11.6292 84.4672 10.5223C84.4672 9.40169 84.8191 8.46219 85.5229 7.70375C86.2335 6.93849 87.1764 6.49777 88.3517 6.38162V5.36695H89.8378V6.38162C90.9242 6.51144 91.7885 6.88382 92.4308 7.49877C93.0731 8.10689 93.4831 8.9234 93.6607 9.94831L91.0677 10.2865C90.9105 9.48027 90.5006 8.93365 89.8378 8.64667V12.6541C91.4776 13.0982 92.5948 13.6756 93.1892 14.3862C93.7837 15.09 94.0809 15.9953 94.0809 17.1022C94.0809 18.3389 93.7051 19.3809 92.9535 20.2282C92.2087 21.0754 91.1702 21.5947 89.8378 21.786V23.7026H88.3517V21.8373C87.1696 21.6938 86.2096 21.2531 85.4717 20.5152C84.7337 19.7772 84.2623 18.7352 84.0573 17.3892L86.7323 17.1022C86.8416 17.6488 87.0466 18.1203 87.3473 18.5166C87.6479 18.9129 87.9827 19.1999 88.3517 19.3775ZM88.3517 8.61593C87.9485 8.75258 87.6274 8.98489 87.3882 9.31287C87.1491 9.64084 87.0295 10.003 87.0295 10.3993C87.0295 10.7614 87.1389 11.0996 87.3575 11.4139C87.5761 11.7214 87.9075 11.9708 88.3517 12.1621V8.61593ZM89.8378 19.521C90.3502 19.4253 90.767 19.1896 91.0882 18.8138C91.4093 18.4312 91.5699 17.9836 91.5699 17.4712C91.5699 17.0134 91.4332 16.6205 91.1599 16.2925C90.8934 15.9577 90.4527 15.7015 89.8378 15.5238V19.521Z" fill="white"/>
<path d="M135.034 23.0469H48.7891V44.5547H135.034V23.0469Z" fill="#9ED6BE"/>
<path opacity="0.09" d="M74.1421 23.0438C73.3251 21.058 72.9144 18.9285 72.9343 16.7812L106.196 19.9176C105.999 20.9893 105.689 22.0372 105.272 23.0438H74.1421Z" fill="black"/>
<path d="M131.014 141.906V136.049H121.787C116.437 134.879 110.897 134.879 105.547 136.049H96.1992V142.789C96.1992 146.991 104.025 150.401 113.688 150.401C123.35 150.401 131.186 146.991 131.186 142.789C131.172 142.488 131.114 142.19 131.014 141.906V141.906Z" fill="#FFD200"/>
<path opacity="0.09" d="M131.014 141.906V136.049H121.787C116.437 134.879 110.897 134.879 105.547 136.049H96.1992V142.789C96.1992 146.991 104.025 150.401 113.688 150.401C123.35 150.401 131.186 146.991 131.186 142.789C131.172 142.488 131.114 142.19 131.014 141.906V141.906Z" fill="black"/>
<path d="M113.639 143.647C123.303 143.647 131.138 140.239 131.138 136.034C131.138 131.83 123.303 128.422 113.639 128.422C103.975 128.422 96.1406 131.83 96.1406 136.034C96.1406 140.239 103.975 143.647 113.639 143.647Z" fill="#FFD200"/>
<path d="M90.9027 141.912V136.055H81.6764C76.3065 134.878 70.7453 134.878 65.3755 136.055H56.0273V142.795C56.0273 146.997 63.8631 150.407 73.5259 150.407C83.1887 150.407 91.0245 146.997 91.0245 142.795C91.0213 142.496 90.9804 142.2 90.9027 141.912Z" fill="#FFD200"/>
<path opacity="0.09" d="M90.9027 141.912V136.055H81.6764C76.3065 134.878 70.7453 134.878 65.3755 136.055H56.0273V142.795C56.0273 146.997 63.8631 150.407 73.5259 150.407C83.1887 150.407 91.0245 146.997 91.0245 142.795C91.0213 142.496 90.9804 142.2 90.9027 141.912Z" fill="black"/>
<path d="M73.5259 143.647C83.1901 143.647 91.0245 140.239 91.0245 136.034C91.0245 131.83 83.1901 128.422 73.5259 128.422C63.8617 128.422 56.0273 131.83 56.0273 136.034C56.0273 140.239 63.8617 143.647 73.5259 143.647Z" fill="#FFD200"/>
<path d="M127.796 132.687V126.81H118.54C113.168 125.647 107.61 125.647 102.239 126.81H92.8906V133.55C92.8906 137.752 100.726 141.162 110.389 141.162C120.052 141.162 127.888 137.752 127.888 133.55C127.893 133.26 127.862 132.97 127.796 132.687V132.687Z" fill="#FFD200"/>
<path opacity="0.09" d="M127.796 132.687V126.81H118.54C113.168 125.647 107.61 125.647 102.239 126.81H92.8906V133.55C92.8906 137.752 100.726 141.162 110.389 141.162C120.052 141.162 127.888 137.752 127.888 133.55C127.893 133.26 127.862 132.97 127.796 132.687V132.687Z" fill="black"/>
<path d="M110.42 134.42C120.085 134.42 127.919 131.012 127.919 126.808C127.919 122.604 120.085 119.195 110.42 119.195C100.756 119.195 92.9219 122.604 92.9219 126.808C92.9219 131.012 100.756 134.42 110.42 134.42Z" fill="#FFD200"/>
<path d="M129.26 123.164V117.297H120.033C114.667 116.12 109.109 116.12 103.743 117.297H94.3945V124.026C94.3945 128.229 102.22 131.639 111.883 131.639C121.546 131.639 129.382 128.229 129.382 124.026C129.382 123.735 129.341 123.444 129.26 123.164V123.164Z" fill="#FFD200"/>
<path opacity="0.09" d="M129.26 123.164V117.297H120.033C114.667 116.12 109.109 116.12 103.743 117.297H94.3945V124.026C94.3945 128.229 102.22 131.639 111.883 131.639C121.546 131.639 129.382 128.229 129.382 124.026C129.382 123.735 129.341 123.444 129.26 123.164V123.164Z" fill="black"/>
<path d="M111.881 124.905C121.546 124.905 129.38 121.496 129.38 117.292C129.38 113.088 121.546 109.68 111.881 109.68C102.217 109.68 94.3828 113.088 94.3828 117.292C94.3828 121.496 102.217 124.905 111.881 124.905Z" fill="#FFD200"/>
<path d="M129.26 115.551V109.664H120.033C114.667 108.487 109.109 108.487 103.743 109.664H94.3945V116.394C94.3945 120.596 102.22 124.006 111.883 124.006C121.546 124.006 129.382 120.596 129.382 116.394C129.38 116.109 129.339 115.825 129.26 115.551Z" fill="#FFD200"/>
<path opacity="0.09" d="M129.26 115.551V109.664H120.033C114.667 108.487 109.109 108.487 103.743 109.664H94.3945V116.394C94.3945 120.596 102.22 124.006 111.883 124.006C121.546 124.006 129.382 120.596 129.382 116.394C129.38 116.109 129.339 115.825 129.26 115.551Z" fill="black"/>
<path d="M111.881 117.295C121.546 117.295 129.38 113.887 129.38 109.683C129.38 105.479 121.546 102.07 111.881 102.07C102.217 102.07 94.3828 105.479 94.3828 109.683C94.3828 113.887 102.217 117.295 111.881 117.295Z" fill="#FFD200"/>
<path d="M120.419 58.054L117.161 53.1719L109.488 58.2469C104.373 60.2571 99.7487 63.341 95.9272 67.2905L88.1523 72.4772L91.8876 78.08C94.2221 81.5817 102.626 80.11 110.665 74.7102C118.704 69.3104 123.332 62.1648 120.998 58.663C120.833 58.4355 120.638 58.2307 120.419 58.054V58.054Z" fill="#FFD200"/>
<path opacity="0.09" d="M120.419 58.054L117.161 53.1719L109.488 58.2469C104.373 60.2571 99.7487 63.341 95.9272 67.2905L88.1523 72.4772L91.8876 78.08C94.2221 81.5817 102.626 80.11 110.665 74.7102C118.704 69.3104 123.332 62.1648 120.998 58.663C120.833 58.4355 120.638 58.2307 120.419 58.054V58.054Z" fill="black"/>
<path d="M106.928 69.1254C114.967 63.7618 119.593 56.5787 117.259 53.0813C114.926 49.584 106.517 51.0968 98.4782 56.4603C90.439 61.8239 85.8134 69.007 88.1467 72.5044C90.4801 76.0017 98.8887 74.4889 106.928 69.1254Z" fill="#FFD200"/>
<path opacity="0.09" d="M99.7216 121.531C99.7216 121.531 115.048 124.465 114.764 136.036C114.48 147.607 116.946 150.246 116.946 150.246C112.156 150.691 107.325 150.177 102.736 148.733C95.4383 146.358 99.7216 121.531 99.7216 121.531Z" fill="black"/>
<path d="M95.6209 151.914C104.164 151.914 111.09 144.988 111.09 136.445C111.09 127.902 104.164 120.977 95.6209 120.977C87.0779 120.977 80.1523 127.902 80.1523 136.445C80.1523 144.988 87.0779 151.914 95.6209 151.914Z" fill="#FFD200"/>
<g opacity="0.09">
<path opacity="0.09" d="M95.6209 151.914C104.164 151.914 111.09 144.988 111.09 136.445C111.09 127.902 104.164 120.977 95.6209 120.977C87.0779 120.977 80.1523 127.902 80.1523 136.445C80.1523 144.988 87.0779 151.914 95.6209 151.914Z" fill="black"/>
</g>
<path d="M91.2967 151.914C99.8398 151.914 106.765 144.988 106.765 136.445C106.765 127.902 99.8398 120.977 91.2967 120.977C82.7537 120.977 75.8281 127.902 75.8281 136.445C75.8281 144.988 82.7537 151.914 91.2967 151.914Z" fill="#FFD200"/>
<path d="M69.617 113.437C78.1601 113.437 85.0856 106.512 85.0856 97.9686C85.0856 89.4255 78.1601 82.5 69.617 82.5C61.074 82.5 54.1484 89.4255 54.1484 97.9686C54.1484 106.512 61.074 113.437 69.617 113.437Z" fill="#FFD200"/>
<g opacity="0.09">
<path opacity="0.09" d="M69.617 113.437C78.1601 113.437 85.0856 106.512 85.0856 97.9686C85.0856 89.4255 78.1601 82.5 69.617 82.5C61.074 82.5 54.1484 89.4255 54.1484 97.9686C54.1484 106.512 61.074 113.437 69.617 113.437Z" fill="black"/>
</g>
<path d="M69.617 109.117C78.1601 109.117 85.0856 102.191 85.0856 93.6483C85.0856 85.1052 78.1601 78.1797 69.617 78.1797C61.074 78.1797 54.1484 85.1052 54.1484 93.6483C54.1484 102.191 61.074 109.117 69.617 109.117Z" fill="#FFD200"/>
<path opacity="0.09" d="M87.3486 138.391C87.3486 138.391 106.989 141.283 92.312 161.543C77.6351 181.802 75.1483 153.626 87.3486 138.391Z" fill="black"/>
<path d="M48.5034 166.5C48.5034 166.5 67.5448 129.402 85.419 136.608C89.6312 138.314 88.0174 145.794 85.9163 151.833C85.639 152.626 85.5734 153.477 85.7261 154.303C85.8788 155.128 86.2445 155.9 86.7869 156.541C87.3294 157.182 88.0298 157.67 88.8189 157.957C89.6079 158.244 90.4582 158.32 91.2857 158.177C105.059 155.802 130.992 151.783 137.113 154.198C145.548 157.528 140.249 167.14 114.489 175.107C94.4728 181.299 89.5196 186.831 74.7006 196.717C52.0153 211.739 38.4651 183.065 48.5034 166.5Z" fill="#F2BF8C"/>
<path d="M46.0903 164.5L66.9182 203.222L54.5 217.828H0L46.0903 164.5Z" fill="#9ED6BE"/>
<path opacity="0.09" d="M31.5 217.828L62.2671 193.969L66.9158 203.226L54 217.828H31.5Z" fill="black"/>
</svg>
