<svg width="406" height="306" viewBox="0 0 406 306" fill="none" xmlns="http://www.w3.org/2000/svg">
<path d="M169.352 108.594C169.352 108.594 130.528 113.121 116.674 123.727C102.819 134.334 105.509 150.584 150.646 142.048C195.783 133.512 169.352 108.594 169.352 108.594Z" fill="#9ED6BE"/>
<path opacity="0.08" d="M169.352 108.594C169.352 108.594 130.528 113.121 116.674 123.727C102.819 134.334 105.509 150.584 150.646 142.048C195.783 133.512 169.352 108.594 169.352 108.594Z" fill="black"/>
<path d="M153.985 81.9489C155.34 81.7834 156.656 81.3815 157.872 80.7613C159.902 79.7463 164.267 78.7313 164.175 82.9943C164.115 85.7044 159.902 82.497 159.618 86.1408C159.334 89.7847 159.852 94.3928 152.33 93.2458C145.469 92.1496 147.377 82.7913 153.985 81.9489Z" fill="#F4A28C"/>
<path d="M274.872 104.705C303.595 104.705 326.88 84.8142 326.88 60.2781C326.88 35.742 303.595 15.8516 274.872 15.8516C246.148 15.8516 222.863 35.742 222.863 60.2781C222.863 84.8142 246.148 104.705 274.872 104.705Z" fill="#24285B"/>
<path opacity="0.45" d="M198.258 283.804C259.018 283.804 308.274 276.811 308.274 268.183C308.274 259.556 259.018 252.562 198.258 252.562C137.498 252.562 88.2422 259.556 88.2422 268.183C88.2422 276.811 137.498 283.804 198.258 283.804Z" fill="#E6E6E6"/>
<path opacity="0.58" d="M243.874 250.561C243.874 250.561 233.582 247.801 231.309 238.26C231.309 238.26 247.224 234.971 247.741 251.455L243.874 250.561Z" fill="#9ED6BE"/>
<path opacity="0.73" d="M245.132 249.535C245.132 249.535 237.905 238.218 244.178 227.57C244.178 227.57 256.358 235.213 250.998 249.535H245.132Z" fill="#9ED6BE"/>
<path d="M246.98 249.536C246.98 249.536 250.726 237.529 262.205 235.215C262.205 235.215 264.388 242.99 254.837 249.536H246.98Z" fill="#9ED6BE"/>
<path d="M239.531 249.305L241.673 263.545H254.797L256.664 249.305H239.531Z" fill="#24285B"/>
<path d="M175.026 259.827C175.026 259.827 173.574 264.111 169.737 264.496C165.901 264.882 164.947 268.668 168.428 269.571C171.909 270.475 180.74 265.887 180.74 265.887L180.364 259.797L175.026 259.827Z" fill="#9ED6BE"/>
<path d="M215.383 255.049C215.383 255.049 216.51 259.434 213.505 261.86C210.501 264.286 211.79 267.95 215.2 266.833C218.611 265.717 223.493 257.008 223.493 257.008L220.164 252.562L215.383 255.049Z" fill="#9ED6BE"/>
<path d="M182.375 79.208C182.375 79.208 186.069 85.6938 186.993 90.7181C187.081 91.2047 187.071 91.7038 186.966 92.1869C186.86 92.6699 186.66 93.1273 186.377 93.5328C186.094 93.9383 185.734 94.2839 185.317 94.5499C184.9 94.8159 184.435 94.9969 183.948 95.0826C181.421 95.5089 177.858 95.3566 175.463 92.1188L170.722 87.125C169.878 86.0236 169.396 84.6878 169.341 83.3011C169.287 81.9144 169.663 80.5448 170.418 79.3805C172.986 74.8435 180.324 75.1378 182.375 79.208Z" fill="#F4A28C"/>
<path d="M172.457 88.2227L172.559 112.694L186.038 111.669L180.689 94.7187L172.457 88.2227Z" fill="#F4A28C"/>
<path d="M184.496 83.4219L187.541 85.1677C187.721 85.2646 187.873 85.4063 187.982 85.5791C188.091 85.7519 188.154 85.9499 188.164 86.1541C188.174 86.3582 188.132 86.5615 188.04 86.7444C187.949 86.9272 187.812 87.0833 187.643 87.1977L185.278 88.8826L184.496 83.4219Z" fill="#F4A28C"/>
<path opacity="0.31" d="M180.842 95.1958C179.191 95.032 177.615 94.4214 176.285 93.4297C176.285 93.4297 175.818 98.7686 182.375 100.047L180.842 95.1958Z" fill="#CE8172"/>
<path d="M276.77 32.5501C282.19 32.8648 286.443 34.5801 289.529 37.6251C290.984 39.0364 292.111 40.7514 292.829 42.6479C293.546 44.5443 293.837 46.5757 293.68 48.5973C293.655 51.2074 292.956 53.7668 291.65 56.0271C290.371 57.9759 289.721 59.1736 287.752 60.5134C286.274 61.5953 284.689 62.5238 283.022 63.2843C281.906 63.8629 281.155 64.1877 280.86 64.3907C277.815 66.0248 276.1 67.5879 275.938 70.4096C275.836 72.2163 275.227 72.6934 273.492 72.5919L270.599 72.4193C268.863 72.3178 268.315 71.7799 268.417 69.9732C268.782 63.8223 271.462 61.0107 276.059 58.3007C275.988 58.3007 278.993 56.6665 279.104 56.5955C280.042 56.0498 280.928 55.4214 281.754 54.7177C282.551 53.9419 283.235 53.0568 283.784 52.0889C284.262 50.9233 284.556 49.6907 284.657 48.4349C284.91 44.0298 281.825 40.8731 276.049 40.5382C270.477 40.2134 267.391 42.2738 265.097 46.7094C264.194 48.4755 263.605 48.7394 261.9 48.0492L258.5 46.618C256.866 46.0192 256.47 44.9027 257.16 43.4208C260.774 35.6256 267.31 32.002 276.77 32.5501ZM272.172 76.4489C275.643 76.6519 276.729 77.88 276.526 81.3412V82.0009C276.323 85.5331 275.105 86.5583 271.634 86.3553H271.056C267.584 86.1523 266.498 85.0053 266.701 81.463V80.8134C266.904 77.3421 268.122 76.256 271.593 76.459L272.172 76.4489Z" fill="#FFD200"/>
<path d="M180.729 107.66H194.239C194.239 107.66 237.508 111.385 238.198 132.781C238.889 154.178 210.905 196.919 210.905 196.919H164.276C164.276 196.919 110.633 107.66 180.729 107.66Z" fill="#9ED6BE"/>
<path opacity="0.08" d="M207.965 127.523C207.965 127.523 198.201 141.449 202.281 152.289C206.361 163.13 208.178 180.496 176.733 163.678L172.166 149.102L159.884 144.88L154.941 164.987L163.407 167.86C165.353 168.49 166.974 169.858 167.923 171.67C168.872 173.482 169.072 175.594 168.482 177.553C167.355 181.004 164.574 184.414 158.057 185.074L164.32 196.878H210.949L217.13 186.82L234.122 149.498L207.965 127.523Z" fill="black"/>
<path d="M172.478 93.1166C172.478 93.1166 169.352 87.392 165.617 84.8646C161.882 82.3373 164.937 74.2071 171.504 72.7557C176.417 71.6595 179.228 70.0456 179.269 67.2747C179.287 66.9807 179.385 66.6972 179.551 66.454C179.717 66.2109 179.946 66.0172 180.213 65.8934C180.48 65.7697 180.776 65.7205 181.069 65.751C181.362 65.7815 181.641 65.8906 181.877 66.0668C184.131 67.7619 186.435 70.5328 185.318 74.3695C184.88 75.7612 184.089 77.0155 183.022 78.01C181.954 79.0045 180.647 79.7051 179.228 80.0434L174.803 81.2208C174.803 81.2208 180.73 89.2088 172.478 93.1166Z" fill="#24285B"/>
<path d="M177.826 88.3234C177.826 88.3234 176.578 85.7351 174.71 86.8415C172.843 87.9478 174.619 91.6932 177.451 90.8203L177.826 88.3234Z" fill="#F4A28C"/>
<path d="M233.509 72.6641L207.84 92.5987L240.228 85.7068L233.509 72.6641Z" fill="#24285B"/>
<path d="M208.186 133.988C204.613 120.935 220.274 111.222 230.516 120.134C235.398 124.397 239.559 129.878 240.818 136.688C244.441 156.257 256.043 173.289 238.28 184.88C220.518 196.472 178.477 170.752 178.477 170.752L184.262 160.246C184.262 160.246 205.303 168.58 218.356 167.849C227.359 167.351 213.23 152.421 208.186 133.988Z" fill="#9ED6BE"/>
<path d="M181.299 145.744L168.613 142.715L163.726 163.18L176.412 166.21L181.299 145.744Z" fill="#FFD200"/>
<path opacity="0.3" d="M208.186 133.988C204.613 120.935 220.274 111.222 230.516 120.134C235.398 124.397 239.559 129.878 240.818 136.688C244.441 156.257 256.043 173.289 238.28 184.88C220.518 196.472 178.477 170.752 178.477 170.752L184.262 160.246C184.262 160.246 205.303 168.58 218.356 167.849C227.359 167.351 213.23 152.421 208.186 133.988Z" fill="white"/>
<path d="M183.491 161.568C183.014 159.571 182.067 157.716 180.73 156.158C178.456 153.438 177.685 152.23 174.548 152.291C171.412 152.352 171.097 163.872 179.755 168.349L183.491 161.568Z" fill="#F4A28C"/>
<path d="M210.906 196.918C210.906 196.918 201.568 235.691 220.264 251.992L213.677 258.153C213.677 258.153 189.439 244.085 186.059 205.434L210.906 196.918Z" fill="#24285B"/>
<path d="M148.434 86.3359L152.332 93.2278L123.83 138.142C119.425 145.074 108.453 142.202 108.352 133.99C108.352 130.204 109.499 125.647 112.878 120.267C125.119 100.718 148.434 86.3359 148.434 86.3359Z" fill="#9ED6BE"/>
<path d="M145.531 73.1207L145.262 75.1328L155.835 76.5474L156.104 74.5353L145.531 73.1207Z" fill="#C9C9C9"/>
<path d="M153.721 60.2884L152.16 61.5859L158.979 69.79L160.54 68.4925L153.721 60.2884Z" fill="#C9C9C9"/>
<path d="M167.083 56.9873L166.098 67.6094L168.119 67.7969L169.104 57.1748L167.083 56.9873Z" fill="#C9C9C9"/>
<path d="M164.278 196.918C164.278 196.918 154.696 233.113 173.585 259.797L181.218 259.432C181.218 259.432 170.155 223.328 186.587 210.123L210.947 196.928L164.278 196.918Z" fill="#24285B"/>
</svg>
