<svg width="232" height="194" viewBox="0 0 232 194" fill="none" xmlns="http://www.w3.org/2000/svg">
<g clip-path="url(#clip0_21_632)">
<path d="M35.9651 49.5083C35.9651 49.5083 13.2494 83.1657 14.4775 109.109C15.7057 135.052 14.4775 147.405 14.4775 147.405L49.5356 150.288L56.4782 130.789L35.9651 49.5083Z" fill="#F4A28C"/>
<path opacity="0.09" d="M31.3671 119.817C31.3671 119.817 40.3194 137.346 33.3971 148.958L49.5153 150.288L56.4579 130.789C56.4579 130.789 50.307 110.337 31.3671 119.817Z" fill="black"/>
<path d="M160.079 98.4412L147.077 15.1401L52.0933 29.9693L41.4054 23.1891L33.3666 32.8925L48.9367 132.616L162.647 114.864L170.686 105.171L160.079 98.4412Z" fill="#FFD200"/>
<path opacity="0.09" d="M160.079 98.4412L147.077 15.1401L52.0933 29.9693L41.4054 23.1891L33.3666 32.8925L48.9367 132.616L162.647 114.864L170.686 105.171L160.079 98.4412Z" fill="black"/>
<path d="M155.121 5.44715L41.407 23.1934L56.9699 122.918L170.684 105.172L155.121 5.44715Z" fill="#FFD200"/>
<path opacity="0.09" d="M65.3492 38.343C68.623 38.343 71.2768 35.6891 71.2768 32.4154C71.2768 29.1417 68.623 26.4878 65.3492 26.4878C62.0755 26.4878 59.4216 29.1417 59.4216 32.4154C59.4216 35.6891 62.0755 38.343 65.3492 38.343Z" fill="black"/>
<path d="M62.2173 10.9038L61.1844 11.065C59.7055 11.2958 58.6938 12.6817 58.9246 14.1605L61.6055 31.3396C61.8363 32.8184 63.2222 33.8301 64.7011 33.5993L65.734 33.4381C67.2128 33.2073 68.2246 31.8214 67.9938 30.3426L65.3128 13.1636C65.082 11.6848 63.6961 10.6731 62.2173 10.9038Z" fill="#24285B"/>
<path opacity="0.09" d="M87.5372 34.8718C90.8109 34.8718 93.4648 32.2179 93.4648 28.9442C93.4648 25.6705 90.8109 23.0166 87.5372 23.0166C84.2635 23.0166 81.6096 25.6705 81.6096 28.9442C81.6096 32.2179 84.2635 34.8718 87.5372 34.8718Z" fill="black"/>
<path d="M84.4063 7.43118L83.3733 7.59238C81.8945 7.82317 80.8828 9.20908 81.1135 10.6879L83.7945 27.8669C84.0253 29.3457 85.4112 30.3575 86.89 30.1267L87.923 29.9655C89.4018 29.7347 90.4135 28.3488 90.1827 26.87L87.5018 9.69095C87.271 8.21213 85.8851 7.2004 84.4063 7.43118Z" fill="#24285B"/>
<path opacity="0.09" d="M108.954 31.5324C112.227 31.5324 114.881 28.8786 114.881 25.6048C114.881 22.3311 112.227 19.6772 108.954 19.6772C105.68 19.6772 103.026 22.3311 103.026 25.6048C103.026 28.8786 105.68 31.5324 108.954 31.5324Z" fill="black"/>
<path d="M105.813 4.09915L104.78 4.26035C103.301 4.49114 102.29 5.87704 102.52 7.35586L105.201 24.5349C105.432 26.0137 106.818 27.0254 108.297 26.7946L109.33 26.6334C110.809 26.4027 111.82 25.0168 111.59 23.5379L108.909 6.35892C108.678 4.8801 107.292 3.86837 105.813 4.09915Z" fill="#24285B"/>
<path opacity="0.09" d="M130.36 28.1931C133.634 28.1931 136.288 25.5392 136.288 22.2655C136.288 18.9918 133.634 16.3379 130.36 16.3379C127.086 16.3379 124.432 18.9918 124.432 22.2655C124.432 25.5392 127.086 28.1931 130.36 28.1931Z" fill="black"/>
<path d="M127.23 0.755889L126.197 0.91709C124.718 1.14787 123.707 2.53378 123.937 4.0126L126.618 21.1916C126.849 22.6704 128.235 23.6822 129.714 23.4514L130.747 23.2902C132.226 23.0594 133.237 21.6735 133.007 20.1947L130.326 3.01566C130.095 1.53684 128.709 0.525106 127.23 0.755889Z" fill="#24285B"/>
<path opacity="0.46" d="M58.9852 57.1713C60.3978 57.1713 61.543 56.0261 61.543 54.6135C61.543 53.2008 60.3978 52.0557 58.9852 52.0557C57.5725 52.0557 56.4274 53.2008 56.4274 54.6135C56.4274 56.0261 57.5725 57.1713 58.9852 57.1713Z" fill="white"/>
<path opacity="0.46" d="M61.8373 75.4515C63.25 75.4515 64.3951 74.3064 64.3951 72.8937C64.3951 71.4811 63.25 70.3359 61.8373 70.3359C60.4247 70.3359 59.2795 71.4811 59.2795 72.8937C59.2795 74.3064 60.4247 75.4515 61.8373 75.4515Z" fill="white"/>
<path opacity="0.46" d="M64.6895 93.7318C66.1022 93.7318 67.2473 92.5866 67.2473 91.174C67.2473 89.7614 66.1022 88.6162 64.6895 88.6162C63.2769 88.6162 62.1317 89.7614 62.1317 91.174C62.1317 92.5866 63.2769 93.7318 64.6895 93.7318Z" fill="white"/>
<path d="M70.6171 52.7968L142.449 41.5811" stroke="white" stroke-width="2.03" stroke-linecap="round" stroke-linejoin="bevel"/>
<path d="M73.4692 71.0771L145.311 59.8613" stroke="white" stroke-width="2.03" stroke-linecap="round" stroke-linejoin="bevel"/>
<path d="M76.3214 89.357L148.163 78.1514" stroke="white" stroke-width="2.03" stroke-linecap="round" stroke-linejoin="bevel"/>
<path d="M33.3666 87.946L55.524 70.4474C63.5628 64.1037 73.6722 75.6848 66.1003 82.6274C65.674 83.0131 65.2071 83.409 64.6895 83.7947C57.2382 89.4489 51.5378 97.0951 48.2465 105.851C48.2465 105.851 51.9512 124.385 38.3604 129.947C24.7695 135.509 7.37244 113.94 33.3666 87.946Z" fill="#F4A28C"/>
<path d="M9.12841 143.7L56.4274 150.288L53.1896 193.943L-0.483643 189L9.12841 143.7Z" fill="#9ED6BE"/>
<path d="M122.24 76.0402C115.896 76.2635 112.943 68.2653 117.713 64.0734C126.848 56.0752 142.449 46.9097 161.612 54.1568C192.498 65.8192 206.708 116.853 206.708 116.853L178.562 130.262C178.562 130.262 153.705 102.968 130.735 96.391C122.615 94.0463 124.321 81.8054 132.765 82.3535L133.699 82.4449C145.128 83.9877 151.736 93.1227 159.155 89.7224C166.575 86.3222 169.042 71.7163 154.832 68.1537C143.839 65.3929 135.689 75.5835 122.24 76.0402Z" fill="#F4A28C"/>
<path opacity="0.09" d="M106.051 71.0767L94.2158 75.4513L107.066 84.566L188.408 102.186L191.554 85.8348L154.761 73.8781L106.051 71.0767Z" fill="black"/>
<path d="M183.079 80.0345L111.244 64.4507L108.569 76.7803L180.404 92.3642L183.079 80.0345Z" fill="#24285B"/>
<path d="M111.248 64.439L94.2158 67.1998L108.568 76.7712L111.248 64.439Z" fill="white"/>
<path d="M200.044 83.7048L183.073 80.0229L180.398 92.3526L197.37 96.0345L200.044 83.7048Z" fill="#9ED6BE"/>
<path d="M168.494 127.43L211.377 115.564L231.505 193.943H174.675L168.494 127.43Z" fill="#9ED6BE"/>
<path opacity="0.09" d="M38.2589 64.1748C34.3544 71.4554 32.6545 79.7154 33.3666 87.9461L41.0197 81.8561L38.2589 64.1748Z" fill="black"/>
</g>
<defs>
<clipPath id="clip0_21_632">
<rect width="232" height="194" fill="white"/>
</clipPath>
</defs>
</svg>
