<svg width="342" height="248" viewBox="0 0 342 248" fill="none" xmlns="http://www.w3.org/2000/svg">
<g clip-path="url(#clip0_21_707)">
<path opacity="0.3" d="M270.978 38.4963C306.736 50.7473 340.799 84.3235 341.835 127.694C342.85 170.903 331.025 215.228 265.872 232.351C204.678 248.429 59.3501 254.255 20.6684 200.358C-15.8412 149.547 -4.24985 67.0584 59.5733 40.6785C104.304 22.1852 201.135 14.5829 270.978 38.4963Z" fill="#E6E6E6"/>
<path d="M138.52 134.455C138.52 134.455 173.284 133.856 236.417 68.8145L235.889 220.963C235.889 220.963 182.662 176.78 141.25 186.189C141.25 186.189 122.808 160.54 138.52 134.455Z" fill="#E6E6E6"/>
<path d="M293.123 144.696C294.345 100.686 276.043 64.4736 252.245 63.813C228.447 63.1524 208.164 98.2942 206.942 142.304C205.721 186.314 224.023 222.527 247.821 223.188C271.619 223.848 291.902 188.707 293.123 144.696Z" fill="#999999"/>
<path d="M104.67 184.667C104.67 184.667 99.7165 199.11 114.16 203.424C128.603 207.738 140.885 247.597 140.885 247.597L160.586 238.827C160.586 238.827 134.683 192.452 145.3 184.535L104.67 184.667Z" fill="#999999"/>
<path d="M104.67 184.667C104.67 184.667 99.4019 200.318 114.18 203.424C128.096 206.357 139.728 244.572 140.905 247.597L160.606 238.827C160.606 238.827 134.704 192.452 145.32 184.535L104.67 184.667Z" fill="#999999"/>
<path d="M209.814 177.897L249.642 170.01L250.901 124.701L208.778 121.97C208.778 121.97 202.221 146.229 209.814 177.897Z" fill="#9ED6BE"/>
<path d="M209.814 177.897L249.642 170.01L250.901 124.701L208.778 121.97C208.778 121.97 202.221 146.229 209.814 177.897Z" fill="#C9C9C9"/>
<path d="M262.518 147.703C262.865 135.19 257.664 124.894 250.9 124.707C244.137 124.519 238.372 134.51 238.025 147.023C237.678 159.536 242.879 169.831 249.643 170.019C256.406 170.207 262.17 160.216 262.518 147.703Z" fill="#E6E6E6"/>
<path d="M142.702 133.978C142.702 133.978 84.6743 140.068 79.9241 151.507C75.1739 162.946 81.6496 191.092 95.6972 192.513C109.745 193.934 140.357 184.9 140.357 184.9C140.357 184.9 129.527 155.465 142.702 133.978Z" fill="#C9C9C9"/>
<path d="M139.007 184.555L144.803 203.079L153.989 199.353C155.077 198.913 155.967 198.091 156.493 197.04C157.018 195.99 157.142 194.784 156.841 193.649L154.638 185.357C154.638 185.357 145.625 182.667 139.007 184.555Z" fill="#C9C9C9"/>
<path d="M150.7 116.154C150.7 116.154 163.895 107.669 169.549 116.357C175.202 125.046 160.353 127.837 160.353 127.837L150.7 116.154Z" fill="#24285B"/>
<path d="M163.337 51.7217L188.712 86.4956C189.091 87.0662 189.594 87.544 190.184 87.8932C190.774 88.2425 191.435 88.4542 192.117 88.5128C192.8 88.5713 193.487 88.4751 194.128 88.2313C194.768 87.9875 195.346 87.6023 195.817 87.1046L212.828 69.0985L218.411 74.7419C218.411 74.7419 200.8 105.009 190.366 105.019C179.932 105.029 160.637 84.8005 160.637 84.8005L163.337 51.7217Z" fill="#9ED6BE"/>
<path opacity="0.46" d="M163.337 51.7217L188.712 86.4956C189.091 87.0662 189.594 87.544 190.184 87.8932C190.774 88.2425 191.435 88.4542 192.117 88.5128C192.8 88.5713 193.487 88.4751 194.128 88.2313C194.768 87.9875 195.346 87.6023 195.817 87.1046L212.828 69.0985L218.411 74.7419C218.411 74.7419 200.8 105.009 190.366 105.019C179.932 105.029 160.637 84.8005 160.637 84.8005L163.337 51.7217Z" fill="white"/>
<path d="M157.531 20.4497L150.223 39.0344L160.312 48.2506L161.845 27.4837L157.531 20.4497Z" fill="#F4A28C"/>
<path opacity="0.31" d="M161.743 30.7419C160.472 30.1134 159.413 29.1252 158.698 27.8999C158.698 27.8999 158.059 31.5032 161.205 35.888L161.743 30.7419Z" fill="#CE8172"/>
<path d="M166.554 20.7849C166.554 20.7849 166.554 26.8749 165.245 30.8232C165.116 31.2054 164.912 31.5581 164.646 31.8609C164.38 32.1637 164.056 32.4106 163.693 32.5872C163.33 32.7637 162.936 32.8665 162.534 32.8896C162.131 32.9126 161.728 32.8554 161.347 32.7213C160.094 32.369 158.968 31.6626 158.106 30.6869C157.244 29.7111 156.681 28.5074 156.486 27.22L155.095 21.7694C154.932 20.6486 155.12 19.5048 155.635 18.4958C156.149 17.4867 156.964 16.6623 157.967 16.1362C161.591 13.9539 166.717 17.07 166.554 20.7849Z" fill="#F4A28C"/>
<path d="M166.382 24.6216L167.884 27.0982C167.96 27.2406 168.002 27.3992 168.005 27.5608C168.007 27.7224 167.971 27.8823 167.9 28.0273C167.829 28.1722 167.723 28.298 167.594 28.3942C167.464 28.4903 167.313 28.5541 167.153 28.5801L164.798 28.8237L166.382 24.6216Z" fill="#F4A28C"/>
<path d="M154.08 28.0013L153.572 19.7291C153.572 19.7291 149.188 18.0543 151.136 15.3544C153.085 12.6545 154.516 14.9992 155.257 11.6091C155.998 8.21898 158.891 8.07688 160.474 10.3809C162.058 12.685 161.672 9.82268 164.189 9.94448C166.707 10.0663 167.133 11.2843 166.818 13.1519C166.504 15.0195 170.421 13.7406 170.878 16.2679C171.335 18.7953 170.99 21.0993 164.788 20.3279C158.587 19.5565 162.048 25.3217 154.08 28.0013Z" fill="#FFD200"/>
<path d="M159.673 25.4637C159.673 25.4637 159.825 23.1191 158.049 23.1597C156.272 23.2003 156.019 26.5802 158.414 27.0877L159.673 25.4637Z" fill="#F4A28C"/>
<path opacity="0.08" d="M165.346 125.238C165.346 125.238 182.683 119.564 184.022 133.064C185.362 146.563 173.609 168.741 173.609 168.741C173.609 168.741 180.5 178.729 168.32 175.917L164.91 171.004L167.376 147.71L164.545 128.75L154.212 117.778L165.346 125.238Z" fill="black"/>
<path d="M151.055 115.88L150.802 116.073L150.72 116.134L150.659 116.185L133.13 114.52L121.184 113.383C121.184 113.383 118.322 87.5109 121.823 65.5869C124.097 51.3769 135.323 44.4546 142.966 41.3284C145.309 40.3508 147.739 39.5931 150.223 39.0649L160.312 48.2811C192.376 81.7254 155.318 112.5 151.055 115.88Z" fill="#9ED6BE"/>
<path d="M121.174 113.353C121.174 113.353 117.114 137.469 131.425 136.007C138.827 135.346 146.275 135.414 153.664 136.21C155.513 136.395 157.233 137.244 158.505 138.598C159.778 139.953 160.517 141.722 160.586 143.579L161.429 165.209L168.381 168.142L173.365 142.199C174.155 138.108 173.551 133.871 171.651 130.164C169.75 126.457 166.662 123.493 162.88 121.747L150.7 116.154L121.174 113.353Z" fill="#24285B"/>
<path opacity="0.08" d="M151.055 115.88L150.802 116.073L150.72 116.134L150.659 116.185L133.13 114.52C133.13 114.52 138.804 104.746 143.991 94.0373C147.777 86.2117 144.823 56.6752 142.976 41.3284C145.32 40.3508 147.749 39.5931 150.233 39.0649L160.322 48.2811C192.376 81.7254 155.318 112.5 151.055 115.88Z" fill="black"/>
<path d="M142.286 63.2423C154.78 65.0693 161.571 49.1236 151.877 41.0544C149.014 38.6421 145.722 36.7897 142.174 35.5937C128.807 31.2292 75.042 4.86963 75.042 4.86963L70.6978 13.1216C70.6978 13.1216 108.994 45.7335 130.238 58.6139C133.903 60.9491 138 62.5231 142.286 63.2423V63.2423Z" fill="#9ED6BE"/>
<path opacity="0.46" d="M142.286 63.2423C154.78 65.0693 161.571 49.1236 151.877 41.0544C149.014 38.6421 145.722 36.7897 142.174 35.5937C128.807 31.2292 75.042 4.86963 75.042 4.86963L70.6978 13.1216C70.6978 13.1216 108.994 45.7335 130.238 58.6139C133.903 60.9491 138 62.5231 142.286 63.2423V63.2423Z" fill="white"/>
<path d="M74.3212 6.25976C74.3212 6.25976 69.3883 -3.14929 65.7952 1.93586C62.2021 7.02101 70.6977 13.1009 70.6977 13.1009L74.3212 6.25976Z" fill="#F4A28C"/>
<path d="M216.675 72.9454C216.675 72.9454 225.069 67.2716 219.405 62.2778C213.742 57.284 212.859 69.0986 212.859 69.0986L216.675 72.9454Z" fill="#F4A28C"/>
<path d="M209.211 65.8922L219.306 66.4248L220.146 50.5114L210.051 49.9788L209.211 65.8922Z" fill="#FFD200"/>
<path d="M166.717 167.442C166.717 167.442 166.991 173.623 170.168 174.547C170.168 174.547 170.401 178.932 165.793 177.734C161.185 176.536 160.525 170.385 160.525 170.385L162.647 165.767L166.717 167.442Z" fill="#9ED6BE"/>
<path d="M247.399 110.166L289.724 71.9814L293.358 90.292L327.564 68.3071L279.25 114.358L278.671 95.1336L247.399 110.166Z" fill="#9ED6BE"/>
<path d="M247.399 183.449L283.888 216.365L287.014 200.572L316.51 219.532L274.855 179.825L274.357 196.4L247.399 183.449Z" fill="#9ED6BE"/>
<path d="M81.0507 78.4064H73.4687C74.8288 63.4453 81.7714 58.9082 82.8574 58.2891C78.8959 60.3718 75.3895 63.2237 72.5434 66.678C69.6974 70.1323 67.5689 74.1195 66.2825 78.4064H42.6939C36.6451 78.4064 30.844 80.8092 26.5669 85.0864C22.2897 89.3635 19.8868 95.1646 19.8868 101.213C19.8868 107.262 22.2897 113.063 26.5669 117.34C30.844 121.618 36.6451 124.02 42.6939 124.02H81.0507C87.0995 124.02 92.9006 121.618 97.1778 117.34C101.455 113.063 103.858 107.262 103.858 101.213C103.858 95.1646 101.455 89.3635 97.1778 85.0864C92.9006 80.8092 87.0995 78.4064 81.0507 78.4064V78.4064Z" fill="#E6E6E6"/>
<path d="M82.8574 58.2887L82.9995 58.2075L82.8574 58.2887Z" fill="#E6E6E6"/>
<path opacity="0.08" d="M70.383 97.4678C70.3699 98.2188 70.2642 98.9654 70.0684 99.6906C69.778 100.7 69.2725 101.635 68.5865 102.431C67.9574 103.154 67.2791 103.832 66.5565 104.461C65.2573 105.618 63.9175 106.745 62.6284 107.912C62.0397 108.44 61.451 108.927 60.8826 109.526C60.8826 109.526 60.8116 109.526 60.7608 109.526C59.3804 108.206 57.9391 106.948 56.4978 105.71C55.6046 104.928 54.7013 104.157 53.8588 103.314C53.1877 102.671 52.6102 101.936 52.1435 101.132C51.7272 100.372 51.4521 99.5435 51.3315 98.6858C51.2438 98.0571 51.2064 97.4224 51.2198 96.7877C51.2421 95.7023 51.6284 94.6559 52.3169 93.8165C53.0053 92.9771 53.9559 92.3935 55.0159 92.1593C55.8514 91.9773 56.7193 92.0093 57.5391 92.2524C58.3589 92.4955 59.104 92.9418 59.7052 93.5499C60.0999 93.9244 60.4414 94.3513 60.7202 94.8186V94.8998C60.8974 94.6012 61.1013 94.3193 61.3292 94.0574C62.0251 93.188 62.9767 92.5595 64.0494 92.2608C64.7019 92.0736 65.386 92.0237 66.0587 92.1142C66.7314 92.2046 67.3781 92.4335 67.9579 92.7863C68.5377 93.1392 69.0382 93.6084 69.4276 94.1643C69.817 94.7202 70.0871 95.3508 70.2206 96.0163C70.3328 96.4919 70.3873 96.9792 70.383 97.4678V97.4678Z" fill="black"/>
</g>
<defs>
<clipPath id="clip0_21_707">
<rect width="342" height="248" fill="white"/>
</clipPath>
</defs>
</svg>
