<svg width="345" height="226" viewBox="0 0 345 226" fill="none" xmlns="http://www.w3.org/2000/svg">
<g clip-path="url(#clip0_21_742)">
<path opacity="0.3" d="M56.6651 58.6066C32.8836 74.9786 18.765 105.023 21.0284 136.386C22.1652 152.423 28.5597 166.288 41.3893 176.347C89.6729 214.216 290.44 214.795 314.424 174.976C338.409 135.158 296.469 61.9967 219.014 76.9781C170.274 86.4176 118.083 16.342 56.6651 58.6066Z" fill="#E6E6E6"/>
<path opacity="0.45" d="M172.365 225.919C267.662 225.919 344.915 221.62 344.915 216.317C344.915 211.014 267.662 206.715 172.365 206.715C77.0682 206.715 -0.185059 211.014 -0.185059 216.317C-0.185059 221.62 77.0682 225.919 172.365 225.919Z" fill="#E6E6E6"/>
<path d="M196.745 50.6997C206.309 50.6997 214.061 42.9471 214.061 33.3838C214.061 23.8205 206.309 16.0679 196.745 16.0679C187.182 16.0679 179.429 23.8205 179.429 33.3838C179.429 42.9471 187.182 50.6997 196.745 50.6997Z" fill="#FFD200"/>
<path opacity="0.15" d="M196.745 66.3916C214.975 66.3916 229.753 51.6135 229.753 33.3838C229.753 15.1541 214.975 0.375977 196.745 0.375977C178.516 0.375977 163.737 15.1541 163.737 33.3838C163.737 51.6135 178.516 66.3916 196.745 66.3916Z" fill="#FFD200"/>
<path d="M93.0427 90.1425C93.3107 92.1637 93.3107 94.2114 93.0427 96.2325C93.0015 96.4794 92.9108 96.7155 92.7761 96.9265C92.6414 97.1375 92.4654 97.3191 92.2587 97.4603C92.052 97.6016 91.8189 97.6996 91.5734 97.7485C91.3279 97.7974 91.075 97.7962 90.83 97.7449C90.0485 97.6335 89.3163 97.2967 88.7233 96.7757C88.1302 96.2548 87.7018 95.5722 87.4906 94.8115L86.2219 91.6549C86.0391 90.9927 86.0669 90.29 86.3016 89.6443C86.5362 88.9986 86.966 88.442 87.5312 88.0516C89.5409 86.4073 92.86 87.8994 93.0427 90.1425Z" fill="#F4A28C"/>
<path d="M86.4554 92.1826L85.075 104.21L91.7638 104.484L90.0789 95.6235L86.4554 92.1826Z" fill="#F4A28C"/>
<path d="M93.2254 92.4668L94.3114 93.8472C94.3742 93.9248 94.4163 94.0171 94.4336 94.1154C94.451 94.2137 94.443 94.3148 94.4105 94.4092C94.3781 94.5035 94.3221 94.5881 94.248 94.6549C94.1738 94.7218 94.0839 94.7686 93.9866 94.7911L92.5859 95.1159L93.2254 92.4668Z" fill="#F4A28C"/>
<path opacity="0.31" d="M90.5255 97.5522C89.6878 97.3749 88.9193 96.9589 88.3128 96.3545C88.6438 98.0755 89.6161 99.6065 91.033 100.638L90.5255 97.5522Z" fill="#CE8172"/>
<path d="M92.3322 90.2951C92.0568 90.3888 91.7754 90.4634 91.4898 90.5184C91.0919 90.6071 90.7041 90.7363 90.3327 90.9041L90.0282 91.0361C89.8155 91.1293 89.6349 91.2829 89.5086 91.4777C89.3824 91.6725 89.316 91.9001 89.3177 92.1323C89.3628 92.5832 89.3135 93.0387 89.1727 93.4694C89.0318 93.9002 88.8027 94.2969 88.4999 94.6341C88.1971 94.9713 87.8272 95.2416 87.414 95.4278C87.0008 95.6139 86.5533 95.7118 86.1001 95.7152C86.1001 95.7152 83.2073 91.3812 85.5215 88.0418C86.2029 87.1203 87.0813 86.3623 88.0927 85.8233C89.1041 85.2842 90.223 84.9776 91.368 84.9258C92.0182 84.9254 92.6479 85.1537 93.1468 85.5707C93.6457 85.9877 93.9821 86.5669 94.097 87.2069C94.2119 87.847 94.0981 88.507 93.7755 89.0716C93.4529 89.6361 92.942 90.0693 92.3322 90.2951Z" fill="#24285B"/>
<path d="M89.2567 94.1825C89.3588 94.0562 89.425 93.9046 89.4482 93.7439C89.4714 93.5831 89.4509 93.4191 89.3887 93.269C89.1857 92.7716 88.7797 92.1119 88.1098 92.254C87.4399 92.3961 87.2876 93.4619 87.7647 94.1825C87.8491 94.3019 87.9609 94.3993 88.0907 94.4665C88.2205 94.5337 88.3645 94.5688 88.5107 94.5688C88.6569 94.5688 88.801 94.5337 88.9308 94.4665C89.0606 94.3993 89.1724 94.3019 89.2567 94.1825V94.1825Z" fill="#F4A28C"/>
<path d="M301.666 134.914H200.135V215.038H301.666V134.914Z" fill="#FFD200"/>
<path d="M114.063 209.476C114.063 209.476 115.494 211.983 117.951 211.76C120.407 211.537 121.463 213.79 119.392 214.805C117.321 215.82 111.272 214.003 111.272 214.003L110.694 209.537L114.063 209.476Z" fill="#9ED6BE"/>
<path d="M69.0786 209.476C69.0786 209.476 70.5199 211.983 72.9762 211.76C75.4325 211.537 76.4779 213.79 74.4175 214.805C72.357 215.82 66.2366 214.003 66.2366 214.003L65.658 209.537L69.0786 209.476Z" fill="#9ED6BE"/>
<path opacity="0.08" d="M301.666 134.914H200.135V215.038H301.666V134.914Z" fill="black"/>
<path d="M222.029 134.914H147.234V215.038H222.029V134.914Z" fill="#FFD200"/>
<path d="M208.854 171.85H184.636V215.038H208.854V171.85Z" fill="#24285B"/>
<path d="M289.151 157.955H237.629V185.745H289.151V157.955Z" fill="white"/>
<path opacity="0.08" d="M289.151 157.955H237.629V185.745H289.151V157.955Z" fill="black"/>
<path d="M172.395 172.804H161.23V197.956H172.395V172.804Z" fill="white"/>
<path d="M93.4183 103.196L100.097 103.48C100.097 103.48 122.478 106.291 130.182 97.542C137.885 88.7927 135.571 73.4561 135.571 73.4561H141.347C141.347 73.4561 153.821 111.407 117.535 121.811C114.348 122.743 111.455 124.478 109.13 126.849C106.806 129.219 105.128 132.147 104.258 135.351L101.285 146.1H64.6633L63.9223 128.703C63.8174 125.962 63.0679 123.285 61.7347 120.888C60.4015 118.492 58.5221 116.443 56.249 114.909C47.4997 109.062 35.0456 96.1921 44.2923 73.4561H50.839C50.839 73.4561 45.155 106.555 93.4183 103.196Z" fill="#9ED6BE"/>
<path opacity="0.08" d="M91.033 108.169C91.033 108.169 130.212 121.587 133.978 90.9141C133.978 90.9141 130.598 107.215 101.244 103.571L93.4183 103.165L91.033 108.169Z" fill="black"/>
<path d="M64.6633 146.1H101.285L116.347 210.126H109.557L89.612 162.472C89.5037 162.224 89.3146 162.02 89.0756 161.893C88.8366 161.766 88.5617 161.724 88.2958 161.774C88.0298 161.823 87.7885 161.961 87.6109 162.165C87.4334 162.369 87.3302 162.628 87.3181 162.898L87.0948 171.373C86.4441 182.327 82.8422 192.902 76.6708 201.975L71.1289 210.095H64.0239L69.0989 200.433C75.0874 188.699 73.981 175.606 70.0428 163.04L64.6633 146.1Z" fill="#24285B"/>
<path d="M112.724 4.94336H94.1694V37.0478H112.724V4.94336Z" fill="#FFD200"/>
<path d="M202.663 196.788C204.075 196.788 205.221 195.643 205.221 194.231C205.221 192.818 204.075 191.673 202.663 191.673C201.25 191.673 200.105 192.818 200.105 194.231C200.105 195.643 201.25 196.788 202.663 196.788Z" fill="#9ED6BE"/>
<path d="M12.8983 69.4163L48.0173 22.7974L87.6937 69.4163H12.8983Z" fill="#24285B"/>
<path d="M126.771 22.7974H48.0173L87.6937 69.4163H91.6623H166.448L126.771 22.7974Z" fill="#24285B"/>
<path opacity="0.19" d="M126.771 22.7974H48.0173L87.6937 69.4163H91.6623H166.448L126.771 22.7974Z" fill="black"/>
<path opacity="0.08" d="M46.779 73.5373C46.779 73.5373 38.8011 95.8673 57.7917 109.783C67.8808 117.162 72.1641 122.389 73.9607 125.668C76.5296 130.44 79.5913 134.931 83.0957 139.066L89.1857 146.1H64.6633L63.9731 129.941C64.1214 126.977 63.4854 124.027 62.1292 121.388C60.7731 118.748 58.7448 116.514 56.2489 114.909C56.2489 114.909 32.366 101.896 44.2922 73.4561L46.779 73.5373Z" fill="black"/>
<path d="M81.5326 103.256C81.5326 103.256 88.9928 95.9483 96.6764 103.256C96.6764 103.256 90.83 114.716 81.5326 103.256Z" fill="#9ED6BE"/>
<path opacity="0.46" d="M96.6764 103.256C96.6764 103.256 90.8097 114.716 81.5326 103.256C81.5326 103.256 88.9928 95.9483 96.6764 103.256Z" fill="white"/>
<path d="M48.0173 60.0884C52.4682 60.0884 56.0764 56.4802 56.0764 52.0293C56.0764 47.5784 52.4682 43.9702 48.0173 43.9702C43.5664 43.9702 39.9582 47.5784 39.9582 52.0293C39.9582 56.4802 43.5664 60.0884 48.0173 60.0884Z" fill="white"/>
<path d="M304.386 131.951H143.417V141.147H304.386V131.951Z" fill="#FFD200"/>
<path opacity="0.46" d="M304.386 131.951H143.417V141.147H304.386V131.951Z" fill="white"/>
<path opacity="0.08" d="M304.386 131.951H222.029V141.147H304.386V131.951Z" fill="black"/>
<path d="M290.267 92.0406C290.267 90.2209 289.544 88.4757 288.258 87.1889C286.971 85.9021 285.226 85.1792 283.406 85.1792C283.035 85.179 282.665 85.2095 282.3 85.2706C281.512 83.8013 280.341 82.5726 278.911 81.7148C277.482 80.8571 275.847 80.4023 274.18 80.3986H273.845C274.247 78.78 274.276 77.0911 273.929 75.4598C273.581 73.8285 272.867 72.2978 271.84 70.9837C270.812 69.6697 269.499 68.6069 268 67.876C266.501 67.145 264.855 66.7651 263.187 66.7651C261.519 66.7651 259.873 67.145 258.374 67.876C256.875 68.6069 255.562 69.6697 254.535 70.9837C253.508 72.2978 252.793 73.8285 252.446 75.4598C252.098 77.0911 252.127 78.78 252.53 80.3986H252.195C250.954 80.3575 249.718 80.5664 248.559 81.0128C247.401 81.4593 246.344 82.1341 245.452 82.9973C244.56 83.8605 243.85 84.8943 243.366 86.0372C242.881 87.1802 242.631 88.4089 242.631 89.6503C242.631 90.8917 242.881 92.1205 243.366 93.2634C243.85 94.4064 244.56 95.4402 245.452 96.3033C246.344 97.1665 247.401 97.8414 248.559 98.2878C249.718 98.7343 250.954 98.9431 252.195 98.902H284.299V98.8411C285.949 98.6224 287.463 97.8125 288.56 96.5618C289.658 95.3111 290.265 93.7046 290.267 92.0406V92.0406Z" fill="#E6E6E6"/>
<path d="M40.9529 152.017C40.9529 150.638 40.4057 149.315 39.4314 148.339C38.4571 147.363 37.1353 146.813 35.7561 146.81C35.4773 146.813 35.199 146.837 34.9238 146.881C34.3215 145.767 33.429 144.836 32.3408 144.187C31.2526 143.539 30.0093 143.197 28.7424 143.197H28.4887C28.8025 141.968 28.8314 140.684 28.5729 139.442C28.3145 138.2 27.7757 137.034 26.9977 136.032C26.2196 135.03 25.2229 134.22 24.0837 133.662C22.9445 133.104 21.6929 132.814 20.4245 132.814C19.1561 132.814 17.9045 133.104 16.7653 133.662C15.6261 134.22 14.6294 135.03 13.8513 136.032C13.0733 137.034 12.5345 138.2 12.2761 139.442C12.0177 140.684 12.0465 141.968 12.3603 143.197H12.1066C11.1638 143.161 10.2234 143.316 9.34177 143.652C8.46014 143.988 7.65538 144.498 6.97565 145.153C6.29593 145.807 5.75521 146.592 5.38588 147.46C5.01654 148.328 4.82617 149.262 4.82617 150.205C4.82617 151.149 5.01654 152.083 5.38588 152.951C5.75521 153.819 6.29593 154.604 6.97565 155.258C7.65538 155.913 8.46014 156.423 9.34177 156.759C10.2234 157.095 11.1638 157.25 12.1066 157.214H36.4666V157.163C37.7105 156.994 38.8508 156.379 39.6758 155.433C40.5008 154.486 40.9546 153.273 40.9529 152.017V152.017Z" fill="#E6E6E6"/>
<path d="M53.4577 215.241C53.4577 215.241 59.0909 207.121 50.6766 204.888C42.2622 202.655 52.7066 191.693 44.8708 190.293C37.035 188.892 38.3443 200.443 38.3443 200.443C38.3443 200.443 32.9344 195.784 29.2093 199.702C25.4843 203.62 30.7014 207.913 30.7014 207.913C30.7014 207.913 23.1701 210.511 27.8695 215.272L53.4577 215.241Z" fill="#E6E6E6"/>
<path d="M42.11 216.317C42.11 216.317 45.6929 210.227 50.9709 210.948C56.2489 211.669 55.6907 216.317 55.6907 216.317H42.11Z" fill="#C9C9C9"/>
<path d="M291.8 183.259H235.214V188.334H291.8V183.259Z" fill="#FFD200"/>
<path opacity="0.46" d="M291.8 183.259H235.214V188.334H291.8V183.259Z" fill="white"/>
<path opacity="0.08" d="M291.8 183.259H235.214V188.334H291.8V183.259Z" fill="black"/>
<path d="M45.2869 73.4867L44.1197 69.4165H49.7225V73.4867H45.2869Z" fill="#F4A28C"/>
<path d="M135.876 73.4867L134.708 69.4165H140.311V73.4867H135.876Z" fill="#F4A28C"/>
</g>
<defs>
<clipPath id="clip0_21_742">
<rect width="345" height="226" fill="white"/>
</clipPath>
</defs>
</svg>
