<svg width="239" height="268" viewBox="0 0 239 268" fill="none" xmlns="http://www.w3.org/2000/svg">
<g clip-path="url(#clip0_21_877)">
<path d="M81.3527 92.5938C81.3527 92.5938 42.529 97.1207 28.6742 107.727C14.8195 118.334 17.5092 134.584 62.6463 126.048C107.783 117.512 81.3527 92.5938 81.3527 92.5938Z" fill="#9ED6BE"/>
<path opacity="0.08" d="M81.3527 92.5938C81.3527 92.5938 42.529 97.1207 28.6742 107.727C14.8195 118.334 17.5092 134.584 62.6463 126.048C107.783 117.512 81.3527 92.5938 81.3527 92.5938Z" fill="black"/>
<path d="M65.9857 65.9498C67.341 65.7844 68.6568 65.3825 69.8731 64.7623C71.9031 63.7473 76.2677 62.7323 76.1763 66.9953C76.1154 69.7053 71.9031 66.4979 71.6189 70.1418C71.3347 73.7856 71.8524 78.3937 64.3313 77.2468C57.4699 76.1506 59.3781 66.7923 65.9857 65.9498Z" fill="#F4A28C"/>
<path d="M186.872 88.7061C215.596 88.7061 238.881 68.8157 238.881 44.2796C238.881 19.7435 215.596 -0.146973 186.872 -0.146973C158.149 -0.146973 134.864 19.7435 134.864 44.2796C134.864 68.8157 158.149 88.7061 186.872 88.7061Z" fill="#24285B"/>
<path opacity="0.45" d="M110.26 267.803C171.02 267.803 220.276 260.81 220.276 252.182C220.276 243.555 171.02 236.562 110.26 236.562C49.4999 236.562 0.244141 243.555 0.244141 252.182C0.244141 260.81 49.4999 267.803 110.26 267.803Z" fill="#E6E6E6"/>
<path opacity="0.58" d="M155.874 234.562C155.874 234.562 145.582 231.801 143.308 222.26C143.308 222.26 159.224 218.972 159.741 235.455L155.874 234.562Z" fill="#9ED6BE"/>
<path opacity="0.73" d="M157.133 233.537C157.133 233.537 149.906 222.22 156.178 211.572C156.178 211.572 168.358 219.215 162.999 233.537H157.133Z" fill="#9ED6BE"/>
<path d="M158.98 233.536C158.98 233.536 162.725 221.529 174.205 219.215C174.205 219.215 176.387 226.99 166.836 233.536H158.98Z" fill="#9ED6BE"/>
<path d="M151.53 233.303L153.672 247.544H166.796L168.663 233.303H151.53Z" fill="#24285B"/>
<path d="M87.0266 243.829C87.0266 243.829 85.5751 248.112 81.7384 248.498C77.9017 248.883 76.9477 252.669 80.4291 253.573C83.9106 254.476 92.7411 249.888 92.7411 249.888L92.3655 243.798L87.0266 243.829Z" fill="#9ED6BE"/>
<path d="M127.383 239.048C127.383 239.048 128.51 243.433 125.505 245.859C122.501 248.285 123.79 251.949 127.2 250.832C130.611 249.716 135.493 241.007 135.493 241.007L132.164 236.562L127.383 239.048Z" fill="#9ED6BE"/>
<path d="M94.3752 63.2095C94.3752 63.2095 98.0698 69.6953 98.9934 74.7196C99.0811 75.2062 99.0718 75.7053 98.9661 76.1883C98.8604 76.6713 98.6603 77.1287 98.3774 77.5342C98.0945 77.9397 97.7343 78.2854 97.3175 78.5514C96.9006 78.8173 96.4354 78.9983 95.9484 79.0841C93.4211 79.5104 89.8584 79.3581 87.463 76.1203L82.723 71.1265C81.8787 70.0251 81.3961 68.6893 81.3416 67.3026C81.2871 65.9159 81.6633 64.5463 82.4185 63.382C84.9864 58.845 92.3249 59.1393 94.3752 63.2095Z" fill="#F4A28C"/>
<path d="M84.4586 72.2227L84.5601 96.6943L98.0393 95.6692L92.6903 78.7187L84.4586 72.2227Z" fill="#F4A28C"/>
<path d="M96.4966 67.4219L99.5416 69.1677C99.7216 69.2646 99.8735 69.4063 99.9827 69.5791C100.092 69.7519 100.155 69.9499 100.165 70.1541C100.175 70.3582 100.132 70.5615 100.041 70.7444C99.9495 70.9272 99.8125 71.0833 99.6431 71.1977L97.2781 72.8826L96.4966 67.4219Z" fill="#F4A28C"/>
<path opacity="0.31" d="M92.8426 79.1958C91.1912 79.032 89.6157 78.4214 88.2852 77.4297C88.2852 77.4297 87.8183 82.7686 94.3752 84.0475L92.8426 79.1958Z" fill="#CE8172"/>
<path d="M188.77 16.5501C194.19 16.8648 198.443 18.5801 201.529 21.6251C202.985 23.0364 204.111 24.7514 204.829 26.6479C205.547 28.5443 205.837 30.5757 205.68 32.5973C205.655 35.2074 204.956 37.7668 203.65 40.0271C202.371 41.9759 201.722 43.1736 199.753 44.5134C198.274 45.5953 196.689 46.5238 195.023 47.2843C193.906 47.8629 193.155 48.1877 192.861 48.3907C189.816 50.0248 188.1 51.5879 187.938 54.4096C187.836 56.2163 187.227 56.6934 185.492 56.5919L182.599 56.4193C180.863 56.3178 180.315 55.7799 180.417 53.9732C180.782 47.8223 183.462 45.0107 188.06 42.3007C187.989 42.3007 190.993 40.6665 191.105 40.5955C192.042 40.0498 192.929 39.4214 193.754 38.7177C194.552 37.9419 195.235 37.0568 195.784 36.0889C196.262 34.9233 196.557 33.6907 196.657 32.4349C196.911 28.0298 193.825 24.8731 188.05 24.5382C182.477 24.2134 179.392 26.2738 177.098 30.7094C176.194 32.4755 175.606 32.7394 173.9 32.0492L170.5 30.618C168.866 30.0192 168.47 28.9027 169.16 27.4208C172.774 19.6256 179.31 16.002 188.77 16.5501ZM184.172 60.4489C187.644 60.6519 188.73 61.88 188.527 65.3412V66.0009C188.324 69.5331 187.106 70.5583 183.634 70.3553H183.056C179.584 70.1523 178.498 69.0053 178.701 65.463V64.8134C178.904 61.3421 180.122 60.256 183.594 60.459L184.172 60.4489Z" fill="#FFD200"/>
<path d="M92.7308 91.6602H106.24C106.24 91.6602 149.51 95.3852 150.2 116.781C150.89 138.178 122.907 180.919 122.907 180.919H76.2777C76.2777 180.919 22.6349 91.6602 92.7308 91.6602Z" fill="#9ED6BE"/>
<path opacity="0.08" d="M119.963 111.523C119.963 111.523 110.199 125.449 114.279 136.289C118.36 147.13 120.176 164.496 88.7317 147.678L84.1642 133.102L71.8828 128.88L66.9397 148.987L75.4048 151.86C77.351 152.49 78.9726 153.858 79.9214 155.67C80.8703 157.482 81.0708 159.594 80.4798 161.553C79.3532 165.004 76.5721 168.414 70.0558 169.074L76.3183 180.878H122.947L129.129 170.82L146.12 133.498L119.963 111.523Z" fill="black"/>
<path d="M84.4789 77.1151C84.4789 77.1151 81.3527 71.3905 77.6175 68.8632C73.8823 66.3358 76.9375 58.2057 83.5045 56.7542C88.4171 55.658 91.2287 54.0442 91.2693 51.2732C91.2876 50.9792 91.3851 50.6957 91.5513 50.4526C91.7175 50.2094 91.9464 50.0157 92.2136 49.892C92.4809 49.7682 92.7767 49.719 93.0696 49.7495C93.3626 49.78 93.6418 49.8892 93.8778 50.0654C96.1311 51.7604 98.4352 54.5314 97.3187 58.3681C96.8809 59.7597 96.0897 61.014 95.0223 62.0085C93.9549 63.003 92.6478 63.7036 91.2287 64.0419L86.8033 65.2193C86.8033 65.2193 92.7309 73.2074 84.4789 77.1151Z" fill="#24285B"/>
<path d="M89.828 72.3244C89.828 72.3244 88.5795 69.7361 86.7119 70.8425C84.8443 71.9488 86.6206 75.6942 89.4524 74.8213L89.828 72.3244Z" fill="#F4A28C"/>
<path d="M145.511 56.6626L119.842 76.5972L152.23 69.7053L145.511 56.6626Z" fill="#24285B"/>
<path d="M120.187 117.989C116.614 104.936 132.275 95.2228 142.517 104.135C147.399 108.398 151.56 113.879 152.819 120.689C156.442 140.258 168.044 157.29 150.281 168.881C132.519 180.473 90.4775 154.753 90.4775 154.753L96.263 144.247C96.263 144.247 117.304 152.58 130.357 151.85C139.36 151.352 125.231 136.422 120.187 117.989Z" fill="#9ED6BE"/>
<path d="M93.3013 129.743L80.6152 126.714L75.7283 147.179L88.4144 150.209L93.3013 129.743Z" fill="#FFD200"/>
<path opacity="0.3" d="M120.187 117.989C116.614 104.936 132.275 95.2228 142.517 104.135C147.399 108.398 151.56 113.879 152.819 120.689C156.442 140.258 168.044 157.29 150.281 168.881C132.519 180.473 90.4775 154.753 90.4775 154.753L96.263 144.247C96.263 144.247 117.304 152.58 130.357 151.85C139.36 151.352 125.231 136.422 120.187 117.989Z" fill="white"/>
<path d="M95.4917 145.566C95.0151 143.569 94.0686 141.714 92.7309 140.156C90.4573 137.436 89.6859 136.228 86.5496 136.289C83.4132 136.35 83.0986 147.87 91.7565 152.347L95.4917 145.566Z" fill="#F4A28C"/>
<path d="M122.907 180.919C122.907 180.919 113.569 219.692 132.265 235.993L125.678 242.154C125.678 242.154 101.44 228.086 98.0597 189.435L122.907 180.919Z" fill="#24285B"/>
<path d="M60.4336 70.335L64.3311 77.2268L35.8299 122.141C31.4248 129.073 20.4527 126.201 20.3512 117.989C20.3512 114.203 21.4981 109.646 24.8781 104.266C37.119 84.7175 60.4336 70.335 60.4336 70.335Z" fill="#9ED6BE"/>
<path d="M57.53 57.1203L57.2609 59.1323L67.8343 60.5469L68.1035 58.5348L57.53 57.1203Z" fill="#C9C9C9"/>
<path d="M65.7206 44.2904L64.1594 45.5879L70.9779 53.792L72.5391 52.4945L65.7206 44.2904Z" fill="#C9C9C9"/>
<path d="M79.0819 40.9878L78.0966 51.6099L80.1179 51.7974L81.1033 41.1753L79.0819 40.9878Z" fill="#C9C9C9"/>
<path d="M76.2778 180.919C76.2778 180.919 66.6962 217.114 85.5854 243.798L93.2181 243.433C93.2181 243.433 82.1547 207.329 98.5875 194.124L122.948 180.929L76.2778 180.919Z" fill="#24285B"/>
</g>
<defs>
<clipPath id="clip0_21_877">
<rect width="239" height="268" fill="white"/>
</clipPath>
</defs>
</svg>
