<svg width="290" height="174" viewBox="0 0 290 174" fill="none" xmlns="http://www.w3.org/2000/svg">
<g clip-path="url(#clip0_21_909)">
<path opacity="0.3" d="M56.9893 18.305C27.0671 29.3685 4.87919 57.4332 0.504544 91.385C-3.17991 119.978 5.57954 151.585 57.4866 160.598C158.388 178.117 252.884 183.111 277.011 135.832C301.137 88.5531 293.718 7.58657 242.501 2.34917C201.84 -1.82248 115.403 -3.33483 56.9893 18.305Z" fill="#E6E6E6"/>
<path d="M85.7342 56.7427C86.0996 56.7427 86.4549 56.7427 86.8203 56.6818C91.4385 56.5803 95.9045 58.2043 100.208 59.8892C103.133 60.8894 105.896 62.3119 108.409 64.1116C114.956 69.2779 113.85 80.7474 118.478 87.8423C122.538 94.1556 128.74 97.4645 136.159 94.6428C158.987 85.9747 179.074 66.0401 179.074 66.0401L185.468 71.6023C185.468 71.6023 134.576 144.682 93.8136 105.95C86.2882 98.9119 80.3981 90.3089 76.5586 80.7474C73.7775 73.6424 73.6862 62.3049 81.6336 57.9099C82.9045 57.24 84.3011 56.8425 85.7342 56.7427Z" fill="#9ED6BE"/>
<path opacity="0.46" d="M85.7342 56.7427C86.0996 56.7427 86.4549 56.7427 86.8203 56.6818C91.4385 56.5803 95.9045 58.2043 100.208 59.8892C103.133 60.8894 105.896 62.3119 108.409 64.1116C114.956 69.2779 113.85 80.7474 118.478 87.8423C122.538 94.1556 128.74 97.4645 136.159 94.6428C158.987 85.9747 179.074 66.0401 179.074 66.0401L185.468 71.6023C185.468 71.6023 134.576 144.682 93.8136 105.95C86.2882 98.9119 80.3981 90.3089 76.5586 80.7474C73.7775 73.6424 73.6862 62.3049 81.6336 57.9099C82.9045 57.24 84.3011 56.8425 85.7342 56.7427Z" fill="white"/>
<path d="M94.727 17.4318C94.727 17.4318 110.419 40.452 90.3625 38.8686C70.3061 37.2852 79.6644 16.0615 79.6644 16.0615L94.727 17.4318Z" fill="#FFD200"/>
<path d="M94.727 17.4318C94.727 17.4318 110.419 40.452 90.3625 38.8686C70.3061 37.2852 79.6644 16.0615 79.6644 16.0615L94.727 17.4318Z" fill="#24285B"/>
<path d="M92.9914 16.1834C92.9914 16.1834 94.6052 23.9177 93.9049 29.2667C93.8362 29.7851 93.6658 30.2849 93.4034 30.7372C93.141 31.1895 92.7917 31.5855 92.3758 31.9024C91.9598 32.2193 91.4853 32.4509 90.9796 32.5839C90.4738 32.7168 89.9468 32.7485 89.4287 32.6771C86.739 32.2813 83.2169 30.9719 81.8467 26.9322L78.69 20.3652C78.1975 18.9816 78.1458 17.4795 78.5421 16.0654C78.9383 14.6512 79.763 13.3947 80.9027 12.4685C84.9526 8.76373 92.22 11.423 92.9914 16.1834Z" fill="#F4A28C"/>
<path d="M79.2686 21.5527L78.2333 47.4149L92.5346 46.9683L87.5408 28.3228L79.2686 21.5527Z" fill="#F4A28C"/>
<path d="M85.4601 23.8769C85.4601 23.8769 85.044 20.8319 82.8008 21.3699C80.5577 21.9078 81.1362 26.2317 84.2624 26.2723L85.4601 23.8769Z" fill="#F4A28C"/>
<path d="M93.7527 21.1064L96.28 23.8672C96.4183 24.0233 96.5156 24.2112 96.5632 24.4141C96.6109 24.6171 96.6074 24.8287 96.5531 25.03C96.4987 25.2312 96.3953 25.4158 96.2519 25.5672C96.1086 25.7186 95.9299 25.832 95.7319 25.8972L92.7986 26.8209L93.7527 21.1064Z" fill="#F4A28C"/>
<path opacity="0.31" d="M88.8096 32.3627C86.9888 32.1252 85.2774 31.3595 83.8868 30.1602C83.8868 30.1602 84.6481 34.8393 90.3625 38.8587L88.8096 32.3627Z" fill="#CE8172"/>
<path d="M126.121 113.39L117.493 135.781L111.738 150.722H66.5404C66.5404 150.722 51.1835 122.038 51.0516 93.8004C50.9704 75.5304 57.2634 57.4025 78.2333 47.3845L92.5245 46.9277C92.5245 46.9277 155.576 81.2347 126.121 113.39Z" fill="#9ED6BE"/>
<path opacity="0.08" d="M117.494 135.811L111.738 150.752H66.5405C66.5405 150.752 51.1836 122.068 51.0516 93.8309L88.16 68.3442C88.16 68.3442 106.085 83.214 89.0735 102.732C72.0621 122.251 100.563 119.165 107.719 105.128L117.494 135.811Z" fill="black"/>
<path d="M179.642 66.6999C179.642 66.6999 184.808 57.6867 187.66 57.0472C190.512 56.4078 186.128 61.7061 186.727 61.7061C187.488 61.7061 193.172 58.3972 193.832 58.925C198.389 62.3455 185.417 71.582 185.417 71.582L179.642 66.6999Z" fill="#F4A28C"/>
<path d="M56.3702 174.179L65.0789 147.829L111.738 150.752L114.002 174.179H56.3702Z" fill="#24285B"/>
<path d="M94.0775 6.64231C95.1632 7.47013 96.0496 8.5308 96.6714 9.74631C97.2932 10.9618 97.6346 12.3013 97.6706 13.6661C97.6706 16.0615 96.6556 18.5686 92.5042 19.0253C84.232 19.9388 81.4407 19.9388 81.4407 19.9388C81.4407 19.9388 90.6265 42.5429 74.4169 40.9493C58.2074 39.3558 64.3684 25.6533 71.443 13.321C77.8273 2.20676 86.2315 0.369609 94.0775 6.64231Z" fill="#24285B"/>
<path d="M105.506 86.9595L97.6705 129.884L128.445 135.72L136.809 91.4052L105.506 86.9595Z" fill="#E6E6E6"/>
<path d="M93.438 108.427C93.438 108.427 99.8731 99.8601 103.801 100.428C107.729 100.997 111.383 101.251 111.2 105.757C111.018 110.264 109.962 114.364 107.841 113.948C105.719 113.532 99.2844 112.822 95.9552 116.993L93.438 108.427Z" fill="#F4A28C"/>
<path d="M88.7995 76.5152C96.5135 64.8529 84.9019 49.973 71.6155 54.3476C64.6628 56.6314 57.3142 60.2143 48.4634 71.3489C7.81262 122.525 21.17 162.668 99.8122 116.435L94.8286 103.595C94.8286 103.595 42.3429 130.665 47.1236 112.649C50.5035 100.043 77.6142 93.4048 88.7995 76.5152Z" fill="#9ED6BE"/>
<path opacity="0.46" d="M88.7995 76.5152C96.5135 64.8529 84.9019 49.973 71.6155 54.3476C64.6628 56.6314 57.3142 60.2143 48.4634 71.3489C7.81262 122.525 21.17 162.668 99.8122 116.435L94.8286 103.595C94.8286 103.595 42.3429 130.665 47.1236 112.649C50.5035 100.043 77.6142 93.4048 88.7995 76.5152Z" fill="white"/>
<path d="M126.365 88.0682L115.254 85.9146L114.393 90.3587L125.503 92.5123L126.365 88.0682Z" fill="#24285B"/>
<path d="M187.64 52.5003C191.648 52.5003 194.897 49.2512 194.897 45.2431C194.897 41.235 191.648 37.9858 187.64 37.9858C183.632 37.9858 180.383 41.235 180.383 45.2431C180.383 49.2512 183.632 52.5003 187.64 52.5003Z" fill="#FFD200"/>
<path d="M158.895 39.3152C160.969 39.3152 162.651 37.6338 162.651 35.5597C162.651 33.4856 160.969 31.8042 158.895 31.8042C156.821 31.8042 155.14 33.4856 155.14 35.5597C155.14 37.6338 156.821 39.3152 158.895 39.3152Z" fill="#FFD200"/>
<path d="M172.151 12.9251C174.225 12.9251 175.907 11.2437 175.907 9.16956C175.907 7.09545 174.225 5.41406 172.151 5.41406C170.077 5.41406 168.396 7.09545 168.396 9.16956C168.396 11.2437 170.077 12.9251 172.151 12.9251Z" fill="#FFD200"/>
<path d="M192.543 31.2664C194.617 31.2664 196.298 29.585 196.298 27.5109C196.298 25.4368 194.617 23.7554 192.543 23.7554C190.469 23.7554 188.787 25.4368 188.787 27.5109C188.787 29.585 190.469 31.2664 192.543 31.2664Z" fill="#FFD200"/>
<path d="M218.628 37.7321C221.061 37.7321 223.033 35.7598 223.033 33.327C223.033 30.8941 221.061 28.9219 218.628 28.9219C216.195 28.9219 214.223 30.8941 214.223 33.327C214.223 35.7598 216.195 37.7321 218.628 37.7321Z" fill="#FFD200"/>
<path d="M187.021 20.1724C189.022 20.1724 190.645 18.5501 190.645 16.5488C190.645 14.5476 189.022 12.9253 187.021 12.9253C185.02 12.9253 183.397 14.5476 183.397 16.5488C183.397 18.5501 185.02 20.1724 187.021 20.1724Z" fill="#FFD200"/>
<path d="M160.097 35.0772L159.74 36.0273L187.447 46.4361L187.804 45.4859L160.097 35.0772Z" fill="#FFD200"/>
<path d="M186.731 16.1157L158.609 35.1201L159.177 35.9611L187.299 16.9566L186.731 16.1157Z" fill="#FFD200"/>
<path d="M218.477 33.9851L190.488 43.481L190.814 44.4421L218.804 34.9463L218.477 33.9851Z" fill="#FFD200"/>
<path d="M172.412 7.78543L171.931 8.6792L187.42 17.0157L187.901 16.1219L172.412 7.78543Z" fill="#FFD200"/>
<path d="M192.62 27.0108L192.46 28.0132L219.414 32.3063L219.574 31.304L192.62 27.0108Z" fill="#FFD200"/>
<path d="M234.3 141.627H134.972V147.839H234.3V141.627Z" fill="#E6E6E6"/>
<path opacity="0.08" d="M234.3 141.627H134.972V147.839H234.3V141.627Z" fill="black"/>
<path d="M227.976 147.829H139.62V174.179H227.976V147.829Z" fill="#E6E6E6"/>
<path d="M184.22 122.525L177.876 141.597H196.146L189.782 122.525V115.806H189.477C189.799 115.803 190.106 115.674 190.332 115.445C190.558 115.217 190.685 114.909 190.685 114.588V114.588C190.685 114.428 190.654 114.27 190.592 114.123C190.531 113.976 190.441 113.842 190.328 113.73C190.215 113.618 190.08 113.529 189.933 113.469C189.785 113.409 189.627 113.379 189.467 113.38H184.524C184.204 113.38 183.897 113.507 183.67 113.734C183.444 113.96 183.316 114.267 183.316 114.588C183.316 114.909 183.443 115.217 183.67 115.445C183.896 115.674 184.203 115.803 184.524 115.806H184.22V122.525Z" fill="#E6E6E6"/>
<path opacity="0.08" d="M184.9 125.743H189.091L193.882 140.135H180.119L184.9 125.743Z" fill="black"/>
<path d="M163.483 122.525L157.18 141.627H175.45L169.045 122.525V115.806H168.741C169.062 115.803 169.369 115.674 169.595 115.445C169.822 115.217 169.949 114.909 169.949 114.588V114.588C169.949 114.267 169.821 113.96 169.595 113.734C169.368 113.507 169.061 113.38 168.741 113.38H163.798C163.638 113.379 163.48 113.409 163.332 113.469C163.185 113.529 163.05 113.618 162.937 113.73C162.824 113.842 162.734 113.976 162.673 114.123C162.611 114.27 162.58 114.428 162.58 114.588V114.588C162.58 114.909 162.707 115.217 162.933 115.445C163.159 115.674 163.466 115.803 163.788 115.806H163.483V122.525Z" fill="#E6E6E6"/>
<path opacity="0.08" d="M164.173 125.743H168.355L173.146 140.135H159.383L164.173 125.743Z" fill="black"/>
<path d="M214.832 112.984V93.4962C215.085 93.515 215.34 93.4813 215.58 93.3973C215.82 93.3132 216.04 93.1806 216.226 93.0077C216.412 92.8348 216.561 92.6253 216.662 92.3924C216.764 92.1594 216.816 91.9081 216.816 91.6539C216.816 91.3998 216.764 91.1484 216.662 90.9155C216.561 90.6826 216.412 90.4731 216.226 90.3002C216.04 90.1273 215.82 89.9947 215.58 89.9106C215.34 89.8266 215.085 89.7929 214.832 89.8117H207.727C207.262 89.8463 206.827 90.0553 206.51 90.397C206.193 90.7387 206.017 91.1877 206.017 91.6539C206.017 92.1202 206.193 92.5692 206.51 92.9109C206.827 93.2525 207.262 93.4616 207.727 93.4962H207.778V112.984C204.954 113.828 202.528 115.659 200.943 118.144C199.359 120.629 198.721 123.601 199.147 126.517C199.574 129.433 201.035 132.098 203.264 134.026C205.494 135.953 208.343 137.014 211.29 137.014C214.237 137.014 217.085 135.953 219.315 134.026C221.544 132.098 223.006 129.433 223.432 126.517C223.858 123.601 223.221 120.629 221.636 118.144C220.051 115.659 217.625 113.828 214.802 112.984H214.832Z" fill="#E6E6E6"/>
<path opacity="0.08" d="M201.728 121.256C201.385 122.28 201.21 123.353 201.211 124.433C201.437 126.958 202.6 129.307 204.471 131.017C206.342 132.728 208.785 133.676 211.32 133.676C213.855 133.676 216.298 132.728 218.169 131.017C220.04 129.307 221.203 126.958 221.429 124.433C221.43 123.353 221.255 122.28 220.912 121.256H201.728Z" fill="black"/>
<path d="M154.521 135.446H139.62V141.627H154.521V135.446Z" fill="#E6E6E6"/>
<path d="M224.099 129.711H198.541C198.11 129.711 197.76 130.059 197.76 130.488C197.76 130.917 198.11 131.264 198.541 131.264H224.099C224.531 131.264 224.881 130.917 224.881 130.488C224.881 130.059 224.531 129.711 224.099 129.711Z" fill="#CCCCCC"/>
<path d="M201.201 131.264H199.374V141.617H201.201V131.264Z" fill="#CCCCCC"/>
<path d="M223.256 131.264H221.429V141.617H223.256V131.264Z" fill="#CCCCCC"/>
</g>
<defs>
<clipPath id="clip0_21_909">
<rect width="290" height="174" fill="white"/>
</clipPath>
</defs>
</svg>
