<svg width="310" height="222" viewBox="0 0 310 222" fill="none" xmlns="http://www.w3.org/2000/svg">
<g clip-path="url(#clip0_21_1087)">
<path opacity="0.3" d="M245.934 35.6384C278.414 46.8034 309.432 77.3143 310.376 116.757C311.32 156.2 300.541 196.364 241.285 211.934C185.633 226.56 53.5001 231.858 18.2796 182.844C-14.9211 136.631 -4.35493 61.6123 53.6625 37.6177C94.3538 20.7991 182.405 13.887 245.934 35.6384Z" fill="#E6E6E6"/>
<path d="M263.219 58.6992H46.7909V195.684H263.219V58.6992Z" fill="#9ED6BE"/>
<path d="M244.432 72.1479H65.5582V182.235H244.432V72.1479Z" fill="#24285B"/>
<path d="M275.247 195.684H36.8134V215.557H275.247V195.684Z" fill="#9ED6BE"/>
<path opacity="0.08" d="M275.247 195.684H36.8134V215.557H275.247V195.684Z" fill="black"/>
<path d="M161.263 182.245L171.981 178.134L155.7 135.585L78.3066 165.203L84.8229 182.245H161.263Z" fill="#FFD200"/>
<path opacity="0.08" d="M161.263 182.245L171.981 178.134L135.898 167.558L122.023 163.488L114.4 175.779L110.401 182.245H161.263Z" fill="black"/>
<path opacity="0.08" d="M155.711 135.585L78.3066 165.203L128.275 179.85L155.711 135.585Z" fill="black"/>
<path d="M181.301 66.5745L100.524 87.54L112.05 131.947L192.827 110.981L181.301 66.5745Z" fill="#FFD200"/>
<path opacity="0.08" d="M192.829 110.972L112.055 131.942L144.464 90.7124L192.829 110.972Z" fill="black"/>
<path opacity="0.08" d="M181.299 66.5654L100.525 87.5353L148.9 107.795L181.299 66.5654Z" fill="black"/>
<path d="M252.753 34.0527L176.438 0.282227L157.873 42.2361L234.188 76.0065L252.753 34.0527Z" fill="#FFD200"/>
<path opacity="0.08" d="M234.2 76.0049L157.883 42.2359L208.896 30.0762L234.2 76.0049Z" fill="black"/>
<path opacity="0.08" d="M252.765 34.0449L176.447 0.275879L201.761 46.2046L252.765 34.0449Z" fill="black"/>
<path opacity="0.08" d="M175.645 195.684H136.426V205.62H175.645V195.684Z" fill="black"/>
<path opacity="0.08" d="M215.656 101.197V110.799V156.87H263.209V110.799V101.197H215.656Z" fill="black"/>
<path d="M280.972 105.999H220.833V152.069H280.972V105.999Z" fill="#E6E6E6"/>
<path d="M280.972 96.3965H220.833V105.998H280.972V96.3965Z" fill="#B3B3B3"/>
<path d="M261.94 137.494H265.462C264.357 139.731 262.584 141.568 260.387 142.751C257.439 144.283 254.147 145.034 250.826 144.934C247.589 145.013 244.374 144.382 241.407 143.086C238.887 141.981 236.808 140.066 235.5 137.646C234.206 135.242 233.539 132.55 233.561 129.82C233.547 126.794 234.305 123.814 235.764 121.162C237.123 118.6 239.22 116.503 241.782 115.143C244.482 113.761 247.479 113.064 250.511 113.113C253.074 113.068 255.612 113.625 257.921 114.737C259.996 115.744 261.721 117.349 262.874 119.345C264.009 121.328 264.598 123.577 264.579 125.862C264.598 128.621 263.686 131.307 261.991 133.484C261.056 134.829 259.806 135.925 258.35 136.675C256.893 137.425 255.276 137.808 253.638 137.788C252.929 137.826 252.225 137.661 251.608 137.311C251.136 136.971 250.807 136.468 250.684 135.9C250.098 136.499 249.399 136.974 248.626 137.298C247.854 137.622 247.025 137.789 246.188 137.788C245.337 137.811 244.491 137.654 243.706 137.327C242.92 137 242.213 136.51 241.63 135.89C241.007 135.207 240.526 134.406 240.215 133.535C239.905 132.663 239.772 131.739 239.824 130.815C239.802 128.278 240.564 125.797 242.006 123.71C242.7 122.526 243.69 121.544 244.878 120.858C246.067 120.173 247.414 119.809 248.786 119.802C249.646 119.749 250.505 119.931 251.27 120.328C252.035 120.725 252.678 121.322 253.13 122.056L253.546 120.218H257.911L255.373 132.165C255.26 132.642 255.182 133.127 255.14 133.616C255.125 133.84 255.194 134.06 255.333 134.236C255.388 134.303 255.458 134.357 255.537 134.393C255.616 134.43 255.702 134.449 255.789 134.449C256.554 134.325 257.262 133.971 257.819 133.434C258.982 132.567 259.921 131.436 260.56 130.135C261.232 128.771 261.579 127.27 261.575 125.75C261.602 124.472 261.353 123.202 260.845 122.029C260.337 120.855 259.582 119.805 258.631 118.95C256.676 117.123 253.939 116.209 250.42 116.209C247.768 116.126 245.142 116.757 242.818 118.036C240.762 119.227 239.124 121.025 238.128 123.182C237.086 125.334 236.545 127.693 236.545 130.084C236.521 132.322 237.13 134.521 238.301 136.428C239.457 138.32 241.195 139.787 243.254 140.61C247.786 142.279 252.752 142.354 257.332 140.823C259.143 140.154 260.737 139.003 261.94 137.494V137.494ZM244.066 130.693C243.988 131.776 244.29 132.853 244.919 133.738C245.169 134.055 245.489 134.312 245.853 134.487C246.217 134.663 246.616 134.754 247.02 134.753C247.643 134.756 248.255 134.595 248.796 134.286C249.266 134.025 249.686 133.681 250.034 133.271C250.724 132.397 251.238 131.397 251.547 130.328C251.951 129.165 252.167 127.945 252.186 126.714C252.252 125.686 251.941 124.669 251.313 123.852C251.048 123.528 250.713 123.269 250.334 123.093C249.954 122.917 249.539 122.83 249.121 122.837C248.135 122.853 247.193 123.25 246.492 123.943C245.614 124.801 244.986 125.882 244.675 127.07C244.299 128.242 244.094 129.462 244.066 130.693V130.693Z" fill="#B3B3B3"/>
<path opacity="0.08" d="M77.7077 100.943H46.6893V136.286H77.7077V100.943Z" fill="black"/>
<path d="M73.6579 95.4624H35.91V130.805H73.6579V95.4624Z" fill="#E6E6E6"/>
<path d="M62.7568 110.058L54.7789 101.816L46.801 110.058H50.455V124.461H59.1028V110.058H62.7568Z" fill="#B3B3B3"/>
</g>
<defs>
<clipPath id="clip0_21_1087">
<rect width="310" height="222" fill="white"/>
</clipPath>
</defs>
</svg>
