<svg width="252" height="181" viewBox="0 0 252 181" fill="none" xmlns="http://www.w3.org/2000/svg">
<g clip-path="url(#clip0_21_1639)">
<path d="M106.54 101.832C106.54 101.832 91.5381 97.2237 88.4525 107.12C85.3669 117.016 100.409 115.687 100.409 115.687L106.54 101.832Z" fill="#24285B"/>
<path d="M74.6992 43.8447L61.8595 83.5617C61.6499 84.2126 61.2959 84.8078 60.8239 85.3027C60.3519 85.7976 59.7741 86.1793 59.1337 86.4195C58.4934 86.6596 57.8071 86.7519 57.1261 86.6894C56.4451 86.6269 55.787 86.4112 55.2011 86.0586L33.9571 73.3203L30.1001 80.2528C30.1001 80.2528 55.2315 104.613 65.2901 101.832C75.3488 99.0506 88.4525 74.3455 88.4525 74.3455L74.6992 43.8447Z" fill="#9ED6BE"/>
<path opacity="0.08" d="M74.6992 43.8447L61.8595 83.5617C61.6499 84.2126 61.2959 84.8078 60.8239 85.3027C60.3519 85.7976 59.7741 86.1793 59.1337 86.4195C58.4934 86.6596 57.8071 86.7519 57.1261 86.6894C56.4451 86.6269 55.787 86.4112 55.2011 86.0586L33.9571 73.3203L30.1001 80.2528C30.1001 80.2528 55.2315 104.613 65.2901 101.832C75.3488 99.0506 88.4525 74.3455 88.4525 74.3455L74.6992 43.8447Z" fill="black"/>
<path d="M74.0801 11.5376L86.1484 27.4629L78.9114 39.0644L71.8369 19.4749L74.0801 11.5376Z" fill="#F4A28C"/>
<path opacity="0.31" d="M72.8113 22.591C73.8587 21.6388 74.6034 20.4 74.9529 19.0283C74.9529 19.0283 76.5363 22.3271 74.6992 27.4021L72.8113 22.591Z" fill="#CE8172"/>
<path d="M65.4931 14.2881C65.4931 14.2881 67.0968 20.1751 69.4516 23.6058C69.6793 23.9397 69.9712 24.225 70.3103 24.445C70.6493 24.6649 71.0288 24.8152 71.4265 24.887C71.8243 24.9588 72.2323 24.9507 72.6269 24.8632C73.0215 24.7757 73.3947 24.6105 73.7248 24.3772C74.8376 23.7034 75.7316 22.7219 76.2989 21.5512C76.8663 20.3805 77.0827 19.0707 76.922 17.7797L76.7901 12.1566C76.6428 11.033 76.1509 9.98257 75.382 9.15005C74.6131 8.31754 73.605 7.74383 72.4966 7.5079C68.4265 6.3711 64.3259 10.7559 65.4931 14.2881Z" fill="#F4A28C"/>
<path d="M66.6909 17.9419L65.9093 20.7331C65.8743 20.891 65.8775 21.055 65.9187 21.2114C65.9599 21.3678 66.0379 21.5121 66.1461 21.6322C66.2544 21.7524 66.3898 21.8449 66.541 21.9022C66.6923 21.9594 66.855 21.9797 67.0157 21.9613L69.3502 21.5654L66.6909 17.9419Z" fill="#F4A28C"/>
<path d="M79.49 17.871L77.7442 9.75102C77.7442 9.75102 81.5099 6.95976 78.9115 4.88916C76.3131 2.81856 75.562 5.44742 73.9278 2.39227C72.2937 -0.662885 69.472 -0.0234334 68.5686 2.61557C67.6653 5.25457 67.2694 2.41256 64.8842 3.20426C62.4989 3.99596 62.4076 5.23427 63.2094 7.00037C64.0113 8.76647 59.9005 8.54317 60.1644 11.0604C60.4283 13.5776 61.3621 15.7497 67.0563 13.2934C72.7504 10.8371 71.0554 17.4447 79.49 17.871Z" fill="#FFD200"/>
<path d="M73.4 16.9476C73.4 16.9476 72.6286 14.7248 74.3541 14.2883C76.0796 13.8519 77.1961 17.039 75.0646 18.1656L73.4 16.9476Z" fill="#F4A28C"/>
<path d="M140.705 163.189L150.154 170.72C160.203 178.708 172.965 182.472 185.74 181.215L196.367 180.2C196.746 180.168 197.108 180.03 197.412 179.802C197.716 179.575 197.951 179.266 198.088 178.912C198.226 178.557 198.261 178.172 198.19 177.798C198.119 177.425 197.945 177.079 197.687 176.8L180.432 157.758L140.705 163.189Z" fill="#A8A8A8"/>
<path d="M140.705 110.317L150.154 102.786C160.196 94.7822 172.961 91.0066 185.74 92.2604L196.367 93.2754C196.746 93.3076 197.108 93.4454 197.412 93.6731C197.716 93.9009 197.951 94.2095 198.088 94.5638C198.226 94.9181 198.261 95.3039 198.19 95.6772C198.119 96.0506 197.945 96.3965 197.687 96.6757L180.432 115.717L140.705 110.317Z" fill="#A8A8A8"/>
<path d="M0.0662842 136.727C0.0662842 136.727 44.6552 192.38 180.401 157.758V115.687C44.6552 81.0852 0.0662842 136.727 0.0662842 136.727Z" fill="#E6E6E6"/>
<path opacity="0.08" d="M89.7516 104.512C89.7516 104.512 76.6378 113.758 78.9926 127.126C81.3474 140.493 98.6532 158.662 98.6532 158.662C98.6532 158.662 94.715 170.141 105.677 164.143L107.656 158.489L98.9983 136.728L96.5927 117.696L103.576 104.349L89.7516 104.512Z" fill="black"/>
<path d="M78.9114 39.1151L86.1484 27.5035C86.1484 27.5035 111.351 25.1994 120.658 45.3776C129.966 65.5558 134.188 91.2252 134.188 91.2252L106.55 101.883C106.55 101.883 55.7795 82.3744 78.9114 39.1151Z" fill="#9ED6BE"/>
<path d="M134.178 91.1743C134.178 91.1743 144.582 113.311 130.423 115.747C123.133 117.116 115.994 119.193 109.108 121.949C107.38 122.63 105.956 123.911 105.098 125.558C104.24 127.205 104.006 129.106 104.439 130.912L109.514 151.973L103.617 156.672L91.67 133.033C89.8085 129.303 89.2518 125.057 90.0891 120.974C90.9264 116.891 93.1092 113.206 96.2883 110.51L106.499 101.832L134.178 91.1743Z" fill="#24285B"/>
<path opacity="0.08" d="M97.9934 57.3852C97.9934 57.3852 94.5424 72.7726 102.419 81.6843C110.295 90.596 117.644 97.498 117.644 97.498L106.479 101.802C106.479 101.802 92.7865 96.1683 84.565 87.2262C76.3435 78.284 89.7922 54.7056 97.9934 57.3852Z" fill="black"/>
<path d="M100.876 42.6573C100.176 30.051 83.1947 26.5594 77.2265 37.6838C75.4262 40.9568 74.2653 44.5427 73.8059 48.2499C72.1921 62.2265 57.0686 120.163 57.0686 120.163L66.0209 122.781C66.0209 122.781 90.3504 78.7608 98.7749 55.3549C100.315 51.3049 101.03 46.9876 100.876 42.6573Z" fill="#9ED6BE"/>
<path opacity="0.19" d="M69.5633 126.405H48.1265C46.2991 126.405 44.8176 127.886 44.8176 129.714C44.8176 131.541 46.2991 133.023 48.1265 133.023H69.5633C71.3908 133.023 72.8722 131.541 72.8722 129.714C72.8722 127.886 71.3908 126.405 69.5633 126.405Z" fill="#878787"/>
<path opacity="0.36" d="M100.876 42.6573C100.176 30.051 83.1947 26.5594 77.2265 37.6838C75.4262 40.9568 74.2653 44.5427 73.8059 48.2499C72.1921 62.2265 57.0686 120.163 57.0686 120.163L66.0209 122.781C66.0209 122.781 90.3504 78.7608 98.7749 55.3549C100.315 51.3049 101.03 46.9876 100.876 42.6573Z" fill="white"/>
<path d="M58.5403 120.609C58.5403 120.609 50.2985 127.319 56.0028 129.836C61.7071 132.353 66.0209 122.802 66.0209 122.802L58.5403 120.609Z" fill="#F4A28C"/>
<path d="M186.278 115.687H180.401V157.748H186.278V115.687Z" fill="#A8A8A8"/>
<path d="M186.278 121.888C186.278 121.888 237.718 120.934 250.802 133.053C263.885 145.172 186.278 149.415 186.278 149.415V121.888Z" fill="#FFD200"/>
<path opacity="0.33" d="M186.278 129.714C186.278 129.714 225.863 128.384 228.127 133.023C230.39 137.661 186.278 142.391 186.278 142.391V129.714Z" fill="white"/>
<path d="M31.3282 78.0503C31.3282 78.0503 21.706 74.8632 25.8168 68.5194C29.9275 62.1757 33.9368 73.3204 33.9368 73.3204L31.3282 78.0503Z" fill="#F4A28C"/>
<path d="M31.4827 54.1281L21.9064 57.3677L27.0129 72.4628L36.5892 69.2233L31.4827 54.1281Z" fill="#FFD200"/>
<path d="M104.936 155.546C104.936 155.546 106.337 161.575 103.525 163.29C103.525 163.29 104.479 167.573 108.6 165.168C112.721 162.762 111.645 156.672 111.645 156.672L108.387 152.795L104.936 155.546Z" fill="#9ED6BE"/>
<path d="M36.2916 114.306V159.139C36.2916 159.139 13.9616 153.049 0.0662842 136.727C0.0662842 136.727 11.9722 122.223 36.2916 114.306Z" fill="#A8A8A8"/>
</g>
<defs>
<clipPath id="clip0_21_1639">
<rect width="252" height="181" fill="white"/>
</clipPath>
</defs>
</svg>
