<svg width="251" height="190" viewBox="0 0 251 190" fill="none" xmlns="http://www.w3.org/2000/svg">
<path d="M147.82 26.6074H131.457V29.1949H147.82V26.6074Z" fill="#E6E6E6"/>
<path d="M147.82 24.0059H135.445V26.5934H147.82V24.0059Z" fill="#C9C9C9"/>
<path opacity="0.45" d="M125.252 177.326C172.417 177.326 210.652 171.828 210.652 165.045C210.652 158.262 172.417 152.764 125.252 152.764C78.0865 152.764 39.8516 158.262 39.8516 165.045C39.8516 171.828 78.0865 177.326 125.252 177.326Z" fill="#E6E6E6"/>
<path d="M165.555 49.5918V61.073H172.973L174.592 65.6418L176.511 61.073H183.93V49.5918H165.555Z" fill="#E6E6E6"/>
<path opacity="0.12" d="M173.82 57.8979C173.737 57.8946 173.655 57.8733 173.581 57.8355C173.506 57.7978 173.441 57.7445 173.389 57.6792L171.451 55.1792C171.404 55.1205 171.37 55.053 171.349 54.9807C171.329 54.9083 171.323 54.8326 171.332 54.7581C171.342 54.6835 171.366 54.6115 171.404 54.5465C171.441 54.4814 171.491 54.4245 171.551 54.3792C171.611 54.3321 171.679 54.2973 171.751 54.2768C171.824 54.2563 171.9 54.2505 171.975 54.2598C172.051 54.2691 172.123 54.2933 172.189 54.331C172.254 54.3687 172.312 54.419 172.358 54.4792L173.883 56.4417L177.633 52.3792C177.685 52.3253 177.748 52.2825 177.817 52.2533C177.886 52.224 177.961 52.209 178.036 52.209C178.111 52.209 178.185 52.224 178.254 52.2533C178.324 52.2825 178.386 52.3253 178.439 52.3792C178.495 52.43 178.54 52.4916 178.572 52.5602C178.604 52.6288 178.622 52.7032 178.625 52.7789C178.628 52.8545 178.616 52.93 178.589 53.0009C178.563 53.0718 178.522 53.1367 178.47 53.1917L174.251 57.7104C174.197 57.7706 174.13 57.8185 174.056 57.8508C173.982 57.8832 173.901 57.8992 173.82 57.8979Z" fill="black"/>
<path d="M66.4922 52.2637V63.7449H73.9109L75.5359 68.3137L77.4547 63.7449H84.8734V52.2637H66.4922Z" fill="#E6E6E6"/>
<path opacity="0.12" d="M74.7568 60.5688C74.6734 60.5654 74.5917 60.5441 74.5173 60.5064C74.4429 60.4686 74.3775 60.4153 74.3255 60.35L72.388 57.85C72.302 57.7293 72.2659 57.58 72.2873 57.4333C72.3087 57.2866 72.3859 57.1539 72.5028 57.0627C72.6197 56.9716 72.7673 56.9292 72.9148 56.9443C73.0623 56.9594 73.1982 57.0308 73.2943 57.1438L74.8193 59.1063L78.5693 55.0438C78.6222 54.9897 78.6854 54.9468 78.7552 54.9175C78.8249 54.8881 78.8998 54.873 78.9755 54.873C79.0512 54.873 79.1261 54.8881 79.1958 54.9175C79.2656 54.9468 79.3288 54.9897 79.3818 55.0438C79.4879 55.1524 79.5473 55.2982 79.5473 55.45C79.5473 55.6018 79.4879 55.7477 79.3818 55.8563L75.1568 60.4125C75.1038 60.4638 75.0411 60.504 74.9724 60.5308C74.9038 60.5576 74.8305 60.5705 74.7568 60.5688Z" fill="black"/>
<path d="M162.906 29.209H88.0938V163.378H162.906V29.209Z" fill="#C9C9C9"/>
<path d="M156.206 44.498H94.2812V138.923H156.206V44.498Z" fill="white"/>
<path opacity="0.56" d="M125.725 158.339C129.767 158.339 133.044 155.062 133.044 151.02C133.044 146.978 129.767 143.701 125.725 143.701C121.683 143.701 118.406 146.978 118.406 151.02C118.406 155.062 121.683 158.339 125.725 158.339Z" fill="white"/>
<path opacity="0.12" d="M140.143 34.4512H119.168V37.5074H140.143V34.4512Z" fill="black"/>
<path d="M111.575 39.734C113.463 39.734 114.994 38.2034 114.994 36.3152C114.994 34.4271 113.463 32.8965 111.575 32.8965C109.687 32.8965 108.156 34.4271 108.156 36.3152C108.156 38.2034 109.687 39.734 111.575 39.734Z" fill="white"/>
<path d="M171.331 77.6803C171.15 79.0326 171.15 80.403 171.331 81.7553C171.402 82.0741 171.594 82.3527 171.868 82.5314C172.141 82.7101 172.474 82.7748 172.794 82.7116C173.312 82.6342 173.797 82.4091 174.19 82.0633C174.584 81.7174 174.869 81.2655 175.013 80.7616L175.838 78.6491C175.958 78.2098 175.939 77.7442 175.785 77.3158C175.631 76.8874 175.348 76.517 174.975 76.2553C173.656 75.2053 171.45 76.1928 171.331 77.6803Z" fill="#F4A28C"/>
<path opacity="0.08" d="M87.9992 120.501L88.3242 127.289L94.8867 125.926L97.6805 114.089C98.2067 111.856 99.4116 109.841 101.13 108.321C102.847 106.802 104.994 105.851 107.274 105.601C112.274 105.057 118.474 104.545 122.43 104.82C129.887 105.339 145.637 103.57 150.93 108.095C156.224 112.62 156.78 124.82 162.918 129.295V120.801L161.124 97.9449L154.355 95.6387L130.393 99.1949L127.837 99.6324L125.187 101.07L119.562 98.2574L87.168 96.9012L87.9992 120.501Z" fill="black"/>
<path d="M175.705 79.0371L176.617 87.0184L172.18 87.2059L173.298 81.3184L175.705 79.0371Z" fill="#F4A28C"/>
<path d="M80.3181 87.2949L122.418 96.8324L121.649 100.414C121.649 100.414 100.599 99.8824 84.8681 102.914C69.1368 105.945 80.3181 87.2949 80.3181 87.2949Z" fill="#9ED6BE"/>
<path opacity="0.08" d="M80.3181 87.2949L122.418 96.8324L121.649 100.414C121.649 100.414 100.599 99.8824 84.8681 102.914C69.1368 105.945 80.3181 87.2949 80.3181 87.2949Z" fill="black"/>
<path d="M171.207 79.2246L170.501 80.1371C170.462 80.1896 170.436 80.2508 170.426 80.3153C170.417 80.3799 170.423 80.4459 170.444 80.5076C170.466 80.5693 170.502 80.6247 170.55 80.669C170.598 80.7134 170.656 80.7454 170.719 80.7621L171.651 80.9809L171.207 79.2246Z" fill="#F4A28C"/>
<path d="M170.4 87.2949L128.469 97.6012L129.594 99.8762C129.594 99.8762 150.112 99.8762 165.844 102.876C181.575 105.876 170.4 87.2949 170.4 87.2949Z" fill="#F4A28C"/>
<path opacity="0.31" d="M172.999 82.6043C173.556 82.4894 174.067 82.2134 174.468 81.8105C174.251 82.9525 173.607 83.9691 172.668 84.6543L172.999 82.6043Z" fill="#CE8172"/>
<path d="M151.363 100.948L152.438 91.7168L167.257 87.9043L168.951 103.223C162.994 103.684 157.007 102.909 151.363 100.948Z" fill="#9ED6BE"/>
<path opacity="0.08" d="M151.363 100.948L152.438 91.7168L167.257 87.9043L168.951 103.223C162.994 103.684 157.007 102.909 151.363 100.948Z" fill="black"/>
<path d="M167.258 87.9091C167.258 87.9091 186.283 83.6529 193.095 87.4716C199.908 91.2904 186.533 127.29 186.533 127.29L165.533 126.628C165.533 126.628 147.152 91.5654 167.258 87.9091Z" fill="#9ED6BE"/>
<path d="M171.508 161.092C171.508 161.092 170.526 162.854 168.814 162.723C167.101 162.592 166.389 164.173 167.839 164.848C169.289 165.523 173.533 164.223 173.533 164.223L173.895 161.098L171.508 161.092Z" fill="#9ED6BE"/>
<path d="M186.894 160.723C186.894 160.723 187.594 162.598 189.306 162.748C191.019 162.898 191.481 164.554 189.931 164.998C188.381 165.442 184.406 163.498 184.406 163.498L184.519 160.373L186.894 160.723Z" fill="#9ED6BE"/>
<path d="M165.531 126.625L170.9 161.093H174.413C174.413 161.093 171.163 135.168 176.844 132.043C182.525 128.918 183.625 161.093 183.625 161.093L187.375 160.793L187.331 125.256L165.531 126.625Z" fill="#24285B"/>
<path d="M79.3813 77.6803C79.5662 79.0323 79.5662 80.4033 79.3813 81.7553C79.3108 82.0741 79.1182 82.3527 78.8449 82.5314C78.5716 82.7101 78.2392 82.7748 77.9188 82.7116C77.401 82.6353 76.9163 82.4105 76.5236 82.0644C76.1309 81.7183 75.847 81.2657 75.7063 80.7616L74.8751 78.6491C74.7547 78.2092 74.7737 77.7429 74.9292 77.3142C75.0848 76.8855 75.3694 76.5156 75.7438 76.2553C77.0626 75.2053 79.2501 76.1928 79.3813 77.6803Z" fill="#F4A28C"/>
<path d="M75.0078 79.0371L74.1016 87.0184L78.5391 87.2059L77.4141 81.3184L75.0078 79.0371Z" fill="#F4A28C"/>
<path d="M79.507 79.2246L80.232 80.1371C80.2725 80.1891 80.2994 80.2504 80.31 80.3154C80.3207 80.3804 80.3149 80.4471 80.2931 80.5093C80.2714 80.5715 80.2343 80.6272 80.1854 80.6714C80.1366 80.7155 80.0774 80.7467 80.0133 80.7621L79.082 80.9809L79.507 79.2246Z" fill="#F4A28C"/>
<path opacity="0.31" d="M77.7109 82.6043C77.1541 82.4894 76.6434 82.2134 76.2422 81.8105C76.4606 82.9537 77.1066 83.9706 78.0484 84.6543L77.7109 82.6043Z" fill="#CE8172"/>
<path d="M83.455 87.9091C83.455 87.9091 64.43 83.6529 57.6175 87.4716C50.805 91.2904 64.18 127.29 64.18 127.29L85.1862 126.628C85.1862 126.628 103.561 91.5654 83.455 87.9091Z" fill="#9ED6BE"/>
<path d="M79.2117 161.092C79.2117 161.092 80.1867 162.854 81.8992 162.723C83.6117 162.592 84.3305 164.173 82.8742 164.848C81.418 165.523 77.1867 164.223 77.1867 164.223L76.8242 161.098L79.2117 161.092Z" fill="#9ED6BE"/>
<path d="M63.8182 160.723C63.8182 160.723 63.1245 162.598 61.412 162.748C59.6995 162.898 59.2307 164.554 60.787 164.998C62.3432 165.442 66.3182 163.498 66.3182 163.498L66.1995 160.373L63.8182 160.723Z" fill="#9ED6BE"/>
<path opacity="0.08" d="M66.9375 90.8105C66.9375 90.8105 72.95 94.7043 69.8875 103.598C66.825 112.492 66.3312 118.867 73.55 116.636C80.7687 114.404 80.2375 104.448 80.2375 104.448L87.6 105.586L88.3125 119.717L85.1875 126.629L66.9375 125.479L59.5063 123.604L56.75 114.267L61.8 98.473L66.9375 90.8105Z" fill="black"/>
<path d="M85.1867 126.625L79.8117 161.093H76.2992C76.2992 161.093 79.5555 135.168 73.8742 132.043C68.193 128.918 67.0742 161.093 67.0742 161.093L63.3242 160.793L63.3617 125.256L85.1867 126.625Z" fill="#24285B"/>
<path d="M63.2297 86.3491C63.2297 86.3491 51.3984 84.3554 51.3984 102.974C51.3984 121.593 54.2422 138.168 81.5547 121.562L79.4797 118.393C79.4797 118.393 64.7672 124.868 61.6359 119.18C58.5047 113.493 73.9234 89.4741 63.2297 86.3491Z" fill="#9ED6BE"/>
<path opacity="0.46" d="M63.2297 86.3491C63.2297 86.3491 51.3984 84.3554 51.3984 102.974C51.3984 121.593 54.2422 138.168 81.5547 121.562L79.4797 118.393C79.4797 118.393 64.7672 124.868 61.6359 119.18C58.5047 113.493 73.9234 89.4741 63.2297 86.3491Z" fill="white"/>
<path d="M81.0903 117.9L91.1094 120.42L94.8815 105.425L84.8624 102.904L81.0903 117.9Z" fill="#FFD200"/>
<path opacity="0.08" d="M186.211 91.7168C186.211 91.7168 181.642 95.3418 184.417 103.229C187.192 111.117 184.561 124.479 176.617 125.923L187.323 125.254L192.748 107.329L186.211 91.7168Z" fill="black"/>
<path d="M78.9139 77.7857C78.7317 77.8454 78.5459 77.8934 78.3577 77.9294C78.0936 77.9893 77.8361 78.0752 77.5889 78.1857L77.3889 78.2732C77.247 78.3354 77.1264 78.4378 77.042 78.5677C76.9576 78.6977 76.9131 78.8495 76.9139 79.0044C76.9444 79.3033 76.9121 79.6053 76.819 79.891C76.726 80.1767 76.5743 80.4397 76.3736 80.6634C76.173 80.887 75.9278 81.0662 75.6538 81.1895C75.3798 81.3128 75.0831 81.3775 74.7827 81.3794C74.7827 81.3794 72.8514 78.4982 74.3952 76.2857C74.8471 75.6734 75.4301 75.1699 76.1016 74.812C76.7732 74.4541 77.5162 74.2508 78.2764 74.2169C78.7115 74.2117 79.1343 74.361 79.4696 74.6383C79.8049 74.9156 80.0309 75.3029 80.1074 75.7312C80.1839 76.1595 80.1059 76.6011 79.8874 76.9773C79.6688 77.3535 79.3239 77.64 78.9139 77.7857Z" fill="#24285B"/>
<path d="M76.8733 80.3603C76.942 80.2733 76.9863 80.1695 77.0017 80.0597C77.0171 79.9498 77.0029 79.8379 76.9608 79.7353C76.8233 79.4103 76.5545 78.9728 76.1045 79.0353C75.6545 79.0978 75.5608 79.8353 75.8795 80.2853C75.9378 80.3618 76.013 80.4237 76.0992 80.4664C76.1854 80.509 76.2802 80.5312 76.3764 80.5312C76.4725 80.5312 76.5674 80.509 76.6536 80.4664C76.7398 80.4237 76.8149 80.3618 76.8733 80.2853V80.3603Z" fill="#F4A28C"/>
<path d="M170.119 75.1665C170.443 75.6426 170.657 76.1849 170.744 76.754C170.743 76.9283 170.783 77.1004 170.862 77.2559C170.941 77.4114 171.056 77.5458 171.197 77.6479C171.338 77.75 171.502 77.8169 171.674 77.843C171.847 77.869 172.023 77.8535 172.188 77.7978C174.063 77.4728 173.438 81.004 175.894 80.604C176.265 80.5909 176.623 80.4586 176.913 80.2267C177.204 79.9949 177.412 79.6757 177.507 79.3165C177.592 78.9437 177.759 78.5946 177.996 78.2941C178.233 77.9937 178.533 77.7495 178.875 77.579C179.394 77.329 179.794 76.8228 179.55 75.8165C179.007 73.5415 177.244 76.3728 176.625 73.9415C176.007 71.5103 174.975 71.8915 174.475 72.329C173.975 72.7665 173.463 73.4228 172.675 72.6228C171.888 71.8228 169.019 73.4103 170.119 75.1665Z" fill="#24285B"/>
<path d="M173.845 80.3603C173.777 80.2733 173.732 80.1695 173.717 80.0597C173.702 79.9498 173.716 79.8379 173.758 79.7353C173.895 79.4103 174.164 78.9728 174.608 79.0353C175.052 79.0978 175.152 79.8353 174.839 80.2853C174.781 80.3618 174.706 80.4237 174.619 80.4664C174.533 80.509 174.438 80.5312 174.342 80.5312C174.246 80.5312 174.151 80.509 174.065 80.4664C173.979 80.4237 173.904 80.3618 173.845 80.2853V80.3603Z" fill="#F4A28C"/>
<path d="M122.305 97.3574L123.93 97.8449C124.377 97.9738 124.781 98.2215 125.098 98.5616C125.415 98.9017 125.633 99.3215 125.73 99.7762C125.905 100.626 125.918 101.557 125.249 101.839C123.937 102.382 121.824 99.6012 121.824 99.6012L122.305 97.3574Z" fill="#F4A28C"/>
<path d="M129.355 97.3574L127.83 97.8137C127.334 97.9594 126.889 98.2419 126.547 98.6288C126.204 99.0157 125.977 99.4913 125.893 100.001C125.761 100.782 125.805 101.582 126.411 101.839C127.724 102.382 129.836 99.6012 129.836 99.6012L129.355 97.3574Z" fill="#F4A28C"/>
<path d="M125.189 90.8059C134.989 90.8059 142.933 82.8617 142.933 73.0621C142.933 63.2625 134.989 55.3184 125.189 55.3184C115.389 55.3184 107.445 63.2625 107.445 73.0621C107.445 82.8617 115.389 90.8059 125.189 90.8059Z" fill="#24285B"/>
<path d="M118.695 73.259L122.977 80.234L131.689 67.8027" stroke="white" stroke-width="5.075" stroke-linecap="round" stroke-linejoin="round"/>
<path d="M191.256 86.6428C195.275 86.9928 200.369 90.4803 203.844 103.693L191.656 108.068L186.469 92.8615C186.217 92.1262 186.151 91.3399 186.277 90.5729C186.404 89.8059 186.718 89.0821 187.192 88.4662C187.666 87.8503 188.285 87.3614 188.995 87.0432C189.704 86.725 190.481 86.5875 191.256 86.6428Z" fill="#9ED6BE"/>
<path opacity="0.46" d="M191.256 86.6428C195.275 86.9928 200.369 90.4803 203.844 103.693L191.656 108.068L186.469 92.8615C186.217 92.1262 186.151 91.3399 186.277 90.5729C186.404 89.8059 186.718 89.0821 187.192 88.4662C187.666 87.8503 188.285 87.3614 188.995 87.0432C189.704 86.725 190.481 86.5875 191.256 86.6428Z" fill="white"/>
<path d="M72.5195 86.6486C72.5195 86.6486 72.7945 83.5236 76.4633 84.6486C80.132 85.7736 80.3195 87.2924 80.3195 87.2924L72.5195 86.6486Z" fill="#9ED6BE"/>
<path opacity="0.46" d="M72.5195 86.6486C72.5195 86.6486 72.7945 83.5236 76.4633 84.6486C80.132 85.7736 80.3195 87.2924 80.3195 87.2924L72.5195 86.6486Z" fill="white"/>
<path d="M203.188 103.693L206.013 113.75C206.681 116.131 206.403 118.678 205.239 120.86C204.075 123.042 202.113 124.691 199.763 125.462L191.213 127.6C190.75 127.712 190.324 127.944 189.98 128.273C189.635 128.603 189.384 129.017 189.251 129.475C188.988 130.381 188.538 131.35 187.794 131.293C184.713 131.018 187.651 126.637 187.651 126.637L196.001 121.425C197.031 120.78 197.782 119.773 198.106 118.602C198.43 117.432 198.303 116.182 197.751 115.1L193.769 107.362L203.188 103.693Z" fill="#F4A28C"/>
<path d="M139.743 110.592H111.574V123.567H139.743V110.592Z" fill="#FFD200"/>
<path opacity="0.34" d="M134.693 128.451H116.762V132.257H134.693V128.451Z" fill="#C9C9C9"/>
<path d="M79.875 119.016C79.875 119.016 81.8812 115.972 83.7687 117.51C85.6562 119.047 81.0437 120.797 81.0437 120.797L79.875 119.016Z" fill="#F4A28C"/>
<path opacity="0.46" d="M136.933 112.764H121.914V115.989H136.933V112.764Z" fill="white"/>
<path opacity="0.58" d="M146.432 23.4144C146.432 23.4144 141.857 22.1644 140.863 17.9082C140.863 17.9082 147.951 16.4769 148.151 23.7894L146.432 23.4144Z" fill="#9ED6BE"/>
<path opacity="0.73" d="M146.993 22.9605C146.993 22.9605 143.799 17.9105 146.611 13.1855C146.611 13.1855 151.999 16.6105 149.605 22.973L146.993 22.9605Z" fill="#9ED6BE"/>
<path d="M147.82 22.9652C147.82 22.9652 149.508 17.6277 154.608 16.6152C154.608 16.6152 155.564 20.084 151.308 22.9777L147.82 22.9652Z" fill="#9ED6BE"/>
<path d="M144.5 22.8418L145.425 29.1855L151.263 29.2105L152.125 22.8793L144.5 22.8418Z" fill="#24285B"/>
</svg>
