<svg width="332" height="202" viewBox="0 0 332 202" fill="none" xmlns="http://www.w3.org/2000/svg">
<g clip-path="url(#clip0_21_1110)">
<path opacity="0.45" d="M166 201.718C257.457 201.718 331.597 196.497 331.597 190.056C331.597 183.615 257.457 178.394 166 178.394C74.5431 178.394 0.40271 183.615 0.40271 190.056C0.40271 196.497 74.5431 201.718 166 201.718Z" fill="#E6E6E6"/>
<path d="M274.889 18.4908L256.68 91.5708L229.833 84.8819C229.057 83.8907 228.622 82.6746 228.595 81.4157C228.567 80.1567 228.948 78.9228 229.681 77.8987C230.974 77.186 232.106 76.2157 233.009 75.0477C233.912 73.8797 234.565 72.539 234.929 71.1084C235.553 68.1724 235.013 65.1088 233.424 62.5624C231.835 60.0159 229.32 58.1851 226.409 57.4553C223.498 56.7255 220.416 57.1535 217.814 58.6492C215.212 60.145 213.291 62.592 212.457 65.4751C212.107 66.9098 212.054 68.4009 212.302 69.8566C212.55 71.3123 213.093 72.702 213.898 73.9402C214.068 75.188 213.828 76.4574 213.212 77.5562C212.597 78.655 211.64 79.5235 210.487 80.0302L183.651 73.3312L190.421 46.1901C189.86 45.142 188.994 44.2893 187.937 43.7454C186.88 43.2015 185.682 42.9922 184.503 43.1451C183.267 43.9537 181.878 44.4998 180.422 44.7494C178.965 44.9991 177.473 44.9471 176.038 44.5966C173.176 43.7472 170.752 41.8261 169.271 39.2335C167.79 36.641 167.367 33.5771 168.089 30.6801C168.811 27.7831 170.624 25.2766 173.148 23.6827C175.673 22.0889 178.715 21.5307 181.641 22.1245C183.072 22.4881 184.412 23.1415 185.58 24.0441C186.748 24.9467 187.719 26.0794 188.431 27.372C189.4 28.0644 190.556 28.4442 191.746 28.4605C192.936 28.4768 194.103 28.1289 195.09 27.4634L201.86 0.322266L274.889 18.4908Z" fill="#CCCCCC"/>
<path d="M282.654 23.7993C282.654 23.7993 272.118 38.1311 282.806 42.4855C293.494 46.8398 294.408 30.9652 294.408 30.9652L289.586 20.3179L282.654 23.7993Z" fill="#FFD200"/>
<path d="M286.348 34.0913L299.848 34.5278C299.848 34.5278 340.367 44.962 317.661 91.8651C314.058 99.2949 314.362 108.034 314.159 116.225L314.109 118.357H278.503L276.635 110.693C274.499 102.189 270.617 94.2214 265.236 87.2976C258.365 78.2641 253.493 60.3291 286.348 34.0913Z" fill="#9ED6BE"/>
<path d="M279.944 14.1669C280.061 17.1628 280.58 20.1294 281.487 22.9872C281.617 23.3196 281.811 23.6231 282.059 23.8802C282.306 24.1372 282.602 24.3429 282.929 24.4853C283.257 24.6277 283.609 24.7041 283.966 24.71C284.322 24.7159 284.677 24.6513 285.009 24.5199C286.101 24.1534 287.066 23.4799 287.786 22.5799C288.506 21.6799 288.951 20.5915 289.069 19.4449L290.084 14.5729C290.184 13.5762 289.974 12.5728 289.481 11.7005C288.989 10.8281 288.238 10.1296 287.333 9.7009C284.065 7.9348 279.68 10.8884 279.944 14.1669Z" fill="#F4A28C"/>
<path d="M289.921 15.4863L294.834 32.4571L285.293 34.4973L285.547 21.3226L289.921 15.4863Z" fill="#F4A28C"/>
<path opacity="0.31" d="M285.374 24.205C286.537 23.7503 287.542 22.9674 288.267 21.9517C288.267 21.9517 288.531 25.1692 285.405 28.7725L285.374 24.205Z" fill="#CE8172"/>
<path d="M278.665 6.25981C278.046 6.83344 277.576 7.54983 277.297 8.34655C277.018 9.14327 276.938 9.99613 277.064 10.8308C277.19 11.6655 277.519 12.4567 278.021 13.1354C278.522 13.8142 279.183 14.3598 279.944 14.7249C281.2 15.3546 282.54 15.799 283.923 16.0444C289.718 17.1609 286.856 42.6882 299.077 39.0951C311.297 35.502 307.369 30.2037 301.827 25.4535C296.285 20.7033 293.961 11.8525 291.86 7.39661C290.297 4.15876 282.41 2.99151 278.665 6.25981Z" fill="#FFD200"/>
<path d="M309.48 130.12L311.175 185.996L307.572 187.092L295.412 134.414L309.48 130.12Z" fill="#F4A28C"/>
<path d="M311.074 185.174C311.074 185.174 313.307 187.732 315.976 187.478C318.646 187.224 319.235 190.99 314.901 190.807C313.553 190.755 312.212 190.592 310.891 190.32C309.671 190.096 308.413 190.201 307.247 190.624C307.02 190.686 306.778 190.678 306.555 190.6C306.332 190.522 306.138 190.378 305.999 190.188C304.7 188.808 307.552 185.346 307.552 185.346L311.074 185.174Z" fill="#9ED6BE"/>
<path d="M281.416 130.202L268.535 184.606L271.834 186.402L294.326 137.236L281.416 130.202Z" fill="#F4A28C"/>
<path d="M268.799 183.824C268.799 183.824 266.099 185.854 263.531 185.083C260.963 184.311 259.634 187.874 263.917 188.564C265.259 188.788 266.617 188.897 267.977 188.889C269.213 188.917 270.42 189.267 271.479 189.904C271.689 190.009 271.927 190.049 272.16 190.019C272.393 189.988 272.612 189.888 272.788 189.732C274.341 188.635 272.24 184.657 272.24 184.657L268.799 183.824Z" fill="#9ED6BE"/>
<path opacity="0.08" d="M298.732 52.6147C298.732 52.6147 294.002 71.2095 301.695 83.8666C309.389 96.5236 295.412 114.56 295.412 114.56L314.251 113.9C314.251 113.9 315.398 96.5845 319.772 81.7351C324.147 66.8856 298.732 52.6147 298.732 52.6147Z" fill="black"/>
<path d="M277.731 115.18L314.251 113.901L320.828 174.628H294.834L294.408 129.278L277.731 115.18Z" fill="#24285B"/>
<path d="M277.731 115.18L260.222 172.71L285.029 174.628L299.28 122.65L277.731 115.18Z" fill="#24285B"/>
<path d="M303.583 36.6995C305.21 36.4349 306.875 36.5574 308.446 37.057C310.016 37.5566 311.446 38.4192 312.621 39.5749C313.795 40.7306 314.681 42.1469 315.206 43.7088C315.73 45.2708 315.88 46.9344 315.641 48.5649C314.626 56.2484 310.952 67.5657 300.021 79.9284C280.127 102.4 232.411 89.9363 232.411 89.9363C232.411 89.9363 222.708 91.1949 221.419 85.9981C220.13 80.8013 232.99 83.4809 232.99 83.4809C232.99 83.4809 256.335 88.4239 273.59 72.8132C287.566 60.1359 289.444 39.0848 303.583 36.6995Z" fill="#F4A28C"/>
<path d="M215.197 112.165C214.207 111.391 213.494 110.317 213.163 109.105C212.831 107.892 212.901 106.605 213.36 105.435C214.445 104.432 215.311 103.215 215.905 101.862C216.498 100.508 216.807 99.0471 216.811 97.5692C216.686 94.5816 215.411 91.7579 213.253 89.6882C211.095 87.6185 208.22 86.4629 205.23 86.4629C202.24 86.4629 199.365 87.6185 197.207 89.6882C195.049 91.7579 193.774 94.5816 193.649 97.5692C193.655 99.0467 193.965 100.507 194.558 101.86C195.152 103.213 196.017 104.43 197.1 105.435C197.567 106.603 197.641 107.892 197.311 109.106C196.982 110.32 196.266 111.393 195.273 112.165H167.604V139.834C168.373 140.83 169.446 141.549 170.66 141.881C171.875 142.212 173.164 142.139 174.333 141.671C175.34 140.59 176.557 139.726 177.91 139.133C179.263 138.54 180.722 138.229 182.199 138.22C185.187 138.345 188.011 139.62 190.08 141.778C192.15 143.936 193.306 146.811 193.306 149.801C193.306 152.791 192.15 155.666 190.08 157.824C188.011 159.982 185.187 161.257 182.199 161.382C180.722 161.376 179.262 161.066 177.908 160.473C176.555 159.879 175.339 159.014 174.333 157.931C173.163 157.472 171.876 157.403 170.664 157.734C169.451 158.065 168.378 158.778 167.604 159.768V187.437H242.866V112.165H215.197Z" fill="#E6E6E6"/>
<path d="M193.243 149.822C193.311 152.813 192.192 155.71 190.13 157.878C188.068 160.047 185.231 161.31 182.24 161.393C180.762 161.386 179.302 161.076 177.949 160.483C176.596 159.889 175.379 159.024 174.374 157.942C173.204 157.482 171.917 157.413 170.704 157.744C169.492 158.075 168.419 158.789 167.644 159.779V187.448H92.3313V112.165H120.173C121.103 112.954 121.763 114.014 122.061 115.197C122.36 116.38 122.282 117.626 121.837 118.763C120.754 119.765 119.888 120.98 119.295 122.332C118.701 123.683 118.392 125.142 118.386 126.619C118.511 129.606 119.786 132.43 121.945 134.5C124.103 136.569 126.977 137.725 129.968 137.725C132.958 137.725 135.832 136.569 137.99 134.5C140.149 132.43 141.424 129.606 141.549 126.619C141.543 125.142 141.234 123.683 140.64 122.332C140.047 120.98 139.181 119.765 138.098 118.763C137.647 117.627 137.566 116.379 137.864 115.195C138.163 114.011 138.827 112.951 139.762 112.165H167.604V139.834C168.373 140.831 169.446 141.549 170.66 141.881C171.875 142.212 173.164 142.139 174.333 141.671C175.34 140.59 176.557 139.727 177.91 139.133C179.263 138.54 180.722 138.229 182.199 138.22C185.202 138.295 188.052 139.559 190.123 141.734C192.194 143.91 193.316 146.819 193.243 149.822V149.822Z" fill="#CCCCCC"/>
<path d="M75.868 182.708C75.868 182.708 78.913 185.753 82.2625 184.311C85.612 182.87 88.0176 185.712 85.5714 188.107C83.1253 190.503 73.838 190.614 73.838 190.614L71.1178 184.321L75.868 182.708Z" fill="#9ED6BE"/>
<path d="M24.1334 181.307C24.1334 181.307 22.6211 185.448 25.1484 188.148C27.6758 190.848 26.0822 194.299 23.0474 192.807C20.0125 191.315 16.4296 182.302 16.4296 182.302L20.9362 177.277L24.1334 181.307Z" fill="#9ED6BE"/>
<path d="M15.8916 103.477C15.8916 103.477 12.6436 116.996 18.287 123.645C23.9304 130.293 32.5782 161.788 18.287 177.541L23.9 183.144C23.9 183.144 48.6457 169.847 41.5914 121.899L59.2524 103.477H15.8916Z" fill="#24285B"/>
<path d="M59.293 103.477L77.4412 183.144L68.3671 184.545C68.3671 184.545 50.2189 129.948 38.2419 118.742L59.293 103.477Z" fill="#24285B"/>
<path d="M63.485 33.4316C63.485 33.4316 82.4046 41.5009 79.5118 71.0475L61.0287 69.4641L63.485 33.4316Z" fill="#9ED6BE"/>
<path opacity="0.36" d="M63.485 33.4316C63.485 33.4316 82.4046 41.5009 79.5118 71.0475L61.0287 69.4641L63.485 33.4316Z" fill="white"/>
<path d="M43.8244 8.12744L38.587 26.6106L48.9806 28.7725L48.6254 14.4509L43.8244 8.12744Z" fill="#F4A28C"/>
<path opacity="0.31" d="M48.8385 17.5874C47.5659 17.1002 46.4622 16.2539 45.6616 15.1514C45.6616 15.1514 45.3976 18.6531 48.8283 22.5609L48.8385 17.5874Z" fill="#CE8172"/>
<path d="M38.5871 26.6105L44.7481 27.9198C44.7481 27.9198 72.9651 30.9648 74.1121 46.88C75.259 62.7952 59.3134 103.497 59.3134 103.497H16.5616C16.5616 103.497 -17.715 22.4084 38.5871 26.6105Z" fill="#9ED6BE"/>
<path d="M96.2288 59.456C96.649 62.4259 98.2308 65.1075 100.627 66.9117C103.023 68.7159 106.037 69.4952 109.008 69.0782C110.464 68.8322 111.853 68.29 113.091 67.4851C114.329 66.6803 115.389 65.6299 116.204 64.3991C117.227 63.789 118.413 63.5068 119.601 63.5903C120.79 63.6737 121.924 64.1189 122.852 64.866L127.43 92.4638L99.9133 96.94C99.1213 97.8684 98.6397 99.0213 98.5359 100.237C98.4322 101.453 98.7115 102.671 99.3347 103.72C100.567 104.535 101.62 105.594 102.426 106.832C103.233 108.07 103.777 109.46 104.024 110.917C104.392 113.888 103.595 116.887 101.801 119.284C100.007 121.682 97.3544 123.292 94.3996 123.777C91.4449 124.263 88.4169 123.586 85.95 121.889C83.4831 120.191 81.7688 117.605 81.1662 114.672C80.9325 113.213 81.0012 111.721 81.3678 110.289C81.7345 108.858 82.3914 107.516 83.2977 106.349C83.5517 105.157 83.4271 103.916 82.9412 102.799C82.4553 101.681 81.6325 100.744 80.5877 100.117L53.1116 104.634L40.9316 30.3763L115.209 18.1963L119.746 45.8144C119.101 46.8134 118.167 47.5922 117.068 48.0473C115.969 48.5024 114.758 48.6122 113.595 48.3621C112.428 47.4557 111.087 46.7988 109.655 46.4322C108.224 46.0655 106.732 45.9969 105.272 46.2306C103.81 46.5037 102.415 47.0627 101.168 47.8755C99.9216 48.6883 98.8475 49.7391 98.0075 50.9675C97.1675 52.196 96.578 53.5781 96.2728 55.0346C95.9676 56.4912 95.9526 57.9937 96.2288 59.456V59.456Z" fill="#E6E6E6"/>
<path d="M54.5936 8.63477C54.5936 8.63477 54.0759 14.471 52.4215 18.125C52.2615 18.4782 52.0334 18.7962 51.7503 19.061C51.4671 19.3257 51.1344 19.5319 50.7713 19.6677C50.4082 19.8035 50.0218 19.8663 49.6344 19.8524C49.247 19.8384 48.8661 19.7481 48.5137 19.5866C47.3458 19.1368 46.3327 18.3591 45.5962 17.3471C44.8597 16.3352 44.4313 15.132 44.3624 13.8823L43.5301 8.53327C43.4748 7.44394 43.7597 6.36439 44.3453 5.44419C44.9309 4.52398 45.7882 3.80867 46.7984 3.39737C50.4727 1.66172 55.0909 5.12287 54.5936 8.63477Z" fill="#F4A28C"/>
<path opacity="0.09" d="M25.93 34.0098C25.93 34.0098 40.5562 42.5053 37.1559 61.7193C33.7557 80.9332 28.1224 87.5409 40.2009 84.8613C52.2794 82.1817 57.2225 76.1221 57.2225 76.1221C57.2225 76.1221 65.9007 83.2271 57.2225 88.5762C48.5442 93.9252 36.7702 93.9354 34.8925 103.446H16.5616C16.5616 103.446 15.0797 99.2844 13.1106 94.0369C11.1415 88.7893 25.93 34.0098 25.93 34.0098Z" fill="black"/>
<path d="M53.1219 8.63487C51.3225 8.39233 49.5578 7.93924 47.8642 7.28492C48.2403 8.15987 48.3523 9.12573 48.1863 10.0635C48.0204 11.0013 47.5838 11.8701 46.9304 12.5629C46.3097 13.2484 45.4697 13.6963 44.5547 13.8297C43.6396 13.9631 42.7067 13.7735 41.9163 13.2937L43.3271 5.88422C43.4963 4.82064 43.9497 3.82251 44.6393 2.99531C45.329 2.16812 46.2292 1.54257 47.245 1.18477C48.1246 0.871658 49.0229 0.614021 49.9348 0.413371C52.2591 -0.073829 55.5477 0.859971 56.8368 2.93057C57.3857 3.83597 57.5591 4.91997 57.3202 5.95146C57.0813 6.98294 56.4489 7.88029 55.5579 8.45217C54.7827 8.75663 53.9338 8.8203 53.1219 8.63487V8.63487Z" fill="#FFD200"/>
<path d="M47.5799 12.5121C47.5799 12.5121 47.9352 10.2893 46.23 10.1573C44.5248 10.0254 43.997 13.2023 46.23 13.9534L47.5799 12.5121Z" fill="#F4A28C"/>
<path d="M3.39702 68.0022C3.39702 68.0022 0.991467 92.687 13.1106 94.0674C22.2456 95.0824 36.9326 89.9364 45.8951 87.3887C49.7724 86.2824 51.6501 85.7647 54.6342 83.0445C58.207 79.7762 63.1602 77.4519 59.3032 74.3561C52.4621 68.8447 47.6104 78.274 47.6104 78.274C41.895 79.931 36.005 80.9121 30.0611 81.1972C28.9473 81.2255 27.8424 80.9937 26.8339 80.5203C25.8254 80.0468 24.9412 79.3447 24.2515 78.4698C23.5618 77.5949 23.0856 76.5712 22.8607 75.48C22.6359 74.3889 22.6685 73.2603 22.9561 72.184L25.2195 63.6783C25.2195 63.6783 9.16222 48.6259 3.39702 68.0022Z" fill="#F4A28C"/>
<path d="M54.0759 12.3296L55.2939 14.8366C55.3621 14.9798 55.3932 15.1378 55.3842 15.2961C55.3752 15.4544 55.3265 15.6079 55.2426 15.7424C55.1586 15.877 55.0421 15.9882 54.9039 16.0658C54.7656 16.1434 54.61 16.185 54.4515 16.1866H52.1677L54.0759 12.3296Z" fill="#F4A28C"/>
<path d="M15.9932 32.1016C9.69 36.9432 0.220051 47.6311 0.402751 67.8093L26.2954 69.4638C26.2954 69.4638 33.776 47.3063 25.93 34.0098C25.4432 33.186 24.7869 32.4752 24.0045 31.9244C23.2221 31.3736 22.3315 30.9954 21.3919 30.815C20.4522 30.6345 19.4849 30.6559 18.5542 30.8777C17.6234 31.0996 16.7504 31.5167 15.9932 32.1016Z" fill="#9ED6BE"/>
<path opacity="0.36" d="M15.9932 32.1016C9.69 36.9432 0.220051 47.6311 0.402751 67.8093L26.2954 69.4638C26.2954 69.4638 33.776 47.3063 25.93 34.0098C25.4432 33.186 24.7869 32.4752 24.0045 31.9244C23.2221 31.3736 22.3315 30.9954 21.3919 30.815C20.4522 30.6345 19.4849 30.6559 18.5542 30.8777C17.6234 31.0996 16.7504 31.5167 15.9932 32.1016Z" fill="white"/>
<path d="M98.2081 60.3998C97.337 61.3861 96.8254 62.6382 96.7567 63.9523C96.6678 64.6516 96.7991 65.3612 97.1322 65.9823C97.3672 66.3403 97.675 66.6446 98.0356 66.8755C99.4464 67.8905 101.619 68.0022 102.745 66.703C103.335 65.8994 103.633 64.9179 103.588 63.9219C103.588 62.7648 103.72 60.4607 102.786 59.5574C101.537 58.3698 99.1825 59.3239 98.2081 60.3998Z" fill="#F4A28C"/>
</g>
<defs>
<clipPath id="clip0_21_1110">
<rect width="332" height="202" fill="white"/>
</clipPath>
</defs>
</svg>
