<svg width="313" height="237" viewBox="0 0 313 237" fill="none" xmlns="http://www.w3.org/2000/svg">
<g clip-path="url(#clip0_21_1286)">
<path d="M87.375 66.8989C87.375 66.8989 58.955 74.4404 67.075 113.406C75.195 152.372 50.1651 150.839 28.8501 147.449L27.5001 157.437C27.5001 157.437 83.3251 174.692 90.7549 125.637C98.1847 76.582 87.375 66.8989 87.375 66.8989Z" fill="#9ED6BE"/>
<path opacity="0.46" d="M87.375 66.8989C87.375 66.8989 58.955 74.4404 67.075 113.406C75.195 152.372 50.1651 150.839 28.8501 147.449L27.5001 157.437C27.5001 157.437 83.3251 174.692 90.7549 125.637C98.1847 76.582 87.375 66.8989 87.375 66.8989Z" fill="white"/>
<path opacity="0.45" d="M161.927 236.627C245.115 236.627 312.553 227.139 312.553 215.434C312.553 203.729 245.115 194.241 161.927 194.241C78.7382 194.241 11.3007 203.729 11.3007 215.434C11.3007 227.139 78.7382 236.627 161.927 236.627Z" fill="#E6E6E6"/>
<path d="M0.206787 89.3198V113.203H15.6449L19.0147 122.703L23.0037 113.203H38.4418V89.3198H0.206787Z" fill="#E6E6E6"/>
<path d="M89.5065 40.0518C89.5065 40.0518 88.0043 45.4719 88.2479 49.2985C88.2723 49.6721 88.3707 50.0371 88.5376 50.3723C88.7044 50.7075 88.9363 51.0061 89.2197 51.2508C89.5031 51.4955 89.8324 51.6813 90.1883 51.7974C90.5442 51.9136 90.9197 51.9577 91.2929 51.9273C92.4915 51.9174 93.6616 51.5616 94.6628 50.9026C95.6639 50.2436 96.4534 49.3094 96.9363 48.2124L99.4941 43.6957C99.9036 42.736 100.007 41.6735 99.7912 40.6527C99.575 39.632 99.0495 38.7027 98.2863 37.9914C95.5661 35.1697 90.2475 36.7125 89.5065 40.0518Z" fill="#F4A28C"/>
<path d="M98.3979 44.8125L102.813 62.6867L92.7849 64.4121L93.5766 51.0548L98.3979 44.8125Z" fill="#F4A28C"/>
<path d="M88.735 43.5132L86.7964 45.3503C86.6872 45.4552 86.606 45.5859 86.5605 45.7303C86.515 45.8747 86.5065 46.0282 86.5358 46.1768C86.5651 46.3254 86.6312 46.4642 86.7282 46.5805C86.8252 46.6968 86.9499 46.7868 87.0907 46.8424L89.1207 47.6341L88.735 43.5132Z" fill="#F4A28C"/>
<path opacity="0.31" d="M93.5564 51.4401C93.5564 51.4401 96.9769 49.8568 97.9107 48.4561C97.9107 48.4561 97.7179 55.8148 93.1707 57.9564L93.5564 51.4401Z" fill="#CE8172"/>
<path d="M95.089 45.1474C95.089 45.1474 95.5254 43.026 97.119 43.4929C98.7125 43.9598 98.0731 47.015 95.8401 46.9033L95.089 45.1474Z" fill="#F4A28C"/>
<path d="M101.585 42.4371L100.418 44.4671C100.418 44.4671 99.0068 49.6639 95.5457 52.3435C92.0845 55.0231 87.2227 54.475 86.7964 50.821C86.3193 46.629 89.1309 47.6339 92.8864 47.4613C96.6419 47.2888 96.0735 42.2544 96.0735 42.2544C95.374 42.256 94.6847 42.0867 94.0656 41.7612C93.4464 41.4357 92.9162 40.9639 92.521 40.3868C91.4747 38.9802 90.0736 37.8769 88.461 37.1895C85.1216 35.7787 89.1918 31.4142 89.1918 31.4142C86.9588 30.186 88.6741 27.5876 90.8259 26.7959C92.9777 26.0042 93.5969 28.5316 95.2412 29.0188C96.8855 29.506 96.2562 26.8873 99.3824 27.5369C102.509 28.1865 100.834 30.521 102.752 32.2363C102.752 32.2363 104.945 30.5616 106.64 34.3678C107.655 36.5399 107.107 37.5651 106.142 38.1335C104.274 39.1459 102.703 40.6295 101.585 42.4371Z" fill="#24285B"/>
<path d="M275.931 0.0712891H134.958V24.8068H275.931V0.0712891Z" fill="#A5A5A5"/>
<path d="M276.48 188.201H135.506V212.937H276.48V188.201Z" fill="#A5A5A5"/>
<path d="M125.752 170.784H75.4283V212.937H125.752V170.784Z" fill="#A5A5A5"/>
<path d="M225.08 104.454C271.141 91.3196 266.086 24.8066 266.086 24.8066H143.596C143.596 24.8066 140.419 87.7366 185.952 103.276C186.502 103.474 186.975 103.84 187.306 104.322C187.636 104.805 187.806 105.379 187.791 105.963C187.776 106.547 187.578 107.112 187.224 107.577C186.87 108.042 186.379 108.384 185.82 108.554C139.759 121.688 144.804 188.201 144.804 188.201H267.294C267.294 188.201 270.461 125.271 224.938 109.732C224.383 109.538 223.904 109.173 223.57 108.689C223.236 108.206 223.065 107.628 223.081 107.041C223.096 106.453 223.299 105.886 223.658 105.421C224.017 104.956 224.515 104.617 225.08 104.454V104.454Z" fill="#E6E6E6"/>
<path d="M143.616 170.784H93.2924V212.937H143.616V170.784Z" fill="#C9C9C9"/>
<path d="M184.277 51.3794C181.334 50.7413 178.268 50.9665 175.45 52.0281C172.631 53.0897 170.179 54.9424 168.388 57.3638C166.597 59.7851 165.543 62.6721 165.353 65.6779C165.163 68.6837 165.845 71.6805 167.316 74.3082C171.803 82.4282 179.872 91.3196 194.051 93.512C219.487 97.4604 237.595 91.0659 248.06 63.4883C248.68 61.8755 248.872 60.1296 248.618 58.4204C248.364 56.7112 247.672 55.0968 246.609 53.734C245.547 52.3713 244.15 51.3065 242.555 50.6431C240.959 49.9797 239.219 49.7404 237.504 49.9482H237.189C226.795 51.491 225.638 64.9702 210.616 60.7377C202.841 58.5859 193.321 53.2977 184.277 51.3794Z" fill="#C9C9C9"/>
<path d="M153.604 183.268C153.595 179.353 154.685 175.513 156.748 172.185C158.811 168.857 161.765 166.174 165.276 164.44C174.952 159.861 185.15 156.479 195.645 154.371C226.095 147.824 230.693 169.779 242.639 171.707C254.586 173.636 257.661 183.268 257.661 183.268H153.604Z" fill="#C9C9C9"/>
<path d="M197.421 93.979L200.598 161.304H207.916L205.988 93.979H197.421Z" fill="#C9C9C9"/>
<path d="M211.773 91.2079V161.304H213.793L215.813 89.7666L211.773 91.2079Z" fill="#C9C9C9"/>
<path d="M92.389 204.452C92.389 204.452 90.9883 208.329 87.4866 208.623C83.9848 208.918 83.0612 212.348 86.2178 213.242C89.3745 214.135 97.4945 210.085 97.4945 210.085L97.2712 205.01L92.389 204.452Z" fill="#9ED6BE"/>
<path d="M92.7849 64.412L102.813 62.6865C102.813 62.6865 136.156 62.6865 141.992 74.156C147.828 85.6255 146.61 128.083 127.315 162.979L87.8215 164.126C87.8215 164.126 90.0139 138.497 82.6552 124.541C75.2964 110.584 52.4183 80.9261 92.7849 64.412Z" fill="#9ED6BE"/>
<path d="M127.315 162.979L108.03 160.065C105.24 159.645 102.391 159.868 99.7009 160.719C97.0106 161.569 94.5506 163.023 92.509 164.971C90.4675 166.918 88.8987 169.307 87.9226 171.954C86.9465 174.602 86.5891 177.437 86.8776 180.244L89.405 204.776H98.8851L98.0629 181.807C98.0152 180.522 98.253 179.242 98.7592 178.06C99.2654 176.878 100.027 175.823 100.99 174.97C101.953 174.118 103.093 173.49 104.328 173.131C105.563 172.772 106.862 172.692 108.132 172.895C116.323 174.225 126.513 173.646 127.315 162.979Z" fill="#24285B"/>
<path d="M72.7285 204.452C72.7285 204.452 71.3278 208.329 67.8261 208.623C64.3243 208.918 63.4007 212.348 66.5573 213.242C69.714 214.135 77.834 210.085 77.834 210.085L77.6005 205.01L72.7285 204.452Z" fill="#9ED6BE"/>
<path opacity="0.08" d="M122.169 73.0903C118.052 76.0273 114.865 80.0857 112.988 84.7823C111.111 89.4789 110.623 94.6159 111.583 99.5818C114.8 117.182 128.929 149.479 99.8696 143.816L101.605 157.274L121.327 155.407L137.293 144.749L141.19 115.182L122.169 73.0903Z" fill="black"/>
<path d="M107.655 162.979L88.3697 160.065C85.5798 159.645 82.7306 159.868 80.0404 160.719C77.3501 161.569 74.89 163.023 72.8485 164.971C70.807 166.918 69.2381 169.307 68.2621 171.954C67.286 174.602 66.9285 177.437 67.2171 180.244L69.7444 204.776H79.2144L78.4024 181.807C78.3547 180.522 78.5925 179.242 79.0987 178.06C79.6049 176.878 80.3669 175.823 81.3298 174.97C82.2928 174.118 83.4327 173.49 84.6676 173.131C85.9024 172.772 87.2015 172.692 88.4712 172.895C96.6623 174.225 106.843 173.646 107.655 162.979Z" fill="#24285B"/>
<path d="M120.078 78.8352C121.002 68.6852 133.598 64.3817 140.327 72.0145C143.535 75.6482 146.093 80.9667 146.6 88.7721C148.123 112.33 167.113 181.837 92.8052 159.893L94.6931 151.154C94.6931 151.154 117.439 156.229 129.365 144.81C139.282 135.33 117.734 104.484 120.078 78.8352Z" fill="#9ED6BE"/>
<path opacity="0.46" d="M120.078 78.8352C121.002 68.6852 133.598 64.3817 140.327 72.0145C143.535 75.6482 146.093 80.9667 146.6 88.7721C148.123 112.33 167.113 181.837 92.8052 159.893L94.6931 151.154C94.6931 151.154 117.439 156.229 129.365 144.81C139.282 135.33 117.734 104.484 120.078 78.8352Z" fill="white"/>
<path d="M72.0789 161.375L59.8684 127.92H95.7892L103.25 159.385L112.161 160.908V165.222L72.0789 161.375Z" fill="#FFD200"/>
<path d="M82.3811 146.779C84.388 146.779 86.0148 145.152 86.0148 143.145C86.0148 141.139 84.388 139.512 82.3811 139.512C80.3743 139.512 78.7474 141.139 78.7474 143.145C78.7474 145.152 80.3743 146.779 82.3811 146.779Z" fill="white"/>
<path opacity="0.08" d="M65.1566 142.415L95.8401 163.659L72.0789 161.375L65.1566 142.415Z" fill="black"/>
<path d="M89.1309 66.026C89.1309 66.026 88.1159 62.7475 92.7849 60.342C97.4539 57.9364 106.64 54.6072 109.806 63.1839C109.806 63.1839 99.5347 69.8221 89.1309 66.026Z" fill="#9ED6BE"/>
<path opacity="0.46" d="M89.1309 66.026C89.1309 66.026 88.1159 62.7475 92.7849 60.342C97.4539 57.9364 106.64 54.6072 109.806 63.1839C109.806 63.1839 99.5347 69.8221 89.1309 66.026Z" fill="white"/>
<path d="M28.8602 147.449C28.8602 147.449 22.2627 142.049 19.7252 145.602C17.1877 149.154 27.5102 155.244 27.5102 155.244L28.8602 147.449Z" fill="#F4A28C"/>
<path d="M31.5725 141.372L18.7972 128.597L11.29 136.104L24.0653 148.879L31.5725 141.372Z" fill="#FFD200"/>
<path d="M98.3269 42.9648C98.3269 42.9648 101.057 41.351 102.072 43.5231C103.087 45.6952 100.042 47.3902 98.0122 46.0707C98.4873 45.107 98.599 44.0042 98.3269 42.9648V42.9648Z" fill="#F4A28C"/>
<path d="M10.0827 103.601C11.6747 103.601 12.9653 102.311 12.9653 100.719C12.9653 99.1265 11.6747 97.8359 10.0827 97.8359C8.49066 97.8359 7.20007 99.1265 7.20007 100.719C7.20007 102.311 8.49066 103.601 10.0827 103.601Z" fill="#A5A5A5"/>
<path d="M19.0046 103.601C20.5966 103.601 21.8871 102.311 21.8871 100.719C21.8871 99.1265 20.5966 97.8359 19.0046 97.8359C17.4125 97.8359 16.1219 99.1265 16.1219 100.719C16.1219 102.311 17.4125 103.601 19.0046 103.601Z" fill="#A5A5A5"/>
<path d="M27.7032 103.601C29.2952 103.601 30.5858 102.311 30.5858 100.719C30.5858 99.1265 29.2952 97.8359 27.7032 97.8359C26.1111 97.8359 24.8206 99.1265 24.8206 100.719C24.8206 102.311 26.1111 103.601 27.7032 103.601Z" fill="#A5A5A5"/>
</g>
<defs>
<clipPath id="clip0_21_1286">
<rect width="313" height="237" fill="white"/>
</clipPath>
</defs>
</svg>
