<svg width="292" height="226" viewBox="0 0 292 226" fill="none" xmlns="http://www.w3.org/2000/svg">
<g clip-path="url(#clip0_5487_35009)">
<path opacity="0.18" d="M29.1532 218.063C29.1532 218.063 -15.0501 165.577 7.0465 100.049C29.143 34.5206 95.4631 -12.1795 179.617 3.38041C263.77 18.9404 319.687 63.1233 275.778 217.748L29.1532 218.063Z" fill="#DDDBDB"/>
<path opacity="0.3" d="M277.635 62.0467C277.01 62.0471 276.388 62.1535 275.798 62.3613C276.089 61.4559 276.236 60.5107 276.235 59.5599C276.155 57.1566 275.144 54.8783 273.416 53.2063C271.688 51.5343 269.377 50.5996 266.973 50.5996C264.568 50.5996 262.258 51.5343 260.529 53.2063C258.801 54.8783 257.79 57.1566 257.711 59.5599C257.711 59.817 257.711 60.0606 257.711 60.2907C256.807 59.8342 255.812 59.5882 254.8 59.5711C253.787 59.5539 252.784 59.7661 251.866 60.1917C250.947 60.6173 250.137 61.2452 249.495 62.0285C248.854 62.8118 248.398 63.7302 248.162 64.7147C247.926 65.6992 247.915 66.7244 248.132 67.7134C248.348 68.7025 248.786 69.6297 249.411 70.4256C250.037 71.2216 250.835 71.8656 251.745 72.3094C252.655 72.7532 253.653 72.9853 254.666 72.9884H277.595C279.046 72.9884 280.437 72.412 281.463 71.386C282.489 70.36 283.066 68.9685 283.066 67.5175C283.066 66.0666 282.489 64.675 281.463 63.649C280.437 62.623 279.046 62.0467 277.595 62.0467H277.635Z" fill="#DDDBDB"/>
<path opacity="0.3" d="M113.276 25.5485C112.854 25.5491 112.434 25.6247 112.038 25.7718C112.226 25.1567 112.322 24.517 112.322 23.8738C112.257 22.2578 111.569 20.7296 110.403 19.6093C109.237 18.489 107.682 17.8633 106.065 17.8633C104.448 17.8633 102.893 18.489 101.727 19.6093C100.56 20.7296 99.8725 22.2578 99.8074 23.8738C99.797 24.0394 99.797 24.2055 99.8074 24.3711C99.1951 24.0581 98.5197 23.8884 97.8322 23.8748C97.1447 23.8612 96.4631 24.004 95.8389 24.2925C95.2147 24.5809 94.6642 25.0075 94.2291 25.54C93.794 26.0724 93.4856 26.6968 93.3272 27.366C93.1688 28.0351 93.1646 28.7315 93.3149 29.4025C93.4652 30.0735 93.766 30.7016 94.1947 31.2393C94.6233 31.7769 95.1686 32.2101 95.7893 32.5061C96.4099 32.8021 97.0898 32.9532 97.7774 32.9479H113.266C114.214 32.8982 115.106 32.4868 115.76 31.7984C116.413 31.11 116.777 30.1972 116.777 29.2482C116.777 28.2992 116.413 27.3864 115.76 26.698C115.106 26.0096 114.214 25.5982 113.266 25.5485H113.276Z" fill="#DDDBDB"/>
<path opacity="0.17" d="M61.1359 51.0241C72.4201 51.0241 81.5678 41.8764 81.5678 30.5921C81.5678 19.3078 72.4201 10.1602 61.1359 10.1602C49.8516 10.1602 40.7039 19.3078 40.7039 30.5921C40.7039 41.8764 49.8516 51.0241 61.1359 51.0241Z" fill="#FFD200"/>
<path d="M61.1358 43.9702C68.5241 43.9702 74.5136 37.9808 74.5136 30.5925C74.5136 23.2042 68.5241 17.2148 61.1358 17.2148C53.7475 17.2148 47.7581 23.2042 47.7581 30.5925C47.7581 37.9808 53.7475 43.9702 61.1358 43.9702Z" fill="#FFD200"/>
<path d="M259.964 156.645V129.402H255.427V86.7719L247.622 78.5808H228.377L222.663 86.7719V137.025H198.709V38.1433H189.188V33.8498H174.227V25.2832H172.613V33.6671H168.421V38.1433H165.661V149.022H124.888V68.6237H118.027V51.4804H83.7297V68.6237L74.7774 71.9935V92.06H64.4853V74.3382L57.6341 64.6246H34.2079V132.274H20.7997V217.23H34.2079H271.2V156.645H259.964Z" fill="#E6E6E6"/>
<path d="M148.649 55.9983C161.346 55.9983 171.639 55.1076 171.639 54.0089C171.639 52.9102 161.346 52.0195 148.649 52.0195C135.952 52.0195 125.659 52.9102 125.659 54.0089C125.659 55.1076 135.952 55.9983 148.649 55.9983Z" fill="#9ED6BE"/>
<path d="M167.772 53.1765H129.516L127.771 46.7109H169.518L167.772 53.1765Z" fill="#24285B"/>
<path d="M166.97 47.4523H130.318L128.643 40.9766H168.645L166.97 47.4523Z" fill="#24285B"/>
<path d="M166.899 40.9341H130.359C130.359 40.9341 130.623 39.9191 134.267 38.9041C137.91 37.8891 141.95 36.8741 141.443 35.646C140.935 34.4178 137.981 33.3419 137.525 32.4386C137.068 31.5352 137.474 31.4845 137.921 31.4236C138.367 31.3627 148.609 31.4236 148.609 31.4236C148.609 31.4236 158.86 31.3627 159.307 31.4236C159.753 31.4845 160.139 31.5454 159.692 32.4386C159.246 33.3318 156.292 34.3671 155.785 35.646C155.277 36.9249 159.307 37.95 162.95 38.9041C166.594 39.8582 166.899 40.9341 166.899 40.9341Z" fill="#9ED6BE"/>
<path d="M156.647 29.7598H140.651V31.4447H156.647V29.7598Z" fill="#9ED6BE"/>
<path d="M151.461 29.7696H145.838C145.838 29.7696 147.766 17.0415 148.436 10.6064C148.447 10.559 148.473 10.5167 148.511 10.4863C148.549 10.456 148.596 10.4395 148.644 10.4395C148.693 10.4395 148.74 10.456 148.777 10.4863C148.815 10.5167 148.842 10.559 148.852 10.6064C149.532 17.0313 151.461 29.7696 151.461 29.7696Z" fill="#9ED6BE"/>
<path d="M148.649 195.57C159.939 195.57 169.091 193.438 169.091 190.809C169.091 188.18 159.939 186.049 148.649 186.049C137.359 186.049 128.207 188.18 128.207 190.809C128.207 193.438 137.359 195.57 148.649 195.57Z" fill="#9ED6BE"/>
<path d="M167.63 217.23H159.368C159.307 215.829 151.704 109.396 148.649 109.396C145.594 109.396 137.992 215.829 137.931 217.23H129.669C129.669 217.23 144.762 119.891 144.762 87.5636C144.762 77.8196 142.102 67.7711 140.123 61.6405C138.956 58.0068 138.022 55.7535 138.022 55.7535L141.94 55.1445C142.131 57.3404 142.47 59.5209 142.955 61.671C144.457 68.776 147.238 75.9825 148.71 75.9825C150.182 75.9825 152.963 68.8064 154.465 61.671C154.95 59.5209 155.289 57.3404 155.48 55.1445L159.378 55.784C159.378 55.784 158.444 58.0373 157.277 61.671C155.297 67.761 152.638 77.8501 152.638 87.5941C152.537 116.593 167.63 217.23 167.63 217.23Z" fill="#9ED6BE"/>
<path opacity="0.1" d="M141.94 55.1445C142.131 57.3404 142.47 59.5209 142.955 61.671H140.184C139.017 58.0373 138.083 55.784 138.083 55.784L141.94 55.1445Z" fill="black"/>
<path opacity="0.1" d="M159.276 55.7547C159.276 55.7547 158.342 58.008 157.175 61.6417H154.404C154.889 59.4916 155.228 57.3111 155.419 55.1152L159.276 55.7547Z" fill="black"/>
<path d="M148.649 49.2067C164.283 49.2067 176.958 48.0888 176.958 46.7098C176.958 45.3308 164.283 44.2129 148.649 44.2129C133.015 44.2129 120.341 45.3308 120.341 46.7098C120.341 48.0888 133.015 49.2067 148.649 49.2067Z" fill="#9ED6BE"/>
<path d="M148.649 49.2067C164.283 49.2067 176.958 48.0888 176.958 46.7098C176.958 45.3308 164.283 44.2129 148.649 44.2129C133.015 44.2129 120.341 45.3308 120.341 46.7098C120.341 48.0888 133.015 49.2067 148.649 49.2067Z" fill="#9ED6BE"/>
<path d="M238.801 67.5488H206.981V217.241H238.801V67.5488Z" fill="#9ED6BE"/>
<path opacity="0.1" d="M238.801 67.5488H206.981V217.241H238.801V67.5488Z" fill="black"/>
<path d="M234.985 63.3047H210.98V67.5474H234.985V63.3047Z" fill="#9ED6BE"/>
<path d="M114.352 117.416H92.6821V217.231H114.352V117.416Z" fill="#9ED6BE"/>
<path d="M89.8096 114.279H117.215L114.352 117.416H92.6821L89.8096 114.279Z" fill="#9ED6BE"/>
<path opacity="0.1" d="M89.8096 114.279H117.215L114.352 117.416H92.6821L89.8096 114.279Z" fill="black"/>
<path d="M117.215 112.422H89.8096V114.279H117.215V112.422Z" fill="#9ED6BE"/>
<path opacity="0.4" d="M117.215 112.422H89.8096V114.279H117.215V112.422Z" fill="white"/>
<path d="M114.819 109.559H92.2151V112.421H114.819V109.559Z" fill="#9ED6BE"/>
<path opacity="0.1" d="M114.819 109.559H92.2151V112.421H114.819V109.559Z" fill="black"/>
<path d="M92.2151 109.558H114.819L104.842 91.1055H102.182L92.2151 109.558Z" fill="#9ED6BE"/>
<path opacity="0.4" d="M92.2151 109.558H114.819L104.842 91.1055H102.182L92.2151 109.558Z" fill="white"/>
<path d="M104.517 89.2598H102.507V91.5841H104.517V89.2598Z" fill="#9ED6BE"/>
<path d="M103.512 89.9586C104.392 89.9586 105.106 89.2451 105.106 88.365C105.106 87.4849 104.392 86.7715 103.512 86.7715C102.632 86.7715 101.919 87.4849 101.919 88.365C101.919 89.2451 102.632 89.9586 103.512 89.9586Z" fill="#9ED6BE"/>
<path opacity="0.4" d="M101.919 121.424H96.0925V124.134H101.919V121.424Z" fill="white"/>
<path opacity="0.4" d="M110.932 121.424H105.106V124.134H110.932V121.424Z" fill="white"/>
<path opacity="0.4" d="M101.919 126.875H96.0925V129.585H101.919V126.875Z" fill="white"/>
<path opacity="0.4" d="M110.932 126.875H105.106V129.585H110.932V126.875Z" fill="white"/>
<path opacity="0.4" d="M101.919 132.336H96.0925V135.046H101.919V132.336Z" fill="white"/>
<path opacity="0.4" d="M110.932 132.336H105.106V135.046H110.932V132.336Z" fill="white"/>
<path opacity="0.4" d="M101.919 137.787H96.0925V140.497H101.919V137.787Z" fill="white"/>
<path opacity="0.4" d="M110.932 137.787H105.106V140.497H110.932V137.787Z" fill="white"/>
<path opacity="0.4" d="M101.919 143.236H96.0925V145.946H101.919V143.236Z" fill="white"/>
<path opacity="0.4" d="M110.932 143.236H105.106V145.946H110.932V143.236Z" fill="white"/>
<path opacity="0.4" d="M101.919 148.697H96.0925V151.407H101.919V148.697Z" fill="white"/>
<path opacity="0.4" d="M110.932 148.697H105.106V151.407H110.932V148.697Z" fill="white"/>
<path opacity="0.4" d="M101.919 154.148H96.0925V156.859H101.919V154.148Z" fill="white"/>
<path opacity="0.4" d="M110.932 154.148H105.106V156.859H110.932V154.148Z" fill="white"/>
<path opacity="0.4" d="M101.919 159.6H96.0925V162.31H101.919V159.6Z" fill="white"/>
<path opacity="0.4" d="M110.932 159.6H105.106V162.31H110.932V159.6Z" fill="white"/>
<path opacity="0.4" d="M101.919 165.049H96.0925V167.759H101.919V165.049Z" fill="white"/>
<path opacity="0.4" d="M110.932 165.049H105.106V167.759H110.932V165.049Z" fill="white"/>
<path opacity="0.4" d="M101.919 170.51H96.0925V173.22H101.919V170.51Z" fill="white"/>
<path opacity="0.4" d="M110.932 170.51H105.106V173.22H110.932V170.51Z" fill="white"/>
<path opacity="0.4" d="M101.919 175.961H96.0925V178.671H101.919V175.961Z" fill="white"/>
<path opacity="0.4" d="M110.932 175.961H105.106V178.671H110.932V175.961Z" fill="white"/>
<path opacity="0.4" d="M101.919 181.41H96.0925V184.12H101.919V181.41Z" fill="white"/>
<path opacity="0.4" d="M110.932 181.41H105.106V184.12H110.932V181.41Z" fill="white"/>
<path opacity="0.4" d="M101.919 186.871H96.0925V189.581H101.919V186.871Z" fill="white"/>
<path opacity="0.4" d="M110.932 186.871H105.106V189.581H110.932V186.871Z" fill="white"/>
<path opacity="0.4" d="M101.919 192.322H96.0925V195.032H101.919V192.322Z" fill="white"/>
<path opacity="0.4" d="M110.932 192.322H105.106V195.032H110.932V192.322Z" fill="white"/>
<path opacity="0.4" d="M101.919 197.773H96.0925V200.483H101.919V197.773Z" fill="white"/>
<path opacity="0.4" d="M110.932 197.773H105.106V200.483H110.932V197.773Z" fill="white"/>
<path opacity="0.4" d="M101.919 203.234H96.0925V205.944H101.919V203.234Z" fill="white"/>
<path opacity="0.4" d="M110.932 203.234H105.106V205.944H110.932V203.234Z" fill="white"/>
<path d="M229.271 182.902H180.591V217.23H229.271V182.902Z" fill="#9ED6BE"/>
<path d="M189.543 119.75L221.557 134.041V182.903H189.543V119.75Z" fill="#9ED6BE"/>
<path opacity="0.4" d="M196.263 138.01H194.547V144.485H196.263V138.01Z" fill="white"/>
<path opacity="0.4" d="M200.566 138.01H198.851V144.485H200.566V138.01Z" fill="white"/>
<path opacity="0.4" d="M204.86 138.01H203.145V144.485H204.86V138.01Z" fill="white"/>
<path opacity="0.4" d="M209.163 138.01H207.448V144.485H209.163V138.01Z" fill="white"/>
<path opacity="0.4" d="M213.467 138.01H211.752V144.485H213.467V138.01Z" fill="white"/>
<path opacity="0.4" d="M217.761 138.01H216.045V144.485H217.761V138.01Z" fill="white"/>
<path opacity="0.4" d="M196.263 147.449H194.547V153.925H196.263V147.449Z" fill="white"/>
<path opacity="0.4" d="M200.566 147.449H198.851V153.925H200.566V147.449Z" fill="white"/>
<path opacity="0.4" d="M204.86 147.449H203.145V153.925H204.86V147.449Z" fill="white"/>
<path opacity="0.4" d="M209.163 147.449H207.448V153.925H209.163V147.449Z" fill="white"/>
<path opacity="0.4" d="M213.467 147.449H211.752V153.925H213.467V147.449Z" fill="white"/>
<path opacity="0.4" d="M217.761 147.449H216.045V153.925H217.761V147.449Z" fill="white"/>
<path opacity="0.4" d="M196.263 156.879H194.547V163.355H196.263V156.879Z" fill="white"/>
<path opacity="0.4" d="M200.566 156.879H198.851V163.355H200.566V156.879Z" fill="white"/>
<path opacity="0.4" d="M204.86 156.879H203.145V163.355H204.86V156.879Z" fill="white"/>
<path opacity="0.4" d="M209.163 156.879H207.448V163.355H209.163V156.879Z" fill="white"/>
<path opacity="0.4" d="M213.467 156.879H211.752V163.355H213.467V156.879Z" fill="white"/>
<path opacity="0.4" d="M217.761 156.879H216.045V163.355H217.761V156.879Z" fill="white"/>
<path opacity="0.4" d="M196.263 166.309H194.547V172.784H196.263V166.309Z" fill="white"/>
<path opacity="0.4" d="M200.566 166.309H198.851V172.784H200.566V166.309Z" fill="white"/>
<path opacity="0.4" d="M204.86 166.309H203.145V172.784H204.86V166.309Z" fill="white"/>
<path opacity="0.4" d="M209.163 166.309H207.448V172.784H209.163V166.309Z" fill="white"/>
<path opacity="0.4" d="M213.467 166.309H211.752V172.784H213.467V166.309Z" fill="white"/>
<path opacity="0.4" d="M217.761 166.309H216.045V172.784H217.761V166.309Z" fill="white"/>
<path opacity="0.4" d="M196.263 175.736H194.547V182.212H196.263V175.736Z" fill="white"/>
<path opacity="0.4" d="M200.566 175.736H198.851V182.212H200.566V175.736Z" fill="white"/>
<path opacity="0.4" d="M204.86 175.736H203.145V182.212H204.86V175.736Z" fill="white"/>
<path opacity="0.4" d="M209.163 175.736H207.448V182.212H209.163V175.736Z" fill="white"/>
<path opacity="0.4" d="M213.467 175.736H211.752V182.212H213.467V175.736Z" fill="white"/>
<path opacity="0.4" d="M217.761 175.736H216.045V182.212H217.761V175.736Z" fill="white"/>
<path opacity="0.4" d="M188.955 188.455H187.239V195.966H188.955V188.455Z" fill="white"/>
<path opacity="0.4" d="M193.248 188.455H191.533V195.966H193.248V188.455Z" fill="white"/>
<path opacity="0.4" d="M197.552 188.455H195.837V195.966H197.552V188.455Z" fill="white"/>
<path opacity="0.4" d="M201.855 188.455H200.14V195.966H201.855V188.455Z" fill="white"/>
<path opacity="0.4" d="M206.149 188.455H204.434V195.966H206.149V188.455Z" fill="white"/>
<path opacity="0.4" d="M210.453 188.455H208.737V195.966H210.453V188.455Z" fill="white"/>
<path opacity="0.4" d="M214.756 188.455H213.041V195.966H214.756V188.455Z" fill="white"/>
<path opacity="0.4" d="M219.05 188.455H217.334V195.966H219.05V188.455Z" fill="white"/>
<path opacity="0.4" d="M223.353 188.455H221.638V195.966H223.353V188.455Z" fill="white"/>
<path opacity="0.4" d="M188.955 200.635H187.239V208.146H188.955V200.635Z" fill="white"/>
<path opacity="0.4" d="M193.248 200.635H191.533V208.146H193.248V200.635Z" fill="white"/>
<path opacity="0.4" d="M197.552 200.635H195.837V208.146H197.552V200.635Z" fill="white"/>
<path opacity="0.4" d="M201.855 200.635H200.14V208.146H201.855V200.635Z" fill="white"/>
<path opacity="0.4" d="M206.149 200.635H204.434V208.146H206.149V200.635Z" fill="white"/>
<path opacity="0.4" d="M210.453 200.635H208.737V208.146H210.453V200.635Z" fill="white"/>
<path opacity="0.4" d="M214.756 200.635H213.041V208.146H214.756V200.635Z" fill="white"/>
<path opacity="0.4" d="M219.05 200.635H217.334V208.146H219.05V200.635Z" fill="white"/>
<path opacity="0.4" d="M223.353 200.635H221.638V208.146H223.353V200.635Z" fill="white"/>
<path d="M87.5258 155.65H43.5154V217.241H87.5258V155.65Z" fill="#9ED6BE"/>
<path d="M88.886 152.332H42.1554V155.641H88.886V152.332Z" fill="#9ED6BE"/>
<path opacity="0.4" d="M58.2228 163.01H49.4633V168.917H58.2228V163.01Z" fill="white"/>
<path opacity="0.4" d="M69.8953 163.01H61.1358V168.917H69.8953V163.01Z" fill="white"/>
<path opacity="0.4" d="M81.5678 163.01H72.8083V168.917H81.5678V163.01Z" fill="white"/>
<path opacity="0.4" d="M58.2228 172.551H49.4633V178.458H58.2228V172.551Z" fill="white"/>
<path opacity="0.4" d="M69.8953 172.551H61.1358V178.458H69.8953V172.551Z" fill="white"/>
<path opacity="0.4" d="M81.5678 172.551H72.8083V178.458H81.5678V172.551Z" fill="white"/>
<path opacity="0.4" d="M58.2228 182.102H49.4633V188.009H58.2228V182.102Z" fill="white"/>
<path opacity="0.4" d="M69.8953 182.102H61.1358V188.009H69.8953V182.102Z" fill="white"/>
<path opacity="0.4" d="M81.5678 182.102H72.8083V188.009H81.5678V182.102Z" fill="white"/>
<path opacity="0.4" d="M58.2228 191.652H49.4633V197.56H58.2228V191.652Z" fill="white"/>
<path opacity="0.4" d="M69.8953 191.652H61.1358V197.56H69.8953V191.652Z" fill="white"/>
<path opacity="0.4" d="M81.5678 191.652H72.8083V197.56H81.5678V191.652Z" fill="white"/>
<path opacity="0.4" d="M58.2228 201.203H49.4633V207.11H58.2228V201.203Z" fill="white"/>
<path opacity="0.4" d="M69.8953 201.203H61.1358V207.11H69.8953V201.203Z" fill="white"/>
<path opacity="0.4" d="M81.5678 201.203H72.8083V207.11H81.5678V201.203Z" fill="white"/>
<path d="M277.595 213.951H14.3951C11.3288 213.951 8.84305 216.437 8.84305 219.503V220.072C8.84305 223.138 11.3288 225.624 14.3951 225.624H277.595C280.661 225.624 283.147 223.138 283.147 220.072V219.503C283.147 216.437 280.661 213.951 277.595 213.951Z" fill="#24285B"/>
</g>
<defs>
<clipPath id="clip0_5487_35009">
<rect width="292" height="226" fill="white"/>
</clipPath>
</defs>
</svg>
