<svg width="28" height="28" viewBox="0 0 28 28" fill="none" xmlns="http://www.w3.org/2000/svg">
<path d="M1.79492 15.166C1.79843 13.7638 2.01982 12.2361 2.54718 10.7581C3.06674 9.30235 3.83849 7.98989 4.85306 6.81646C5.15436 6.46794 5.47241 6.13366 5.81892 5.83097C6.54584 5.19592 7.32187 4.62519 8.18015 4.16999C9.3861 3.53071 10.6782 3.16947 12.0291 2.99733C12.7802 2.90144 13.5344 2.85869 14.2918 2.87525C14.6733 2.88334 15.0541 2.90644 15.4342 2.94072C15.5932 2.95497 15.5948 2.95959 15.5425 3.11248C15.1496 4.26049 14.7556 5.40812 14.3654 6.5569C14.3338 6.64932 14.291 6.68745 14.1869 6.69207C13.2164 6.73751 12.2692 6.90465 11.3677 7.27359C9.79965 7.91557 8.60188 8.97539 7.76114 10.4299C7.1418 11.5017 6.79802 12.6597 6.64952 13.8805C6.57273 14.5133 6.54896 15.1479 6.57234 15.7834C6.6273 17.2714 6.94107 18.6979 7.65435 20.023C8.39647 21.4021 9.45821 22.4639 10.8746 23.1678C11.7041 23.5803 12.5853 23.8233 13.5087 23.9203C14.6168 24.037 15.7113 23.9762 16.7843 23.6654C18.5578 23.152 19.8807 22.0861 20.7475 20.4744C20.8165 20.3458 20.891 20.3072 21.0321 20.3076C22.7007 20.3122 24.3693 20.3107 26.0379 20.3107C26.0624 20.3107 26.0878 20.313 26.1119 20.3107C26.202 20.3015 26.2238 20.33 26.1903 20.4178C26.0765 20.7151 25.958 21.0105 25.8251 21.3001C25.203 22.656 24.3549 23.8533 23.2448 24.8639C22.2388 25.7796 21.0979 26.489 19.8374 27.0101C18.6942 27.4826 17.5035 27.7687 16.273 27.9028C15.6435 27.9713 15.0121 28.0075 14.3795 27.9986C12.5865 27.974 10.8509 27.6621 9.20018 26.95C7.99579 26.4305 6.89468 25.7481 5.91597 24.8785C4.29998 23.4428 3.16146 21.6975 2.46884 19.6664C2.16053 18.7629 1.97149 17.8333 1.87638 16.8844C1.82415 16.3664 1.79531 15.8473 1.79492 15.1664V15.166Z" fill="#9ECAFC"/>
<path d="M14.8837 17.2804C14.9455 17.0883 15.0082 16.8961 15.0693 16.7036C15.8259 14.323 16.5817 11.9427 17.3382 9.56205C18.1041 7.15163 18.8703 4.74121 19.6358 2.33079C19.8685 1.59819 20.1019 0.865977 20.3293 0.131833C20.361 0.0297715 20.4069 -0.000382935 20.5087 3.65979e-06C21.892 0.00348302 23.275 0.00232314 24.6583 0.00232314C24.7858 0.00232314 24.7873 0.00309639 24.7429 0.12758C24.1214 1.86958 23.4998 3.61158 22.8779 5.35357C22.3171 6.9247 21.7567 8.49582 21.1959 10.0666C20.4132 12.2585 19.6299 14.4505 18.8472 16.6425C18.452 17.7501 18.056 18.8573 17.6649 19.9669C17.6283 20.0709 17.5798 20.1026 17.4751 20.1026C15.7099 20.0995 13.9444 20.0999 12.1793 20.1026C12.0823 20.1026 12.0327 20.0801 11.9969 19.9761C11.7732 19.3286 11.5405 18.6845 11.3105 18.0393C11.0394 17.2796 10.7672 16.5204 10.4969 15.7603C10.2944 15.1901 10.0942 14.6191 9.89285 14.0489C9.83245 13.8784 9.77391 13.7071 9.70791 13.539C9.67547 13.4562 9.6915 13.4334 9.77838 13.4249C10.4309 13.3607 11.0827 13.2908 11.7348 13.2231C12.2896 13.1655 12.8445 13.1114 13.3989 13.0499C13.5018 13.0383 13.5234 13.0959 13.5484 13.1752C13.9675 14.5004 14.3881 15.8249 14.8087 17.1497C14.8229 17.195 14.8397 17.2394 14.8553 17.2839C14.8646 17.2831 14.8743 17.282 14.8837 17.2812V17.2804Z" fill="#A5F2D3"/>
</svg>
