<svg width="214" height="182" viewBox="0 0 214 182" fill="none" xmlns="http://www.w3.org/2000/svg">
<g clip-path="url(#clip0_7144_13739)">
<path d="M209.44 2.58203C212.805 2.58203 214.145 4.36981 213.475 7.50668L175.605 177.737C174.934 180.421 173.363 181.77 170.673 181.77H148.264C145.569 181.77 144.002 180.426 143.332 177.737L105.683 7.50668C105.013 4.37453 106.358 2.58203 109.719 2.58203H131.009C133.699 2.58203 135.266 3.92169 135.936 6.61515L159.468 126.665L183.222 6.61515C183.897 3.92169 185.464 2.58203 188.154 2.58203H209.444H209.44Z" fill="white"/>
<path d="M90.8495 57.2553C90.8495 59.5054 89.4949 60.8592 87.2437 60.8592H64.7121C62.2343 60.8592 61.1063 59.5101 61.1063 57.2553V39.236C61.1063 33.3821 57.9536 30.231 52.0918 30.231H40.3777C34.2941 30.231 31.3679 33.3821 31.3679 39.236V141.922C31.3679 148.003 34.5206 150.927 40.3777 150.927H52.0918C57.9536 150.927 61.1063 148.003 61.1063 141.922V123.903C61.1063 121.653 62.2343 120.299 64.7121 120.299H87.2437C89.4949 120.299 90.8495 121.648 90.8495 123.903V148.225C90.8495 169.39 79.3572 180.65 58.402 180.65H33.1708C11.9891 180.65 0.501465 169.39 0.501465 148.225V32.9339C0.501465 11.7683 11.9938 0.503906 33.1708 0.503906H58.402C79.3572 0.503906 90.8495 11.7636 90.8495 32.9339V57.2553Z" fill="url(#paint0_linear_7144_13739)"/>
<path d="M72.2305 6.227C73.0989 5.37792 77.7147 7.3874 80.7495 10.3922C83.4633 13.0762 84.4119 16.0621 84.7281 17.0858C85.0774 18.232 84.9688 18.3547 85.7004 24.4586C86.1582 28.3124 86.262 28.7653 86.0307 28.8455C85.0915 29.1851 82.3258 22.3217 75.3077 11.963C73.0517 8.63272 71.6264 6.81663 72.2352 6.22228L72.2305 6.227Z" fill="white"/>
<path d="M27.2664 90.5822C28.8711 90.6813 28.1585 124.72 28.1585 124.725C28.1585 124.725 25.8553 126.423 25.1473 126.314C22.1928 125.861 25.6287 90.4832 27.2664 90.5822Z" fill="#DAE6FD"/>
<path opacity="0.6" d="M78.4368 123.778C78.7294 123.302 79.2864 123.661 84.4638 123.491C84.9027 123.477 85.6673 123.448 86.2997 123.887C86.8897 124.297 87.0973 124.92 87.2767 125.783C87.6307 127.472 87.5835 128.623 87.6071 130.17C87.6495 132.826 87.8525 133.623 87.4608 133.769C86.9416 133.958 85.9835 132.793 85.1576 131.826C80.2114 126.014 77.8421 124.736 78.4321 123.778H78.4368Z" fill="white"/>
</g>
<defs>
<linearGradient id="paint0_linear_7144_13739" x1="109.468" y1="53.7882" x2="-18.0596" y2="127.453" gradientUnits="userSpaceOnUse">
<stop stop-color="#DAE6FD"/>
<stop offset="0.16" stop-color="#D4E1F9"/>
<stop offset="0.36" stop-color="#C6D4ED"/>
<stop offset="0.57" stop-color="#ADBEDA"/>
<stop offset="0.8" stop-color="#8B9FC0"/>
<stop offset="1" stop-color="#667EA3"/>
</linearGradient>
<clipPath id="clip0_7144_13739">
<rect width="214" height="182" fill="white"/>
</clipPath>
</defs>
</svg>
