<svg width="496" height="73" viewBox="0 0 496 73" fill="none" xmlns="http://www.w3.org/2000/svg">
<g clip-path="url(#clip0_11033_32242)">
<path d="M63.0386 60.5934L84.6077 60.6524C85.6036 60.6566 86.0574 61.2044 86.0532 62.1104L86.028 71.1997C86.0238 72.1983 85.57 72.6534 84.5741 72.6492L52.1342 72.5607C51.2266 72.5565 50.6845 72.1014 50.6887 71.1028L50.882 1.30896C50.8862 0.398772 51.4283 -0.144815 52.3359 -0.140601L61.7611 -0.115315C62.757 -0.111102 63.2109 0.436697 63.2066 1.34267L63.0386 60.5934Z" fill="white"/>
<path d="M129.607 10.6162C129.603 11.5264 129.242 12.1585 128.154 12.1585L105.496 12.0953L105.446 30.2695L122.754 30.3159C123.662 30.3201 124.204 30.8637 124.199 31.8666L124.174 40.8631C124.17 41.8618 123.624 42.4054 122.72 42.4054L105.412 42.359L105.362 60.7145L128.019 60.7777C129.107 60.7819 129.469 61.237 129.465 62.2357L129.439 71.3249C129.435 72.2351 129.074 72.7787 127.985 72.7745L94.638 72.6818C93.8228 72.6776 93.2808 72.134 93.2808 71.2238L93.4741 1.43005C93.4783 0.519865 94.0245 -0.0237208 94.8397 -0.0195069L128.187 0.073198C129.275 0.0774118 129.637 0.62521 129.633 1.53118L129.607 10.6162Z" fill="white"/>
<path d="M169.85 72.8886C169.035 72.8844 168.581 72.4293 168.405 71.6118L165.905 58.334L149.773 58.2877L147.29 71.5486C147.109 72.3661 146.651 72.817 145.836 72.817L136.142 72.7917C135.146 72.7875 134.692 72.2439 134.969 71.2452L150.206 1.40512C150.391 0.494932 150.933 0.132541 151.748 0.136755L164.346 0.170467C165.161 0.17468 165.703 0.53707 165.884 1.44726L180.734 71.3717C180.914 72.3703 180.549 72.9139 179.46 72.9139L169.85 72.8886ZM157.959 16.0566L152.071 47.7573L163.669 47.791L157.959 16.0566Z" fill="white"/>
<path d="M226.238 35.6047C226.221 41.6937 223.943 45.6842 219.59 47.5805L225.775 71.4055C226.044 72.4969 225.498 73.0405 224.502 73.0362L215.077 73.011C214.174 73.0067 213.72 72.5517 213.543 71.7342L207.534 48.6339L201.282 48.6171L201.219 71.5193C201.214 72.4295 200.672 72.973 199.765 72.9688L190.34 72.9435C189.432 72.9393 188.89 72.3957 188.894 71.4856L189.087 1.69177C189.092 0.781581 189.634 0.237998 190.541 0.242212L213.287 0.30542C221.805 0.330703 226.322 4.88586 226.301 13.4273L226.238 35.6047ZM210.283 36.6498C212.64 36.6582 213.913 35.3856 213.917 33.0259L213.964 15.943C213.972 13.579 212.707 12.3022 210.35 12.298L201.378 12.2727L201.311 36.6287L210.283 36.6498Z" fill="white"/>
<path d="M275.633 0.0939539C276.994 0.0981677 277.532 0.827162 277.259 2.09974L261.753 71.1224C261.476 72.2138 260.841 72.7573 259.753 72.7531L250.689 72.7278C249.601 72.7236 248.971 72.18 248.702 71.0844L233.671 1.97754C233.402 0.704961 233.948 -0.0198206 235.31 -0.0156067L243.92 0.00967526C245.008 0.0138891 245.638 0.561688 245.907 1.65307L255.286 50.3903L265.027 1.69942C265.3 0.608041 265.939 0.0644581 267.027 0.0686719L275.633 0.0939539Z" fill="white"/>
<path d="M295.483 0.150306C296.391 0.15452 296.933 0.702318 296.929 1.60829L296.735 71.4021C296.731 72.3123 296.189 72.8558 295.281 72.8516L285.856 72.8263C284.86 72.8221 284.406 72.2785 284.411 71.3684L284.604 1.57459C284.608 0.664396 285.062 0.12081 286.058 0.125024L295.483 0.150306Z" fill="white"/>
<path d="M342.273 23.1804C342.269 24.0905 341.727 24.6341 340.819 24.6299L331.755 24.6046C330.759 24.6004 330.305 24.0568 330.31 23.1466L330.331 15.8778C330.339 13.5138 329.07 12.237 326.717 12.2328L322.006 12.2202C319.561 12.2117 318.376 13.4843 318.372 15.8441L318.258 57.2829C318.25 59.7354 319.515 60.9195 321.872 60.9279L326.582 60.9405C328.94 60.949 330.213 59.7691 330.217 57.3166L330.238 50.0478C330.242 49.1376 330.696 48.594 331.692 48.5982L340.756 48.6235C341.664 48.6277 342.206 49.1755 342.201 50.0815L342.176 59.8955C342.151 68.437 337.52 72.9668 329.091 72.9458L318.943 72.9163C310.426 72.891 305.816 68.3358 305.841 59.7944L305.971 13.2652C305.997 4.72375 310.631 0.189666 319.149 0.214949L329.297 0.244446C337.726 0.269729 342.332 4.82489 342.311 13.3663L342.273 23.1804Z" fill="white"/>
<path d="M381.667 0.389604C382.663 0.393818 383.117 0.941616 383.113 1.84759L383.088 10.9368C383.083 11.847 382.63 12.3906 381.634 12.3864L371.12 12.3569L370.956 71.6076C370.952 72.6063 370.498 73.0614 369.502 73.0572L360.077 73.0319C359.169 73.0277 358.627 72.5726 358.632 71.5739L358.795 12.3232L348.282 12.2937C347.374 12.2895 346.832 11.7459 346.836 10.8357L346.862 1.74646C346.866 0.836271 347.408 0.292685 348.316 0.296899L381.667 0.389604Z" fill="white"/>
<path d="M401.245 0.443278C402.152 0.447492 402.694 0.99529 402.69 1.90127L402.497 71.695C402.493 72.6052 401.951 73.1488 401.043 73.1446L391.618 73.1193C390.622 73.1151 390.168 72.5715 390.172 71.6613L390.365 1.86755C390.37 0.957365 390.823 0.413779 391.819 0.417993L401.245 0.443278Z" fill="white"/>
<path d="M411.72 13.5621C411.745 5.02063 416.288 0.486541 424.805 0.511824L434.953 0.541321C443.471 0.566604 447.988 5.12176 447.967 13.6632L447.837 60.1924C447.812 68.7338 443.269 73.2637 434.752 73.2427L424.604 73.2132C416.086 73.1879 411.569 68.6327 411.59 60.0913L411.72 13.5621ZM432.52 61.5113C434.878 61.5198 436.151 60.3399 436.155 57.8874L436.273 15.905C436.281 13.541 435.012 12.2642 432.659 12.26L427.402 12.2474C425.045 12.2389 423.772 13.5115 423.767 15.8713L423.65 57.8537C423.641 60.3104 424.91 61.4945 427.264 61.4987L432.52 61.5113Z" fill="white"/>
<path d="M494.316 0.706624C495.223 0.710838 495.766 1.25864 495.761 2.16461L495.568 71.9584C495.564 72.8686 495.022 73.4122 494.114 73.408L485.143 73.3827C484.328 73.3785 483.785 73.0161 483.517 72.1944L469.759 33.3512H469.305L469.2 71.8825C469.196 72.7927 468.742 73.3363 467.746 73.3321L458.321 73.3068C457.418 73.3026 456.871 72.759 456.876 71.8488L457.069 2.05505C457.073 1.14487 457.619 0.601279 458.523 0.605493L467.494 0.630775C468.309 0.634989 468.851 0.997379 469.12 1.81908L482.79 40.481H483.332L483.437 2.1309C483.441 1.22071 483.895 0.677128 484.891 0.681342L494.316 0.706624Z" fill="white"/>
<path d="M36.452 23.0202C36.452 23.9346 35.9058 24.4824 34.9939 24.4824H25.8839C24.8838 24.4824 24.4258 23.9346 24.4258 23.0202V15.7092C24.4258 13.3326 23.1526 12.0558 20.7826 12.0558H16.0469C13.5887 12.0558 12.4037 13.3326 12.4037 15.7092V57.3714C12.4037 59.8365 13.6769 61.0248 16.0469 61.0248H20.7826C23.1526 61.0248 24.4258 59.8365 24.4258 57.3714V50.0604C24.4258 49.146 24.8838 48.5982 25.8839 48.5982H34.9939C35.9058 48.5982 36.452 49.146 36.452 50.0604V59.9292C36.452 68.517 31.8046 73.0848 23.3333 73.0848H13.1307C4.5669 73.0848 -0.0805664 68.517 -0.0805664 59.9292V13.1556C-0.0805664 4.5678 4.5669 0 13.1307 0H23.3333C31.8046 0 36.452 4.5678 36.452 13.1556V23.0202Z" fill="url(#paint0_linear_11033_32242)"/>
<path d="M43.3812 46.5178C43.7972 46.6779 43.9275 46.9687 43.7552 47.3437L42.5366 49.99C42.3643 50.3692 42.045 50.4872 41.629 50.3271L38.4858 49.1219C38.1665 48.9997 37.969 48.8565 37.7799 48.6121L35.8722 46.0332C35.7503 45.8857 35.7293 45.7719 35.8091 45.5992L36.4142 44.2887C36.452 44.217 36.5193 44.1285 36.6285 44.0948C36.7126 44.0653 36.7924 44.0822 36.8344 44.0906C37.553 44.2465 39.9355 45.1946 39.9355 45.1946C40.0364 45.2368 40.2129 45.3042 40.4398 45.3843L43.3812 46.5178Z" fill="url(#paint1_linear_11033_32242)"/>
<path d="M43.3812 38.0764C43.7972 37.9205 43.9359 37.6466 43.7762 37.2884L42.6416 34.7769C42.4778 34.4188 42.1668 34.3092 41.7508 34.4609L38.5993 35.6239C38.2757 35.7419 38.0782 35.881 37.8807 36.1127L35.9184 38.5778C35.7965 38.7211 35.7671 38.8264 35.8427 38.9908L36.4016 40.2339C36.4394 40.3013 36.5024 40.3856 36.6075 40.4193C36.6915 40.4446 36.7714 40.4319 36.8092 40.4235C37.5235 40.2718 39.9145 39.3532 39.9145 39.3532C40.0154 39.3152 40.1918 39.2478 40.4188 39.1678L43.3812 38.0764Z" fill="url(#paint2_linear_11033_32242)"/>
<path d="M28.922 2.31798C29.2708 1.97244 31.1407 2.78993 32.3677 4.00773C33.4645 5.0949 33.851 6.30848 33.9771 6.72565C34.12 7.18917 34.0738 7.23974 34.3679 9.71747C34.5528 11.2808 34.5948 11.462 34.5024 11.4999C34.1242 11.639 33.0022 8.85364 30.1658 4.64823C29.254 3.29559 28.6783 2.56238 28.922 2.31798Z" fill="white"/>
<path d="M10.7397 36.543C11.391 36.581 11.1011 50.3939 11.1011 50.3939C11.1011 50.3939 10.1682 51.085 9.88246 51.0386C8.68908 50.8575 10.08 36.5051 10.7397 36.543Z" fill="#DAE6FD"/>
<path opacity="0.6" d="M31.4348 50.0106C31.5524 49.8167 31.7793 49.96 33.872 49.8926C34.0484 49.8884 34.3594 49.8757 34.6157 50.0527C34.8552 50.2171 34.9393 50.4741 35.0107 50.8196C35.1536 51.5023 35.1326 51.9742 35.1452 52.6021C35.162 53.6808 35.246 54.0053 35.0864 54.0601C34.8762 54.1359 34.4897 53.664 34.1535 53.2721C32.1533 50.9208 31.1952 50.4025 31.4348 50.0106Z" fill="white"/>
</g>
<defs>
<linearGradient id="paint0_linear_11033_32242" x1="43.9825" y1="21.6147" x2="-7.67249" y2="51.3543" gradientUnits="userSpaceOnUse">
<stop stop-color="#DAE6FD"/>
<stop offset="0.1616" stop-color="#D5E1F9"/>
<stop offset="0.3573" stop-color="#C6D4EE"/>
<stop offset="0.5709" stop-color="#AEBEDA"/>
<stop offset="0.7954" stop-color="#8CA0C0"/>
<stop offset="1" stop-color="#667EA3"/>
</linearGradient>
<linearGradient id="paint1_linear_11033_32242" x1="43.829" y1="47.2399" x2="35.7575" y2="47.2399" gradientUnits="userSpaceOnUse">
<stop offset="0.000339888" stop-color="#DAE6FD"/>
<stop offset="1" stop-color="#4E6C99"/>
</linearGradient>
<linearGradient id="paint2_linear_11033_32242" x1="43.8403" y1="37.4143" x2="35.7997" y2="37.4143" gradientUnits="userSpaceOnUse">
<stop offset="0.000339888" stop-color="#DAE6FD"/>
<stop offset="1" stop-color="#4E6C99"/>
</linearGradient>
<clipPath id="clip0_11033_32242">
<rect width="496" height="73" fill="white"/>
</clipPath>
</defs>
</svg>

