<?xml version="1.0" encoding="UTF-8"?><svg id="Layer_1" xmlns="http://www.w3.org/2000/svg" viewBox="0 0 4850.78 827.03"><defs><style>.cls-1{fill:#aad4bf;}.cls-1,.cls-2{stroke-width:0px;}.cls-2{fill:#799fcd;}</style></defs><path class="cls-2" d="M57.39,278.16c16.96-29.73,37.33-55.84,61.12-78.35,2.23-2.11,30.45-28.5,65.1-47.89,87.18-48.78,189.09-38.67,217.42-35.12-13,38.38-26,76.76-39,115.13-25.17.2-67.7,4.23-107.84,28.33-14.8,8.89-25.56,18.26-28.8,21.16-18.05,16.11-32.97,35.73-44.75,58.85-17.57,34.46-26.34,74.89-26.34,121.26s8.78,85.98,26.34,120.77c17.55,34.79,42.08,61.63,73.55,80.51,31.47,18.89,67.42,28.33,107.84,28.33,37.77,0,71.07-8.45,99.9-25.34,28.82-16.9,51.19-41.91,67.1-75.04h160.02c-23.2,70.91-63.79,126.08-121.76,165.49-58,39.43-126.08,59.14-204.26,59.14-66.27,0-126.08-15.07-179.41-45.23-53.35-30.14-95.42-72.06-126.23-125.73-30.82-53.67-46.23-114.63-46.23-182.89s15.41-129.37,46.23-183.38Z"/><path class="cls-1" d="M371.66,461.29L517.26,19.29h154.97l-213.21,576.16h-176.79c-25.52-69.31-51.05-138.63-76.57-207.94,45.74-4.53,91.48-9.07,137.22-13.6,9.59,29.13,19.19,58.25,28.78,87.38Z"/><path class="cls-2" d="M873.02,145.95c12.4-21.73,29.33-38.66,50.8-50.8,21.46-12.13,45.53-18.2,72.2-18.2,31.2,0,58.53,8,82,24,23.46,16,39.86,38.14,49.2,66.4h-64.4c-6.4-13.33-15.4-23.33-27-30-11.6-6.66-25-10-40.2-10-16.27,0-30.74,3.8-43.4,11.4-12.67,7.6-22.54,18.34-29.6,32.2-7.07,13.87-10.6,30.14-10.6,48.8s3.53,34.6,10.6,48.6c7.06,14,16.93,24.8,29.6,32.4,12.66,7.6,27.13,11.4,43.4,11.4,15.2,0,28.6-3.4,40.2-10.2s20.6-16.86,27-30.2h64.4c-9.34,28.54-25.67,50.74-49,66.6-23.34,15.87-50.74,23.8-82.2,23.8-26.67,0-50.74-6.06-72.2-18.2-21.47-12.13-38.4-29-50.8-50.6-12.4-21.6-18.6-46.13-18.6-73.6s6.2-52.06,18.6-73.8Z"/><path class="cls-2" d="M1224.81,349.15c-17.07-9.46-30.47-22.86-40.2-40.2-9.74-17.33-14.6-37.33-14.6-60s5-42.66,15-60c10-17.33,23.66-30.73,41-40.2,17.33-9.46,36.66-14.2,58-14.2s40.66,4.74,58,14.2c17.33,9.47,31,22.87,41,40.2,10,17.34,15,37.34,15,60s-5.14,42.67-15.4,60c-10.27,17.34-24.14,30.74-41.6,40.2-17.47,9.47-37,14.2-58.6,14.2s-40.54-4.73-57.6-14.2ZM1311.01,307.15c8.93-4.93,16.06-12.33,21.4-22.2,5.33-9.86,8-21.86,8-36,0-21.06-5.54-37.26-16.6-48.6-11.07-11.33-24.6-17-40.6-17s-29.4,5.67-40.2,17c-10.8,11.34-16.2,27.54-16.2,48.6s5.26,37.27,15.8,48.6c10.53,11.34,23.8,17,39.8,17,10.13,0,19.66-2.46,28.6-7.4Z"/><path class="cls-2" d="M1634.81,159.95c16.26,16.67,24.4,39.94,24.4,69.8v130h-56v-122.4c0-17.6-4.4-31.13-13.2-40.6-8.8-9.46-20.8-14.2-36-14.2s-27.67,4.74-36.6,14.2c-8.94,9.47-13.4,23-13.4,40.6v122.4h-56v-221.6h56v27.6c7.46-9.6,17-17.13,28.6-22.6,11.6-5.46,24.33-8.2,38.2-8.2,26.4,0,47.73,8.34,64,25Z"/><path class="cls-2" d="M1813.61,308.15l56-170h59.6l-82,221.6h-68l-81.6-221.6h60l56,170Z"/><path class="cls-2" d="M1973.41,102.35c-6.54-6.26-9.8-14.06-9.8-23.4s3.26-17.13,9.8-23.4c6.53-6.26,14.73-9.4,24.6-9.4s18.06,3.14,24.6,9.4c6.53,6.27,9.8,14.07,9.8,23.4s-3.27,17.14-9.8,23.4c-6.54,6.27-14.74,9.4-24.6,9.4s-18.07-3.13-24.6-9.4ZM2025.61,138.15v221.6h-56v-221.6h56Z"/><path class="cls-2" d="M2089.21,188.75c9.33-17.2,22.26-30.53,38.8-40,16.53-9.46,35.46-14.2,56.8-14.2,27.46,0,50.2,6.87,68.2,20.6,18,13.74,30.06,33,36.2,57.8h-60.4c-3.2-9.6-8.6-17.13-16.2-22.6-7.6-5.46-17-8.2-28.2-8.2-16,0-28.67,5.8-38,17.4-9.34,11.6-14,28.07-14,49.4s4.66,37.4,14,49c9.33,11.6,22,17.4,38,17.4,22.66,0,37.46-10.13,44.4-30.4h60.4c-6.14,24-18.27,43.07-36.4,57.2-18.14,14.14-40.8,21.2-68,21.2-21.34,0-40.27-4.73-56.8-14.2-16.54-9.46-29.47-22.8-38.8-40-9.34-17.2-14-37.26-14-60.2s4.66-43,14-60.2Z"/><path class="cls-2" d="M2404.4,184.15v107.2c0,7.47,1.8,12.87,5.4,16.2,3.6,3.34,9.66,5,18.2,5h26v47.2h-35.2c-47.2,0-70.8-22.93-70.8-68.8v-106.8h-26.4v-46h26.4v-54.8h56.4v54.8h49.6v46h-49.6Z"/><path class="cls-2" d="M2507,102.35c-6.54-6.26-9.8-14.06-9.8-23.4s3.26-17.13,9.8-23.4c6.53-6.26,14.73-9.4,24.6-9.4s18.06,3.14,24.6,9.4c6.53,6.27,9.8,14.07,9.8,23.4s-3.27,17.14-9.8,23.4c-6.54,6.27-14.74,9.4-24.6,9.4s-18.07-3.13-24.6-9.4ZM2559.2,138.15v221.6h-56v-221.6h56Z"/><path class="cls-2" d="M2664,349.15c-17.07-9.46-30.47-22.86-40.2-40.2-9.74-17.33-14.6-37.33-14.6-60s5-42.66,15-60c10-17.33,23.66-30.73,41-40.2,17.33-9.46,36.66-14.2,58-14.2s40.66,4.74,58,14.2c17.33,9.47,31,22.87,41,40.2,10,17.34,15,37.34,15,60s-5.14,42.67-15.4,60c-10.27,17.34-24.14,30.74-41.6,40.2-17.47,9.47-37,14.2-58.6,14.2s-40.54-4.73-57.6-14.2ZM2750.2,307.15c8.93-4.93,16.06-12.33,21.4-22.2,5.33-9.86,8-21.86,8-36,0-21.06-5.54-37.26-16.6-48.6-11.07-11.33-24.6-17-40.6-17s-29.4,5.67-40.2,17c-10.8,11.34-16.2,27.54-16.2,48.6s5.26,37.27,15.8,48.6c10.53,11.34,23.8,17,39.8,17,10.13,0,19.66-2.46,28.6-7.4Z"/><path class="cls-2" d="M3073.99,159.95c16.26,16.67,24.4,39.94,24.4,69.8v130h-56v-122.4c0-17.6-4.4-31.13-13.2-40.6-8.8-9.46-20.8-14.2-36-14.2s-27.67,4.74-36.6,14.2c-8.94,9.47-13.4,23-13.4,40.6v122.4h-56v-221.6h56v27.6c7.46-9.6,17-17.13,28.6-22.6,11.6-5.46,24.33-8.2,38.2-8.2,26.4,0,47.73,8.34,64,25Z"/><path class="cls-2" d="M1118.82,472.55l-102.4,279.2h-68l-102.4-279.2h60l76.8,222,76.4-222h59.6Z"/><path class="cls-2" d="M1160.22,580.55c8.93-17.33,21.06-30.66,36.4-40,15.33-9.33,32.46-14,51.4-14,16.53,0,31,3.34,43.4,10,12.4,6.67,22.33,15.07,29.8,25.2v-31.6h56.4v221.6h-56.4v-32.4c-7.2,10.4-17.14,19-29.8,25.8-12.67,6.8-27.27,10.2-43.8,10.2-18.67,0-35.67-4.8-51-14.4-15.34-9.6-27.47-23.13-36.4-40.6-8.94-17.46-13.4-37.53-13.4-60.2s4.46-42.26,13.4-59.6ZM1313.22,605.95c-5.34-9.73-12.54-17.2-21.6-22.4-9.07-5.2-18.8-7.8-29.2-7.8s-20,2.54-28.8,7.6c-8.8,5.07-15.94,12.47-21.4,22.2-5.47,9.74-8.2,21.27-8.2,34.6s2.73,25,8.2,35c5.46,10,12.66,17.67,21.6,23,8.93,5.34,18.46,8,28.6,8s20.13-2.6,29.2-7.8c9.06-5.2,16.26-12.66,21.6-22.4,5.33-9.73,8-21.4,8-35s-2.67-25.26-8-35Z"/><path class="cls-2" d="M1440.81,580.75c9.33-17.2,22.26-30.53,38.8-40,16.53-9.46,35.46-14.2,56.8-14.2,27.46,0,50.2,6.87,68.2,20.6,18,13.74,30.06,33,36.2,57.8h-60.4c-3.2-9.6-8.6-17.13-16.2-22.6-7.6-5.46-17-8.2-28.2-8.2-16,0-28.67,5.8-38,17.4-9.34,11.6-14,28.07-14,49.4s4.66,37.4,14,49c9.33,11.6,22,17.4,38,17.4,22.66,0,37.46-10.13,44.4-30.4h60.4c-6.14,24-18.27,43.07-36.4,57.2-18.14,14.14-40.8,21.2-68,21.2-21.34,0-40.27-4.73-56.8-14.2-16.54-9.46-29.47-22.8-38.8-40-9.34-17.2-14-37.26-14-60.2s4.66-43,14-60.2Z"/><path class="cls-2" d="M1689.81,580.55c8.93-17.33,21.06-30.66,36.4-40,15.33-9.33,32.46-14,51.4-14,16.53,0,31,3.34,43.4,10,12.4,6.67,22.33,15.07,29.8,25.2v-31.6h56.4v221.6h-56.4v-32.4c-7.2,10.4-17.14,19-29.8,25.8-12.67,6.8-27.27,10.2-43.8,10.2-18.67,0-35.67-4.8-51-14.4-15.34-9.6-27.47-23.13-36.4-40.6-8.94-17.46-13.4-37.53-13.4-60.2s4.46-42.26,13.4-59.6ZM1842.81,605.95c-5.34-9.73-12.54-17.2-21.6-22.4-9.07-5.2-18.8-7.8-29.2-7.8s-20,2.54-28.8,7.6c-8.8,5.07-15.94,12.47-21.4,22.2-5.47,9.74-8.2,21.27-8.2,34.6s2.73,25,8.2,35c5.46,10,12.66,17.67,21.6,23,8.93,5.34,18.46,8,28.6,8s20.13-2.6,29.2-7.8c9.06-5.2,16.26-12.66,21.6-22.4,5.33-9.73,8-21.4,8-35s-2.67-25.26-8-35Z"/><path class="cls-2" d="M2036.01,576.15v107.2c0,7.47,1.8,12.87,5.4,16.2,3.6,3.34,9.66,5,18.2,5h26v47.2h-35.2c-47.2,0-70.8-22.93-70.8-68.8v-106.8h-26.4v-46h26.4v-54.8h56.4v54.8h49.6v46h-49.6Z"/><path class="cls-2" d="M2138.6,494.35c-6.54-6.26-9.8-14.06-9.8-23.4s3.26-17.13,9.8-23.4c6.53-6.26,14.73-9.4,24.6-9.4s18.06,3.14,24.6,9.4c6.53,6.27,9.8,14.07,9.8,23.4s-3.27,17.14-9.8,23.4c-6.54,6.27-14.74,9.4-24.6,9.4s-18.07-3.13-24.6-9.4ZM2190.8,530.15v221.6h-56v-221.6h56Z"/><path class="cls-2" d="M2295.6,741.15c-17.07-9.46-30.47-22.86-40.2-40.2-9.74-17.33-14.6-37.33-14.6-60s5-42.66,15-60c10-17.33,23.66-30.73,41-40.2,17.33-9.46,36.66-14.2,58-14.2s40.66,4.74,58,14.2c17.33,9.47,31,22.87,41,40.2,10,17.34,15,37.34,15,60s-5.14,42.67-15.4,60c-10.27,17.34-24.14,30.74-41.6,40.2-17.47,9.47-37,14.2-58.6,14.2s-40.54-4.73-57.6-14.2ZM2381.8,699.15c8.93-4.93,16.06-12.33,21.4-22.2,5.33-9.86,8-21.86,8-36,0-21.06-5.54-37.26-16.6-48.6-11.07-11.33-24.6-17-40.6-17s-29.4,5.67-40.2,17c-10.8,11.34-16.2,27.54-16.2,48.6s5.26,37.27,15.8,48.6c10.53,11.34,23.8,17,39.8,17,10.13,0,19.66-2.46,28.6-7.4Z"/><path class="cls-2" d="M2705.6,551.95c16.26,16.67,24.4,39.94,24.4,69.8v130h-56v-122.4c0-17.6-4.4-31.13-13.2-40.6-8.8-9.46-20.8-14.2-36-14.2s-27.67,4.74-36.6,14.2c-8.94,9.47-13.4,23-13.4,40.6v122.4h-56v-221.6h56v27.6c7.46-9.6,17-17.13,28.6-22.6,11.6-5.46,24.33-8.2,38.2-8.2,26.4,0,47.73,8.34,64,25Z"/><path class="cls-2" d="M2951.99,472.55v279.2h-56v-279.2h56Z"/><path class="cls-2" d="M3202.79,551.95c16.26,16.67,24.4,39.94,24.4,69.8v130h-56v-122.4c0-17.6-4.4-31.13-13.2-40.6-8.8-9.46-20.8-14.2-36-14.2s-27.67,4.74-36.6,14.2c-8.94,9.47-13.4,23-13.4,40.6v122.4h-56v-221.6h56v27.6c7.46-9.6,17-17.13,28.6-22.6,11.6-5.46,24.33-8.2,38.2-8.2,26.4,0,47.73,8.34,64,25Z"/><path class="cls-2" d="M3292.99,494.35c-6.54-6.26-9.8-14.06-9.8-23.4s3.26-17.13,9.8-23.4c6.53-6.26,14.73-9.4,24.6-9.4s18.06,3.14,24.6,9.4c6.53,6.27,9.8,14.07,9.8,23.4s-3.27,17.14-9.8,23.4c-6.54,6.27-14.74,9.4-24.6,9.4s-18.07-3.13-24.6-9.4ZM3345.19,530.15v221.6h-56v-221.6h56Z"/><path class="cls-2" d="M3474.39,576.15v107.2c0,7.47,1.8,12.87,5.4,16.2,3.6,3.34,9.66,5,18.2,5h26v47.2h-35.2c-47.2,0-70.8-22.93-70.8-68.8v-106.8h-26.4v-46h26.4v-54.8h56.4v54.8h49.6v46h-49.6Z"/><path class="cls-2" d="M3576.99,494.35c-6.54-6.26-9.8-14.06-9.8-23.4s3.26-17.13,9.8-23.4c6.53-6.26,14.73-9.4,24.6-9.4s18.06,3.14,24.6,9.4c6.53,6.27,9.8,14.07,9.8,23.4s-3.27,17.14-9.8,23.4c-6.54,6.27-14.74,9.4-24.6,9.4s-18.07-3.13-24.6-9.4ZM3629.18,530.15v221.6h-56v-221.6h56Z"/><path class="cls-2" d="M3692.18,580.55c8.93-17.33,21.06-30.66,36.4-40,15.33-9.33,32.46-14,51.4-14,16.53,0,31,3.34,43.4,10,12.4,6.67,22.33,15.07,29.8,25.2v-31.6h56.4v221.6h-56.4v-32.4c-7.2,10.4-17.14,19-29.8,25.8-12.67,6.8-27.27,10.2-43.8,10.2-18.67,0-35.67-4.8-51-14.4-15.34-9.6-27.47-23.13-36.4-40.6-8.94-17.46-13.4-37.53-13.4-60.2s4.46-42.26,13.4-59.6ZM3845.18,605.95c-5.34-9.73-12.54-17.2-21.6-22.4-9.07-5.2-18.8-7.8-29.2-7.8s-20,2.54-28.8,7.6c-8.8,5.07-15.94,12.47-21.4,22.2-5.47,9.74-8.2,21.27-8.2,34.6s2.73,25,8.2,35c5.46,10,12.66,17.67,21.6,23,8.93,5.34,18.46,8,28.6,8s20.13-2.6,29.2-7.8c9.06-5.2,16.26-12.66,21.6-22.4,5.33-9.73,8-21.4,8-35s-2.67-25.26-8-35Z"/><path class="cls-2" d="M4038.38,576.15v107.2c0,7.47,1.8,12.87,5.4,16.2,3.6,3.34,9.66,5,18.2,5h26v47.2h-35.2c-47.2,0-70.8-22.93-70.8-68.8v-106.8h-26.4v-46h26.4v-54.8h56.4v54.8h49.6v46h-49.6Z"/><path class="cls-2" d="M4140.98,494.35c-6.54-6.26-9.8-14.06-9.8-23.4s3.26-17.13,9.8-23.4c6.53-6.26,14.73-9.4,24.6-9.4s18.06,3.14,24.6,9.4c6.53,6.27,9.8,14.07,9.8,23.4s-3.27,17.14-9.8,23.4c-6.54,6.27-14.74,9.4-24.6,9.4s-18.07-3.13-24.6-9.4ZM4193.17,530.15v221.6h-56v-221.6h56Z"/><path class="cls-2" d="M4349.58,700.15l56-170h59.6l-82,221.6h-68l-81.6-221.6h60l56,170Z"/><path class="cls-2" d="M4709.98,657.75h-162c1.33,16,6.93,28.54,16.8,37.6,9.86,9.07,22,13.6,36.4,13.6,20.8,0,35.6-8.93,44.4-26.8h60.4c-6.4,21.34-18.67,38.87-36.8,52.6-18.14,13.74-40.4,20.6-66.8,20.6-21.34,0-40.47-4.73-57.4-14.2-16.94-9.46-30.14-22.86-39.6-40.2-9.47-17.33-14.2-37.33-14.2-60s4.66-43.06,14-60.4c9.33-17.33,22.4-30.66,39.2-40,16.8-9.33,36.13-14,58-14s39.93,4.54,56.6,13.6c16.66,9.07,29.6,21.94,38.8,38.6,9.2,16.67,13.8,35.8,13.8,57.4,0,8-.54,15.2-1.6,21.6ZM4653.58,620.15c-.27-14.4-5.47-25.93-15.6-34.6-10.14-8.66-22.54-13-37.2-13-13.87,0-25.54,4.2-35,12.6-9.47,8.4-15.27,20.07-17.4,35h105.2Z"/></svg>