<?xml version="1.0" encoding="UTF-8"?><svg id="Layer_1" xmlns="http://www.w3.org/2000/svg" viewBox="0 0 831.02 827.03"><defs><style>.cls-1{fill:#dd7c66;}.cls-1,.cls-2{stroke-width:0px;}.cls-2{fill:#799fcd;}</style></defs><path class="cls-2" d="M99.96,272.84c16.96-29.73,37.33-55.84,61.12-78.35,2.23-2.11,30.45-28.5,65.1-47.89,87.18-48.78,189.09-38.67,217.42-35.12-13,38.38-26,76.76-39,115.13-25.17.2-67.7,4.23-107.84,28.33-14.8,8.89-25.56,18.26-28.8,21.16-18.05,16.11-32.97,35.73-44.75,58.85-17.57,34.46-26.34,74.89-26.34,121.26s8.78,85.98,26.34,120.77c17.55,34.79,42.08,61.63,73.55,80.51,31.47,18.89,67.42,28.33,107.84,28.33,37.77,0,71.07-8.45,99.9-25.34,28.82-16.9,51.19-41.91,67.1-75.04h160.02c-23.2,70.91-63.79,126.08-121.76,165.49-58,39.43-126.08,59.14-204.26,59.14-66.27,0-126.08-15.07-179.41-45.23-53.35-30.14-95.42-72.06-126.23-125.73-30.82-53.67-46.23-114.63-46.23-182.89s15.41-129.37,46.23-183.38Z"/><path class="cls-1" d="M414.22,455.97L559.82,13.97h154.97l-213.21,576.16h-176.79c-25.52-69.31-51.05-138.63-76.57-207.94,45.74-4.53,91.48-9.07,137.22-13.6,9.59,29.13,19.19,58.25,28.78,87.38Z"/></svg>